<?xml version="1.0" encoding="UTF-8"?>
<svg viewBox="0 0 462.85 521.1125" xmlns="http://www.w3.org/2000/svg" xmlns:xlink="http://www.w3.org/1999/xlink">
 <defs>
  <filter id="ak">
   <feGaussianBlur stdDeviation="8.8448"/>
  </filter>
  <filter id="aj" x="-.06799" y="-.18895" width="1.136" height="1.3779">
   <feGaussianBlur stdDeviation="7.28359"/>
  </filter>
  <filter id="ai" x="-.12582" y="-.34113" width="1.2516" height="1.6823">
   <feGaussianBlur stdDeviation="5.46342"/>
  </filter>
  <linearGradient id="a">
   <stop stop-color="#fff" offset="0"/>
   <stop stop-color="#fff" stop-opacity="0" offset="1"/>
  </linearGradient>
  <linearGradient id="c">
   <stop stop-color="#dc0000" offset="0"/>
   <stop stop-color="#ffb200" offset="1"/>
  </linearGradient>
  <linearGradient id="b">
   <stop stop-color="#fff" stop-opacity=".44928" offset="0"/>
   <stop stop-color="#fff" stop-opacity="0" offset="1"/>
  </linearGradient>
  <linearGradient id="ah" x1="181.15" x2="194.54" y1="389.34" y2="118.54" gradientUnits="userSpaceOnUse">
   <stop offset="0"/>
   <stop stop-opacity="0" offset="1"/>
  </linearGradient>
  <linearGradient id="aa" x1="124.57" x2="153.34" y1="931.46" y2="853.1" gradientTransform="matrix(1.3317 0 0 .75092 22.742 -276.15)" gradientUnits="userSpaceOnUse">
   <stop stop-color="#fdffff" offset="0"/>
   <stop stop-color="#fdffff" stop-opacity="0" offset="1"/>
  </linearGradient>
  <linearGradient id="ag" x1="198.88" x2="342.54" y1="246.21" y2="403.09" gradientTransform="matrix(.68311 0 0 1.4639 22.742 -283.6)" gradientUnits="userSpaceOnUse" xlink:href="#a"/>
  <linearGradient id="af" x1="190.53" x2="212.77" gradientUnits="userSpaceOnUse" xlink:href="#b"/>
  <linearGradient id="ae" x1="-1131" x2="-1102.7" y1="404.58" y2="306.76" gradientTransform="matrix(.79621 0 0 1.7063 1125.5 -315.48)" gradientUnits="userSpaceOnUse" xlink:href="#c"/>
  <linearGradient id="ad" x1="322.01" x2="345.29" gradientUnits="userSpaceOnUse" xlink:href="#b"/>
  <linearGradient id="ac" x1="501.4" x2="317.14" y1="384.4" y2="485.78" gradientTransform="matrix(.7951 0 0 1.2577 24.096 -278.86)" gradientUnits="userSpaceOnUse" xlink:href="#a"/>
  <linearGradient id="ab" x1="-916.9" x2="-857.96" y1="438.47" y2="362.16" gradientTransform="matrix(.92675 0 0 1.466 1125.5 -315.48)" gradientUnits="userSpaceOnUse" xlink:href="#c"/>
  <linearGradient id="z" x1="230.94" x2="163.66" y1="927.57" y2="832.44" gradientTransform="matrix(1.3185 0 0 .75843 23.041 -277.35)" gradientUnits="userSpaceOnUse" xlink:href="#a"/>
  <linearGradient id="y" x1="9.655" x2="323.1" y1="256.78" y2="500.8" gradientTransform="matrix(.80597 0 0 1.2408 18.001 -263.96)" gradientUnits="userSpaceOnUse" xlink:href="#a"/>
  <linearGradient id="x" x1="284.69" x2="305.35" gradientUnits="userSpaceOnUse" xlink:href="#b"/>
  <linearGradient id="w" x1="110.45" x2="239.46" y1="244.05" y2="376.9" gradientTransform="matrix(.60192 0 0 1.6614 26.3 -269.45)" gradientUnits="userSpaceOnUse" xlink:href="#a"/>
  <linearGradient id="v" x1="78.646" x2="122.42" y1="743.14" y2="713.55" gradientTransform="matrix(1.156 0 0 .86508 22.742 -276.15)" gradientUnits="userSpaceOnUse" xlink:href="#a"/>
  <linearGradient id="u" x1="-1308.2" x2="-1335" y1="330.2" y2="272.82" gradientTransform="matrix(.70158 0 0 1.9364 1125.5 -315.48)" gradientUnits="userSpaceOnUse" xlink:href="#c"/>
  <linearGradient id="t" x1="-1006.6" x2="-953.88" y1="448.68" y2="299.89" gradientTransform="matrix(.93941 0 0 1.4462 1125.5 -315.48)" gradientUnits="userSpaceOnUse" xlink:href="#c"/>
  <linearGradient id="s" x1="-961.05" x2="-929.04" gradientTransform="matrix(-.5802 -.42153 .40645 -.77422 -466.27 461.47)" gradientUnits="userSpaceOnUse" xlink:href="#b"/>
  <linearGradient id="r" x1="-961.33" x2="-929.51" gradientTransform="matrix(-.019583 -.86239 1.1799 -.025248 -445.95 -360.55)" gradientUnits="userSpaceOnUse" xlink:href="#b"/>
  <linearGradient id="q" x1="-961.12" x2="-929.16" gradientTransform="matrix(.42511 -.53051 .57538 .68663 219.53 -461.45)" gradientUnits="userSpaceOnUse" xlink:href="#b"/>
  <linearGradient id="p" x1="-961.27" x2="-929.41" gradientTransform="matrix(.5769 -.25828 .2613 1.0001 490.26 -420.38)" gradientUnits="userSpaceOnUse" xlink:href="#b"/>
  <linearGradient id="o" x1="82.56" x2="94.621" y1="1126.7" y2="1102.5" gradientTransform="matrix(-.74875 -1.4906 -.5357 .26909 944.83 255.49)" gradientUnits="userSpaceOnUse" xlink:href="#a"/>
  <linearGradient id="n" x1="82.56" x2="94.621" y1="1126.7" y2="1102.5" gradientTransform="matrix(.25641 -1.6483 -.59236 -.092149 851 668.48)" gradientUnits="userSpaceOnUse" xlink:href="#a"/>
  <linearGradient id="m" x1="82.56" x2="94.621" y1="1126.7" y2="1102.5" gradientTransform="matrix(-.70286 -1.5128 .54367 -.2526 -290.4 830.24)" gradientUnits="userSpaceOnUse" xlink:href="#a"/>
  <linearGradient id="l" x1="82.56" x2="94.621" y1="1126.7" y2="1102.5" gradientTransform="matrix(.69089 -1.5183 .54565 .24829 -495.04 283.93)" gradientUnits="userSpaceOnUse" xlink:href="#a"/>
  <linearGradient id="k" x1="82.56" x2="94.621" y1="1126.7" y2="1102.5" gradientTransform="matrix(1.1701 -1.1889 .42727 .4205 -456.67 35.746)" gradientUnits="userSpaceOnUse" xlink:href="#a"/>
  <linearGradient id="j" x1="82.56" x2="94.621" y1="1126.7" y2="1102.5" gradientTransform="matrix(1.553 .60876 -.21878 .55814 242.02 -319.14)" gradientUnits="userSpaceOnUse" xlink:href="#a"/>
  <linearGradient id="i" x1="96.398" x2="142.51" y1="789.25" y2="733.95" gradientTransform="matrix(1.156 0 0 .86508 22.442 -276.15)" gradientUnits="userSpaceOnUse" xlink:href="#a"/>
  <linearGradient id="h" x1="82.56" x2="94.621" y1="1126.7" y2="1102.5" gradientTransform="matrix(1.6681 0 0 .59948 24.837 -275.56)" gradientUnits="userSpaceOnUse" xlink:href="#a"/>
  <linearGradient id="g" x1="-960.98" x2="-928.93" gradientTransform="matrix(-.51746 -.4067 .36243 -.74685 -331.74 418.2)" gradientUnits="userSpaceOnUse" xlink:href="#b"/>
  <linearGradient id="f" x1="82.56" x2="94.621" y1="1126.7" y2="1102.5" gradientTransform="matrix(-1.2948 -1.0517 -.37798 .46531 867.81 -33.651)" gradientUnits="userSpaceOnUse" xlink:href="#a"/>
  <linearGradient id="e" x1="82.56" x2="94.621" y1="1126.7" y2="1102.5" gradientTransform="matrix(1.1002 -1.2538 .4506 .39539 -311.02 864.05)" gradientUnits="userSpaceOnUse" xlink:href="#a"/>
  <linearGradient id="d" x1="78.646" x2="122.42" y1="743.14" y2="713.55" gradientTransform="matrix(-.34546 -1.1031 .82555 -.25853 -265.09 1483.1)" gradientUnits="userSpaceOnUse" xlink:href="#a"/>
 </defs>
 <path d="m215.89 37.057-4.6875 5.125c-9.3097 12.174-23.427 23.408-22.688 40.281-0.10026 14.029 5.4291 27.118 9.5625 40.281 0.82482-0.94154 1.646-1.9162 2.4688-2.9062 0.17906 0.48406 0.3452 0.94467 0.53125 1.4375 7.1606-8.2454 10.274-14.325 11.312-19.656 1.7367 6.4564 3.0056 12.73 3.8438 18.812 0.10305 2.7037 0.27222 5.5072 0.5 8.4062-7.7969 32.631-26.872 44.457-23.406 79.687-2.8877-19.637-4.8866-36.686-0.84375-51.125-2.3102-17.904-4.6273-33.2-22.531-45.906 5.4867 22.236 11.833 55.751-6.9375 64.125-2.9918 6.1499-12.854 20.902-15.25 43.281-1.3265 4.2525-2.4326 8.5912-3.25 12.969-0.85688 5.2361-1.0897 10.498-0.78125 15.719-0.32578 7.7954 0.53414 15.606 2.8125 23.312 0.423 1.1803 0.86294 2.3314 1.3125 3.4688-4.1872-2.0214-8.3753-4.469-12.562-8.6562 8.2559 24.398 18.571 43.882 31.938 58.5l-31.625 17.906-0.3125-0.1875-5.0938 9.8438 4.9375 3.375-39.062 10.781c-1.2135 0.05698-2.4182 0.27927-3.5938 0.6875-8.8319 3.0671-12.746 15.262-8.7188 27.219s14.481 19.192 23.312 16.125c1.0812-0.37545 2.0722-0.89945 3-1.5312l0.09375 0.21875 50.125-36.25 3.5938 2.4688 8.5938-5-5.9375 9.4688 0.3125 0.09375-0.8125 6.8125-27.031 23.094c-1.7862 0.63922-3.4073 1.5958-4.75 2.9688-2.9516 3.0179-4.0575 7.3055-3.5 11.844 4.9e-4 0.01055-5.1e-4 0.02069 0 0.03125 0.02329 0.18709 0.03352 0.37459 0.0625 0.5625 0.29768 3.5506 1.7868 7.3488 4.375 10.438 0.34243 0.40863 0.70222 0.79477 1.0625 1.1562 0.63929 0.7765 1.3191 1.5231 2.0625 2.25 8.3974 8.2107 20.184 9.7671 26.344 3.4688 1.8071-1.8477 2.9368-4.1566 3.4062-6.7188l29.094-42.875 9.4375 0.9375 1.4688 0.53125 0.15625-0.34375 1.3438 0.125-0.28125-2.5312 4.625-10.281 0.90625 50.125c-0.57231 1.711-0.84887 3.5132-0.8125 5.375 0.20005 10.242 10.211 18.302 22.344 18 0.80294-0.01997 1.5957-0.09712 2.375-0.1875 0.60349-0.05755 1.1979-0.15043 1.7812-0.25l0.65625-0.125c2.0414-0.40935 3.9372-1.0741 5.625-1.9375l0.09375-0.03125c0.47321-0.24504 0.93676-0.50548 1.375-0.78125 5.9527-3.461 9.846-9.27 9.7188-15.781-0.05355-2.7416-0.81303-5.3451-2.125-7.6562l-14.406-51.906 8.9688 5.8438 39.938 53.031c1.133 1.7703 2.5901 3.3012 4.375 4.4688 5.7711 3.7753 13.186 2.7451 18.812-1.9688 2.3851-1.1134 4.5637-3.2105 6.0938-6.125 1.7219-3.2799 2.2966-6.9727 1.8125-10.281 0.1186-3.9916-0.9084-7.8055-2.9375-10.875l0.4375-0.3125-1.5938-1.25c-0.89072-1.0372-1.896-1.9557-3.0625-2.7188-0.48633-0.31814-0.99199-0.5933-1.5-0.84375l-27.531-21.594 7.7188-2.1875v-11.281l-0.0625 0.03125v-0.1875l-1.1562 0.375-15.469-8.4375c1.0484-0.06387 2.09-0.14994 3.125-0.25l62.438 35.781c0.76662 0.79765 1.6092 1.5134 2.5625 2.125 1.3537 0.86846 2.8182 1.4572 4.3125 1.8125l1.4062 0.8125 0.1875-0.53125c6.3978 0.75822 13.327-2.7756 17.344-9.5312 0.42704-0.71831 0.78916-1.4447 1.125-2.1875 0.11256-0.2083 0.23804-0.40717 0.34375-0.625 1.9073-3.9303 2.215-8.4705 1.125-12.156-0.8901-4.1057-3.1074-7.7321-6.5938-9.9688-0.19715-0.12648-0.39278-0.22843-0.59375-0.34375l0.0625-0.1875-0.8125-0.1875c-1.8384-0.91196-3.8102-1.3747-5.8125-1.4375l-30.938-7.6562 18.844-20.844-7.2812-7.9688-0.6875 0.8125-2.0938-0.125c8.7161-14.518 11.69-33.141 6.25-54.406-6.9806 12.844-11.544 19.99-23.062 23.844 3.5118-13.996 1.0089-28.637 0.5-42.875 0.15099-4.7895 0.85161-9.4802 2.0312-14.031-0.43124 11.084 3.476 21.676 5.9375 32.344 0.80482-0.76799 1.6237-1.5633 2.4375-2.375 0.29267 1.0092 0.57933 2.0381 0.90625 3.0938 12.152-11.71 13.131-18.362 12.281-25.75 0.16276-2.1063 0.01499-4.2872-0.53125-6.5312-0.01124-2.8615-1.1025-5.524-1.75-8.1875 1.1704-4.9584 4.6715-12.053 8.1875-23.656-0.90069 1.042-1.8064 2.0551-2.7188 3 1.5714-4.5159 3.0085-9.0914 4.1562-13.75l-5.125 4.6562c-3.2416 3.4314-6.9775 6.8089-10.5 10.344 4.5798-6.0688 9.9321-11.565 15.781-16.312 0.03706-0.05338 0.0591-0.10374 0.09375-0.15625l0.90625-0.75c-0.16084 0.01543-0.30867 0.04661-0.46875 0.0625 1.832-3.6928-2.7915-4.9745-6.125-5.0625-10.952 1.5529-22.036 5.3926-31.594 11.375 5.4336-18.59 5.5006-38.651-8.5938-55.781-4.4822 14.941-9.5475 27.029-16.656 38.219-2.3904-6.9672-6.4356-13.544-10.969-19.625 3.2623-14.353 5.03-28.494-0.09375-43.719 1.4438-20.214-31.774-19.609-32.062-81.406-14.628 18.435-23.427 33.94-26.375 55.219-2.4884-3.4477-4.4781-5.8266-3.2188 1.875 0.0649 1.4106 0.15718 2.8106 0.28125 4.2188-0.53555-0.83095-1.0717-1.6714-1.625-2.5 0.28217-2.1961 0.22144-4.2884-0.03125-6.375 2.7e-4 -2.1117-0.26998-4.2822-0.875-6.4688 0.02201-4.5854-2.7242-8.2938-3.5938-12.438 0.57019-5.8297 3.9777-14.363 6.9062-28.75-0.41585 0.58194-0.82823 1.163-1.25 1.7188 0.83942-3.5586 1.589-7.1548 2.0938-10.781zm82.25 61.844-1.4375 6.75c-1.8714 7.9803-1.0254 16.775-4.5 24.219-8.1411 6.2194-11.695 17.786-8.125 27.594 0.84386 6.2584 2.5416 8.564 5.3125 6 0.13654 0.41871 0.25666 0.81493 0.40625 1.25 16.208-16.613 18.929-26.484 17.469-35.469-0.07089-2.765-0.57605-5.5466-1.6562-8.3438-2.5003-7.3188-4.6838-14.777-7.4688-22z" fill="url(#ah)" fill-rule="evenodd" filter="url(#ak)"/>
 <path d="m350.15 401.03-77.102-44.182 12.995-10.396 77.102 19.059-12.995 35.519z" fill="#924b00" fill-rule="evenodd" stroke="#000" stroke-linejoin="bevel" stroke-opacity=".34351" stroke-width="1.9007"/>
 <path d="m340.42 373.48c5.3105-8.9326 15.728-12.264 23.252-7.4366s9.3219 15.995 4.0114 24.928-15.728 12.264-23.252 7.4366-9.3219-15.995-4.0114-24.928z" fill="#c15300" stroke="#000" stroke-linejoin="bevel" stroke-opacity=".34351" stroke-width="1.9007"/>
 <path d="m354.89 383.43c0.58182-0.48758 0.88939 0.62657 0.74269 1.0692-0.39756 1.1994-1.8628 1.1801-2.6768 0.55162-1.4559-1.1242-1.3637-3.4575-0.294-4.8283 1.5698-2.0117 4.423-1.7887 6.0962-0.03407 2.2302 2.3386 1.9486 6.3056-0.15469 8.5875-2.6468 2.8714-7.0175 2.4222-9.5156-0.48347-3.0255-3.5191-2.5448-9.17 0.60338-12.347 3.71-3.7436 9.62-3.0625 12.935 1.001 3.8274 4.6915 3.1448 12.04-1.0521 16.106-4.7688 4.6203-12.226 3.7057-16.355-1.5186-4.6321-5.8608-3.7466-14.912 1.5008-19.865 5.8256-5.4992 14.833-4.3502 19.774 2.0361" fill="none" stroke="#000" stroke-linejoin="bevel" stroke-opacity=".34351" stroke-width="1.9007"/>
 <path d="m306.39 354.84c-7.1178 6.1617-11.784 4.6658-24.024 7.0473 17.033 8.6308 38.848 22.989 56.698 31.913-3.7554-7.6019-3.2232-17.34 0.0927-25.408-10.66-0.6612-24.269-3.2597-32.766-13.552z" fill="url(#f)" fill-rule="evenodd"/>
 <path d="m353.47 375.85c3.0517-6.2885 9.0378-8.6339 13.362-5.2353s5.3568 11.261 2.3051 17.549-9.0378 8.6339-13.362 5.2353-5.3568-11.261-2.3051-17.549z" fill="url(#g)"/>
 <path d="m91.99 366.38 50.246-13.861 39.851 3.4653-71.904 51.979-6.9306-15.594-11.262-25.99z" fill="#924b00" fill-rule="evenodd" stroke="#000" stroke-linejoin="bevel" stroke-opacity=".34351" stroke-width="1.9007"/>
 <path d="m147.43 420.96 18.193 17.326 32.92-48.514-9.5295-9.5295-14.727-1.7326-41.583 35.519 14.727 6.9306z" fill="#924b00" fill-rule="evenodd" stroke="#000" stroke-linejoin="bevel" stroke-opacity=".34351" stroke-width="1.9007"/>
 <path d="m242.73 434.82 13.861-5.1979-26.856-97.028-16.46 11.262 1.7326 96.161 27.722-5.1979z" fill="#924b00" fill-rule="evenodd" stroke="#000" stroke-linejoin="bevel" stroke-opacity=".34351" stroke-width="1.9007"/>
 <path d="m300.77 437.42-10.396-3.4652-50.246-66.707 14.727-8.6632 64.108 50.246-15.594 11.262-2.599 17.326z" fill="#924b00" fill-rule="evenodd" stroke="#000" stroke-linejoin="bevel" stroke-opacity=".34351" stroke-width="1.9007"/>
 <path d="m180.81 316.6-44.75 25.312-0.3125-0.1875-5.0938 9.8438 33.688 23.094 8.625-5-5.9375 9.4688 0.28125 0.09375-1.3125 11 28.281 1.7188 12.906 1.2812 1.3438 0.46875 0.15625-0.3125 1.3438 0.125-0.28125-2.5625 12.656-28.188 40.688 26.625 30.344-8.6562v-11.281l-0.0625 0.03125v-0.1875l-1.1562 0.375-61.156-33.375v-12.75l-16.188 4.0312-0.6875-0.375-12.594 3.5312-20.781-14.125zm77.219 31.188z" fill-rule="evenodd" filter="url(#aj)"/>
 <path d="m115.78 382.05c4.0275 11.957 0.12816 24.151-8.7038 27.218s-19.269-4.1481-23.296-16.105-0.12816-24.151 8.7038-27.218 19.269 4.1481 23.296 16.105z" fill="#c15300" stroke="#000" stroke-linejoin="bevel" stroke-opacity=".34351" stroke-width="1.9007"/>
 <path d="m160.64 415.1c8.3974 8.2107 10.213 19.986 4.0536 26.284s-17.974 4.7462-26.372-3.4645-10.213-19.986-4.0536-26.284 17.974-4.7462 26.372 3.4645z" fill="#c15300" stroke="#000" stroke-linejoin="bevel" stroke-opacity=".34351" stroke-width="1.9007"/>
 <path d="m235.64 416.62c12.133-0.30183 22.143 7.7653 22.343 18.007s-9.4848 18.799-21.618 19.101-22.143-7.7653-22.343-18.007 9.4848-18.799 21.618-19.101z" fill="#c15300" stroke="#000" stroke-linejoin="bevel" stroke-opacity=".34351" stroke-width="1.9007"/>
 <path d="m290.65 412.58c5.3985-9.259 15.988-12.712 23.638-7.7083s9.4763 16.58 4.0778 25.839-15.988 12.712-23.638 7.7083-9.4763-16.58-4.0778-25.839z" fill="#c15300" stroke="#000" stroke-linejoin="bevel" stroke-opacity=".34351" stroke-width="1.9007"/>
 <path d="m135.38 341.58 44.974-25.445 24.257 16.46-22.454 30.97-18.263 10.613-28.514-32.599z" fill="#994200" fill-rule="evenodd" stroke="#000" stroke-opacity=".20229" stroke-width="1.4255"/>
 <path d="m166.57 378.66 29.38-46.93 34.653-8.6632v19.925l-22.524 50.246-41.509-14.578z" fill="#994200" fill-rule="evenodd" stroke="#000" stroke-opacity=".20229" stroke-width="1.4255"/>
 <path d="m135.31 341.26-5.1 9.8275 33.688 23.093 3.7535-14.042-32.342-18.878z" fill="#c15300" fill-rule="evenodd" stroke="#000" stroke-opacity=".20229" stroke-width="1.4255"/>
 <path d="m207.61 381.53 0.4386 10.779-42.492-2.5587 1.3367-11.239 40.717 3.0182z" fill="#c15300" fill-rule="evenodd" stroke="#000" stroke-opacity=".20229" stroke-width="1.4255"/>
 <path d="m97.362 386.42c0.12744 0.93639-0.87928 0.42116-1.1617-0.05034-0.7653-1.2777-0.10978-2.7175 0.73804-3.0623 1.5165-0.61681 3.303 1.1929 3.9087 3.2637 0.8889 3.039-0.53272 5.706-2.6378 6.0744-2.8057 0.4909-5.7885-2.7097-6.6558-6.4771-1.0913-4.7409 1.1708-8.7471 4.5375-9.0864 4.0776-0.41087 8.2916 4.2273 9.4028 9.6905 1.3094 6.4381-1.8068 11.801-6.4372 12.098-5.346 0.34326-10.801-5.745-12.15-12.904-1.5331-8.1343 2.4421-14.86 8.3369-15.11 6.6131-0.28071 13.312 7.2627 14.897 16.117 1.7593 9.8302-3.0769 17.922-10.237 18.122" fill="none" stroke="#000" stroke-linejoin="bevel" stroke-opacity=".34351" stroke-width="1.9007"/>
 <path d="m147.24 426.16c0.61909 0.714-0.50547 0.83367-0.99986 0.59358-1.3398-0.65063-1.579-2.2144-1.0581-2.967 0.93177-1.3462 3.4173-0.8091 5.0575 0.59269 2.4071 2.0572 2.6767 5.0674 1.1163 6.5276-2.0797 1.9462-6.3277 0.8997-9.1152-1.779-3.5078-3.3708-3.8068-7.9619-1.1746-10.088 3.188-2.5752 9.2533-0.99924 13.173 2.9652 4.6191 4.672 4.9456 10.866 1.2328 13.649-4.2866 3.2128-12.184 1.102-17.231-4.1515-5.7345-5.9693-6.088-13.774-1.291-17.209 5.3814-3.8539 15.116-1.2061 21.288 5.3378 6.8519 7.265 7.2321 16.684 1.3492 20.77" fill="none" stroke="#000" stroke-linejoin="bevel" stroke-opacity=".34351" stroke-width="1.9007"/>
 <path d="m234.69 436.26c0.80521 0.23972 0.07272 1.0996-0.40017 1.21-1.2815 0.29915-2.2565-0.97113-2.2765-2.0069-0.0358-1.8527 1.9963-3.0204 3.8772-2.8332 2.7602 0.27472 4.5021 2.8473 4.1528 5.2238-0.46556 3.1675-4.005 5.0455-7.3542 4.4564-4.2146-0.74132-6.7921-4.7398-6.0291-8.4407 0.92408-4.4823 6.0198-7.0889 10.831-6.0796 5.6701 1.1895 9.0932 6.6353 7.9054 11.658-1.3714 5.7984-8.0363 9.1384-14.308 7.7028-7.1265-1.6313-11.399-8.5321-9.7817-14.874 1.8141-7.1152 10.054-11.191 17.785-9.3259 8.5834 2.0704 13.707 10.429 11.658 18.091" fill="none" stroke="#000" stroke-linejoin="bevel" stroke-opacity=".34351" stroke-width="1.9007"/>
 <path d="m304.99 421.92c0.57596-0.25532 0.489 0.77348 0.25256 1.109-0.64073 0.90931-1.7354 0.49431-2.1672-0.26028-0.77233-1.3498-0.03734-3.304 1.1569-4.1758 1.7526-1.2794 3.8312-0.31404 4.5869 1.6296 1.0072 2.5905-0.33611 5.8791-2.5664 7.2426-2.8066 1.7158-5.96 0.14554-7.0066-2.9989-1.2675-3.8083 0.70578-8.4711 3.9759-10.309 3.8537-2.1663 8.0967 0.01925 9.4263 4.3682 1.5351 5.021-1.074 11.069-5.3853 13.376-4.8988 2.622-10.236-0.18251-11.846-5.7375-1.8056-6.2319 1.4416-13.669 6.7948-16.443 5.943-3.08 12.378 0.34502 14.266 7.1068" fill="none" stroke="#000" stroke-linejoin="bevel" stroke-opacity=".34351" stroke-width="1.9007"/>
 <path d="m208.25 380.47 1.3367 12.576-43.39-4.355 1.3367-11.239 40.717 3.0182z" fill="url(#h)" fill-rule="evenodd"/>
 <path d="m168.4 377.6 18.902-31.662 7.709 0.9168 21.256 12.74-9.0524 21.806-38.814-3.8009z" fill="url(#i)" fill-rule="evenodd"/>
 <path d="m165.29 361.27-1.8479 11.597-32.222-21.985 5.346-9.9757 28.724 20.364z" fill="url(#j)" fill-rule="evenodd"/>
 <path d="m140.04 359.91 19.518 12.244c-14.445 9.9133-27.602 18.861-43.334 29.74 2.8887-7.9717 3.2032-17.23-0.9873-24.88 10.52-1.8398 17.501-5.932 24.804-17.104z" fill="url(#k)" fill-rule="evenodd"/>
 <path d="m171.55 390.97c9.1206 0.6348 15.023 0.3042 24.466 1.2608-9.5208 13.947-15.268 23.007-27.275 38.946-0.02307-8.4789-4.8365-16.961-11.398-22.708 9.2497-5.3391 11.184-4.4996 14.208-17.499z" fill="url(#l)" fill-rule="evenodd"/>
 <path d="m224.11 365.22c7.7133 5.6363 12.209 7.4113 16.704 9.8298 4.2158 17.004 7.9792 28.604 12.647 47.152-6.4516-5.5017-15.012-9.0443-23.646-7.8038 1.9679-10.497 2.1936-38.42-5.7061-49.178z" fill="url(#m)" fill-rule="evenodd"/>
 <path d="m223.63 363.88c-4.2603 5.9003-6.5899 10.835-9.5631 15.448 0.65837 17.507 0.68033 28.578 1.3315 47.694 5.3192-8.3604 11.92-12.848 20.559-14.047-4.798-9.5416-16.939-36.571-12.328-49.095z" fill="url(#n)" fill-rule="evenodd"/>
 <path d="m262.94 388.47c-3.7293-2.0779-0.45164 1.2645-9.8503-5.074 10.05 13.571 21.501 29.294 34.113 44.76-2.983-10.005 4.1809-17.135 10.517-23.13-9.4481-4.9795-17.091-18.998-34.779-16.557z" fill="url(#o)" fill-rule="evenodd"/>
 <path d="m100.69 382.77c2.1992 8.4177 0.06999 17.002-4.7528 19.161s-10.522-2.9202-12.721-11.338-0.06999-17.002 4.7528-19.161 10.522 2.9202 12.721 11.338z" fill="url(#p)"/>
 <path d="m148.09 418.45c4.8437 5.7803 5.8912 14.07 2.3382 18.504s-10.368 3.3413-15.212-2.439-5.8912-14.07-2.3382-18.504 10.368-3.3413 15.212 2.439z" fill="url(#q)"/>
 <path d="m236.3 427.51c9.93-0.21249 18.122 5.4667 18.286 12.677s-7.7626 13.234-17.693 13.447-18.122-5.4667-18.286-12.677 7.7626-13.234 17.693-13.447z" fill="url(#r)"/>
 <path d="m302.09 417.57c3.422-6.5183 10.135-8.9494 14.983-5.4266s6.0068 11.672 2.5848 18.19-10.135 8.9494-14.983 5.4266-6.0068-11.672-2.5848-18.19z" fill="url(#s)"/>
 <path d="m135.31 265.02c19.348 57.177 49.958 87.498 104.82 90.964 60.354 19.348 116.38-20.214 100.49-82.3-7.2193 13.284-11.84 20.503-24.257 24.257 4.9092-34.364-26.567-40.139-11.262-77.102 10.685-22.813 17.038-50.824-1.7326-73.637-7.7969 25.99-17.326 43.316-36.385 62.375 2.0214-31.765 18.77-57.466 8.6632-87.498 1.4439-20.214-31.765-19.637-32.054-81.434-21.08 26.567-30.032 47.07-26.856 87.498-7.7969 32.631-26.856 44.471-23.391 79.701-2.8877-19.637-4.9091-36.674-0.86633-51.113-2.3102-17.904-4.6204-33.209-22.524-45.915 5.4867 22.236 11.84 55.733-6.9306 64.108-5.1979 10.685-31.187 47.359-2.599 104.82-8.3744-4.9091-16.749-6.353-25.123-14.727z" fill="url(#t)" fill-rule="evenodd" stroke="#ff0" stroke-opacity=".50382" stroke-width="2.1563"/>
 <path d="m237.31 53.087c-14.993 19.685-21.351 44.824-19.44 69.337 1.4282 11.987-4.9447 23.146-9.4816 33.854-8.3427 15.962-15.89 33.394-13.608 51.836-0.65803 10.627-5.3792-0.0876-4.882-5.4325-2.261-15.035-3.228-30.627-0.14386-45.521-1.5545-14.494-5.2259-30.205-17.194-39.73 3.554 17.204 8.1721 36.594-0.40625 53.031-3.0778 5.5067-9.9624 7.0124-11.401 13.625-14.443 25.3-15.531 56.843-4.5658 83.628 2.2819 6.1006 5.2584 11.924 7.8421 17.903-8.0473-4.5949-16.878-7.7132-24.656-12.75 10.774 31.546 31.26 62.581 63.599 74.858 12.718 5.4142 26.586 6.4191 40.022 8.5564 29.45 9.1939 65.997 3.1529 85.427-22.475 11.416-14.827 14.587-34.836 10.701-52.908-5.1426 10.401-14.054 18.83-25.562 21.5 2.648-13.353-1.3835-26.715-8.2821-38.137-7.4472-12.187-9.1982-27.592-3.255-40.759 9.0174-19.765 15.833-43.683 5.3314-64.253-3.25-9.4961-5.5378-3.6668-7.1843 3.0592-6.8663 21.121-20.731 39.089-36.422 54.496 1.0866-21.548 8.6046-41.935 11.8-63.117 1.8243-10.791-0.2714-21.619-2.5305-32.069-1.5378-11.742-13.776-17.766-18.939-27.821-9.2013-13.374-12.262-29.995-12.799-45.962l-3.9688 5.25z" fill="url(#y)" fill-rule="evenodd"/>
 <path d="m234.07 347.32c-45.915-48.514-53.712-82.3-23.391-114.35 34.075-60.642 25.701-98.76 0.86632-135.15 23.391 80.568-27.722 132.55-44.182 155.94-9.8183-30.321-1.4439-43.316 12.128-80.568-26.567 28.877-42.738 63.819-32.92 97.028 17.904 49.958 60.065 60.931 87.498 77.102z" fill="url(#u)" fill-rule="evenodd" stroke="#ff0" stroke-opacity=".50382" stroke-width="2.1563"/>
 <path d="m289.79 164.02c-6.1548-17.901-1.1322-21.735 4.2592-29.555 5.5616-2.1661 3.857-9.7187 6.8919-26.538 4.5952 18.773 16.931 27.309-11.151 56.093z" fill="#ffd700" fill-rule="evenodd" stroke="#ff0" stroke-opacity=".50382" stroke-width="2.1563"/>
 <path d="m168.17 360.4 13.065-5.9387" fill="none" stroke="#000" stroke-opacity=".17939" stroke-width="1.3576"/>
 <path d="m137.42 341.68 26.985-14.897 22.079 17.682-5.3887 9.1479-13.842 5.939-29.833-17.872z" fill="url(#v)" fill-rule="evenodd"/>
 <path d="m296.71 104.99c-1.8714 7.9803-1.0254 16.775-4.5 24.219-8.1411 6.2194-11.691 17.776-8.1212 27.584 1.1083 8.2199 3.6793 9.638 8.2371 2.1319 9.7319-10.014 18.837-24.363 13.296-38.712-2.5003-7.3188-4.6896-14.749-7.4746-21.972l-1.4375 6.75z" fill="url(#x)" fill-rule="evenodd"/>
 <path d="m198.55 341.26 64.108 43.316 30.321-14.727-76.236-41.583-21.658 6.0642 3.4653 6.9305z" fill="#994200" fill-rule="evenodd" stroke="#000" stroke-opacity=".20229" stroke-width="1.4255"/>
 <path d="m207.37 380.99 10.294-20.983" fill="none" stroke="#000" stroke-opacity=".17939" stroke-width="1.3576"/>
 <path d="m195.53 339.72 64.108 43.316 30.321-14.727-76.236-41.583-21.658 6.0642 3.4653 6.9306z" fill="url(#z)" fill-rule="evenodd"/>
 <path d="m195.08 334.33v10.396l67.573 44.182 30.321-8.6632v-11.262l-27.722 8.6632-70.172-43.316z" fill="#c15300" fill-rule="evenodd" stroke="#000" stroke-opacity=".20229" stroke-width="1.4255"/>
 <path d="m195.02 334.18v10.396l67.573 44.182 30.321-8.6632v-11.262l-27.722 8.6631-70.172-43.316z" fill="url(#aa)" fill-rule="evenodd"/>
 <path d="m281.37 323.77-20.656 22.5 66.562 8.625 0.875 0.90625 19.406-21.469-7.2812-7.9688-0.6875 0.8125-58.219-3.4062z" fill-rule="evenodd" filter="url(#ai)"/>
 <g transform="translate(34.258 -832.81)">
  <path d="m307.14 1159-58.984-3.4653-20.666 22.524 67.89 8.7611 11.76-27.82z" fill="#994200" fill-rule="evenodd" stroke="#000" stroke-opacity=".20229" stroke-width="1.4255"/>
  <path d="m288.13 1180.4 6.8092 7.1775 19.408-21.486-7.2796-7.9693-18.938 22.277z" fill="#c15300" fill-rule="evenodd" stroke="#000" stroke-opacity=".20229" stroke-width="1.4255"/>
  <path d="m288.92 1180.4-46.322-6.3346" fill="none" stroke="#000" stroke-opacity=".17939" stroke-width="1.3576"/>
  <path d="m307.55 1159.2 5.8435 6.9901-18.42 20.761-6.3685-7.2198 18.945-20.531z" fill="url(#e)" fill-rule="evenodd"/>
  <path d="m287.85 1179.8-39.046-5.7325 23.978-16.256 15.798 0.6934 16.391 0.6574-17.12 20.638z" fill="url(#d)" fill-rule="evenodd"/>
 </g>
 <path d="m329.36 273.69c15.883-15.305 12.706-21.947 11.262-32.92-4.6204-5.1979 1.1551-12.128 6.9306-31.188-14.727 17.038-32.054 19.348-18.193 64.108z" fill="#ffd700" fill-rule="evenodd" stroke="#ff0" stroke-opacity=".50382" stroke-width="2.1563"/>
 <path d="m254.86 347.32c17.904-10.107 22.813-41.872 25.123-77.102 4.3316-34.075 12.995-68.15 70.172-73.637-23.391 18.77-42.45 41.872-33.786 84.899-2.3102 62.664-48.803 60.354-61.509 65.84z" fill="url(#ab)" fill-rule="evenodd" stroke="#ff0" stroke-opacity=".50382" stroke-width="2.1563"/>
 <path d="m343.56 191.6c-24.381 3.4569-49.512 18.105-56.668 42.983-11.484 31.097-5.138 66.49-20.8 96.361-5.9481 2.585-4.494 13.674 2.8518 11.505 21.516-3.9012 41.938-18.849 47.389-40.786 5.2576-15.234 2.2764-31.35 1.717-46.997 0.71542-22.693 13.855-43.158 31.105-57.159 3.0196-4.349-2.0166-5.8119-5.5938-5.9063z" fill="url(#ac)" fill-rule="evenodd"/>
 <path d="m343.86 203.49c-9.825 10.4-24.078 20.133-23.735 36.124-0.72619 11.456 3.3535 22.38 5.8909 33.376 8.5287-8.1385 18.223-18.74 15.099-31.575-0.02222-5.6554-4.2846-10.602-0.93838-16.113 3.2139-8.7256 6.5759-17.408 8.8082-26.469l-5.125 4.6562z" fill="url(#ad)" fill-rule="evenodd"/>
 <path d="m223.67 323.93c-2.3102-27.722-5.4867-47.648 29.455-72.771 59.198-41.294 30.032-65.263-6.9306-108.29 10.973 42.738-6.6418 76.814-21.658 99.627-9.8183 14.15-43.893 43.027-0.86631 81.434z" fill="url(#ae)" fill-rule="evenodd" stroke="#ff0" stroke-opacity=".50382" stroke-width="2.1563"/>
 <path d="m201.09 120.58c15.988-18.41 11.882-25.988 9.2708-38.664-5.5549-5.8435 0.13128-14.122 4.6817-36.476-14.559 20.374-33.348 23.763-13.952 75.141z" fill="#ffd700" fill-rule="evenodd" stroke="#ff0" stroke-opacity=".50382" stroke-width="2.1563"/>
 <path d="m211.21 41.518c-9.3097 12.174-23.427 23.408-22.688 40.281-0.10028 14.029 5.4291 27.118 9.5625 40.281 8.4403-9.6347 17.42-21.87 13.664-35.446 0.02575-5.3716-3.737-9.5419-3.8454-14.615 2.0569-11.975 6.3126-23.543 7.9944-35.626l-4.6875 5.125z" fill="url(#af)" fill-rule="evenodd"/>
 <path d="m245.3 135.71c6.4051 29.135-0.19164 59.828-14.936 85.425-9.1536 17.597-27.201 31.074-28.921 52.011-2.7585 18.244 10.387 33.451 22.569 45.241 4.9618 6.239 0.70889-8.5105 1.3842-11.963-1.9797-17.949 1.0987-38.088 15.582-50.4 16.125-15.687 39.124-26.562 46.848-49.109 5.2243-19.913-8.6967-37.762-20.839-51.902-7.3227-8.8853-15.043-17.406-22.72-25.99l1.0312 6.6875z" fill="url(#ag)" fill-rule="evenodd"/>
 <path d="m216.21 109.86c0.63387 13.778 4.5511 27.421 2.7573 41.328-1.5823 32.467-15.848 62.999-35.542 88.414-3.6534 5.1912-7.5445 10.209-11.309 15.32-5.0342-16.773-2.7616-34.858 4.0186-50.775 3.5705-8.5047 6.0765-17.332 7.3876-26.475-18.821 17.169-32.104 40.574-36.781 65.625-3.7916 23.169 4.3591 46.99 19.73 64.403 19.327 22.801 47.117 35.614 74.051 47.066-15.262-21.468-36.508-40.839-41.02-67.962-3.095-15.749 3.1067-31.557 13.45-43.332 11.839-16.266 19.213-35.615 23.594-55.146 5.6889-25.436 1.1286-52.94-12.773-74.997-3.4304-2.5077-9.56-15.684-7.5625-3.4688z" fill="url(#w)" fill-rule="evenodd"/>
</svg>
