<?xml version="1.0" encoding="UTF-8"?>
<svg width="138.72853" height="112.87833" viewBox="0 0 138.72853 112.87833" xmlns="http://www.w3.org/2000/svg" xmlns:xlink="http://www.w3.org/1999/xlink">
 <defs>
  <clipPath id="m">
   <path d="m94.316 115.7c-3.5026-0.25134-6.5955-0.77121-9.9323-1.6694-5.1209-1.3785-8.5232-3.2765-11.945-6.6632-2.2209-2.1984-2.553-2.6576-3.8353-5.3033-1.5643-3.2276-2.7086-6.4947-3.4822-9.942-0.5002-2.229-1.2554-7.271-1.1123-7.4256 0.0389-0.042 0.31388 0.31698 0.61104 0.79779 0.75682 1.2246 3.3815 3.6224 5.4745 5.0012 6.2045 4.0876 14.775 6.9264 25.838 8.5588 17.061 2.5173 41.944 2.0396 58.361-1.1204 1.7362-0.33419 3.186-0.58068 3.2219-0.54774 0.12182 0.11194-5.107 3.582-7.1362 4.736-16.263 9.2482-39.152 14.792-56.063 13.578z"/>
   <path d="m118.81 131.1c-3.8921-0.22886-6.3828-0.53288-10.697-1.3057l-3.1925-0.57187 4.1669-0.16743c2.2918-0.0921 5.3033-0.35404 6.6923-0.58212 12.515-2.0551 24.686-8.0723 33.677-16.649 2.9355-2.8004 7.5317-8.5466 9.2756-11.596 0.73636-1.2878 0.75607-0.92265 0.11527 2.1347-2.8649 13.669-9.9271 22.855-20.682 26.903-4.77 1.7954-10.607 2.3486-19.355 1.8342z"/>
   <path d="m161.62 121.43c0-0.0667 0.28066-0.68 0.62369-1.363 1.0706-2.1316 1.4446-4.0008 1.5806-7.9012 0.13692-3.926-0.25661-7.4783-1.2153-10.97-0.69494-2.5313-0.63438-2.6556 0.67424-1.3835 2.619 2.546 5.8014 6.7507 6.955 9.1893 1.1026 2.3306 1.0069 3.3162-0.49692 5.1185-2.0926 2.5079-8.1214 7.9344-8.1214 7.31z"/>
   <path d="m176.01 98.602c-1.4193-0.12154-6.1735-1.0412-9.7103-1.8784l-3.2705-0.77415 3.018-1.0511c6.3984-2.2284 10.486-4.7361 12.793-7.8481l0.74878-1.0102-0.16883 2.3991c-0.19074 2.7105-0.7259 6.5312-1.1987 8.5575-0.34821 1.4925-0.68383 1.7361-2.2114 1.6053z"/>
   <path d="m162.74 92.606c0.10256-0.27779 0.57118-1.5037 1.0414-2.7242 3.9795-10.33 4.8022-21.709 2.2509-31.133-0.95681-3.5346-2.9841-8.0501-4.7322-10.541-0.85504-1.2182-0.27945-1.0454 1.218 0.36554 3.5815 3.3746 8.5925 9.8997 10.491 13.662 3.09 6.1214 2.0185 14.283-2.8769 21.911-2.1697 3.381-7.9668 10.015-7.3926 8.46z"/>
   <path d="m159.28 91.154c-1.0057-2.4518-4.2378-8.8262-5.8666-11.57-11.118-18.73-27.03-34.397-42.68-42.024-5.5587-2.7089-9.6175-3.9643-14.142-4.3744l-2.0203-0.18311 3.3685-0.84254c7.2065-1.8025 16.544-2.5344 21.629-1.6952 11.901 1.9641 22.83 10.309 30.615 23.377 4.8769 8.1863 8.2477 18.476 9.3897 28.663 0.34872 3.1108 0.64238 9.9753 0.42674 9.9753-0.0965 0-0.42027-0.59663-0.71937-1.3258z"/>
   <path d="m151.39 92.948c-28.652-7.6971-44.665-12.62-58.841-18.091-10.498-4.0508-20.719-8.8501-24.91-11.696-1.7571-1.1932-1.7391-0.89811-0.29202-4.7745 1.2075-3.2348 2.743-6.2444 4.6086-9.0336 1.3913-2.08 1.6589-2.3469 2.6117-2.6046 4.21-1.1385 15.004 2.8592 29.896 11.073 16.798 9.2644 35.947 22.006 47.62 31.685 4.7063 3.9025 5.8834 4.9981 5.3323 4.9633-0.25808-0.0163-2.9694-0.70128-6.0251-1.5222z"/>
  </clipPath>
  <clipPath id="l">
   <path d="m114.8 28.347c-4.5337 0.28954-9.863 0.29516-14.6 1.4961-11.213 2.2961-22.324 7.9324-28.894 17.464-6.7833 9.2546-9.3147 21.169-9.318 32.321 0.35009 9.3693 2.1721 18.934 6.9865 26.991 6.1632 11.086 17.297 18.646 29.024 22.423 12.126 3.9101 25.281 4.8172 37.608 3.1102 14.776-1.3707 30.196-7.8843 38.272-20.809 11.169-16.837 8.7762-40.248-3.2577-55.984-12.71-17.51-34.378-27.212-55.82-27.012z"/>
  </clipPath>
  <filter id="k">
   <feGaussianBlur stdDeviation=".5854"/>
  </filter>
  <filter id="j" x="-.15" y="-.15" width="1.3" height="1.3">
   <feTurbulence baseFrequency="0.25 0.4" numOctaves="3" seed="5" type="fractalNoise"/>
   <feColorMatrix result="result5" values="1 0 0 0 0 0 1 0 0 0 0 0 1 0 0 0 0 0 1 0"/>
   <feComposite in="SourceGraphic" in2="result5" operator="in"/>
   <feMorphology operator="dilate" radius="1.5" result="result3"/>
   <feTurbulence baseFrequency=".03" numOctaves="5" seed="7" type="fractalNoise"/>
   <feGaussianBlur result="result91" stdDeviation=".5"/>
   <feDisplacementMap in="result3" in2="result91" result="result4" scale="27" xChannelSelector="R" yChannelSelector="G"/>
   <feComposite in="result4" in2="result4" k1="1.3" k3=".8" operator="arithmetic" result="result2"/>
   <feBlend in="result2" in2="result2" mode="screen"/>
  </filter>
  <filter id="i" x="-.3" y="-.5" width="1.6" height="2">
   <feTurbulence baseFrequency=".4" numOctaves="5" result="result1" type="fractalNoise"/>
   <feOffset dx="-5" dy="-5" result="result2"/>
   <feDisplacementMap in="SourceGraphic" in2="result1" scale="30" xChannelSelector="R" yChannelSelector="G"/>
  </filter>
  <linearGradient id="d">
   <stop stop-color="#9bd345" offset="0"/>
   <stop stop-color="#6c9a25" offset=".5"/>
   <stop stop-color="#72a227" offset="1"/>
  </linearGradient>
  <linearGradient id="a">
   <stop stop-color="#41b314" offset="0"/>
   <stop stop-color="#2e800e" offset=".5"/>
   <stop stop-color="#26680c" offset="1"/>
  </linearGradient>
  <linearGradient id="h" x1="168.8" x2="176.74" gradientUnits="userSpaceOnUse" xlink:href="#a"/>
  <linearGradient id="g" x1="206.25" x2="215.43" gradientTransform="matrix(.58523 -.19573 .15681 .73049 30.956 53.449)" gradientUnits="userSpaceOnUse" xlink:href="#d"/>
  <radialGradient id="f" cx="115.11" cy="50.985" r="59.545" gradientTransform="matrix(1 0 0 .87858 -42.434 -18.55)" gradientUnits="userSpaceOnUse" xlink:href="#a"/>
  <radialGradient id="e" cx="162.58" cy="85.792" r="7.5257" gradientTransform="matrix(.39926 .11262 -.05638 .19988 105.7 58.677)" gradientUnits="userSpaceOnUse" xlink:href="#a" spreadMethod="reflect"/>
  <radialGradient id="c" cx="115.73" cy="50.114" r="57.8" gradientTransform="matrix(1.6311 0 0 1.4274 -73.033 -17.601)" gradientUnits="userSpaceOnUse" xlink:href="#d"/>
  <radialGradient id="b" cx="106.44" cy="53.297" r="57.569" gradientTransform="matrix(1 0 0 .84868 0 12.162)" gradientUnits="userSpaceOnUse" xlink:href="#a" spreadMethod="reflect"/>
 </defs>
 <path transform="matrix(1.1086 0 0 1.5373 -76.832 -90.676)" d="m193.04 123.58a61.165 7.4246 0 1 1 -122.33 0 61.165 7.4246 0 1 1 122.33 0z" filter="url(#k)"/>
 <path d="m72.37 0.00303c-4.5337 0.28954-9.863 0.29516-14.6 1.4961-11.213 2.2961-22.324 7.9324-28.894 17.464-6.7833 9.2546-9.3147 21.169-9.318 32.321 0.35009 9.3693 2.1721 18.934 6.9865 26.991 6.1632 11.086 17.297 18.646 29.024 22.423 12.126 3.9101 25.281 4.8172 37.608 3.1102 14.776-1.3707 30.196-7.8843 38.272-20.809 11.169-16.837 8.7762-40.248-3.2577-55.984-12.71-17.51-34.378-27.212-55.82-27.012z" fill="url(#f)"/>
 <g transform="translate(-42.434 -28.344)" fill="url(#b)">
  <path d="m108.23 99.093c-5.6114-0.42724-12.785-1.3742-17.321-2.2866-13.268-2.6685-22.976-7.7212-25.978-13.522-1.0365-2.0022-1.1644-2.5705-1.1644-5.1739 0-1.6085 0.16482-4.2864 0.36628-5.9509 0.33792-2.7921 1.3712-8.219 1.6197-8.5072 0.0587-0.068 0.86557 0.39842 1.7931 1.0366 3.5665 2.4538 16.031 8.2431 25.328 11.764 13.292 5.0339 35.236 11.735 57.997 17.711 7.3571 1.9315 7.3408 1.7778 0.31425 2.9661-8.257 1.3964-15.231 1.8845-28.49 1.994-6.9732 0.0576-13.482 0.0435-14.464-0.0313z"/>
  <path d="m156.96 91.957c-2.9252-3.1315-15.969-12.927-26.58-19.96-23.997-15.906-45.452-26.613-53.329-26.613h-1.9987l1.5922-1.6367c2.422-2.4898 6.6081-5.5164 9.9851-7.2194 3.9621-1.9981 6.8615-2.5024 10.971-1.9082 16.982 2.4554 39.221 20.659 53.507 43.8 2.1655 3.5077 7.3073 13.494 7.3073 14.192 0 0.53054-0.60103 0.26023-1.4556-0.65463z"/>
  <path d="m161.15 86.936c-0.69322-15.934-6.3226-30.917-15.944-42.437-4.0379-4.8344-9.5252-9.2465-14.856-11.945-2.5138-1.2726-2.1559-1.348 1.7535-0.36948 6.9014 1.7274 14.123 4.7298 19.035 7.9134 11.975 7.7625 17.421 23.242 14.079 40.018-0.60791 3.0513-2.827 10.283-3.5722 11.641-0.14522 0.26473-0.36786-1.9049-0.49475-4.8214z"/>
  <path d="m101.56 127.52c-9.0153-1.4362-17.324-5.9792-24.735-13.524-1.3642-1.3888-2.4051-2.6004-2.3131-2.6924s0.88675 0.27589 1.7661 0.81757c2.1707 1.3372 5.628 2.6664 9.2774 3.5668 18.519 4.5695 49.609-1.9652 68.88-14.478 1.643-1.0668 3.0412-1.8858 3.1072-1.8198 0.21006 0.21006-3.0006 4.6375-5.5485 7.6512-8.2313 9.7363-20.961 17-34.653 19.773-4.2248 0.85571-12.512 1.2261-15.781 0.70537z"/>
  <path d="m144.71 127.48c7.9667-5.1919 13.326-13.894 15.468-25.115l0.61658-3.2301 0.59898 2.5c2.3545 9.827 1.3004 17.603-2.8844 21.277-2.1793 1.9134-7.637 4.2974-13.129 5.7348-3.692 0.9663-3.7608 0.84662-0.67082-1.1671z"/>
  <path d="m171.7 109.06c-0.54907-1.8326-3.4279-5.9112-6.3848-9.0457-1.2907-1.3682-2.2067-2.4882-2.0356-2.4888s2.6415 0.47236 5.4897 1.0512 5.9372 1.151 6.8643 1.2715l1.6857 0.2191-0.8343 2.2165c-1.039 2.7603-2.775 6.2246-3.6785 7.3402l-0.68435 0.84514-0.42219-1.4091z"/>
  <path d="m165.07 92.616c2.3722-2.4496 5.1764-6.0125 6.6819-8.4898 2.4665-4.0588 3.4675-6.9936 4.3826-12.85l0.22324-1.4286 0.50672 1.4286c1.2022 3.3892 1.9855 7.3182 2.0345 10.204 0.0484 2.8564-0.0194 3.1643-1.0138 4.604-1.8448 2.671-6.0154 5.3046-11.545 7.2903-1.4358 0.51561-2.6786 0.93747-2.7618 0.93747s0.58802-0.76339 1.4916-1.6964z"/>
 </g>
 <g transform="translate(-42.434 -28.344)" clip-path="url(#l)" fill="url(#b)" filter="url(#i)">
  <path d="m108.23 99.093c-5.6114-0.42724-12.785-1.3742-17.321-2.2866-13.268-2.6685-22.976-7.7212-25.978-13.522-1.0365-2.0022-1.1644-2.5705-1.1644-5.1739 0-1.6085 0.16482-4.2864 0.36628-5.9509 0.33792-2.7921 1.3712-8.219 1.6197-8.5072 0.0587-0.068 0.86557 0.39842 1.7931 1.0366 3.5665 2.4538 16.031 8.2431 25.328 11.764 13.292 5.0339 35.236 11.735 57.997 17.711 7.3571 1.9315 7.3408 1.7778 0.31425 2.9661-8.257 1.3964-15.231 1.8845-28.49 1.994-6.9732 0.0576-13.482 0.0435-14.464-0.0313z"/>
  <path d="m156.96 91.957c-2.9252-3.1315-15.969-12.927-26.58-19.96-23.997-15.906-45.452-26.613-53.329-26.613h-1.9987l1.5922-1.6367c2.422-2.4898 6.6081-5.5164 9.9851-7.2194 3.9621-1.9981 6.8615-2.5024 10.971-1.9082 16.982 2.4554 39.221 20.659 53.507 43.8 2.1655 3.5077 7.3073 13.494 7.3073 14.192 0 0.53054-0.60103 0.26023-1.4556-0.65463z"/>
  <path d="m161.15 86.936c-0.69322-15.934-6.3226-30.917-15.944-42.437-4.0379-4.8344-9.5252-9.2465-14.856-11.945-2.5138-1.2726-2.1559-1.348 1.7535-0.36948 6.9014 1.7274 14.123 4.7298 19.035 7.9134 11.975 7.7625 17.421 23.242 14.079 40.018-0.60791 3.0513-2.827 10.283-3.5722 11.641-0.14522 0.26473-0.36786-1.9049-0.49475-4.8214z"/>
  <path d="m101.56 127.52c-9.0153-1.4362-17.324-5.9792-24.735-13.524-1.3642-1.3888-2.4051-2.6004-2.3131-2.6924s0.88675 0.27589 1.7661 0.81757c2.1707 1.3372 5.628 2.6664 9.2774 3.5668 18.519 4.5695 49.609-1.9652 68.88-14.478 1.643-1.0668 3.0412-1.8858 3.1072-1.8198 0.21006 0.21006-3.0006 4.6375-5.5485 7.6512-8.2313 9.7363-20.961 17-34.653 19.773-4.2248 0.85571-12.512 1.2261-15.781 0.70537z"/>
  <path d="m144.71 127.48c7.9667-5.1919 13.326-13.894 15.468-25.115l0.61658-3.2301 0.59898 2.5c2.3545 9.827 1.3004 17.603-2.8844 21.277-2.1793 1.9134-7.637 4.2974-13.129 5.7348-3.692 0.9663-3.7608 0.84662-0.67082-1.1671z"/>
  <path d="m171.7 109.06c-0.54907-1.8326-3.4279-5.9112-6.3848-9.0457-1.2907-1.3682-2.2067-2.4882-2.0356-2.4888s2.6415 0.47236 5.4897 1.0512 5.9372 1.151 6.8643 1.2715l1.6857 0.2191-0.8343 2.2165c-1.039 2.7603-2.775 6.2246-3.6785 7.3402l-0.68435 0.84514-0.42219-1.4091z"/>
  <path d="m165.07 92.616c2.3722-2.4496 5.1764-6.0125 6.6819-8.4898 2.4665-4.0588 3.4675-6.9936 4.3826-12.85l0.22324-1.4286 0.50672 1.4286c1.2022 3.3892 1.9855 7.3182 2.0345 10.204 0.0484 2.8564-0.0194 3.1643-1.0138 4.604-1.8448 2.671-6.0154 5.3046-11.545 7.2903-1.4358 0.51561-2.6786 0.93747-2.7618 0.93747s0.58802-0.76339 1.4916-1.6964z"/>
 </g>
 <g transform="matrix(1.014 0 0 1.014 -44.136 -29.472)" fill="url(#c)">
  <path d="m94.316 115.7c-3.5026-0.25134-6.5955-0.77121-9.9323-1.6694-5.1209-1.3785-8.5232-3.2765-11.945-6.6632-2.2209-2.1984-2.553-2.6576-3.8353-5.3033-1.5643-3.2276-2.7086-6.4947-3.4822-9.942-0.5002-2.229-1.2554-7.271-1.1123-7.4256 0.0389-0.042 0.31388 0.31698 0.61104 0.79779 0.75682 1.2246 3.3815 3.6224 5.4745 5.0012 6.2045 4.0876 14.775 6.9264 25.838 8.5588 17.061 2.5173 41.944 2.0396 58.361-1.1204 1.7362-0.33419 3.186-0.58068 3.2219-0.54774 0.12182 0.11194-5.107 3.582-7.1362 4.736-16.263 9.2482-39.152 14.792-56.063 13.578z"/>
  <path d="m118.81 131.1c-3.8921-0.22886-6.3828-0.53288-10.697-1.3057l-3.1925-0.57187 4.1669-0.16743c2.2918-0.0921 5.3033-0.35404 6.6923-0.58212 12.515-2.0551 24.686-8.0723 33.677-16.649 2.9355-2.8004 7.5317-8.5466 9.2756-11.596 0.73636-1.2878 0.75607-0.92265 0.11527 2.1347-2.8649 13.669-9.9271 22.855-20.682 26.903-4.77 1.7954-10.607 2.3486-19.355 1.8342z"/>
  <path d="m161.62 121.43c0-0.0667 0.28066-0.68 0.62369-1.363 1.0706-2.1316 1.4446-4.0008 1.5806-7.9012 0.13692-3.926-0.25661-7.4783-1.2153-10.97-0.69494-2.5313-0.63438-2.6556 0.67424-1.3835 2.619 2.546 5.8014 6.7507 6.955 9.1893 1.1026 2.3306 1.0069 3.3162-0.49692 5.1185-2.0926 2.5079-8.1214 7.9344-8.1214 7.31z"/>
  <path d="m176.01 98.602c-1.4193-0.12154-6.1735-1.0412-9.7103-1.8784l-3.2705-0.77415 3.018-1.0511c6.3984-2.2284 10.486-4.7361 12.793-7.8481l0.74878-1.0102-0.16883 2.3991c-0.19074 2.7105-0.7259 6.5312-1.1987 8.5575-0.34821 1.4925-0.68383 1.7361-2.2114 1.6053z"/>
  <path d="m162.74 92.606c0.10256-0.27779 0.57118-1.5037 1.0414-2.7242 3.9795-10.33 4.8022-21.709 2.2509-31.133-0.95681-3.5346-2.9841-8.0501-4.7322-10.541-0.85504-1.2182-0.27945-1.0454 1.218 0.36554 3.5815 3.3746 8.5925 9.8997 10.491 13.662 3.09 6.1214 2.0185 14.283-2.8769 21.911-2.1697 3.381-7.9668 10.015-7.3926 8.46z"/>
  <path d="m159.28 91.154c-1.0057-2.4518-4.2378-8.8262-5.8666-11.57-11.118-18.73-27.03-34.397-42.68-42.024-5.5587-2.7089-9.6175-3.9643-14.142-4.3744l-2.0203-0.18311 3.3685-0.84254c7.2065-1.8025 16.544-2.5344 21.629-1.6952 11.901 1.9641 22.83 10.309 30.615 23.377 4.8769 8.1863 8.2477 18.476 9.3897 28.663 0.34872 3.1108 0.64238 9.9753 0.42674 9.9753-0.0965 0-0.42027-0.59663-0.71937-1.3258z"/>
  <path d="m151.39 92.948c-28.652-7.6971-44.665-12.62-58.841-18.091-10.498-4.0508-20.719-8.8501-24.91-11.696-1.7571-1.1932-1.7391-0.89811-0.29202-4.7745 1.2075-3.2348 2.743-6.2444 4.6086-9.0336 1.3913-2.08 1.6589-2.3469 2.6117-2.6046 4.21-1.1385 15.004 2.8592 29.896 11.073 16.798 9.2644 35.947 22.006 47.62 31.685 4.7063 3.9025 5.8834 4.9981 5.3323 4.9633-0.25808-0.0163-2.9694-0.70128-6.0251-1.5222z"/>
 </g>
 <g transform="matrix(1.014 0 0 1.014 -44.136 -29.472)" clip-path="url(#m)" fill="url(#c)" filter="url(#j)">
  <path d="m94.316 115.7c-3.5026-0.25134-6.5955-0.77121-9.9323-1.6694-5.1209-1.3785-8.5232-3.2765-11.945-6.6632-2.2209-2.1984-2.553-2.6576-3.8353-5.3033-1.5643-3.2276-2.7086-6.4947-3.4822-9.942-0.5002-2.229-1.2554-7.271-1.1123-7.4256 0.0389-0.042 0.31388 0.31698 0.61104 0.79779 0.75682 1.2246 3.3815 3.6224 5.4745 5.0012 6.2045 4.0876 14.775 6.9264 25.838 8.5588 17.061 2.5173 41.944 2.0396 58.361-1.1204 1.7362-0.33419 3.186-0.58068 3.2219-0.54774 0.12182 0.11194-5.107 3.582-7.1362 4.736-16.263 9.2482-39.152 14.792-56.063 13.578z"/>
  <path d="m118.81 131.1c-3.8921-0.22886-6.3828-0.53288-10.697-1.3057l-3.1925-0.57187 4.1669-0.16743c2.2918-0.0921 5.3033-0.35404 6.6923-0.58212 12.515-2.0551 24.686-8.0723 33.677-16.649 2.9355-2.8004 7.5317-8.5466 9.2756-11.596 0.73636-1.2878 0.75607-0.92265 0.11527 2.1347-2.8649 13.669-9.9271 22.855-20.682 26.903-4.77 1.7954-10.607 2.3486-19.355 1.8342z"/>
  <path d="m161.62 121.43c0-0.0667 0.28066-0.68 0.62369-1.363 1.0706-2.1316 1.4446-4.0008 1.5806-7.9012 0.13692-3.926-0.25661-7.4783-1.2153-10.97-0.69494-2.5313-0.63438-2.6556 0.67424-1.3835 2.619 2.546 5.8014 6.7507 6.955 9.1893 1.1026 2.3306 1.0069 3.3162-0.49692 5.1185-2.0926 2.5079-8.1214 7.9344-8.1214 7.31z"/>
  <path d="m176.01 98.602c-1.4193-0.12154-6.1735-1.0412-9.7103-1.8784l-3.2705-0.77415 3.018-1.0511c6.3984-2.2284 10.486-4.7361 12.793-7.8481l0.74878-1.0102-0.16883 2.3991c-0.19074 2.7105-0.7259 6.5312-1.1987 8.5575-0.34821 1.4925-0.68383 1.7361-2.2114 1.6053z"/>
  <path d="m162.74 92.606c0.10256-0.27779 0.57118-1.5037 1.0414-2.7242 3.9795-10.33 4.8022-21.709 2.2509-31.133-0.95681-3.5346-2.9841-8.0501-4.7322-10.541-0.85504-1.2182-0.27945-1.0454 1.218 0.36554 3.5815 3.3746 8.5925 9.8997 10.491 13.662 3.09 6.1214 2.0185 14.283-2.8769 21.911-2.1697 3.381-7.9668 10.015-7.3926 8.46z"/>
  <path d="m159.28 91.154c-1.0057-2.4518-4.2378-8.8262-5.8666-11.57-11.118-18.73-27.03-34.397-42.68-42.024-5.5587-2.7089-9.6175-3.9643-14.142-4.3744l-2.0203-0.18311 3.3685-0.84254c7.2065-1.8025 16.544-2.5344 21.629-1.6952 11.901 1.9641 22.83 10.309 30.615 23.377 4.8769 8.1863 8.2477 18.476 9.3897 28.663 0.34872 3.1108 0.64238 9.9753 0.42674 9.9753-0.0965 0-0.42027-0.59663-0.71937-1.3258z"/>
  <path d="m151.39 92.948c-28.652-7.6971-44.665-12.62-58.841-18.091-10.498-4.0508-20.719-8.8501-24.91-11.696-1.7571-1.1932-1.7391-0.89811-0.29202-4.7745 1.2075-3.2348 2.743-6.2444 4.6086-9.0336 1.3913-2.08 1.6589-2.3469 2.6117-2.6046 4.21-1.1385 15.004 2.8592 29.896 11.073 16.798 9.2644 35.947 22.006 47.62 31.685 4.7063 3.9025 5.8834 4.9981 5.3323 4.9633-0.25808-0.0163-2.9694-0.70128-6.0251-1.5222z"/>
 </g>
 <g transform="translate(-42.434 -28.344)">
  <path d="m161.86289,92.01794c-.58252.4534-1.09995,1.87939-1.81598.7421-.93176.14165-.32862,1.73182-1.2064,2.02117-.818-.09751-1.45403.64884-.77248,1.30342 .53098.51029.78182,1.22645.26632,1.85961-.41523.69129.39963,1.17819.82819,1.59249 2.20902,2.04509 5.21077,3.22808 8.2274,3.15634 1.67108.0833 3.34694-.0858 5.00532-.26881 .80282-.16569.54488-1.6337 1.59311-1.34646 .84009.16973 1.3353-.54948.85848-1.27778-.74453-.99638.43671-1.58291.68829-2.42672-.23963-.73849-1.67766-.57346-1.51533-1.68504 .26532-.64675-.005-1.57555-.86522-1.20959-.76632.25738-1.51453.08287-2.27771-.05029-1.83889.23644-3.75668.38237-5.57464-.08245-1.35556-.38577-2.58049-1.21131-3.43935-2.328z" fill="url(#e)"/>
  <path d="m174.89824,100.90061c-.25864.43973-.94287-.40496-1.32002-.18904l-.00029.00019c-.41117.236-.50766,1.51106-.95535,1.49176l-.0006-3e-005c-.40985-.0189-.37848-1.28166-.74018-1.56509l-.00028-.00023c-.39487-.30877-1.16632.35799-1.44251-.14567l-.00017-.00034c-.2527-.46182.47054-1.1929.39643-1.76228l-5e-005-.00046c-.0812-.62106-.94672-1.06468-.84341-1.67342l7e-005-.00041c.0951-.55758.96545-.20593 1.23485-.63245l.00022-.00034c.29358-.46565-.0142-1.68562.39076-1.94105l.00028-.00017c.37124-.23347.73335.93612 1.14338.97365l.00033,2.5e-005c.44731.0404.92898-1.03725 1.33069-.74702l.00027.00019c.36786.26646-.051,1.37325.19093,1.84657l.00019.00037c.26421.51602 1.17264.39219 1.26858,1.00952l7e-005,.00042c.0874.56573-.79692.77629-.9053,1.32897l-9e-005,.00045c-.11785.60308.53328,1.52629.2512,2.00587" fill="url(#g)" stroke="url(#h)" stroke-width=".3"/>
 </g>
</svg>
