<?xml version="1.0" encoding="UTF-8"?>
<!DOCTYPE svg  PUBLIC '-//W3C//DTD SVG 1.1//EN'  'http://www.w3.org/Graphics/SVG/1.1/DTD/svg11.dtd'>
<svg width="160.55" height="151.25" enable-background="new 0 0 160.55 151.25" version="1.1" viewBox="0 0 160.55 151.25" xml:space="preserve" xmlns="http://www.w3.org/2000/svg" xmlns:xlink="http://www.w3.org/1999/xlink">
<symbol id="q" viewBox="0 -151.25 152.25 151.25">
					<use transform="translate(0 -104.55)" y="-46.7" width="152.25" height="46.7" enable-background="new" opacity=".6289" xlink:href="#r"/>
					<use transform="translate(18.65 -110.95)" x="-0.048" y="-36.105" width="124.481" height="36.111" enable-background="new" opacity=".1406" xlink:href="#s"/>
					<radialGradient id="l" cx="79.975" cy="-76.25" r="57.677" gradientTransform="matrix(1 0 0 -1.0581 0 -156.93)" gradientUnits="userSpaceOnUse">
					<stop stop-color="#E5F1F7" offset="0"/>
					<stop stop-color="#96BDD6" offset="1"/>
				</radialGradient>
				<path d="m102.65-47.85l11.85-5.8 0.9-8.25c0.9-6.533 2.117-12.317 3.65-17.35 2.467-8.033 6.684-21.283 12.65-39.75-4.7-5.467-9.017-10.3-12.95-14.5-2.533-2.667-5.733-4.633-9.6-5.9-2.467-0.8-4.633-1.2-6.5-1.2-0.767 0-4.8-0.4-12.1-1.2l-10.75-1.2c-6.066 0.333-9.867 0.5-11.4 0.5-0.8 0-2.917-0.083-6.35-0.25s-5.433-0.25-6-0.25c-0.767 0-1.983 0.4-3.65 1.2-2.1 1.133-3.767 2.017-5 2.65-1.533 0.8-5.183 2.583-10.95 5.35l-8.2 3.85c0 0.133 0.717 1.85 2.15 5.15 1.533 3.5 2.483 7.25 2.85 11.25 0.367 4.233 0.633 7.917 0.8 11.05l0.1 3.45c2.434 9.033 4.117 14.667 5.05 16.9 0.566 1.4 1.267 2.95 2.1 4.65l1.1 2.15 2.55 0.4c1.9 0.233 3.333 0.25 4.3 0.05 1.233-0.267 3.067 0.3 5.5 1.7 2.567 1.467 4.067 3 4.5 4.6 0.633 2.233 1.333 5.167 2.1 8.8 0.933 4.367 1.4 7.3 1.4 8.8 0 1.367 1.033 3.6 3.1 6.7 3.833 5.7 5.8 8.633 5.9 8.8 1.533 2.633 2.983 6 4.35 10.1 0.7 2.066 1.25 3.867 1.65 5.4l6.5 10.5 4.8-6.5c3.633-5.533 6.483-11.317 8.55-17.35l5.05-14.5z" clip-rule="evenodd" fill="url(#l)" fill-rule="evenodd"/>
			<g clip-rule="evenodd" fill-rule="evenodd">
				<g fill="#97B4C4">
					<path d="m103.2-88.5c-0.4 11.9 0.283 19.4 2.05 22.5 1.667 2.9 3.717 5.833 6.15 8.8 1.2 1.467 2.233 2.65 3.1 3.55l0.9-8.25c0.9-6.533 2.117-12.317 3.65-17.35 2.467-8.033 6.684-21.283 12.65-39.75-4.7-5.467-9.017-10.3-12.95-14.5-2.533-2.667-5.733-4.633-9.6-5.9-2.467-0.8-4.633-1.2-6.5-1.2-0.767 0-4.8-0.4-12.1-1.2l-10.75-1.2c-6.066 0.333-9.867 0.5-11.4 0.5-0.8 0-2.917-0.083-6.35-0.25s-5.433-0.25-6-0.25c-0.767 0-1.983 0.4-3.65 1.2-2.1 1.133-3.767 2.017-5 2.65-2 1.066-5.316 2.683-9.95 4.85 10-1.067 15.6-0.633 16.8 1.3 0.967 1.6 1.867 4.517 2.7 8.75 0.966 5.033 1.233 9.45 0.8 13.25-0.4 3.533-0.85 8.183-1.35 13.95l-0.65 7.55 6.5-6 1.45-7.2c0.9-5.233 1.25-9 1.05-11.3-0.667-7.333-1-12.333-1-15 0-1.7 2.05-2.783 6.15-3.25 1.5-0.167 4.783-0.25 9.85-0.25 2.333 0 5.417 1.1 9.25 3.3 3.367 1.934 6.45 4.167 9.25 6.7 3.1 2.233 5.083 3.833 5.95 4.8 1.333 1.467 1.683 3.7 1.05 6.7-1.03 4.87-1.72 12.367-2.05 22.5z"/>
					<path d="m86.45-41.75c-0.1 6.333-0.333 11.75-0.7 16.25-0.667 8-1.167 13.333-1.5 16l4.8-6.5c3.633-5.533 6.483-11.317 8.55-17.35l5.05-14.5-5.4-6.15c-1-1.167-2.483-4-4.45-8.5-1.333-3.133-2.183-3.967-2.55-2.5-0.167 0.7-0.817 2.367-1.95 5-0.833 2-1.35 4.167-1.55 6.5-0.133 1.5-0.233 5.417-0.3 11.75z"/>
				</g>
				<path d="m55.7-139.1c1.6 0.667 2.617 1.7 3.05 3.1l3.5 11 0.2-5.3c0.733-3.767 2.667-6.167 5.8-7.2 6-2 14.667-2 26 0 3.433 0.6 6.167 1.533 8.2 2.8 1.867 1.467 3.466 2.534 4.8 3.2 1.533 0.767 2.55 2.1 3.05 4 0.767 2.8 1.417 4.633 1.95 5.5 1.033 1.667 2.85 2.917 5.45 3.75 1.3 0.4 2.483 0.65 3.55 0.75 1.967 3.333 3.45 6.333 4.45 9 0.8 2 2.25 0.2 4.35-5.4l1.65-5.1c-4.7-5.467-9.017-10.3-12.95-14.5-2.533-2.667-5.733-4.633-9.6-5.9-2.467-0.8-4.633-1.2-6.5-1.2-0.767 0-4.8-0.4-12.1-1.2l-10.75-1.2c-6.066 0.333-9.867 0.5-11.4 0.5-0.8 0-2.917-0.083-6.35-0.25s-5.433-0.25-6-0.25c-1 0-3.083 0.867-6.25 2.6 2.833 0.43 4.8 0.87 5.9 1.3z" fill="#7D9AAB"/>
			</g>
			<g clip-rule="evenodd" fill-rule="evenodd">
				<path d="m83.25-65.5l0.8-4.25c0.434-3.167 0.333-5.583-0.3-7.25-0.567-1.567-0.75-3.633-0.55-6.2 0.367-4.633 0.55-7.566 0.55-8.8 0-5 0.333-11.833 1-20.5-0.9 0.833-1.917 1.867-3.05 3.1-2.267 2.5-3.917 4.8-4.95 6.9-0.9 1.8-1.65 3.95-2.25 6.45-0.733 3.066-1.483 5.583-2.25 7.55-1.033 2.7-2.517 4.767-4.45 6.2l-2.55 1.3c0.5 0.5 1.233 1.067 2.2 1.7 1.9 1.233 4 2.167 6.3 2.8s4.2 2.083 5.7 4.35c1.533 2.933 2.8 5.15 3.8 6.65z" fill="#9FC0D4"/>
				<path d="m38.7-94.9c2.066 2.833 3.417 5.3 4.05 7.4 0.633 2.067 0.767 4.717 0.4 7.95l-0.75 4.2 2.7 0.05c1.933 0.1 3.316 0.233 4.15 0.4 0.667 0.133 1.333-0.6 2-2.2 1-2.433 2.167-4.4 3.5-5.9 1.667-1.867 3.417-4.517 5.25-7.95 0.933-1.7 1.683-3.216 2.25-4.55l-6.5 6c-4-0.333-7.333-1-10-2-1.667-0.633-3.833-1.983-6.5-4.05-1.333-1.067-2.5-2.05-3.5-2.95 0.933 1 1.917 2.2 2.95 3.6z" fill="#E3F3FF"/>
				<path d="m83.25-65.5l-1-2-6-7.5-5-2.5c-0.333-0.167-1.333-0.883-3-2.15-1.233-0.9-2.233-1.35-3-1.35-0.833 0-2.5 1.5-5 4.5l-3.5 4.5c1.667 3 3 6.5 4 10.5 0.833 3.333 1.633 5.567 2.4 6.7 0.9 1.367 1.934 1.466 3.1 0.3 0.867-0.867 2.283-1.633 4.25-2.3 2.4-0.833 4.317-1.733 5.75-2.7 3-2 5.333-4 7-6z" fill="#E3F3FF"/>
				<path d="m83.75-39.5c1 3.667 1.5 11 1.5 22 0.667-9.333 1-16.333 1-21s0.167-9.667 0.5-15l-2.5-0.5c-0.9 0.067-2.05 0.3-3.45 0.7-2.733 0.733-5.25 1.833-7.55 3.3s-4.45 2.567-6.45 3.3l-2.3 0.7 6.65 9.35c0.102 0.396 0.302 0.779 0.6 1.15l2 2.5-2.6-3.65c-0.206-0.866 0.094-1.782 0.9-2.75 1.133-1.333 2.367-1.867 3.7-1.6 0.833 0.167 2.3-0.217 4.4-1.15 1.8-0.433 3 0.45 3.6 2.65z" fill="#E3F3FF"/>
				<path d="m97.25-54l-0.2-3.05c-0.233-2.434-0.667-4.583-1.3-6.45-0.167-0.5-0.7-1.9-1.6-4.2-0.4-0.966-0.7-2.233-0.9-3.8-0.9-7.1-1.567-13.767-2-20-0.133-2.067-0.75-4.483-1.85-7.25-0.933-2.333-1.316-4.75-1.15-7.25 0.2-2.933-0.733-5.65-2.8-8.15-1.034-1.233-2.1-2.184-3.2-2.85l2.5 4.5c0.933 1.7 1.283 4.117 1.05 7.25-0.267 3.767-0.283 6.183-0.05 7.25l2.5 10.5c0.5 2.833 0.75 7.583 0.75 14.25 0 4.167 1.383 8.617 4.15 13.35 1.367 2.4 2.733 4.367 4.1 5.9z" fill="#fff"/>
			</g>
				<g clip-rule="evenodd" fill="#fff" fill-rule="evenodd">
					<path d="m77-36.75c-0.967 0-1.45 0.5-1.45 1.5s0.483 1.5 1.45 1.5 1.45-0.5 1.45-1.5-0.483-1.5-1.45-1.5z"/>
					<path d="m72.25-53h0.5c0.967 0 1.45-0.5 1.45-1.5s-0.483-1.5-1.45-1.5h-0.5c-0.967 0-1.45 0.5-1.45 1.5s0.483 1.5 1.45 1.5z"/>
					<path d="m82.5-34c0.967 0 1.45-0.5 1.45-1.5s-0.483-1.5-1.45-1.5c-0.233 0-0.483 0.067-0.75 0.2-0.167-0.3-0.417-0.45-0.75-0.45-0.633 0-0.95 0.333-0.95 1s0.317 1 0.95 1h0.05c0.133 0.833 0.617 1.25 1.45 1.25z"/>
					<path d="m81.05-30.2c0.133 0.467 0.45 0.7 0.95 0.7 0.633 0 0.95-0.333 0.95-1s-0.317-1-0.95-1c-0.333 0-0.617 0.15-0.85 0.45 0-0.133-0.066-0.267-0.2-0.4-0.467-0.367-0.95-0.55-1.45-0.55-0.633 0-0.95 0.333-0.95 1s0.317 1 0.95 1h0.1c0.5 0.367 0.95 0.35 1.35-0.05l0.1-0.15z"/>
					<path d="m79.75-27.5c-0.633 0-0.95 0.333-0.95 1s0.317 1 0.95 1 0.95-0.333 0.95-1-0.317-1-0.95-1z"/>
					<path d="m81.5-21.25c0.633 0 0.95-0.333 0.95-1s-0.317-1-0.95-1-0.95 0.333-0.95 1 0.317 1 0.95 1z"/>
					<path d="m82.25-24c0.467 0 0.767-0.233 0.9-0.7 0.133-0.433 0.033-0.783-0.3-1.05h0.15c0.633 0 0.95-0.333 0.95-1s-0.317-1-0.95-1c-0.5 0-0.817 0.233-0.95 0.7-0.133 0.466-0.033 0.833 0.3 1.1l-0.1-0.05c-0.633 0-0.95 0.333-0.95 1s0.317 1 0.95 1z"/>
					<path d="m71.8-46.1c0.1 0.233 0.267 0.4 0.5 0.5s0.467 0.117 0.7 0.05c0.533-0.133 0.767-0.534 0.7-1.2-0.1-0.667-0.5-1.067-1.2-1.2s-1.117 0.1-1.25 0.7c-0.033 0.233 0 0.467 0.1 0.7s0.25 0.383 0.45 0.45z"/>
					<path d="m67.5-47.5c-0.6 0-0.933 0.3-1 0.9-0.033 0.6 0.217 0.95 0.75 1.05 0.467 0.433 0.933 0.417 1.4-0.05 0.5-0.433 0.517-0.883 0.05-1.35-0.367-0.367-0.767-0.55-1.2-0.55z"/>
					<path d="m65.25-47.25c-0.633 0-0.95 0.333-0.95 1s0.317 1 0.95 1 0.95-0.333 0.95-1-0.317-1-0.95-1z"/>
					<path d="m77.25-50.5c-0.633 0-0.95 0.333-0.95 1s0.317 1 0.95 1 0.95-0.333 0.95-1-0.317-1-0.95-1z"/>
					<path d="m75-46.25c-0.633 0-0.95 0.333-0.95 1s0.317 1 0.95 1c0 0.667 0.333 1 1 1 0.467 0 0.767-0.217 0.9-0.65 0.133-0.434 0.05-0.783-0.25-1.05 0.067-0.333 0.033-0.633-0.1-0.9-0.167-0.267-0.433-0.4-0.8-0.4h-0.75z"/>
					<path d="m71.25-43.75c-0.633 0-0.95 0.333-0.95 1s0.317 1 0.95 1 0.95-0.333 0.95-1-0.317-1-0.95-1z"/>
					<path d="m82.95-49.8c0.167-0.167 0.267-0.4 0.3-0.7 0-0.3-0.1-0.533-0.3-0.7-0.7-0.533-1.534-0.583-2.5-0.15-0.233 0.1-0.383 0.3-0.45 0.6s-0.033 0.55 0.1 0.75c0.333 0.533 0.8 0.65 1.4 0.35 0.057-0.029 0.099-0.045 0.125-0.05 0.487 0.33 0.929 0.297 1.325-0.1z"/>
					<path d="m83.5-46.25c-0.633 0-0.95 0.333-0.95 1s0.317 1 0.95 1 0.95-0.333 0.95-1-0.317-1-0.95-1z"/>
					<path d="m81.6-47.25h0.15c0.567 0 0.883-0.317 0.95-0.95 0.167 0.3 0.433 0.45 0.8 0.45 0.567 0 0.883-0.317 0.95-0.95 0.167 0.3 0.433 0.45 0.8 0.45 0.633 0 0.95-0.333 0.95-1s-0.317-1-0.95-1c-0.6 0-0.933 0.317-1 0.95-0.167-0.3-0.417-0.45-0.75-0.45-0.6 0-0.933 0.317-1 0.95-0.167-0.3-0.417-0.45-0.75-0.45-0.533 0-1.033 0.183-1.5 0.55-0.2 0.167-0.3 0.4-0.3 0.7 0.033 0.3 0.133 0.533 0.3 0.7l0.1 0.05c-0.333 0.3-0.434 0.667-0.3 1.1 0.133 0.433 0.45 0.65 0.95 0.65 0.467 0 0.767-0.217 0.9-0.65s0.033-0.8-0.3-1.1z"/>
					<path d="m68.5-56.5c0.7-0.067 1.1-0.4 1.2-1 0.133-0.633-0.1-1.033-0.7-1.2-0.2-0.066-0.417-0.05-0.65 0.05s-0.4 0.25-0.5 0.45c-0.333 0.3-0.434 0.65-0.3 1.05 0.133 0.467 0.45 0.683 0.95 0.65z"/>
					<path d="m75.95-61.25c0.066-0.567-0.083-0.933-0.45-1.1-0.8-0.333-1.467-0.2-2 0.4-0.3 0.367-0.35 0.75-0.15 1.15 0.233 0.367 0.533 0.55 0.9 0.55 0.367 0.133 0.733 0.1 1.1-0.1 0.333-0.2 0.533-0.5 0.6-0.9z"/>
					<path d="m72.75-64.7c0.1-0.033 0.333-0.233 0.7-0.6 0.267-0.267 0.35-0.583 0.25-0.95-0.133-0.367-0.367-0.6-0.7-0.7-0.367-0.1-0.733-0.1-1.1 0h-0.2c-0.7 0.133-1.1 0.534-1.2 1.2-0.067 0.467 0.067 0.833 0.4 1.1l0.3 0.25c0.466 0.267 0.883 0.217 1.25-0.15l0.3-0.15z"/>
					<path d="m77.25-65.05c0.433 0.1 0.8-0.05 1.1-0.45 0.267-0.433 0.217-0.833-0.15-1.2l-0.45-0.35c-0.433-0.233-0.833-0.184-1.2 0.15-0.2 0.2-0.3 0.5-0.3 0.9-0.033 0.3 0.067 0.55 0.3 0.75 0.2 0.167 0.433 0.233 0.7 0.2z"/>
					<path d="m74.25-69c0.633 0 0.95-0.333 0.95-1s-0.317-1-0.95-1-0.95 0.333-0.95 1 0.317 1 0.95 1z"/>
					<path d="m67.7-71.1c0.433-0.467 0.433-0.917 0-1.35-0.767-0.7-1.6-0.833-2.5-0.4-0.367 0.167-0.517 0.45-0.45 0.85 0 0.767 0.233 1.3 0.7 1.6l0.3 0.15c0.133 0.133 0.283 0.2 0.45 0.2 0.466 0.1 0.833-0.034 1.1-0.4 0.2-0.167 0.333-0.383 0.4-0.65z"/>
					<path d="m66-65.25c0.467 0 0.767-0.217 0.9-0.65 0.133-0.4 0.067-0.75-0.2-1.05-0.067-0.267-0.15-0.433-0.25-0.5-0.567-0.5-1.133-0.55-1.7-0.15-0.5 0.167-0.75 0.617-0.75 1.35-0.033 0.4 0.133 0.683 0.5 0.85 0.3 0.167 0.617 0.167 0.95 0 0.167 0.1 0.35 0.15 0.55 0.15z"/>
					<path d="m65.75-64c-0.633 0-0.95 0.333-0.95 1s0.317 1 0.95 1 0.95-0.333 0.95-1-0.317-1-0.95-1z"/>
					<path d="m67.7-68c0.033 0.3 0.133 0.533 0.3 0.7 0.3 0.3 0.667 0.367 1.1 0.2 0.433 0.167 0.8 0.1 1.1-0.2 0.167-0.167 0.267-0.4 0.3-0.7 0-0.3-0.1-0.533-0.3-0.7-0.733-0.6-1.467-0.6-2.2 0-0.2 0.167-0.3 0.4-0.3 0.7z"/>
					<path d="m61.7-68c0.466-0.067 0.8-0.4 1-1 0.133-0.467 0.017-0.883-0.35-1.25l-0.85-0.35c-0.633-0.267-1.1-0.15-1.4 0.35-0.067 0.1-0.1 0.283-0.1 0.55-0.267 0.3-0.333 0.65-0.2 1.05 0.167 0.4 0.483 0.617 0.95 0.65h0.95z"/>
					<path d="m58.55-70.9c0.133 0.467 0.45 0.683 0.95 0.65 0.7-0.067 1.1-0.4 1.2-1 0.133-0.633-0.1-1.033-0.7-1.2-0.2-0.066-0.417-0.05-0.65 0.05s-0.4 0.25-0.5 0.45c-0.333 0.3-0.433 0.65-0.3 1.05z"/>
					<path d="m66.75-75c0.633 0 0.95-0.333 0.95-1s-0.317-1-0.95-1-0.95 0.333-0.95 1 0.317 1 0.95 1z"/>
					<path d="m72.8-75.2l-0.05-0.05c-0.633 0-0.95 0.333-0.95 1s0.317 1 0.95 1c0.267 0 0.483-0.083 0.65-0.25h0.1c0.633 0 0.95-0.333 0.95-1s-0.317-1-0.95-1c-0.3 0-0.533 0.1-0.7 0.3z"/>
					<path d="m81.1-69v-0.025l-0.05-0.125c-0.167-0.3-0.283-0.483-0.35-0.55-0.333-0.3-0.75-0.4-1.25-0.3-0.6 0.067-0.967 0.333-1.1 0.8-0.133 0.5 0 0.967 0.4 1.4 0.233 0.3 0.583 0.383 1.05 0.25 0.434 0.167 0.817 0.083 1.15-0.25 0.375-0.375 0.425-0.775 0.15-1.2z"/>
					<path d="m82.25-63.75c0.633 0 0.95-0.333 0.95-1s-0.317-1-0.95-1h-0.25c-0.633 0-0.95 0.333-0.95 1s0.317 1 0.95 1h0.25z"/>
					<path d="m79.25-61.25c-0.033-0.4-0.167-0.733-0.4-1-0.267-0.3-0.6-0.383-1-0.25-0.5 0.133-0.783 0.55-0.85 1.25-0.033 0.267 0.05 0.5 0.25 0.7s0.45 0.3 0.75 0.3l0.2-0.05c0.7 0.067 1.05-0.25 1.05-0.95z"/>
					<path d="m71-59c-0.633 0-0.95 0.333-0.95 1s0.317 1 0.95 1 0.95-0.333 0.95-1-0.317-1-0.95-1z"/>
					<path d="m65.95-54.05c0.2-0.2 0.3-0.434 0.3-0.7 0-0.3-0.15-0.567-0.45-0.8-0.233-0.3-0.5-0.45-0.8-0.45-0.6 0.067-0.967 0.25-1.1 0.55-0.167 0.467-0.167 0.817 0 1.05 0.3 0.367 0.75 0.583 1.35 0.65 0.233 0.033 0.467-0.067 0.7-0.3z"/>
					<path d="m76-57.5v0.5c0 0.633 0.333 0.95 1 0.95s1-0.317 1-0.95v-0.5c0-0.667-0.333-1-1-1s-1 0.333-1 1z"/>
					<path d="m81.75-56.75c0.633 0 0.95-0.333 0.95-1s-0.317-1-0.95-1-0.95 0.333-0.95 1 0.317 1 0.95 1z"/>
					<path d="m64.6-85.9c-0.233 0.1-0.4 0.25-0.5 0.45-0.333 0.3-0.434 0.65-0.3 1.05 0.133 0.467 0.45 0.683 0.95 0.65 0.7-0.067 1.1-0.4 1.2-1 0.133-0.633-0.1-1.033-0.7-1.2-0.2-0.067-0.417-0.05-0.65 0.05z"/>
					<path d="m60.75-80c0.5 0 0.8-0.25 0.9-0.75 0.1-0.467-0.033-0.817-0.4-1.05-0.167-0.3-0.417-0.45-0.75-0.45-0.533 0-0.85 0.25-0.95 0.75-0.1 0.467 0.034 0.833 0.4 1.1 0.167 0.267 0.433 0.4 0.8 0.4z"/>
					<path d="m55.75-79.25c0.633 0 0.95-0.333 0.95-1s-0.317-1-0.95-1-0.95 0.333-0.95 1 0.317 1 0.95 1z"/>
					<path d="m55.75-77.45l-0.05 0.15c-0.067-0.633-0.383-0.95-0.95-0.95-0.633 0-0.95 0.333-0.95 1s0.317 1 0.95 1c0.333 0 0.583-0.133 0.75-0.4 0.067 0.367 0.283 0.633 0.65 0.8 0.367 0.2 0.717 0.133 1.05-0.2l0.25-0.25c0.466-0.467 0.45-0.934-0.05-1.4-0.467-0.433-0.933-0.433-1.4 0l-0.25 0.25z"/>
					<path d="m57.95-84.55l0.75-0.75c0.466-0.467 0.45-0.934-0.05-1.4-0.467-0.433-0.933-0.433-1.4 0l-0.75 0.75c-0.467 0.467-0.45 0.934 0.05 1.4 0.467 0.467 0.933 0.467 1.4 0z"/>
					<path d="m67.5-95c0-0.667-0.333-1-1-1s-1 0.333-1 1v1.25c0 0.633 0.333 0.95 1 0.95s1-0.317 1-0.95v-1.25z"/>
					<path d="m69.75-91.5c0 0.667 0.333 1 1 1 0.6 0 0.917-0.3 0.95-0.9s-0.217-0.95-0.75-1.05c0-0.7-0.317-1.05-0.95-1.05h-1c-0.633 0-0.95 0.333-0.95 1s0.317 1 0.95 1h0.75z"/>
					<path d="m67-98.25c-0.033 0.6 0.25 0.917 0.85 0.95 0.6 0.066 0.967-0.184 1.1-0.75 0.466-0.467 0.45-0.934-0.05-1.4-0.467-0.433-0.933-0.433-1.4 0-0.333 0.333-0.5 0.733-0.5 1.2z"/>
					<path d="m66.1-104.75c0.233-0.6 0.117-1.05-0.35-1.35-0.233-0.133-0.483-0.167-0.75-0.1-0.3 0.067-0.517 0.217-0.65 0.45-0.233 0.533-0.35 1.367-0.35 2.5-0.033 0.633 0.283 0.95 0.95 0.95s1.017-0.317 1.05-0.95c0-0.87 0.033-1.37 0.1-1.5z"/>
					<path d="m71-104.5c-0.633 0-0.95 0.333-0.95 1s0.317 1 0.95 1 0.95-0.333 0.95-1-0.317-1-0.95-1z"/>
					<path d="m74.25-101.25c-0.633 0-0.95 0.333-0.95 1s0.317 1 0.95 1 0.95-0.333 0.95-1-0.317-1-0.95-1z"/>
					<path d="m73.5-98.75c-0.633 0-0.95 0.333-0.95 1s0.317 1 0.95 1 0.95-0.333 0.95-1-0.317-1-0.95-1z"/>
					<path d="m75-104.5c-0.633 0-0.95 0.333-0.95 1s0.317 1 0.95 1 0.95-0.333 0.95-1-0.317-1-0.95-1z"/>
					<path d="m77-108.25c0.633 0 0.95-0.333 0.95-1s-0.317-1-0.95-1-0.95 0.333-0.95 1 0.317 1 0.95 1z"/>
					<path d="m79.25-112c0.633 0 0.95-0.333 0.95-1s-0.317-1-0.95-1-0.95 0.333-0.95 1 0.317 1 0.95 1z"/>
					<path d="m78-106c0.633 0 0.95-0.333 0.95-1s-0.317-1-0.95-1-0.95 0.333-0.95 1 0.317 1 0.95 1z"/>
					<path d="m73.75-108.25c-0.633 0-0.95 0.333-0.95 1s0.317 1 0.95 1 0.95-0.333 0.95-1-0.317-1-0.95-1z"/>
					<path d="m71.5-110c0.633 0 0.95-0.333 0.95-1s-0.317-1-0.95-1-0.95 0.333-0.95 1 0.317 1 0.95 1z"/>
					<path d="m71-114.75c-0.633 0-0.95 0.333-0.95 1s0.317 1 0.95 1 0.95-0.333 0.95-1-0.317-1-0.95-1z"/>
					<path d="m69.5-109c-0.633 0-0.95 0.333-0.95 1s0.317 1 0.95 1 0.95-0.333 0.95-1-0.317-1-0.95-1z"/>
					<path d="m67.25-111.75c-0.633 0-0.95 0.333-0.95 1s0.317 1 0.95 1 0.95-0.333 0.95-1-0.317-1-0.95-1z"/>
					<path d="m67-113.75c0.633 0 0.95-0.333 0.95-1s-0.317-1-0.95-1-0.95 0.333-0.95 1 0.317 1 0.95 1z"/>
					<path d="m72.75-118.75c-0.6 0-0.933 0.317-1 0.95-0.167-0.3-0.417-0.45-0.75-0.45-0.633 0-0.95 0.333-0.95 1s0.317 1 0.95 1c0.567 0 0.883-0.317 0.95-0.95 0.167 0.3 0.433 0.45 0.8 0.45 0.633 0 0.95-0.333 0.95-1s-0.317-1-0.95-1z"/>
					<path d="m74.75-120c-0.633 0-0.95 0.333-0.95 1s0.317 1 0.95 1 0.95-0.333 0.95-1-0.317-1-0.95-1z"/>
					<path d="m76-115.65c0.567-0.3 0.667-0.733 0.3-1.3-0.333-0.566-0.783-0.7-1.35-0.4-0.534 0.267-0.983 0.717-1.35 1.35-0.133 0.267-0.15 0.533-0.05 0.8-0.3 0.3-0.383 0.65-0.25 1.05 0.167 0.433 0.483 0.65 0.95 0.65 0.367 0 0.633-0.133 0.8-0.4 0.133-0.267 0.167-0.55 0.1-0.85l0.2-0.25c0.1-0.23 0.317-0.45 0.65-0.65z"/>
					<path d="m76.5-118c-0.033 0.6 0.267 0.933 0.9 1 0.6 0.033 0.95-0.233 1.05-0.8 0.267-0.333 0.35-0.65 0.25-0.95-0.167-0.6-0.583-0.833-1.25-0.7-0.633 0.13-0.95 0.62-0.95 1.45z"/>
					<path d="m74.75-122.5c0 0.633 0.333 0.95 1 0.95s1-0.317 1-0.95v-0.25c0-0.667-0.333-1-1-1s-1 0.333-1 1v0.25z"/>
					<path d="m69.5-122.25c0 0.633 0.333 0.95 1 0.95s1-0.317 1-0.95v-0.25c0-0.667-0.333-1-1-1s-1 0.333-1 1v0.25z"/>
					<path d="m68.25-119.75c0.633 0 0.95-0.333 0.95-1s-0.317-1-0.95-1-0.95 0.333-0.95 1 0.317 1 0.95 1z"/>
					<path d="m67.75-125.5c0.633 0 0.95-0.333 0.95-1s-0.317-1-0.95-1-0.95 0.333-0.95 1 0.317 1 0.95 1z"/>
					<path d="m64.75-128c0.633 0 0.95-0.333 0.95-1s-0.317-1-0.95-1-0.95 0.333-0.95 1 0.317 1 0.95 1z"/>
					<path d="m72.75-129.5c0.633 0 0.95-0.333 0.95-1s-0.317-1-0.95-1-0.95 0.333-0.95 1 0.317 1 0.95 1z"/>
					<path d="m73.5-126.75c0.633 0 0.95-0.333 0.95-1s-0.317-1-0.95-1-0.95 0.333-0.95 1 0.317 1 0.95 1z"/>
					<path d="m41.5-93.75c0.467 0.033 0.767-0.183 0.9-0.65 0.133-0.4 0.033-0.75-0.3-1.05-0.1-0.2-0.267-0.35-0.5-0.45s-0.45-0.117-0.65-0.05c-0.6 0.167-0.833 0.567-0.7 1.2 0.1 0.6 0.517 0.933 1.25 1z"/>
					<path d="m39.5-97c0-0.667-0.333-1-1-1s-1 0.333-1 1v0.5c0 0.633 0.333 0.95 1 0.95s1-0.317 1-0.95v-0.5z"/>
					<path d="m36-98.5c0 0.633 0.333 0.95 1 0.95s1-0.317 1-0.95v-0.75c0-0.667-0.333-1-1-1s-1 0.333-1 1v0.75z"/>
					<path d="m36.5-102.7c-0.467 0.467-0.45 0.934 0.05 1.4 0.467 0.466 0.934 0.466 1.4 0l0.25-0.25c0.466-0.467 0.45-0.934-0.05-1.4-0.467-0.433-0.933-0.433-1.4 0l-0.25 0.25z"/>
					<path d="m38.5-104c0.533 0 0.85-0.267 0.95-0.8 0.1-0.5-0.067-0.85-0.5-1.05 0.433-0.233 0.6-0.6 0.5-1.1-0.1-0.533-0.417-0.8-0.95-0.8-0.567 0-0.9 0.267-1 0.8-0.1 0.5 0.067 0.867 0.5 1.1-0.433 0.2-0.6 0.55-0.5 1.05 0.1 0.53 0.433 0.8 1 0.8z"/>
					<path d="m40.55-97.65c0.133 0.433 0.45 0.65 0.95 0.65 0.467 0 0.767-0.217 0.9-0.65 0.133-0.434 0.033-0.8-0.3-1.1 0.333-0.267 0.433-0.617 0.3-1.05-0.133-0.467-0.433-0.7-0.9-0.7h-0.1c0.133-0.367 0.067-0.683-0.2-0.95l-0.25-0.25c-0.467-0.433-0.934-0.433-1.4 0-0.5 0.467-0.517 0.934-0.05 1.4l0.25 0.25c0.267 0.267 0.533 0.367 0.8 0.3-0.1 0.4 0 0.733 0.3 1-0.333 0.3-0.433 0.667-0.3 1.1z"/>
					<path d="m45-91.75c0.633 0 0.95-0.333 0.95-1s-0.317-1-0.95-1-0.95 0.333-0.95 1 0.317 1 0.95 1z"/>
					<path d="m44-96.75c-0.633 0-0.95 0.333-0.95 1s0.317 1 0.95 1l0.45-0.1c0.167 0.233 0.433 0.35 0.8 0.35 0.633 0 0.95-0.333 0.95-1s-0.317-1-0.95-1c-0.167 0-0.333 0.05-0.5 0.15-0.167-0.267-0.417-0.4-0.75-0.4z"/>
					<path d="m45.25-100.75c0-0.667-0.333-1-1-1s-1 0.333-1 1v0.25c0 0.633 0.333 0.95 1 0.95s1-0.317 1-0.95v-0.25z"/>
					<path d="m45.5-105c-0.633 0-0.95 0.333-0.95 1s0.317 1 0.95 1 0.95-0.333 0.95-1-0.317-1-0.95-1z"/>
					<path d="m42.5-105.5c0-0.667-0.333-1-1-1s-1 0.333-1 1v0.75c0 0.633 0.333 0.95 1 0.95s1-0.317 1-0.95v-0.75z"/>
					<path d="m42-110.5c-0.633 0-0.95 0.333-0.95 1s0.317 1 0.95 1 0.95-0.333 0.95-1-0.317-1-0.95-1z"/>
					<path d="m41.75-112.75c-0.067-0.7-0.4-1.1-1-1.2-0.667-0.133-1.083 0.1-1.25 0.7-0.133 0.5 0.033 0.867 0.5 1.1 0.3 0.333 0.667 0.433 1.1 0.3 0.467-0.1 0.683-0.4 0.65-0.9z"/>
					<path d="m41.5-116c0.633 0 0.95-0.333 0.95-1s-0.317-1-0.95-1-0.95 0.333-0.95 1 0.317 1 0.95 1z"/>
					<path d="m44.75-118.75c0.633 0 0.95-0.333 0.95-1s-0.317-1-0.95-1-0.95 0.333-0.95 1 0.317 1 0.95 1z"/>
					<path d="m45-116.75c0.633 0 0.95-0.333 0.95-1s-0.317-1-0.95-1-0.95 0.333-0.95 1 0.317 1 0.95 1z"/>
					<path d="m46.25-113.5c-0.633 0-0.95 0.333-0.95 1s0.317 1 0.95 1 0.95-0.333 0.95-1-0.317-1-0.95-1z"/>
					<path d="m53.5-105.2c-0.433 0.434-0.433 0.9 0 1.4 0.2 0.367 0.367 0.617 0.5 0.75 0.167 0.233 0.4 0.333 0.7 0.3 0.3 0 0.55-0.1 0.75-0.3 0.433-0.434 0.433-0.9 0-1.4-0.133-0.133-0.3-0.383-0.5-0.75-0.167-0.2-0.4-0.3-0.7-0.3-0.3 0.03-0.55 0.13-0.75 0.3z"/>
					<path d="m52.85-99.3c0.133-0.3 0.117-0.617-0.05-0.95 0.167-0.333 0.184-0.667 0.05-1-0.167-0.333-0.45-0.5-0.85-0.5-0.433 0-0.717 0.167-0.85 0.5-0.167 0.333-0.167 0.667 0 1-0.167 0.333-0.167 0.65 0 0.95 0.133 0.367 0.417 0.55 0.85 0.55 0.4 0 0.683-0.183 0.85-0.55z"/>
					<path d="m50.5-96.25c-0.433 0-0.717 0.167-0.85 0.5-0.167 0.333-0.167 0.667 0 1-0.167 0.333-0.167 0.65 0 0.95 0.133 0.367 0.417 0.55 0.85 0.55 0.4 0 0.683-0.183 0.85-0.55 0.133-0.3 0.117-0.617-0.05-0.95 0.167-0.333 0.184-0.667 0.05-1-0.167-0.333-0.45-0.5-0.85-0.5z"/>
					<path d="m48-90.5h0.25c0.633 0 0.95-0.333 0.95-1s-0.317-1-0.95-1h-0.25c-0.633 0-0.95 0.333-0.95 1s0.317 1 0.95 1z"/>
					<path d="m48-88.75c-0.633 0-0.95 0.333-0.95 1s0.317 1 0.95 1 0.95-0.333 0.95-1-0.317-1-0.95-1z"/>
					<path d="m46.65-82c0.167 0.333 0.45 0.5 0.85 0.5 0.533 0 0.85-0.267 0.95-0.8 0.066-0.567-0.133-0.934-0.6-1.1-0.167-0.4-0.45-0.6-0.85-0.6h-0.25c-0.633 0-0.967 0.317-1 0.95 0 0.633 0.3 0.983 0.9 1.05z"/>
					<path d="m46.5-80.75c-0.633 0-0.95 0.333-0.95 1s0.317 1 0.95 1 0.95-0.333 0.95-1-0.317-1-0.95-1z"/>
					<path d="m43.05-85.3c-0.367 0.267-0.55 0.7-0.55 1.3-0.033 0.6 0.267 0.933 0.9 1 0.6 0.033 0.95-0.233 1.05-0.8l0.25-0.5c0.267-0.3 0.333-0.65 0.2-1.05-0.133-0.433-0.433-0.65-0.9-0.65-0.5 0-0.817 0.233-0.95 0.7z"/>
					<path d="m43.5-86c0.633 0 0.95-0.333 0.95-1s-0.317-1-0.95-1-0.95 0.333-0.95 1 0.317 1 0.95 1z"/>
					<path d="m40-90.25v0.25c0 0.633 0.333 0.95 1 0.95s1-0.317 1-0.95v-0.25c0-0.667-0.333-1-1-1s-1 0.333-1 1z"/>
					<path d="m40-94c-0.633 0-0.95 0.333-0.95 1s0.317 1 0.95 1 0.95-0.333 0.95-1-0.317-1-0.95-1z"/>
					<path d="m44.25-91.25c-0.633 0-0.95 0.333-0.95 1s0.317 1 0.95 1 0.95-0.333 0.95-1-0.317-1-0.95-1z"/>
					<path d="m52-87.05c0.267-0.034 0.467-0.184 0.6-0.45s0.167-0.517 0.1-0.75c-0.133-0.6-0.55-0.833-1.25-0.7l-0.75 0.25c-0.267 0.034-0.467 0.184-0.6 0.45s-0.167 0.517-0.1 0.75c0.133 0.6 0.55 0.833 1.25 0.7 0.167 0 0.417-0.083 0.75-0.25z"/>
					<path d="m49.7-85.95c-0.267 0.034-0.467 0.184-0.6 0.45s-0.167 0.517-0.1 0.75c0.133 0.6 0.55 0.833 1.25 0.7 0.267-0.034 0.583-0.2 0.95-0.5 0.466-0.434 0.466-0.883 0-1.35-0.467-0.467-0.934-0.483-1.4-0.05h-0.1z"/>
					<path d="m52.5-85.75c-0.633 0-0.95 0.333-0.95 1s0.317 1 0.95 1 0.95-0.333 0.95-1-0.317-1-0.95-1z"/>
					<path d="m51.75-83.5c-0.633 0-0.95 0.333-0.95 1s0.317 1 0.95 1 0.95-0.333 0.95-1-0.317-1-0.95-1z"/>
					<path d="m50.25-80c-0.433 0-0.717 0.167-0.85 0.5-0.167 0.333-0.167 0.667 0 1-0.167 0.333-0.167 0.65 0 0.95 0.133 0.367 0.417 0.55 0.85 0.55 0.4 0 0.683-0.183 0.85-0.55 0.133-0.3 0.117-0.617-0.05-0.95 0.167-0.333 0.184-0.667 0.05-1-0.167-0.333-0.45-0.5-0.85-0.5z"/>
					<path d="m85.5-77.25c0.633 0 0.95-0.333 0.95-1s-0.317-1-0.95-1-0.95 0.333-0.95 1 0.317 1 0.95 1z"/>
					<path d="m86.25-74.5c0.633 0 0.95-0.333 0.95-1s-0.317-1-0.95-1-0.95 0.333-0.95 1 0.317 1 0.95 1z"/>
					<path d="m86.25-72.25c0.633 0 0.95-0.333 0.95-1s-0.317-1-0.95-1-0.95 0.333-0.95 1 0.317 1 0.95 1z"/>
					<path d="m86.25-70c-0.633 0-0.95 0.333-0.95 1s0.317 1 0.95 1 0.95-0.333 0.95-1-0.317-1-0.95-1z"/>
					<path d="m85.25-67c-0.633 0-0.95 0.333-0.95 1s0.317 1 0.95 1 0.95-0.333 0.95-1-0.317-1-0.95-1z"/>
					<path d="m84-64c-0.633 0-0.967 0.317-1 0.95 0 0.633 0.3 0.983 0.9 1.05 0.167 0.333 0.45 0.5 0.85 0.5 0.633 0 0.95-0.317 0.95-0.95s-0.3-0.966-0.9-1c-0.167-0.367-0.433-0.55-0.8-0.55z"/>
					<path d="m88.25-66.25c-0.633 0-0.95 0.333-0.95 1s0.317 1 0.95 1 0.95-0.333 0.95-1-0.317-1-0.95-1z"/>
					<path d="m88.25-68.75c-0.633 0-0.95 0.333-0.95 1s0.317 1 0.95 1 0.95-0.333 0.95-1-0.317-1-0.95-1z"/>
					<path d="m87.5-82.025c-0.142-0.65-0.476-0.975-1-0.975-0.3 0-0.55 0.1-0.75 0.3s-0.283 0.434-0.25 0.7c0.033 0.633 0.283 1.2 0.75 1.7 0.433 0.466 0.9 0.466 1.4 0 0.467-0.467 0.483-0.934 0.05-1.4-0.15-0.3-0.216-0.408-0.2-0.325z"/>
					<path d="m84.25-84c0.633 0 0.95-0.333 0.95-1s-0.317-1-0.95-1-0.95 0.333-0.95 1 0.317 1 0.95 1z"/>
					<path d="m85-90c-0.633 0-0.95 0.333-0.95 1s0.317 1 0.95 1 0.95-0.333 0.95-1-0.317-1-0.95-1z"/>
					<path d="m85.75-90.05c0.533-0.133 0.767-0.534 0.7-1.2-0.034-0.367-0.2-0.683-0.5-0.95-0.434-0.466-0.9-0.466-1.4 0-0.466 0.467-0.483 0.934-0.05 1.4v0.05c0.033 0.267 0.2 0.467 0.5 0.6 0.233 0.133 0.483 0.167 0.75 0.1z"/>
					<path d="m85-96.5c0-0.667-0.333-1-1-1s-1 0.333-1 1v0.5c0 0.633 0.333 0.95 1 0.95s1-0.317 1-0.95v-0.5z"/>
					<path d="m52.45-107.25l0.25-0.3c0.466-0.467 0.45-0.934-0.05-1.4-0.467-0.433-0.933-0.433-1.4 0-0.433 0.5-0.683 0.9-0.75 1.2-0.067 0.667 0.167 1.067 0.7 1.2 0.267 0.066 0.533 0.033 0.8-0.1s0.417-0.33 0.45-0.6z"/>
					<path d="m49-106c-0.633 0-0.95 0.333-0.95 1s0.317 1 0.95 1 0.95-0.333 0.95-1-0.317-1-0.95-1z"/>
					<path d="m49.7-111.3c0.233 0.066 0.466 0.05 0.7-0.05s0.4-0.267 0.5-0.5c0.2-0.033 0.35-0.167 0.45-0.4 0.1 0.2 0.267 0.35 0.5 0.45 0.233 0.066 0.45 0.066 0.65 0h0.05c0.067 0.533 0.383 0.8 0.95 0.8 0.633 0 0.95-0.333 0.95-1s-0.317-1-0.95-1l-0.3 0.05v-0.05c-0.034-0.367-0.2-0.683-0.5-0.95-0.267-0.3-0.583-0.383-0.95-0.25-0.333 0.1-0.567 0.317-0.7 0.65-0.267-0.167-0.55-0.217-0.85-0.15-0.7 0.133-1.1 0.534-1.2 1.2-0.067 0.67 0.167 1.07 0.7 1.2z"/>
					<path d="m55-114.75c0.633 0 0.95-0.333 0.95-1s-0.317-1-0.95-1-0.95 0.333-0.95 1 0.317 1 0.95 1z"/>
					<path d="m55.75-119c0-0.667-0.333-1-1-1s-1 0.333-1 1v0.25c0 0.633 0.333 0.95 1 0.95s1-0.317 1-0.95v-0.25z"/>
					<path d="m54.75-121.25c0 0.633 0.333 0.95 1 0.95s1-0.317 1-0.95v-0.25c0-0.667-0.333-1-1-1s-1 0.333-1 1v0.25z"/>
					<path d="m57.5-118.5c0.633 0 0.95-0.333 0.95-1s-0.317-1-0.95-1-0.95 0.333-0.95 1 0.317 1 0.95 1z"/>
					<path d="m47.5-121c0.633 0 0.95-0.333 0.95-1s-0.317-1-0.95-1-0.95 0.333-0.95 1 0.317 1 0.95 1z"/>
					<path d="m48.8-119.25h-0.05c-0.633 0-0.95 0.333-0.95 1s0.317 1 0.95 1c0.367 0 0.633-0.133 0.8-0.4 0.133-0.267 0.167-0.55 0.1-0.85h0.1c0.633 0 0.95-0.333 0.95-1s-0.317-1-0.95-1c-0.367 0-0.65 0.133-0.85 0.4-0.133 0.27-0.167 0.55-0.1 0.85z"/>
					<path d="m44-122.75c0-0.667-0.333-1-1-1s-1 0.333-1 1v0.25c0 0.633 0.333 0.95 1 0.95s1-0.317 1-0.95v-0.25z"/>
					<path d="m43-125.25c0.633 0 0.95-0.333 0.95-1s-0.317-1-0.95-1-0.95 0.333-0.95 1 0.317 1 0.95 1z"/>
					<path d="m46.75-126.25c0.633 0 0.95-0.333 0.95-1s-0.317-1-0.95-1-0.95 0.333-0.95 1 0.317 1 0.95 1z"/>
					<path d="m46.75-130.25c-0.633 0-0.95 0.333-0.95 1s0.317 1 0.95 1 0.95-0.333 0.95-1-0.317-1-0.95-1z"/>
					<path d="m49.5-128.25c0.633 0 0.95-0.333 0.95-1s-0.317-1-0.95-1-0.95 0.333-0.95 1 0.317 1 0.95 1z"/>
					<path d="m49.5-126.5c-0.633 0-0.95 0.333-0.95 1s0.317 1 0.95 1 0.95-0.333 0.95-1-0.317-1-0.95-1z"/>
					<path d="m51.25-128.25c-0.633 0-0.95 0.333-0.95 1s0.317 1 0.95 1 0.95-0.333 0.95-1-0.317-1-0.95-1z"/>
					<path d="m51.75-131.75c-0.633 0-0.95 0.333-0.95 1s0.317 1 0.95 1 0.95-0.333 0.95-1-0.317-1-0.95-1z"/>
					<path d="m48.75-133c-0.633 0-0.95 0.333-0.95 1s0.317 1 0.95 1 0.95-0.333 0.95-1-0.317-1-0.95-1z"/>
					<path d="m47.75-135.75c0 0.633 0.333 0.95 1 0.95s1-0.317 1-0.95v-0.25c0-0.667-0.333-1-1-1s-1 0.333-1 1v0.25z"/>
					<path d="m53.1-134.25c0.433 0.033 0.767-0.15 1-0.55s0.183-0.784-0.15-1.15l-0.25-0.25c-0.267-0.267-0.55-0.367-0.85-0.3s-0.533 0.233-0.7 0.5c-0.133-0.5-0.433-0.75-0.9-0.75-0.6 0-0.933 0.3-1 0.9-0.033 0.6 0.217 0.95 0.75 1.05v0.05c0.1 0.6 0.517 0.933 1.25 1 0.367 0.03 0.65-0.13 0.85-0.5z"/>
					<path d="m54.5-131.5c0.633 0 0.95-0.333 0.95-1s-0.317-1-0.95-1-0.95 0.333-0.95 1 0.317 1 0.95 1z"/>
					<path d="m44-132.25c0.633 0 0.95-0.333 0.95-1s-0.317-1-0.95-1-0.95 0.333-0.95 1 0.317 1 0.95 1z"/>
					<path d="m37-129c0.633 0 0.95-0.333 0.95-1s-0.317-1-0.95-1-0.95 0.333-0.95 1 0.317 1 0.95 1z"/>
					<path d="m36.5-127.75c0-0.667-0.333-1-1-1s-1 0.333-1 1v0.5c0 0.633 0.333 0.95 1 0.95s1-0.317 1-0.95v-0.5z"/>
					<path d="m36.5-122c0.633 0 0.95-0.333 0.95-1s-0.317-1-0.95-1l-0.3 0.05c0-0.7-0.317-1.05-0.95-1.05-0.4 0-0.683 0.167-0.85 0.5-0.133-0.5-0.433-0.75-0.9-0.75-0.633 0-0.95 0.333-0.95 1s0.317 1 0.95 1c0.367 0 0.633-0.167 0.8-0.5 0.133 0.5 0.45 0.75 0.95 0.75l0.25-0.05c0 0.7 0.333 1.05 1 1.05z"/>
					<path d="m31.75-125.75c0.633 0 0.95-0.333 0.95-1s-0.317-1-0.95-1-0.95 0.333-0.95 1 0.317 1 0.95 1z"/>
					<path d="m34-128.25c0.633 0 0.95-0.333 0.95-1s-0.317-1-0.95-1-0.95 0.333-0.95 1 0.317 1 0.95 1z"/>
					<path d="m34-116.05c0.667 0 1-0.317 1-0.95v-0.75l-0.1-0.3c0.3-0.3 0.383-0.65 0.25-1.05-0.133-0.433-0.433-0.65-0.9-0.65-0.367 0-0.65 0.133-0.85 0.4-0.133 0.267-0.167 0.55-0.1 0.85-0.2 0.2-0.3 0.45-0.3 0.75v0.75c0 0.63 0.333 0.95 1 0.95z"/>
					<path d="m34.25-115c-0.633 0-0.95 0.333-0.95 1s0.317 1 0.95 1 0.95-0.333 0.95-1-0.317-1-0.95-1z"/>
					<path d="m44-111c-0.633 0-0.95 0.333-0.95 1s0.317 1 0.95 1 0.95-0.333 0.95-1-0.317-1-0.95-1z"/>
					<path d="m45.15-107.3l0.35 0.05c0.633 0 0.95-0.333 0.95-1s-0.317-1-0.95-1c-0.367 0-0.65 0.15-0.85 0.45-0.133 0.267-0.167 0.566-0.1 0.9l-0.3-0.1c-0.633 0-0.95 0.333-0.95 1s0.317 1 0.95 1c0.367 0 0.633-0.15 0.8-0.45 0.167-0.27 0.2-0.55 0.1-0.85z"/>
					<path d="m39-91.5c-0.633 0-0.95 0.333-0.95 1s0.317 1 0.95 1 0.95-0.333 0.95-1-0.317-1-0.95-1z"/>
					<path d="m42.75-85.75c0-0.667-0.333-1-1-1s-1 0.333-1 1v0.25c0 0.633 0.333 0.95 1 0.95s1-0.317 1-0.95v-0.25z"/>
					<path d="m67.75-61.75c0.633 0 0.95-0.333 0.95-1s-0.317-1-0.95-1-0.95 0.333-0.95 1 0.317 1 0.95 1z"/>
					<path d="m65.5-58c0.633 0 0.95-0.333 0.95-1s-0.317-1-0.95-1-0.95 0.333-0.95 1 0.317 1 0.95 1z"/>
					<path d="m63.25-63.75c-0.633 0-0.95 0.333-0.95 1s0.317 1 0.95 1 0.95-0.333 0.95-1-0.317-1-0.95-1z"/>
					<path d="m62.75-65.25c0.633 0 0.95-0.333 0.95-1s-0.317-1-0.95-1-0.95 0.333-0.95 1 0.317 1 0.95 1z"/>
					<path d="m78.25-37.75c0.633 0 0.95-0.333 0.95-1s-0.317-1-0.95-1-0.95 0.333-0.95 1 0.317 1 0.95 1z"/>
					<path d="m81-38.5c0.633 0 0.95-0.333 0.95-1s-0.317-1-0.95-1-0.95 0.333-0.95 1 0.317 1 0.95 1z"/>
					<path d="m75-38.75c-0.633 0-0.95 0.333-0.95 1s0.317 1 0.95 1 0.95-0.333 0.95-1-0.317-1-0.95-1z"/>
					<path d="m71-39c-0.633 0-0.95 0.333-0.95 1s0.317 1 0.95 1 0.95-0.333 0.95-1-0.317-1-0.95-1z"/>
					<path d="m76-32.5c-0.633 0-0.95 0.333-0.95 1s0.317 1 0.95 1 0.95-0.333 0.95-1-0.317-1-0.95-1z"/>
					<path d="m77-29c-0.633 0-0.95 0.333-0.95 1s0.317 1 0.95 1 0.95-0.333 0.95-1-0.317-1-0.95-1z"/>
					<path d="m84.5-32.25c-0.633 0-0.95 0.333-0.95 1s0.317 1 0.95 1 0.95-0.333 0.95-1-0.317-1-0.95-1z"/>
					<path d="m84.25-19.75c-0.633 0-0.95 0.333-0.95 1s0.317 1 0.95 1 0.95-0.333 0.95-1-0.317-1-0.95-1z"/>
					<path d="m83-17.25c-0.633 0-0.95 0.333-0.95 1s0.317 1 0.95 1 0.95-0.333 0.95-1-0.317-1-0.95-1z"/>
					<path d="m80.75-21.25c-0.633 0-0.95 0.333-0.95 1s0.317 1 0.95 1 0.95-0.333 0.95-1-0.317-1-0.95-1z"/>
					<path d="m91.6-112.65l-0.35-0.1c-0.633 0-0.95 0.333-0.95 1s0.317 1 0.95 1l0.35-0.05 0.4 0.05c0.633 0 0.95-0.333 0.95-1s-0.317-1-0.95-1l-0.4 0.1z"/>
					<path d="m94.2-107.6c-0.3-0.333-0.667-0.433-1.1-0.3-0.434 0.133-0.633 0.433-0.6 0.9 0 0.7 0.317 1.1 0.95 1.2 0.7 0.133 1.117-0.1 1.25-0.7 0.133-0.5-0.033-0.87-0.5-1.1z"/>
					<path d="m95.5-102.75c-0.633 0-0.95 0.333-0.95 1s0.317 1 0.95 1 0.95-0.333 0.95-1-0.317-1-0.95-1z"/>
					<path d="m100.95-64.1c-0.2-0.233-0.483-0.35-0.85-0.35l-0.15-0.25-0.25-0.3c-0.034-0.267-0.184-0.467-0.45-0.6s-0.533-0.167-0.8-0.1c-0.534 0.133-0.767 0.534-0.7 1.2 0.067 0.367 0.317 0.767 0.75 1.2l0.25 0.2c-0.433 0.2-0.6 0.55-0.5 1.05 0.1 0.533 0.433 0.8 1 0.8 0.633 0 0.95-0.35 0.95-1.05 0.7 0.133 1.117-0.1 1.25-0.7 0.13-0.5-0.03-0.867-0.5-1.1z"/>
					<path d="m101.3-58.7c-0.566 0.067-0.833 0.417-0.8 1.05 0.067 0.6 0.4 0.9 1 0.9 0.367 0 0.633-0.15 0.8-0.45 0.133-0.233 0.167-0.517 0.1-0.85 0.567-0.067 0.833-0.417 0.8-1.05-0.034-0.6-0.35-0.9-0.95-0.9-0.367 0-0.65 0.133-0.85 0.4-0.13 0.267-0.17 0.567-0.1 0.9z"/>
					<path d="m105.5-54.75c-0.633 0-0.95 0.333-0.95 1s0.317 1 0.95 1 0.95-0.333 0.95-1-0.32-1-0.95-1z"/>
					<path d="m101.5-50.5c0.633 0 0.95-0.333 0.95-1s-0.317-1-0.95-1-0.95 0.333-0.95 1 0.32 1 0.95 1z"/>
					<path d="m99-56c-0.633 0-0.95 0.333-0.95 1s0.317 1 0.95 1 0.95-0.333 0.95-1-0.317-1-0.95-1z"/>
					<path d="m103.5-57c-0.633 0-0.95 0.333-0.95 1s0.317 1 0.95 1 0.95-0.333 0.95-1-0.32-1-0.95-1z"/>
					<path d="m108.75-55.25c0.633 0 0.95-0.333 0.95-1s-0.317-1-0.95-1-0.95 0.333-0.95 1 0.32 1 0.95 1z"/>
					<path d="m106-52.5c-0.633 0-0.95 0.333-0.95 1s0.317 1 0.95 1 0.95-0.333 0.95-1-0.32-1-0.95-1z"/>
					<path d="m101.5-54.5c-0.633 0-0.95 0.333-0.95 1s0.317 1 0.95 1 0.95-0.333 0.95-1-0.32-1-0.95-1z"/>
					<path d="m102.5-65.25c-0.633 0-0.95 0.333-0.95 1s0.317 1 0.95 1 0.95-0.333 0.95-1-0.32-1-0.95-1z"/>
					<path d="m99.5-60.5c-0.633 0-0.95 0.333-0.95 1s0.317 1 0.95 1 0.95-0.333 0.95-1-0.32-1-0.95-1z"/>
					<path d="m103.75-61.5c0.633 0 0.95-0.333 0.95-1s-0.317-1-0.95-1c-0.6 0-0.933 0.317-1 0.95-0.2-0.133-0.367-0.2-0.5-0.2-0.633 0-0.95 0.333-0.95 1s0.317 1 0.95 1c0.567 0 0.883-0.3 0.95-0.9 0.17 0.1 0.35 0.15 0.55 0.15z"/>
					<path d="m104.25-61.25c-0.1 0.4 0.017 0.75 0.35 1.05-0.567 0.067-0.833 0.417-0.8 1.05 0.034 0.6 0.35 0.9 0.95 0.9 0.333 0 0.583-0.133 0.75-0.4 0.167-0.233 0.217-0.5 0.15-0.8 0.133 0.133 0.333 0.2 0.6 0.2 0.3 0 0.517-0.1 0.65-0.3-0.267 0.5-0.2 0.95 0.2 1.35l-0.1-0.05c-0.633 0-0.95 0.333-0.95 1s0.317 1 0.95 1c0.467 0 0.767-0.233 0.9-0.7 0.133-0.433 0.033-0.783-0.3-1.05h0.15c0.633 0 0.95-0.333 0.95-1s-0.317-1-0.95-1c-0.3 0-0.533 0.1-0.7 0.3 0.167-0.3 0.184-0.6 0.05-0.9-0.133-0.367-0.383-0.566-0.75-0.6-0.167-0.466-0.45-0.716-0.85-0.75-0.67-0.133-1.08 0.1-1.25 0.7z"/>
					<path d="m99.1-69.3c0.167-0.333 0.15-0.667-0.05-1l0.2 0.05c0.633 0 0.95-0.333 0.95-1s-0.317-1-0.95-1c-0.433 0-0.733 0.183-0.9 0.55-0.167 0.333-0.15 0.667 0.05 1l-0.15-0.05c-0.633 0-0.95 0.333-0.95 1s0.317 1 0.95 1c0.4 0 0.683-0.183 0.85-0.55z"/>
					<path d="m96-68.75c-0.633 0-0.95 0.333-0.95 1s0.317 1 0.95 1 0.95-0.333 0.95-1-0.317-1-0.95-1z"/>
					<path d="m98.25-76.5c-0.633 0-0.95 0.333-0.95 1s0.317 1 0.95 1 0.95-0.333 0.95-1-0.317-1-0.95-1z"/>
					<path d="m94.75-77.25c-0.633 0-0.95 0.333-0.95 1s0.317 1 0.95 1 0.95-0.333 0.95-1-0.317-1-0.95-1z"/>
					<path d="m93-85.5c-0.633 0-0.95 0.333-0.95 1s0.317 1 0.95 1 0.95-0.333 0.95-1-0.317-1-0.95-1z"/>
					<path d="m98-82c-0.633 0-0.95 0.333-0.95 1s0.317 1 0.95 1 0.95-0.333 0.95-1-0.317-1-0.95-1z"/>
					<path d="m96-78.25c0.633 0 0.95-0.333 0.95-1s-0.317-1-0.95-1-0.95 0.333-0.95 1 0.317 1 0.95 1z"/>
					<path d="m94-82.75c-0.633 0-0.95 0.333-0.95 1s0.317 1 0.95 1 0.95-0.333 0.95-1-0.317-1-0.95-1z"/>
					<path d="m101.75-77.5c0.633 0 0.95-0.333 0.95-1s-0.317-1-0.95-1-0.95 0.333-0.95 1 0.32 1 0.95 1z"/>
					<path d="m96-73.5c-0.633 0-0.95 0.333-0.95 1s0.317 1 0.95 1 0.95-0.333 0.95-1-0.317-1-0.95-1z"/>
					<path d="m97-86.75c-0.633 0-0.95 0.333-0.95 1s0.317 1 0.95 1c0.2 0 0.367-0.05 0.5-0.15 0.1 0.1 0.267 0.15 0.5 0.15 0.633 0 0.95-0.333 0.95-1s-0.317-1-0.95-1c-0.233 0-0.4 0.05-0.5 0.15-0.133-0.1-0.3-0.15-0.5-0.15z"/>
					<path d="m94.25-88.75c0.633 0 0.95-0.333 0.95-1s-0.317-1-0.95-1-0.95 0.333-0.95 1 0.317 1 0.95 1z"/>
					<path d="m94.75-98c-0.633 0-0.95 0.333-0.95 1s0.317 1 0.95 1 0.95-0.333 0.95-1-0.317-1-0.95-1z"/>
					<path d="m90.8-98.75c0 0.667 0.317 1 0.95 1s0.95-0.333 0.95-1-0.317-1-0.95-1-0.95 0.333-0.95 1z"/>
					<path d="m89.75-103.25c-0.633 0-0.95 0.333-0.95 1s0.317 1 0.95 1 0.95-0.333 0.95-1-0.317-1-0.95-1z"/>
					<path d="m90.5-105.5c-0.633 0-0.95 0.333-0.95 1s0.317 1 0.95 1 0.95-0.333 0.95-1-0.317-1-0.95-1z"/>
					<path d="m92.5-101.75c0.633 0 0.95-0.333 0.95-1s-0.317-1-0.95-1-0.95 0.333-0.95 1 0.317 1 0.95 1z"/>
					<path d="m89.5-106.25c0.633 0 0.95-0.333 0.95-1s-0.317-1-0.95-1-0.95 0.333-0.95 1 0.317 1 0.95 1z"/>
					<path d="m96.75-107.5c0.2 0 0.333-0.033 0.4-0.1 0.333 0.1 0.633 0.067 0.9-0.1 0.3-0.167 0.45-0.433 0.45-0.8v-0.25c0-0.467-0.217-0.767-0.65-0.9-0.4-0.133-0.75-0.083-1.05 0.15h-0.05c-0.633 0-0.95 0.333-0.95 1s0.317 1 0.95 1z"/>
					<path d="m94.75-111.25c0.633 0 0.95-0.333 0.95-1s-0.317-1-0.95-1-0.95 0.333-0.95 1 0.317 1 0.95 1z"/>
					<path d="m93-114.25c0-0.667-0.333-1-1-1s-1 0.333-1 1v0.25c0 0.633 0.333 0.95 1 0.95s1-0.317 1-0.95v-0.25z"/>
					<path d="m88-119.25c0.633 0 0.95-0.333 0.95-1s-0.317-1-0.95-1-0.95 0.333-0.95 1 0.317 1 0.95 1z"/>
					<path d="m88.95-116.2c0-0.333-0.117-0.6-0.35-0.8 0.566-0.067 0.85-0.417 0.85-1.05-0.034-0.633-0.35-0.95-0.95-0.95-0.5 0-0.817 0.233-0.95 0.7-0.133 0.433-0.033 0.8 0.3 1.1-0.5 0.034-0.783 0.317-0.85 0.85-0.033 0.533 0.183 0.883 0.65 1.05-0.333 0.267-0.45 0.633-0.35 1.1s0.417 0.7 0.95 0.7c0.567 0 0.883-0.283 0.95-0.85 0.066-0.566-0.15-0.933-0.65-1.1 0.233-0.17 0.367-0.42 0.4-0.75z"/>
					<path d="m84.25-115c0 0.633 0.333 0.95 1 0.95s1-0.317 1-0.95v-0.5c0-0.667-0.333-1-1-1s-1 0.333-1 1v0.5z"/>
					<path d="m84.5-119.25c0.633 0 0.95-0.333 0.95-1s-0.317-1-0.95-1-0.95 0.333-0.95 1 0.317 1 0.95 1z"/>
					<path d="m92.75-119.5c0.633 0 0.95-0.333 0.95-1s-0.317-1-0.95-1-0.95 0.333-0.95 1 0.317 1 0.95 1z"/>
					<path d="m95.5-118.75v0.25c0 0.633 0.333 0.95 1 0.95s1-0.317 1-0.95v-0.25c0-0.333-0.15-0.583-0.45-0.75 0.167-0.333 0.184-0.667 0.05-1-0.167-0.333-0.45-0.5-0.85-0.5-0.5 0-0.817 0.233-0.95 0.7-0.133 0.433-0.033 0.783 0.3 1.05l-0.1 0.5z"/>
					<path d="m97.75-115.15c0.367-0.233 0.5-0.6 0.4-1.1s-0.4-0.75-0.9-0.75c-0.433 0-0.733 0.2-0.9 0.6-0.133 0.4-0.083 0.75 0.15 1.05-0.167 0.1-0.283 0.233-0.35 0.4l-0.15-0.05c-0.633 0-0.95 0.333-0.95 1s0.317 1 0.95 1c0.433 0 0.7-0.167 0.8-0.5h0.2c0.433 0 0.717-0.2 0.85-0.6 0.133-0.37 0.1-0.72-0.1-1.05z"/>
					<path d="m93.55-116.25c0.6-0.067 0.9-0.417 0.9-1.05s-0.317-0.95-0.95-0.95c-0.367 0-0.65 0.183-0.85 0.55-0.6 0.034-0.9 0.367-0.9 1 0.033 0.633 0.367 0.95 1 0.95 0.367 0 0.633-0.17 0.8-0.5z"/>
					<path d="m100-117.25c0.633 0 0.95-0.333 0.95-1s-0.317-1-0.95-1-0.95 0.333-0.95 1 0.317 1 0.95 1z"/>
					<path d="m101-115c0.633 0 0.95-0.333 0.95-1s-0.317-1-0.95-1-0.95 0.333-0.95 1 0.32 1 0.95 1z"/>
					<path d="m103.75-115c0.633 0 0.95-0.333 0.95-1s-0.317-1-0.95-1-0.95 0.333-0.95 1 0.32 1 0.95 1z"/>
					<path d="m100.25-112.5c0-0.667-0.333-1-1-1s-1 0.333-1 1v1c0 0.633 0.333 0.95 1 0.95s1-0.317 1-0.95v-1z"/>
					<path d="m98.75-103.5c0.5 0 0.8-0.25 0.9-0.75s-0.033-0.867-0.4-1.1c0.233-0.3 0.267-0.65 0.1-1.05-0.133-0.4-0.417-0.6-0.85-0.6-0.533 0-0.85 0.25-0.95 0.75s0.05 0.867 0.45 1.1c-0.233 0.333-0.283 0.683-0.15 1.05 0.133 0.4 0.433 0.6 0.9 0.6z"/>
					<path d="m99.5-99.5c0.633 0 0.95-0.333 0.95-1s-0.317-1-0.95-1-0.95 0.333-0.95 1 0.317 1 0.95 1z"/>
					<path d="m100.75-93.75c0.633 0 0.95-0.333 0.95-1s-0.317-1-0.95-1-0.95 0.333-0.95 1 0.32 1 0.95 1z"/>
					<path d="m101-91.25c0.633 0 0.95-0.333 0.95-1s-0.317-1-0.95-1-0.95 0.333-0.95 1 0.32 1 0.95 1z"/>
				</g>
				<g clip-rule="evenodd" fill="#C1DAE8" fill-rule="evenodd">
					<path d="m88.25-23l-0.25 0.3c-0.467 0.467-0.45 0.934 0.05 1.4 0.467 0.466 0.934 0.466 1.4 0 0.433-0.434 0.683-0.833 0.75-1.2 0.066-0.667-0.167-1.067-0.7-1.2-0.267-0.066-0.517-0.033-0.75 0.1-0.3 0.133-0.467 0.333-0.5 0.6z"/>
					<path d="m88.7-27.1c-0.467 0.233-0.917 0.767-1.35 1.6-0.267 0.567-0.117 1.017 0.45 1.35s1 0.217 1.3-0.35c0.233-0.5 0.45-0.8 0.65-0.9 0.567-0.3 0.667-0.733 0.3-1.3-0.333-0.6-0.783-0.733-1.35-0.4z"/>
					<path d="m91.85-27c-0.133 0.267-0.333 0.533-0.6 0.8-0.467 0.467-0.45 0.934 0.05 1.4 0.467 0.466 0.934 0.466 1.4 0 0.367-0.367 0.667-0.767 0.9-1.2 0.3-0.567 0.167-1.017-0.4-1.35-0.6-0.333-1.05-0.217-1.35 0.35z"/>
					<path d="m89.25-29.55c0.2 0.2 0.45 0.3 0.75 0.3 0.3 0.033 0.533-0.067 0.7-0.3 0.133-0.133 0.3-0.383 0.5-0.75 0.433-0.5 0.433-0.967 0-1.4-0.2-0.167-0.45-0.267-0.75-0.3-0.3 0-0.534 0.1-0.7 0.3-0.2 0.367-0.367 0.617-0.5 0.75-0.433 0.5-0.433 0.967 0 1.4z"/>
					<path d="m89-34.25c0-0.667-0.333-1-1-1s-1 0.333-1 1v1c0 0.633 0.333 0.95 1 0.95s1-0.317 1-0.95v-1z"/>
					<path d="m90-37.75c0-0.667-0.333-1-1-1s-1 0.333-1 1v0.5c0 0.633 0.333 0.95 1 0.95s1-0.317 1-0.95v-0.5z"/>
					<path d="m90.6-43.75c0.233-0.6 0.117-1.05-0.35-1.35-0.233-0.133-0.483-0.167-0.75-0.1-0.3 0.067-0.517 0.217-0.65 0.45-0.233 0.567-0.35 1.15-0.35 1.75-0.033 0.633 0.283 0.95 0.95 0.95s1.017-0.317 1.05-0.95c0-0.367 0.033-0.617 0.1-0.75z"/>
					<path d="m92.75-37.5c0.633 0 0.95-0.333 0.95-1s-0.317-1-0.95-1-0.95 0.333-0.95 1 0.317 1 0.95 1z"/>
					<path d="m93.75-32.8c0.267-0.034 0.517-0.167 0.75-0.4 0.267-0.233 0.417-0.5 0.45-0.8 0.066-0.667-0.167-1.067-0.7-1.2-0.233-0.066-0.467-0.05-0.7 0.05s-0.4 0.267-0.5 0.5c-0.433 0.167-0.617 0.517-0.55 1.05-0.3-0.1-0.467-0.15-0.5-0.15-0.633 0-0.95 0.333-0.95 1s0.317 1 0.95 1c0.333 0 0.583-0.133 0.75-0.4 0.167-0.233 0.217-0.5 0.15-0.8 0.267 0.167 0.55 0.217 0.85 0.15z"/>
					<path d="m95-36.75l-0.05 0.3c0 0.041-8e-3 0.065-0.025 0.075h0.025c-0.347 0.503-0.33 0.945 0.05 1.325 0.2 0.2 0.45 0.3 0.75 0.3s0.533-0.1 0.7-0.3c0.3-0.4 0.483-0.967 0.55-1.7 0-0.667-0.333-1-1-1s-1 0.333-1 1z"/>
					<path d="m96.35-41.5c0.3-0.567 0.167-1.017-0.4-1.35-0.6-0.333-1.05-0.217-1.35 0.35l-1 1.75c-0.3 0.567-0.15 1.017 0.45 1.35 0.567 0.333 1 0.217 1.3-0.35l1-1.75z"/>
					<path d="m94.5-46.25c0-0.667-0.333-1-1-1s-1 0.333-1 1v1c0 0.633 0.333 0.95 1 0.95s1-0.317 1-0.95v-1z"/>
					<path d="m91-49.2c-0.333 0.434-0.5 1.083-0.5 1.95-0.033 0.633 0.283 0.95 0.95 0.95s1.017-0.317 1.05-0.95v-0.5c0-0.033 0.017-0.083 0.05-0.15l-0.1 0.1c0.4-0.534 0.4-1 0-1.4-0.167-0.167-0.4-0.267-0.7-0.3-0.333 0-0.583 0.1-0.75 0.3z"/>
					<path d="m90.25-52.25c0-0.667-0.333-1-1-1s-1 0.333-1 1v0.25c0 0.633 0.333 0.95 1 0.95s1-0.317 1-0.95v-0.25z"/>
					<path d="m85.5-55.5c0 0.633 0.333 0.95 1 0.95s1-0.317 1-0.95v-0.25c0-0.667-0.333-1-1-1s-1 0.333-1 1v0.25z"/>
					<path d="m91.5-59.8c0.6-0.2 0.817-0.617 0.65-1.25-0.167-0.667-0.566-0.883-1.2-0.65-0.833 0.3-1.5 0.583-2 0.85-0.567 0.267-0.684 0.7-0.35 1.3 0.367 0.566 0.833 0.7 1.4 0.4l1.5-0.65z"/>
					<path d="m94.95-54.05c0.066-0.534-0.117-0.9-0.55-1.1 0.167-0.4 0.1-0.75-0.2-1.05-0.421-0.361-0.854-0.394-1.3-0.1-0.022 0.022-0.047 0.039-0.075 0.05h-0.325c-0.633 0-0.95 0.333-0.95 1s0.317 1 0.95 1l0.5-0.05c0 0.7 0.333 1.05 1 1.05 0.533 0 0.85-0.267 0.95-0.8z"/>
					<path d="m94.25-53c-0.633 0-0.95 0.333-0.95 1s0.317 1 0.95 1 0.95-0.333 0.95-1-0.317-1-0.95-1z"/>
					<path d="m98.5-47.25c0.633 0 0.95-0.333 0.95-1s-0.317-1-0.95-1-0.95 0.333-0.95 1 0.317 1 0.95 1z"/>
					<path d="m97.5-43.5c-0.633 0-0.95 0.333-0.95 1s0.317 1 0.95 1 0.95-0.333 0.95-1-0.317-1-0.95-1z"/>
					<path d="m98.75-43.5c0 0.633 0.333 0.95 1 0.95s1-0.317 1-0.95v-0.25c0-0.667-0.333-1-1-1s-1 0.333-1 1v0.25z"/>
					<path d="m96.5-47.5c-0.633 0-0.95 0.333-0.95 1s0.317 1 0.95 1 0.95-0.333 0.95-1-0.317-1-0.95-1z"/>
					<path d="m109.25-68.75c-0.033-0.667-0.383-1-1.05-1s-0.983 0.333-0.95 1c0 1.133 0.083 1.967 0.25 2.5 0.2 0.633 0.617 0.867 1.25 0.7s0.867-0.567 0.7-1.2c-0.13-0.433-0.2-1.1-0.2-2z"/>
					<path d="m107-75.1c-0.233-0.133-0.483-0.167-0.75-0.1-0.3 0.067-0.517 0.217-0.65 0.45-0.233 0.567-0.35 1.15-0.35 1.75-0.033 0.633 0.283 0.95 0.95 0.95s1.017-0.317 1.05-0.95c0-0.367 0.033-0.617 0.1-0.75 0.23-0.6 0.12-1.05-0.35-1.35z"/>
					<path d="m110.1-73.95c-0.167 0.333-0.15 0.667 0.05 1-0.367-0.066-0.667 0.017-0.9 0.25l-0.25 0.25c-0.467 0.467-0.45 0.934 0.05 1.4 0.467 0.466 0.934 0.466 1.4 0l0.25-0.25c0.367-0.367 0.383-0.784 0.05-1.25l0.25 0.05c0.633 0 0.95-0.333 0.95-1s-0.317-1-0.95-1c-0.43 0-0.73 0.183-0.9 0.55z"/>
					<path d="m106.75-76.8c0.2 0.2 0.45 0.3 0.75 0.3 0.533 0 0.867-0.333 1-1l0.05-0.15 0.2-0.85c0.033-0.267-0.067-0.5-0.3-0.7-0.2-0.2-0.434-0.3-0.7-0.3-0.6 0-0.933 0.333-1 1 0-0.133-0.033-0.067-0.1 0.2l-0.05 0.25c-0.067 0.1-0.1 0.283-0.1 0.55-0.03 0.267 0.05 0.5 0.25 0.7z"/>
					<path d="m109.5-80.5c0.633 0 0.95-0.333 0.95-1s-0.317-1-0.95-1-0.95 0.333-0.95 1 0.32 1 0.95 1z"/>
					<path d="m111.25-78.5c-0.633 0-0.95 0.333-0.95 1s0.317 1 0.95 1 0.95-0.333 0.95-1-0.32-1-0.95-1z"/>
					<path d="m112.25-75.25c-0.033 0.5 0.167 0.8 0.6 0.9 0.433 0.133 0.8 0.033 1.1-0.3 0.466-0.233 0.633-0.6 0.5-1.1-0.167-0.6-0.583-0.833-1.25-0.7-0.63 0.1-0.95 0.5-0.95 1.2z"/>
					<path d="m116.5-81.5c-0.633 0-0.95 0.333-0.95 1s0.317 1 0.95 1 0.95-0.333 0.95-1-0.32-1-0.95-1z"/>
					<path d="m114-84.75c-0.633 0-0.95 0.333-0.95 1s0.317 1 0.95 1 0.95-0.333 0.95-1-0.32-1-0.95-1z"/>
					<path d="m112-87.5c0.633 0 0.95-0.333 0.95-1s-0.317-1-0.95-1-0.95 0.333-0.95 1 0.32 1 0.95 1z"/>
					<path d="m106.25-88.5c-0.633 0-0.95 0.333-0.95 1s0.317 1 0.95 1 0.95-0.333 0.95-1-0.32-1-0.95-1z"/>
					<path d="m107.5-83c0.633 0 0.95-0.333 0.95-1s-0.317-1-0.95-1-0.95 0.333-0.95 1 0.32 1 0.95 1z"/>
					<path d="m108.25-87.5c-0.633 0-0.95 0.333-0.95 1s0.317 1 0.95 1 0.95-0.333 0.95-1-0.32-1-0.95-1z"/>
					<path d="m109-87.5c0.633 0 0.95-0.333 0.95-1s-0.317-1-0.95-1-0.95 0.333-0.95 1 0.32 1 0.95 1z"/>
					<path d="m115.75-90c-0.633 0-0.95 0.333-0.95 1s0.317 1 0.95 1 0.95-0.333 0.95-1-0.32-1-0.95-1z"/>
					<path d="m117.1-88.5c-0.233 0.6-0.117 1.05 0.35 1.35 0.233 0.133 0.5 0.167 0.8 0.1 0.267-0.067 0.467-0.217 0.6-0.45 0.2-0.433 0.333-1.1 0.4-2 0-0.667-0.333-1-1-1s-1 0.333-1 1l-0.15 1z"/>
					<path d="m118.5-95.25c0 0.633 0.333 0.95 1 0.95s1-0.317 1-0.95v-0.25c0-0.667-0.333-1-1-1s-1 0.333-1 1v0.25z"/>
					<path d="m118.7-99.75c0-0.667-0.317-1-0.95-1s-0.95 0.333-0.95 1 0.317 1 0.95 1 0.95-0.333 0.95-1z"/>
					<path d="m113-99.25c0.633 0 0.95-0.333 0.95-1s-0.317-1-0.95-1-0.95 0.333-0.95 1 0.32 1 0.95 1z"/>
					<path d="m108.5-95.75c0.633 0 0.95-0.333 0.95-1s-0.317-1-0.95-1-0.95 0.333-0.95 1 0.32 1 0.95 1z"/>
					<path d="m107.7-99.5c0-0.667-0.317-1-0.95-1s-0.95 0.333-0.95 1 0.317 1 0.95 1 0.95-0.333 0.95-1z"/>
					<path d="m109.75-105.05c0.467 0.466 0.933 0.466 1.4 0 0.5-0.467 0.517-0.934 0.05-1.4l-0.25-0.25c-0.333-0.3-0.667-0.367-1-0.2 0-0.733-0.317-1.1-0.95-1.1s-0.95 0.333-0.95 1 0.317 1 0.95 1l0.25-0.05c-0.067 0.267 0.017 0.517 0.25 0.75l0.25 0.25z"/>
					<path d="m113-103.25c0.633 0 0.95-0.333 0.95-1s-0.317-1-0.95-1-0.95 0.333-0.95 1 0.32 1 0.95 1z"/>
					<path d="m113.5-109.85c0.233-0.3 0.267-0.65 0.1-1.05-0.133-0.4-0.417-0.6-0.85-0.6-0.3 0-0.533 0.1-0.7 0.3 0.2-0.333 0.217-0.667 0.05-1-0.167-0.367-0.45-0.55-0.85-0.55-0.633 0-0.95 0.333-0.95 1s0.317 1 0.95 1c0.3 0 0.517-0.1 0.65-0.3-0.133 0.267-0.167 0.533-0.1 0.8s0.217 0.467 0.45 0.6c-0.233 0.333-0.283 0.683-0.15 1.05 0.133 0.4 0.433 0.6 0.9 0.6 0.5 0 0.8-0.25 0.9-0.75s-0.03-0.87-0.4-1.1z"/>
					<path d="m109-104.5c-0.633 0-0.95 0.333-0.95 1s0.317 1 0.95 1 0.95-0.333 0.95-1-0.32-1-0.95-1z"/>
					<path d="m106.25-104.75c-0.633 0-0.95 0.333-0.95 1s0.317 1 0.95 1 0.95-0.333 0.95-1-0.32-1-0.95-1z"/>
					<path d="m108.5-112c-0.633 0-0.95 0.333-0.95 1s0.317 1 0.95 1 0.95-0.333 0.95-1-0.32-1-0.95-1z"/>
					<path d="m116.75-107.75c0-0.667-0.333-1-1-1s-1 0.333-1 1v0.5c0 0.633 0.333 0.95 1 0.95s1-0.317 1-0.95v-0.5z"/>
					<path d="m114.5-111.25c0.633 0 0.95-0.333 0.95-1s-0.317-1-0.95-1-0.95 0.333-0.95 1 0.32 1 0.95 1z"/>
					<path d="m114.5-114.5c0.633 0 0.95-0.333 0.95-1s-0.317-1-0.95-1-0.95 0.333-0.95 1 0.32 1 0.95 1z"/>
					<path d="m117.15-111.2c0.2 0.3 0.483 0.45 0.85 0.45 0.633 0 0.95-0.333 0.95-1s-0.317-1-0.95-1l-0.35 0.1c0.067-0.233 0.067-0.434 0-0.6 0.567 0 0.917-0.25 1.05-0.75s-0.034-0.867-0.5-1.1c-0.3-0.333-0.667-0.433-1.1-0.3-0.434 0.133-0.633 0.433-0.6 0.9l0.1 0.55c-0.567 0.034-0.833 0.367-0.8 1 0.034 0.633 0.35 0.95 0.95 0.95l0.3-0.05c-0.07 0.3-0.03 0.58 0.1 0.85z"/>
					<path d="m119.75-108c0.633 0 0.95-0.333 0.95-1s-0.317-1-0.95-1-0.95 0.333-0.95 1 0.32 1 0.95 1z"/>
					<path d="m121.5-109.25c0.633 0 0.95-0.333 0.95-1s-0.317-1-0.95-1-0.95 0.333-0.95 1 0.32 1 0.95 1z"/>
					<path d="m123-112.75c0.633 0 0.95-0.333 0.95-1s-0.317-1-0.95-1-0.95 0.333-0.95 1 0.32 1 0.95 1z"/>
					<path d="m119-115.75c0.633 0 0.95-0.333 0.95-1s-0.317-1-0.95-1-0.95 0.333-0.95 1 0.32 1 0.95 1z"/>
					<path d="m108.75-123.5c-0.267 0-0.483 0.083-0.65 0.25-0.333-0.233-0.667-0.283-1-0.15-0.4 0.167-0.6 0.467-0.6 0.9v0.25c0 0.5 0.217 0.817 0.65 0.95 0.434 0.133 0.8 0.033 1.1-0.3l0.5 0.1c0.633 0 0.95-0.333 0.95-1s-0.32-1-0.95-1z"/>
					<path d="m105.5-125c0-0.667-0.333-1-1-1s-1 0.333-1 1v0.25c0 0.633 0.333 0.95 1 0.95s1-0.317 1-0.95v-0.25z"/>
					<path d="m105.75-126.75c0.633 0 0.95-0.333 0.95-1s-0.317-1-0.95-1-0.95 0.333-0.95 1 0.32 1 0.95 1z"/>
					<path d="m107.75-126.75c0.633 0 0.95-0.333 0.95-1s-0.317-1-0.95-1-0.95 0.333-0.95 1 0.32 1 0.95 1z"/>
					<path d="m108.75-125c0.633 0 0.95-0.333 0.95-1s-0.317-1-0.95-1-0.95 0.333-0.95 1 0.32 1 0.95 1z"/>
					<path d="m97-126.5c0.633 0 0.95-0.333 0.95-1s-0.317-1-0.95-1-0.95 0.333-0.95 1 0.317 1 0.95 1z"/>
					<path d="m95.25-130.5c0.633 0 0.95-0.333 0.95-1s-0.317-1-0.95-1-0.95 0.333-0.95 1 0.317 1 0.95 1z"/>
					<path d="m74-81.5c0.633 0 0.95-0.333 0.95-1s-0.317-1-0.95-1-0.95 0.333-0.95 1 0.317 1 0.95 1z"/>
					<path d="m76.25-80.75c-0.633 0-0.95 0.333-0.95 1s0.317 1 0.95 1 0.95-0.333 0.95-1-0.317-1-0.95-1z"/>
					<path d="m75.35-85.75c-0.333 0.267-0.434 0.617-0.3 1.05 0.133 0.467 0.45 0.7 0.95 0.7 0.367 0 0.633-0.167 0.8-0.5l0.25 0.15c-0.066 0.733 0.25 1.1 0.95 1.1 0.533 0 0.85-0.267 0.95-0.8 0.066-0.534-0.117-0.9-0.55-1.1 0.033-0.267-0.033-0.517-0.2-0.75s-0.4-0.35-0.7-0.35c-0.367 0-0.65 0.167-0.85 0.5-0.2-0.133-0.383-0.2-0.55-0.2 0.333-0.3 0.433-0.667 0.3-1.1-0.133-0.467-0.433-0.7-0.9-0.7-0.6 0-0.917 0.317-0.95 0.95s0.233 0.983 0.8 1.05z"/>
					<path d="m78.75-79.25c-0.633 0-0.95 0.333-0.95 1s0.317 1 0.95 1 0.95-0.333 0.95-1-0.317-1-0.95-1z"/>
					<path d="m81.25-74c0.633 0 0.95-0.333 0.95-1s-0.317-1-0.95-1-0.95 0.333-0.95 1 0.317 1 0.95 1z"/>
					<path d="m77.75-90.25c-0.633 0-0.95 0.333-0.95 1s0.317 1 0.95 1 0.95-0.333 0.95-1-0.317-1-0.95-1z"/>
					<path d="m80.5-84.5c-0.633 0-0.95 0.333-0.95 1s0.317 1 0.95 1 0.95-0.333 0.95-1-0.317-1-0.95-1z"/>
					<path d="m80.75-91.75c-0.633 0-0.95 0.333-0.95 1s0.317 1 0.95 1 0.95-0.333 0.95-1-0.317-1-0.95-1z"/>
					<path d="m77.75-92.75c0.633 0 0.95-0.333 0.95-1s-0.317-1-0.95-1-0.95 0.333-0.95 1 0.317 1 0.95 1z"/>
					<path d="m80.2-99c0-0.667-0.317-1-0.95-1s-0.95 0.333-0.95 1 0.317 1 0.95 1 0.95-0.333 0.95-1z"/>
					<path d="m81.6-96.2c0.267-0.167 0.4-0.433 0.4-0.8v-0.5c0-0.667-0.333-1-1-1s-1 0.333-1 1v0.5c0 0.2 0.05 0.383 0.15 0.55l-0.15-0.05c-0.633 0-0.95 0.333-0.95 1s0.317 1 0.95 1c0.433 0 0.717-0.183 0.85-0.55 0.133-0.333 0.1-0.667-0.1-1 0.333 0.067 0.617 0.017 0.85-0.15z"/>
					<path d="m79.75-100.25c0.633 0 0.95-0.333 0.95-1s-0.317-1-0.95-1-0.95 0.333-0.95 1 0.317 1 0.95 1z"/>
					<path d="m81.75-102c0.633 0 0.95-0.333 0.95-1s-0.317-1-0.95-1-0.95 0.333-0.95 1 0.317 1 0.95 1z"/>
					<path d="m83.25-103.75c0.633 0 0.95-0.333 0.95-1s-0.317-1-0.95-1-0.95 0.333-0.95 1 0.317 1 0.95 1z"/>
					<path d="m124.7-100.5c0.667 0 1-0.333 1-1s-0.333-1-1-1c-0.633 0-0.95 0.333-0.95 1s0.32 1 0.95 1z"/>
					<path d="m122-97.25c0 0.633 0.333 0.95 1 0.95 0.633 0 0.95-0.317 0.95-0.95v-0.25c0-0.667-0.317-1-0.95-1-0.667 0-1 0.333-1 1v0.25z"/>
					<path d="m121.25-93.3c-0.333-0.2-0.65-0.217-0.95-0.05-0.367 0.167-0.55 0.45-0.55 0.85v0.75c0 0.633 0.333 0.95 1 0.95s1-0.317 1-0.95v-0.75c0-0.233-0.1-0.45-0.3-0.65 0.167 0.1 0.35 0.15 0.55 0.15 0.633 0 0.95-0.333 0.95-1s-0.317-1-0.95-1c-0.467 0-0.783 0.2-0.95 0.6-0.13 0.4-0.07 0.767 0.2 1.1z"/>
					<path d="m119.25-97c0.633 0 0.95-0.333 0.95-1s-0.317-1-0.95-1-0.95 0.333-0.95 1 0.32 1 0.95 1z"/>
					<path d="m114.75-95.25v0.9c-0.2-0.267-0.45-0.4-0.75-0.4-0.633 0-0.95 0.333-0.95 1s0.317 1 0.95 1c0.333 0 0.583-0.15 0.75-0.45 0.067 0.633 0.4 0.95 1 0.95 0.433 0 0.717-0.2 0.85-0.6 0.167-0.367 0.133-0.7-0.1-1 0.167-0.267 0.25-0.483 0.25-0.65v-0.75l-0.1-0.25 0.1-0.25v-0.25c0-0.667-0.333-1-1-1s-1 0.333-1 1v0.25l0.05 0.25-0.05 0.25z"/>
					<path d="m113.5-96c0.633 0 0.95-0.333 0.95-1s-0.317-1-0.95-1-0.95 0.333-0.95 1 0.32 1 0.95 1z"/>
					<path d="m112-95.5c-0.633 0-0.95 0.333-0.95 1s0.317 1 0.95 1 0.95-0.333 0.95-1-0.32-1-0.95-1z"/>
					<path d="m112.75-91.75c-0.633 0-0.95 0.333-0.95 1s0.317 1 0.95 1 0.95-0.333 0.95-1-0.32-1-0.95-1z"/>
					<path d="m109-90.75c0.533 0 0.85-0.267 0.95-0.8 0.066-0.567-0.117-0.934-0.55-1.1 0.067-0.333 0.033-0.633-0.1-0.9-0.167-0.3-0.433-0.45-0.8-0.45-0.567 0-0.883 0.267-0.95 0.8-0.1 0.534 0.067 0.9 0.5 1.1-0.066 0.333-0.033 0.633 0.1 0.9 0.2 0.3 0.48 0.45 0.85 0.45z"/>
					<path d="m104-89c0.633 0 0.95-0.333 0.95-1s-0.317-1-0.95-1-0.95 0.333-0.95 1 0.32 1 0.95 1z"/>
					<path d="m102-89c0.633 0 0.95-0.333 0.95-1s-0.317-1-0.95-1-0.95 0.333-0.95 1 0.32 1 0.95 1z"/>
					<path d="m110.9-69.7c-0.5 0.167-0.717 0.534-0.65 1.1 0.1 0.567 0.433 0.85 1 0.85 0.3 0 0.517-0.1 0.65-0.3 0.5-0.067 0.767-0.3 0.8-0.7v-0.05c0.433-0.467 0.417-0.934-0.05-1.4-0.5-0.466-0.967-0.466-1.4 0l-0.35 0.5z"/>
					<path d="m111.25-66.25c-0.633 0-0.95 0.333-0.95 1s0.317 1 0.95 1h0.1c0.2 0.4 0.566 0.55 1.1 0.45 0.5-0.1 0.767-0.417 0.8-0.95v-0.3l0.05-0.1-0.1 0.1c0.4-0.534 0.4-1 0-1.4-0.167-0.167-0.4-0.267-0.7-0.3-0.333 0-0.583 0.1-0.75 0.3l-0.15 0.3-0.35-0.1z"/>
					<path d="m111.25-60.5c-0.633 0-0.95 0.333-0.95 1s0.317 1 0.95 1 0.95-0.333 0.95-1-0.32-1-0.95-1z"/>
					<path d="m111.75-58.5c-0.633 0-0.95 0.333-0.95 1s0.317 1 0.95 1 0.95-0.333 0.95-1-0.32-1-0.95-1z"/>
				</g>
			<g clip-rule="evenodd" fill="#fff" fill-rule="evenodd">
				<polygon points="42.6 -74.9 46.8 -72.25 44.2 -76.5 46.8 -80.7 42.6 -78.1 38.35 -80.7 41 -76.5 38.35 -72.25"/>
				<polygon points="70.85 -40.6 66.65 -43.2 69.25 -39 66.65 -34.75 70.85 -37.4 75.1 -34.75 72.5 -39 75.1 -43.2"/>
				<polygon points="104.85 -59.05 100.6 -61.65 103.25 -57.4 100.6 -53.2 104.85 -55.8 109.05 -53.2 106.45 -57.4 109.05 -61.65"/>
				<polygon points="85 -97.9 82.35 -93.7 86.6 -96.3 90.8 -93.7 88.2 -97.9 90.8 -102.15 86.6 -99.55 82.35 -102.15"/>
				<polygon points="82.1 -42.4 85.05 -40.6 83.25 -43.5 85.05 -46.4 82.1 -44.6 79.2 -46.4 81 -43.5 79.2 -40.6"/>
				<polygon points="57 -73.95 54.05 -75.75 55.85 -72.85 54.05 -69.95 57 -71.75 59.9 -69.95 58.1 -72.85 59.9 -75.75"/>
				<polygon points="40.35 -96.6 37.4 -98.4 39.25 -95.5 37.4 -92.6 40.35 -94.4 43.25 -92.6 41.45 -95.5 43.25 -98.4"/>
				<polygon points="82.35 -12.65 85.3 -10.85 83.5 -13.75 85.3 -16.65 82.35 -14.85 79.45 -16.65 81.25 -13.75 79.45 -10.85"/>
			</g>
					<use transform="translate(66.25)" y="-46.65" width="34.6" height="46.65" enable-background="new" opacity=".6914" xlink:href="#u"/>
					<use transform="translate(31 -63)" y="-43.65" width="44.1" height="43.65" enable-background="new" opacity=".6914" xlink:href="#t"/>
					<use transform="translate(87 -44.8)" y="-34.6" width="34.6" height="34.6" enable-background="new" opacity=".6914" xlink:href="#v"/>
</symbol>
<symbol id="r" viewBox="0 -46.7 152.25 46.7">
			<radialGradient id="m" cx="75.85" cy="-23.65" r="65.6" gradientTransform="matrix(1 0 0 -.2984 0 -30.707)" gradientUnits="userSpaceOnUse">
			<stop stop-opacity=".6196" offset="0"/>
			<stop stop-opacity="0" offset="1"/>
		</radialGradient>
		<path d="m152.25-23.35c0-6.467-7.433-11.967-22.3-16.5-14.867-4.566-32.817-6.85-53.85-6.85s-38.967 2.284-53.8 6.85c-14.867 4.533-22.3 10.033-22.3 16.5 0 6.434 7.433 11.934 22.3 16.5 14.833 4.567 32.767 6.85 53.8 6.85s38.983-2.283 53.85-6.85c14.87-4.567 22.3-10.067 22.3-16.5z" clip-rule="evenodd" fill="url(#m)" fill-rule="evenodd"/>
</symbol>
<symbol id="s" viewBox="-0.048 -36.105 124.481 36.111">
		<path d="m123.35-11.15l0.65-0.55c0.5-0.466 0.567-0.783 0.2-0.95l-0.75-0.1c-0.833-0.133-1.867-0.617-3.1-1.45-0.733-0.533-0.917-0.867-0.55-1 0.2-0.066 0.467-0.083 0.8-0.05l0.45-1.2c0.167-0.867-0.183-1.5-1.05-1.9-0.767-0.367-1.833-0.667-3.2-0.9-1.466-0.233-2.35-0.4-2.65-0.5-1.3-0.533-2.5-1.45-3.6-2.75-0.2-0.233-0.85-0.6-1.95-1.1-0.833-0.4-1.317-1.05-1.45-1.95-0.1-0.833-0.15-1.317-0.15-1.45 0-0.067-0.033-0.183-0.1-0.35-0.1-0.267-0.75-0.6-1.95-1-1.467-0.433-2.367-0.75-2.7-0.95-0.467-0.3-1.45-0.75-2.95-1.35-1.767-0.733-2.833-1.184-3.2-1.35-1.333-0.467-3.283-1.35-5.85-2.65-1.6-0.833-2.85-1.2-3.75-1.1l-0.85 0.4-9.1 0.25c-1 0.033-2.4 0-4.2-0.1-2.167-0.1-3.633-0.25-4.4-0.45-1-0.267-2-0.417-3-0.45-1.367-0.033-3.583 0.117-6.65 0.45-2.6 0.267-3.733 0.4-3.4 0.4 0.667 0.067 0.967 0.117 0.9 0.15-0.466 0.2-1.383 0.333-2.75 0.4-1.633 0.067-3.25 0-4.85-0.2-3.667-0.4-6.367-0.333-8.1 0.2-0.733 0.233-1.934 0.383-3.6 0.45-1.7-0.033-2.767-0.033-3.2 0-0.8 0.033-1.767 0.25-2.9 0.65-1.4 0.5-2.433 1.117-3.1 1.85-0.6 0.633-1.316 1.067-2.15 1.3-1.733 0.467-2.783 0.767-3.15 0.9-0.133 0.033-1.217 0.383-3.25 1.05-0.967 0.3-1.8 0.767-2.5 1.4-0.733 0.7-1.833 1.233-3.3 1.6-0.867 0.233-2.184 0.45-3.95 0.65-1.633 0.233-2.6 0.383-2.9 0.45-0.667 0.2-1.05 0.517-1.15 0.95-0.067 0.4 0.483 0.733 1.65 1 1.533 0.333 2.433 0.583 2.7 0.75 0.567 0.3 0.45 0.6-0.35 0.9-0.7 0.267-1.417 0.417-2.15 0.45-0.9 0-1.983 0.05-3.25 0.15-1.767 0.133-2.867 0.3-3.3 0.5-0.667 0.367-0.217 1.133 1.35 2.3 1.7 0.667 2.967 1.333 3.8 2 0.434 0.333 0.85 0.783 1.25 1.35 0.5 0.733 1.05 1.383 1.65 1.95 0.567 0.533 5.367 1.967 14.4 4.3 9.167 2.4 14.9 3.633 17.2 3.7 1.367 0.033 6.05 0.633 14.05 1.8 8.566 1.233 14.966 1.983 19.2 2.25 4.8 0.3 13.184-0.6 25.15-2.7 6.034-1.067 11.767-2.167 17.2-3.3 0.7-0.034 1.35-1 1.95-2.9l3.55-1.4c1.13-0.467 1.92-0.733 2.35-0.8z" clip-rule="evenodd" fill-rule="evenodd"/>
</symbol>
<symbol id="t" viewBox="0 -43.65 44.1 43.65">
			<radialGradient id="n" cx="22.05" cy="-21.825" r="22.062" gradientTransform="matrix(1 0 0 -.9898 0 -43.428)" gradientUnits="userSpaceOnUse">
			<stop stop-color="#fff" offset="0"/>
			<stop stop-color="#fff" stop-opacity="0" offset="1"/>
		</radialGradient>
		<path d="m37.65-6.4c4.3-4.267 6.45-9.417 6.45-15.45s-2.15-11.167-6.45-15.4c-4.333-4.267-9.533-6.4-15.6-6.4-6.1 0-11.3 2.133-15.6 6.4-4.3 4.233-6.45 9.367-6.45 15.4s2.15 11.183 6.45 15.45 9.5 6.4 15.6 6.4c6.067 0 11.267-2.133 15.6-6.4z" clip-rule="evenodd" fill="url(#n)" fill-rule="evenodd"/>
</symbol>
<symbol id="u" viewBox="0 -46.65 34.6 46.65">
			<radialGradient id="o" cx="17.3" cy="-23.325" r="17.324" gradientTransform="matrix(1 0 0 -1.348 0 -54.768)" gradientUnits="userSpaceOnUse">
			<stop stop-color="#fff" offset="0"/>
			<stop stop-color="#fff" stop-opacity="0" offset="1"/>
		</radialGradient>
		<path d="m34.6-23.35c0-6.433-1.684-11.917-5.05-16.45-3.4-4.567-7.483-6.85-12.25-6.85s-8.85 2.283-12.25 6.85c-3.367 4.533-5.05 10.017-5.05 16.45 0 6.434 1.683 11.934 5.05 16.5 3.4 4.567 7.483 6.85 12.25 6.85s8.85-2.283 12.25-6.85c3.367-4.567 5.05-10.067 5.05-16.5z" clip-rule="evenodd" fill="url(#o)" fill-rule="evenodd"/>
</symbol>
<symbol id="v" viewBox="0 -34.6 34.6 34.6">
			<radialGradient id="p" cx="17.3" cy="-17.3" r="17.3" gradientTransform="matrix(1 0 0 -1 0 -34.6)" gradientUnits="userSpaceOnUse">
			<stop stop-color="#fff" offset="0"/>
			<stop stop-color="#fff" stop-opacity="0" offset="1"/>
		</radialGradient>
		<path d="m34.6-17.3c0-4.767-1.684-8.85-5.05-12.25-3.4-3.367-7.483-5.05-12.25-5.05s-8.85 1.684-12.25 5.05c-3.367 3.4-5.05 7.483-5.05 12.25s1.683 8.85 5.05 12.25c3.4 3.367 7.483 5.05 12.25 5.05s8.85-1.683 12.25-5.05c3.367-3.4 5.05-7.483 5.05-12.25z" clip-rule="evenodd" fill="url(#p)" fill-rule="evenodd"/>
</symbol>
<use transform="matrix(1 0 0 -1 .8999 0)" y="-151.25" width="152.25" height="151.25" xlink:href="#q"/>
</svg>
