<?xml version="1.0" encoding="UTF-8"?>
<svg width="607.59142" height="800.00001" version="1.1" viewBox="0 0 607.59142 800.00001" xmlns="http://www.w3.org/2000/svg">
 <defs>
  <radialGradient id="a" cx="183.05" cy="53.101" r="32.239" gradientTransform="matrix(.29212 -1.8131e-7 8.3805e-7 1.3761 129.58 -19.97)" gradientUnits="userSpaceOnUse">
   <stop stop-color="#fff3c8" offset="0"/>
   <stop stop-color="#f0c61c" offset="1"/>
  </radialGradient>
 </defs>
 <g transform="translate(-922.97 2109)">
  <g transform="matrix(17.166 0 0 17.166 3186.9 -9198.2)">
   <g transform="matrix(.54495 0 0 .5068 -245.34 217)" fill="url(#a)" stroke="#2b2200">
    <path d="m266.2 402.37c-0.23772 1.511-1.7975 2.888-1.7975 2.888s1.1249-0.47642 1.6228-0.44224c0.66972 0.046 2.0434 0.87351 2.0434 0.87354s-1.2542 2.1412-2.0314 2.8536c-0.73207 0.67104-2.871 1.6851-2.871 1.6851s0.97318-0.10836 1.375-0.0335c0.60724 0.11315 1.8965 0.82033 1.8965 0.82031s-1.3413 1.7259-2.048 2.349c-0.93816 0.82712-3.5004 2.3212-3.5004 2.3212l1.86-0.82161 2.0775 0.32084s-1.3559 2.2392-2.2788 3.2308c-1.0859 1.1668-3.4388 3.0067-3.4388 3.0067l3.0008-0.60603s-1.06 2.0015-1.7112 2.7037c-1.0172 1.097-3.5589 3.0629-3.5589 3.0629l1.6963-0.55867 1.6784 0.0216s-1.2554 2.661-2.1943 3.443c-1.0401 0.86625-2.6454 1.9911-2.6454 1.9911l-16.728 46.057c-1.4012 0.80551-2.1857 0.24636-2.6736-0.96898l17.154-46.184s-0.69858-1.5897-0.94551-2.9206c-0.22289-1.2014 0.32998-4.1187 0.32998-4.1187l1.6622 1.2495 0.71024 1.1664c2e-5 -2e-5 -0.81357-2.9795-0.89557-4.4732-0.0525-0.95619 0.41847-3.1722 0.41847-3.1722l2.0412 2.2293c0 2e-5 -0.74914-2.7618-0.83937-4.3532-0.0767-1.3524 0.41654-4.1099 0.41654-4.1099l1.8006 1.0847 0.90169 1.8226c0 2e-5 -1.0175-2.7598-1.211-3.9955-0.14578-0.93079-0.0567-3.145-0.0567-3.145s1.4422 0.28446 1.9817 0.58527c0.35691 0.19903 1.0048 0.896 1.0048 0.896s-0.97129-2.1093-1.1059-3.0932c-0.14293-1.0445 0.24988-3.5325 0.24988-3.5325s1.6133 0.25676 2.1579 0.64915c0.40493 0.29172 0.93324 1.3686 0.93324 1.3686s-0.2943-1.8506 0.48794-3.1651l3.1883-3.9137s0.0605 3.5388-0.15815 4.9286zm-0.3368-3.3795z" fill-rule="evenodd" stroke-width="1.0369"/>
    <g transform="matrix(-1,0,0,1,421.42,-8.1741)" stroke-width="1.0369">
     <g transform="translate(-57.444,8.8278)">
      <path d="m213.26 401.11c1.0231 1.1371 1.1087 3.216 1.1086 3.216s0.33933-1.1736 0.67977-1.5385c0.45792-0.49088 1.9663-1.0355 1.9663-1.0355s0.87138 2.3234 0.93443 3.3758c0.0594 0.99133-0.50188 3.2909-0.5019 3.2909s0.52941-0.82372 0.84079-1.0884c0.47065-0.40003 1.8324-0.95499 1.8324-0.955s0.49418 2.1292 0.53232 3.0706c0.0506 1.2497-0.40493 4.1805-0.40492 4.1805l0.5348-1.9618 1.5588-1.4104s0.88343 2.4642 1.0714 3.8057c0.22114 1.5785 0.16606 4.5648 0.16606 4.5649l1.4214-2.7114s0.8854 2.0846 1.02 3.0328c0.21025 1.4812 0.13396 4.6935 0.13398 4.6935l0.63571-1.6689 1.0749-1.2892s1.2742 2.6521 1.2893 3.8739c0.0168 1.3534-0.12211 3.3087-0.12211 3.3087l9.89 15.533c-0.2581 1.5955-1.1867 1.852-2.4377 1.4645l-9.7206-15.944s-1.6744-0.45994-2.8631-1.1072c-1.0731-0.58436-2.9891-2.8527-2.9891-2.8527l2.0178-0.50263 1.3532 0.18402c-1e-5 -2e-5 -2.8257-1.2468-4.037-2.1249-0.77534-0.56207-2.1986-2.3247-2.1986-2.3247l3.0174-0.17906c0 2e-5 -2.6162-1.1596-3.9083-2.0928-1.0982-0.79307-2.9277-2.9143-2.9277-2.9143l1.9772-0.71392 1.9832 0.44906c2e-5 1e-5 -2.7838-0.95002-3.865-1.5788-0.81443-0.47362-2.4771-1.9387-2.4771-1.9387s1.13-0.94014 1.7036-1.1693c0.3795-0.15157 1.329-0.21513 1.329-0.21513s-2.2496-0.57575-3.0983-1.0915c-0.90092-0.54754-2.5846-2.421-2.5846-2.421s1.2164-1.0904 1.8643-1.2659c0.48175-0.1304 1.6508 0.13841 1.6508 0.13841s-1.6221-0.93827-2.1493-2.3741c-0.48511-1.3213-0.95671-4.8804-0.95299-4.878-2e-3 -0.0193 2.7101 2.1197 3.651 3.1656z" fill="url(#a)" fill-rule="evenodd" stroke="#2b2200" stroke-width="1.0369"/>
     </g>
     <path d="m153.06 411.99c1.0231 1.1371 1.1087 3.216 1.1086 3.216s0.33933-1.1736 0.67977-1.5385c0.45792-0.49088 1.9663-1.0355 1.9663-1.0355s0.87138 2.3234 0.93443 3.3758c0.0594 0.99133-0.50188 3.2909-0.5019 3.2909s0.52941-0.82372 0.84079-1.0884c0.47065-0.40003 1.8324-0.95499 1.8324-0.955s0.49418 2.1292 0.53232 3.0706c0.0506 1.2497-0.40493 4.1805-0.40492 4.1805l0.5348-1.9618 1.5588-1.4104s0.88343 2.4642 1.0714 3.8057c0.22114 1.5785 0.16606 4.5648 0.16606 4.5649l1.4214-2.7114s0.8854 2.0846 1.02 3.0328c0.21025 1.4812 0.13396 4.6935 0.13398 4.6935l0.63571-1.6689 1.0749-1.2892s1.2742 2.6521 1.2893 3.8739c0.0168 1.3534-0.12211 3.3087-0.12211 3.3087l9.89 15.533c-0.2581 1.5955-1.1867 1.852-2.4377 1.4645l-9.9797-15.666s-1.4153-0.73855-2.604-1.3858c-1.0731-0.58436-2.9891-2.8527-2.9891-2.8527l2.0178-0.50263 1.3532 0.18402c-1e-5 -2e-5 -2.8257-1.2468-4.037-2.1249-0.77534-0.56207-2.1986-2.3247-2.1986-2.3247l3.0174-0.17906c0 2e-5 -2.6162-1.1596-3.9083-2.0928-1.0982-0.79307-2.9277-2.9143-2.9277-2.9143l1.9772-0.71392 1.9832 0.44906c2e-5 1e-5 -2.7838-0.95002-3.865-1.5788-0.81443-0.47362-2.4771-1.9387-2.4771-1.9387s1.13-0.94014 1.7036-1.1693c0.3795-0.15157 1.329-0.21513 1.329-0.21513s-2.2496-0.57575-3.0983-1.0915c-0.90092-0.54754-2.5846-2.421-2.5846-2.421s1.2164-1.0904 1.8643-1.2659c0.48175-0.1304 1.6508 0.13841 1.6508 0.13841s-1.6221-0.93827-2.1493-2.3741c-0.48511-1.3213-0.95671-4.8804-0.95299-4.878-2e-3 -0.0193 2.7101 2.1197 3.651 3.1656z" fill-rule="evenodd"/>
    </g>
    <g transform="translate(59.943,-9.1959)" stroke-width="1.0369">
     <g transform="translate(-57.444,8.8278)">
      <path d="m213.26 401.11c1.0231 1.1371 1.1087 3.216 1.1086 3.216s0.33933-1.1736 0.67977-1.5385c0.45792-0.49088 1.9663-1.0355 1.9663-1.0355s0.87138 2.3234 0.93443 3.3758c0.0594 0.99133-0.50188 3.2909-0.5019 3.2909s0.52941-0.82372 0.84079-1.0884c0.47065-0.40003 1.8324-0.95499 1.8324-0.955s0.49418 2.1292 0.53232 3.0706c0.0506 1.2497-0.40493 4.1805-0.40492 4.1805l0.5348-1.9618 1.5588-1.4104s0.88343 2.4642 1.0714 3.8057c0.22114 1.5785 0.16606 4.5648 0.16606 4.5649l1.4214-2.7114s0.8854 2.0846 1.02 3.0328c0.21025 1.4812 0.13396 4.6935 0.13398 4.6935l0.63571-1.6689 1.0749-1.2892s1.2742 2.6521 1.2893 3.8739c0.0168 1.3534-0.12211 3.3087-0.12211 3.3087l9.89 15.533c-0.2581 1.5955-1.1867 1.852-2.4377 1.4645l-9.7206-15.944s-1.6744-0.45994-2.8631-1.1072c-1.0731-0.58436-2.9891-2.8527-2.9891-2.8527l2.0178-0.50263 1.3532 0.18402c-1e-5 -2e-5 -2.8257-1.2468-4.037-2.1249-0.77534-0.56207-2.1986-2.3247-2.1986-2.3247l3.0174-0.17906c0 2e-5 -2.6162-1.1596-3.9083-2.0928-1.0982-0.79307-2.9277-2.9143-2.9277-2.9143l1.9772-0.71392 1.9832 0.44906c2e-5 1e-5 -2.7838-0.95002-3.865-1.5788-0.81443-0.47362-2.4771-1.9387-2.4771-1.9387s1.13-0.94014 1.7036-1.1693c0.3795-0.15157 1.329-0.21513 1.329-0.21513s-2.2496-0.57575-3.0983-1.0915c-0.90092-0.54754-2.5846-2.421-2.5846-2.421s1.2164-1.0904 1.8643-1.2659c0.48175-0.1304 1.6508 0.13841 1.6508 0.13841s-1.6221-0.93827-2.1493-2.3741c-0.48511-1.3213-0.95671-4.8804-0.95299-4.878-2e-3 -0.0193 2.7101 2.1197 3.651 3.1656z" fill="url(#a)" fill-rule="evenodd" stroke="#2b2200" stroke-width="1.0369"/>
     </g>
     <path d="m153.06 411.99c1.0231 1.1371 1.1087 3.216 1.1086 3.216s0.33933-1.1736 0.67977-1.5385c0.45792-0.49088 1.9663-1.0355 1.9663-1.0355s0.87138 2.3234 0.93443 3.3758c0.0594 0.99133-0.50188 3.2909-0.5019 3.2909s0.52941-0.82372 0.84079-1.0884c0.47065-0.40003 1.8324-0.95499 1.8324-0.955s0.49418 2.1292 0.53232 3.0706c0.0506 1.2497-0.40493 4.1805-0.40492 4.1805l0.5348-1.9618 1.5588-1.4104s0.88343 2.4642 1.0714 3.8057c0.22114 1.5785 0.16606 4.5648 0.16606 4.5649l1.4214-2.7114s0.8854 2.0846 1.02 3.0328c0.21025 1.4812 0.13396 4.6935 0.13398 4.6935l0.63571-1.6689 1.0749-1.2892s1.2742 2.6521 1.2893 3.8739c0.0168 1.3534-0.12211 3.3087-0.12211 3.3087l9.89 15.533c-0.2581 1.5955-1.1867 1.852-2.4377 1.4645l-10.167-15.562s-1.2283-0.84236-2.417-1.4897c-1.0731-0.58436-2.9891-2.8527-2.9891-2.8527l2.0178-0.50263 1.3532 0.18402c-1e-5 -2e-5 -2.8257-1.2468-4.037-2.1249-0.77534-0.56207-2.1986-2.3247-2.1986-2.3247l3.0174-0.17906c0 2e-5 -2.6162-1.1596-3.9083-2.0928-1.0982-0.79307-2.9277-2.9143-2.9277-2.9143l1.9772-0.71392 1.9832 0.44906c2e-5 1e-5 -2.7838-0.95002-3.865-1.5788-0.81443-0.47362-2.4771-1.9387-2.4771-1.9387s1.13-0.94014 1.7036-1.1693c0.3795-0.15157 1.329-0.21513 1.329-0.21513s-2.2496-0.57575-3.0983-1.0915c-0.90092-0.54754-2.5846-2.421-2.5846-2.421s1.2164-1.0904 1.8643-1.2659c0.48175-0.1304 1.6508 0.13841 1.6508 0.13841s-1.6221-0.93827-2.1493-2.3741c-0.48511-1.3213-0.95671-4.8804-0.95299-4.878-2e-3 -0.0193 2.7101 2.1197 3.651 3.1656z" fill-rule="evenodd"/>
    </g>
    <g fill-rule="evenodd" stroke-width="1.0369">
     <g transform="translate(5.6703 .31989)">
      <path d="m212.99 400.48c0.2466 1.5096 1.8144 2.8774 1.8144 2.8774s-1.1277-0.4698-1.6254-0.43269c-0.66944 0.0499-2.0382 0.88551-2.0382 0.88554s1.2668 2.1338 2.0482 2.8416c0.73601 0.66673 2.8808 1.6682 2.8808 1.6682s-0.9738-0.10263-1.3751-0.0254c-0.60657 0.11672-1.8916 0.83146-1.8916 0.83144s1.3514 1.718 2.0617 2.3369c0.94301 0.82159 3.514 2.3005 3.514 2.3005l-1.8648-0.81066-2.0756 0.33305s1.369 2.2312 2.2977 3.2174c1.0927 1.1604 3.4564 2.9864 3.4564 2.9864l-3.0043-0.58838s1.0718 1.9952 1.727 2.6936c1.0237 1.091 3.5768 3.0419 3.5768 3.0419l-1.6995-0.54868-1.6782 0.0315s1.271 2.6536 2.2145 3.4301c1.0451 0.86012 2.657 1.9755 2.657 1.9755l16.562 46.584c1.4059 0.79725 2.1871 0.2335 2.6678-0.98469l-16.81-46.76s0.5126-1.5401 0.7517-2.8723c0.21583-1.2027-0.35419-4.1167-0.35419-4.1167l-1.6549 1.2592-0.70337 1.1706c-2e-5 -2e-5 0.79604-2.9842 0.86925-4.4784 0.0469-0.95648-0.43711-3.1697-0.43711-3.1697l-2.0281 2.2413c0 2e-5 0.73289-2.7662 0.81376-4.358 0.0687-1.3529-0.4407-4.1074-0.4407-4.1074l-1.7942 1.0953-0.89096 1.8278c0 2e-5 1.0013-2.7658 1.1875-4.0025 0.14031-0.93163 0.0383-3.1453 0.0383-3.1453s-1.4405 0.29293-1.9782 0.59691c-0.35573 0.20112-0.99953 0.90189-0.99953 0.90189s0.95887-2.115 1.0877-3.0997c0.13679-1.0453-0.27064-3.531-0.27064-3.531s-1.6117 0.26624-2.1541 0.66183c-0.40321 0.2941-0.92518 1.3741-0.92518 1.3741s0.28342-1.8524-0.50654-3.1622l-3.2112-3.8949s-0.0397 3.5391 0.18712 4.9275zm0.31693-3.3814z"/>
      <path d="m217.33 397.88c0.2466 1.5096 1.8144 2.8774 1.8144 2.8774s-1.1277-0.4698-1.6254-0.43269c-0.66944 0.0499-2.0382 0.88551-2.0382 0.88554s1.2668 2.1338 2.0482 2.8416c0.73601 0.66673 2.8808 1.6682 2.8808 1.6682s-0.9738-0.10263-1.3751-0.0254c-0.60657 0.11672-1.8916 0.83146-1.8916 0.83144s1.3514 1.718 2.0617 2.3369c0.94301 0.82159 3.514 2.3005 3.514 2.3005l-1.8648-0.81066-2.0756 0.33305s1.369 2.2312 2.2977 3.2174c1.0927 1.1604 3.4564 2.9864 3.4564 2.9864l-3.0043-0.58838s1.0718 1.9952 1.727 2.6936c1.0237 1.091 3.5768 3.0419 3.5768 3.0419l-1.6995-0.54868-1.6782 0.0315s1.271 2.6536 2.2145 3.4301c1.0451 0.86012 2.657 1.9755 2.657 1.9755l17.856 48.175c1.4059 0.79725 2.1871 0.2335 2.6678-0.98469l-18.283-48.3s0.68922-1.5938 0.92832-2.9261c0.21583-1.2027-0.35419-4.1167-0.35419-4.1167l-1.6549 1.2592-0.70337 1.1706c-2e-5 -2e-5 0.79604-2.9842 0.86925-4.4784 0.0469-0.95648-0.43711-3.1697-0.43711-3.1697l-2.0281 2.2413c0 2e-5 0.73289-2.7662 0.81376-4.358 0.0687-1.3529-0.4407-4.1074-0.4407-4.1074l-1.7942 1.0953-0.89096 1.8278c0 2e-5 1.0013-2.7658 1.1875-4.0025 0.14031-0.93163 0.0382-3.1453 0.0382-3.1453s-1.4405 0.29293-1.9782 0.59691c-0.35573 0.20112-0.99953 0.90189-0.99953 0.90189s0.95887-2.115 1.0877-3.0997c0.13679-1.0453-0.27064-3.531-0.27064-3.531s-1.6117 0.26624-2.1541 0.66183c-0.40321 0.2941-0.92518 1.3741-0.92518 1.3741s0.28342-1.8524-0.50654-3.1622l-3.2112-3.8949s-0.0397 3.5391 0.18712 4.9275zm0.31693-3.3814z"/>
      <path d="m221.68 396.43c0.2466 1.5096 1.8144 2.8774 1.8144 2.8774s-1.1277-0.4698-1.6254-0.43269c-0.66944 0.0499-1.6594 1.6746-1.6594 1.6747s0.88802 1.3446 1.6694 2.0525c0.73601 0.66673 2.8808 1.6682 2.8808 1.6682s-0.9738-0.10263-1.3751-0.0254c-0.60657 0.11672-1.8916 0.83146-1.8916 0.83144s1.3514 1.718 2.0617 2.3369c0.94301 0.82159 3.514 2.3005 3.514 2.3005l-1.8648-0.81066-2.0756 0.33305s1.369 2.2312 2.2977 3.2174c1.0927 1.1604 3.4564 2.9864 3.4564 2.9864l-3.0043-0.58838s1.0718 1.9952 1.727 2.6936c1.0237 1.091 3.5768 3.0419 3.5768 3.0419l-1.6995-0.54868-1.6782 0.0315s1.271 2.6536 2.2145 3.4301c1.0451 0.86012 2.657 1.9755 2.657 1.9755l17.427 47.102c1.4059 0.79725 2.1871 0.2335 2.6678-0.98469l-17.86-47.23s0.68922-1.5938 0.92832-2.9261c0.21583-1.2027-0.35419-4.1167-0.35419-4.1167l-1.6549 1.2592-0.70337 1.1706c-2e-5 -2e-5 0.79604-2.9842 0.86925-4.4784 0.0469-0.95648-0.43711-3.1697-0.43711-3.1697l-2.0281 2.2413c0 2e-5 0.73289-2.7662 0.81376-4.358 0.0688-1.3529-0.4407-4.1074-0.4407-4.1074l-1.7942 1.0953-0.89096 1.8278c0 2e-5 1.0013-2.7658 1.1875-4.0025 0.14031-0.93163 0.0383-3.1453 0.0383-3.1453s-1.4405 0.29293-1.9782 0.59691c-0.35573 0.20112-0.99953 0.90189-0.99953 0.90189s0.95887-2.115 1.0877-3.0997c0.13679-1.0453-0.27064-3.531-0.27064-3.531s-1.6117 0.26624-2.1541 0.66183c-0.40321 0.2941-0.92518 1.3741-0.92518 1.3741s0.28342-1.8524-0.50654-3.1622l-3.2112-3.8949s-0.0397 3.5391 0.18712 4.9275zm0.31693-3.3814z"/>
      <path d="m226.31 395.27c0.2466 1.5096 1.8144 2.8774 1.8144 2.8774s-1.1277-0.4698-1.6254-0.43269c-0.66944 0.0499-2.0382 0.88551-2.0382 0.88554s1.2668 2.1338 2.0482 2.8416c0.73601 0.66673 2.8808 1.6682 2.8808 1.6682s-0.9738-0.10263-1.3751-0.0254c-0.60657 0.11672-1.8916 0.83146-1.8916 0.83144s1.3514 1.718 2.0617 2.3369c0.94301 0.82159 3.514 2.3005 3.514 2.3005l-1.8648-0.81066-2.0756 0.33305s1.369 2.2312 2.2977 3.2174c1.0927 1.1604 3.4564 2.9864 3.4564 2.9864l-3.0043-0.58838s1.0718 1.9952 1.727 2.6936c1.0237 1.091 3.5768 3.0419 3.5768 3.0419l-1.6995-0.54868-1.6782 0.0315s1.271 2.6536 2.2145 3.4301c1.0451 0.86012 2.657 1.9755 2.657 1.9755l16.998 45.958c1.4059 0.79725 2.1871 0.2335 2.6678-0.98469l-17.425-46.083s0.68922-1.5938 0.92832-2.9261c0.21583-1.2027-0.35419-4.1167-0.35419-4.1167l-1.6549 1.2592-0.70337 1.1706c-2e-5 -2e-5 0.79604-2.9842 0.86925-4.4784 0.0469-0.95648-0.43711-3.1697-0.43711-3.1697l-2.0281 2.2413c0 2e-5 0.73289-2.7662 0.81376-4.358 0.0687-1.3529-0.4407-4.1074-0.4407-4.1074l-1.7942 1.0953-0.89096 1.8278c0 2e-5 1.0013-2.7658 1.1875-4.0025 0.14031-0.93163 0.0383-3.1453 0.0383-3.1453s-1.4405 0.29293-1.9782 0.59691c-0.35573 0.20112-0.99953 0.90189-0.99953 0.90189s0.95887-2.115 1.0877-3.0997c0.13679-1.0453-0.27064-3.531-0.27064-3.531s-1.6117 0.26624-2.1541 0.66183c-0.40321 0.2941-0.92518 1.3741-0.92518 1.3741s0.28342-1.8524-0.50654-3.1622l-3.2112-3.8949s-0.0397 3.5391 0.18712 4.9275zm0.31693-3.3814z"/>
     </g>
     <g transform="translate(3.3536 .89907)">
      <path d="m212.99 400.48c0.2466 1.5096 1.8144 2.8774 1.8144 2.8774s-1.1277-0.4698-1.6254-0.43269c-0.66944 0.0499-2.0382 0.88551-2.0382 0.88554s1.2668 2.1338 2.0482 2.8416c0.73601 0.66673 2.8808 1.6682 2.8808 1.6682s-0.9738-0.10263-1.3751-0.0254c-0.60657 0.11672-1.8916 0.83146-1.8916 0.83144s1.3514 1.718 2.0617 2.3369c0.94301 0.82159 3.514 2.3005 3.514 2.3005l-1.8648-0.81066-2.0756 0.33305s1.369 2.2312 2.2977 3.2174c1.0927 1.1604 3.4564 2.9864 3.4564 2.9864l-3.0043-0.58838s1.0718 1.9952 1.727 2.6936c1.0237 1.091 3.5768 3.0419 3.5768 3.0419l-1.6995-0.54868-1.6782 0.0315s1.271 2.6536 2.2145 3.4301c1.0451 0.86012 3.2307 1.7206 3.2307 1.7206l15.539 46.955c1.4059 0.79725 2.1871 0.2335 2.6678-0.98469l-16.093-46.952s0.24306-1.4664 0.48216-2.7986c0.21583-1.2027-0.35419-4.1167-0.35419-4.1167l0.97818 0.95925-0.70337 1.1706c-2e-5 -2e-5 -1.837-2.6842-1.7638-4.1785 0.0469-0.95648-0.43711-3.1697-0.43711-3.1697l-0.16162 1.8747c0 2e-5 -1.1336-2.3996-1.0527-3.9914 0.0687-1.3529-0.4407-4.1074-0.4407-4.1074l-1.7942 1.0953-0.89096 1.8278c0 2e-5 1.0013-2.7658 1.1875-4.0025 0.14031-0.93163 0.0383-3.1453 0.0383-3.1453s-1.4405 0.29293-1.9782 0.59691c-0.35573 0.20112-0.99953 0.90189-0.99953 0.90189s0.95887-2.115 1.0877-3.0997c0.13679-1.0453-0.27064-3.531-0.27064-3.531s-1.6117 0.26624-2.1541 0.66183c-0.40321 0.2941-0.92518 1.3741-0.92518 1.3741s0.28342-1.8524-0.50654-3.1622l-3.2112-3.8949s-0.0397 3.5391 0.18712 4.9275zm0.31693-3.3814z"/>
      <path d="m217.33 397.88c0.2466 1.5096 1.8144 2.8774 1.8144 2.8774s-1.1277-0.4698-1.6254-0.43269c-0.66944 0.0499-2.0382 0.88551-2.0382 0.88554s1.2668 2.1338 2.0482 2.8416c0.73601 0.66673 2.8808 1.6682 2.8808 1.6682s-0.9738-0.10263-1.3751-0.0254c-0.60657 0.11672-1.8916 0.83146-1.8916 0.83144s1.3514 1.718 2.0617 2.3369c0.94301 0.82159 3.514 2.3005 3.514 2.3005l-1.8648-0.81066-2.0756 0.33305s1.369 2.2312 2.2977 3.2174c1.0927 1.1604 3.4564 2.9864 3.4564 2.9864l-3.0043-0.58838s1.0718 1.9952 1.727 2.6936c1.0237 1.091 3.5768 3.0419 3.5768 3.0419l-1.6995-0.54868-1.6782 0.0315s1.271 2.6536 2.2145 3.4301c1.0451 0.86012 2.657 1.9755 2.657 1.9755l17.26 48.052c1.4059 0.79725 2.1871 0.2335 2.6678-0.98469l-17.687-48.177s0.68922-1.5938 0.92832-2.9261c0.21583-1.2027-0.35419-4.1167-0.35419-4.1167l0.34491 0.85926-0.0368 0.93726c-2e-5 -2e-5 -1.8703-2.3509-1.7971-3.8452 0.0469-0.95648-0.43711-3.1697-0.43711-3.1697l0.47165 2.5413c0 2e-5 -1.7668-3.0662-1.686-4.658 0.0687-1.3529-0.4407-4.1074-0.4407-4.1074l-1.7942 1.0953-0.89096 1.8278c0 2e-5 1.0013-2.7658 1.1875-4.0025 0.14031-0.93163 0.0382-3.1453 0.0382-3.1453s-1.4405 0.29293-1.9782 0.59691c-0.35573 0.20112-0.99953 0.90189-0.99953 0.90189s0.95887-2.115 1.0877-3.0997c0.13679-1.0453 0.39222-1.7633 0.39222-1.7633s-1.6117 0.26624-2.1541 0.66183c-0.40321 0.2941-1.588-0.39353-1.588-0.39353s0.28342-1.8524-0.50654-3.1622l-3.2112-3.8949s-0.0397 3.5391 0.18712 4.9275zm0.31693-3.3814z"/>
      <path d="m221.68 396.43c0.2466 1.5096 1.8144 2.8774 1.8144 2.8774s-1.1277-0.4698-1.6254-0.43269c-0.66944 0.0499-2.0382 0.88551-2.0382 0.88554s1.2668 2.1338 2.0482 2.8416c0.73601 0.66673 2.8808 1.6682 2.8808 1.6682s-0.9738-0.10263-1.3751-0.0254c-0.60657 0.11672-1.8916 0.83146-1.8916 0.83144s1.3514 1.718 2.0617 2.3369c0.94301 0.82159 3.514 2.3005 3.514 2.3005l-1.8648-0.81066-2.0756 0.33305s1.369 2.2312 2.2977 3.2174c1.0927 1.1604 3.4564 2.9864 3.4564 2.9864l-3.0043-0.58838s1.0718 1.9952 1.727 2.6936c1.0237 1.091 3.5768 3.0419 3.5768 3.0419l-1.6995-0.54868-1.6782 0.0315s1.271 2.6536 2.2145 3.4301c1.0451 0.86012 2.657 1.9755 2.657 1.9755l17.856 48.032c1.4059 0.79725 2.1871 0.2335 2.6678-0.98469l-18.283-48.157s0.68922-1.5938 0.92832-2.9261c0.21583-1.2027-0.35419-4.1167-0.35419-4.1167l-1.6549 1.2592-0.70337 1.1706c-2e-5 -2e-5 0.79604-2.9842 0.86925-4.4784 0.0469-0.95648-0.43711-3.1697-0.43711-3.1697l0.305 2.208c0 2e-5 -1.6002-2.7329-1.5193-4.3247 0.0688-1.3529-0.4407-4.1074-0.4407-4.1074l-1.7942 1.0953 1.3088 1.8612c0 2e-5 -1.1985-2.7991-1.0122-4.0359 0.14031-0.93163 0.0383-3.1453 0.0383-3.1453s-1.4405 0.29293-1.9782 0.59691c-0.35573 0.20112-0.99953 0.90189-0.99953 0.90189s0.95887-2.115 1.0877-3.0997c0.13679-1.0453 1.3076-2.079 1.3076-2.079s-1.6117 0.26624-2.1541 0.66183c-0.40321 0.2941-2.5034-0.0779-2.5034-0.0779 2e-3 5e-3 0.43694-1.4685-0.50654-3.1622l-3.2112-3.8949s-0.0397 3.5391 0.18712 4.9275zm0.31693-3.3814z"/>
      <path d="m226.31 395.27c0.2466 1.5096 1.8144 2.8774 1.8144 2.8774s-1.1277-0.4698-1.6254-0.43269c-0.66944 0.0499-2.0382 0.88551-2.0382 0.88554s1.2668 2.1338 2.0482 2.8416c0.73601 0.66673 2.8808 1.6682 2.8808 1.6682s-0.9738-0.10263-1.3751-0.0254c-0.60657 0.11672-1.8916 0.83146-1.8916 0.83144s1.3514 1.718 2.0617 2.3369c0.94301 0.82159 3.514 2.3005 3.514 2.3005l-2.0648-0.57735-2.0756 0.33305s1.4024 2.4312 2.331 3.4174c1.0927 1.1604 3.623 2.5531 3.6231 2.5532l-3.0043-0.58838s1.0718 1.9952 1.727 2.6936c1.0237 1.091 3.5768 3.0419 3.5768 3.0419l-1.6995-0.54868-1.6782 0.0315s1.271 2.6536 2.2145 3.4301c1.0451 0.86012 2.657 1.9755 2.657 1.9755l17.499 46.601c1.4059 0.79725 2.1871 0.2335 2.6678-0.98469l-17.925-46.726s0.68922-1.5938 0.92832-2.9261c0.21583-1.2027-0.35419-4.1167-0.35419-4.1167l-1.6549 1.2592-0.70337 1.1706c-2e-5 -2e-5 0.79604-2.9842 0.86925-4.4784 0.0469-0.95648-0.43711-3.1697-0.43711-3.1697l-2.0281 2.2413c0 2e-5 0.73289-2.7662 0.81376-4.358 0.0687-1.3529-0.4407-4.1074-0.4407-4.1074l-1.7942 1.0953-0.89096 1.8278c0 2e-5 1.0013-2.7658 1.1875-4.0025 0.14031-0.93163 0.0383-3.1453 0.0383-3.1453s-1.4405 0.29293-1.9782 0.59691c-0.35573 0.20112-0.99953 0.90189-0.99953 0.90189s0.95887-2.115 1.0877-3.0997c0.13679-1.0453-0.27064-3.531-0.27064-3.531s-1.6117 0.26624-2.1541 0.66183c-0.40321 0.2941-0.92518 1.3741-0.92518 1.3741s0.28342-1.8524-0.50654-3.1622l-3.2112-3.8949s-0.0397 3.5391 0.18712 4.9275zm0.31693-3.3814z"/>
     </g>
    </g>
    <g transform="translate(.98817 .48519)" fill-rule="evenodd" stroke-width="1.0369">
     <path d="m233.88 393.11c-0.10722 1.5902 1.1033 3.3674 1.1033 3.3674s-0.98889-0.75781-1.4816-0.84473c-0.66265-0.11691-2.1862 0.38675-2.1862 0.38678s0.74162 2.4775 1.3389 3.3897c0.56262 0.85923 2.4187 2.4098 2.4187 2.4098s-0.92363-0.34752-1.3318-0.36974c-0.61684-0.0336-2.0312 0.36868-2.0312 0.36867s0.91952 2.0777 1.4682 2.882c0.72836 1.0678 3.2891 4.1417 3.2891 4.1417l-2.3275-0.95406-1.5956-0.34864s0.0521 2.2351 0.72868 3.466c0.7961 1.4483 1.6422 3.5909 1.6422 3.5909l-1.0682-0.46388-2.3188-0.11915s0.84298 2.2958 1.6605 2.8595c1.9736 1.3608 4.3796 3.075 4.3796 3.075l-1.527-0.98073-2.6063-0.28794s1.0928 3.0382 1.832 4.0605c0.81885 1.1324 2.6303 2.5317 2.6303 2.5317l1.4075 28.719c1.1843 1.159 2.0737 0.78357 2.8214-0.32967l-1.7938-28.953s1.0369-1.4414 1.5758-2.7306c0.48647-1.1638 0.60201-4.257 0.60201-4.257l-1.8992 0.86105-0.95331 1.0093c-2e-5 -2e-5 1.4605-2.8225 1.8752-4.3172 0.26552-0.95677 0.30363-3.3189 0.30363-3.3189l-2.4881 1.7621c0 3e-5 1.3489-2.6176 1.7936-4.2092 0.37793-1.3526 0.51571-4.2692 0.51571-4.2692l-1.9971 0.66021-1.2869 1.6279c-1e-5 1e-5 1.6099-2.55 2.0754-3.7558 0.35069-0.90822 0.7604-3.1753 0.7604-3.1753s-1.4685-0.0637-2.0614 0.10953c-0.39228 0.11465-1.1796 0.66318-1.1796 0.66318s1.419-1.9016 1.7708-2.8665c0.37341-1.0243 0.5486-3.643 0.5486-3.643s-1.629-0.13362-2.2475 0.13126c-0.45983 0.19693-1.2159 1.1599-1.2159 1.1599s0.70159-1.8047 0.23435-3.3286l-2.2281-4.7472s-0.85234 3.5736-0.95095 5.0363zm1.0858-3.3446z"/>
     <path d="m242.57 392.95c-0.44881 1.5294 0.34846 3.5264 0.34847 3.5264s-0.80147-0.95385-1.2636-1.1453c-0.62164-0.25754-2.2181-0.0955-2.2181-0.0955s0.18792 2.5792 0.57365 3.5991c0.36335 0.96062 1.8399 2.8761 1.8399 2.8761s-0.82654-0.53916-1.2202-0.64917c-0.59496-0.16625-2.0628-0.0796-2.0628-0.0796s0.44812 2.2274 0.8097 3.1315c0.48003 1.2001 2.1264 3.7577 2.1264 3.7577l-1.3104-1.6091-2.0065-0.63115s0.23623 2.7172 0.63045 4.0654c0.46382 1.5863 1.7705 4.3754 1.7705 4.3755l-2.4295-1.9186s0.0747 2.3605 0.35174 3.3142c0.43275 1.4897 1.8538 4.4823 1.8538 4.4823l-1.2786-1.2879-1.5169-0.73358s-0.0389 3.0692 0.46157 4.2272c0.5544 1.2827 1.5031 3.0629 1.5031 3.0629l-3.7662 36.051c0.9054 1.3878 1.855 1.2138 2.8259 0.28871l3.4396-36.362s1.3242-1.1829 2.1293-2.3249c0.72679-1.031 1.509-4.0259 1.509-4.0259l-2.0406 0.42965-1.1491 0.77908c-2e-5 -2e-5 2.0367-2.4396 2.765-3.8091 0.46628-0.87664 1.0146-3.1746 1.0146-3.1746l-2.8104 1.1819c-1e-5 3e-5 1.8834-2.2637 2.662-3.7213 0.66169-1.2388 1.4274-4.0564 1.4274-4.0564l-2.0927 0.21238-1.6087 1.3108c-2e-5 1e-5 2.1236-2.1412 2.839-3.2176 0.53892-0.81081 1.4295-2.9355 1.4295-2.9355s-1.4199-0.38003-2.0363-0.33917c-0.40779 0.027-1.2952 0.39219-1.2952 0.39219s1.7969-1.5495 2.3491-2.4154c0.58621-0.91918 1.324-3.438 1.324-3.438s-1.5614-0.48296-2.2226-0.35821c-0.49155 0.0928-1.4381 0.86933-1.4381 0.86933s1.0755-1.6101 0.94912-3.199l-1.148-5.1169s-1.6055 3.3045-2.0183 4.7111zm1.7838-3.0304z"/>
     <path d="m238.52 392.65c-0.29105 1.567 0.70507 3.4727 0.70507 3.4727s-0.89426-0.86746-1.3735-1.011c-0.64461-0.19302-2.2163 0.13042-2.2163 0.13045s0.44909 2.5468 0.93648 3.5221c0.4591 0.91872 2.1227 2.6742 2.1227 2.6742s-0.87706-0.45237-1.2798-0.5218c-0.60878-0.10492-2.0602 0.13046-2.0602 0.13045s0.67218 2.1704 1.1238 3.033c0.59952 1.1451 3.0639 3.4221 3.0639 3.4221s-1.3558-1.083-2.0338-1.3676c-0.58183-0.24426-2.0602-0.42396-2.0602-0.42396s0.51118 2.6792 1.0404 3.9802c0.62264 1.5309 2.2061 4.1728 2.2061 4.1728l-0.57877-0.62848s0.31425 2.3407 0.68675 3.2612c0.58192 1.438 0.2666 3.2374 0.26661 3.2375l-1.4029-1.1513-1.5836-0.57561s0.27324 3.0572 0.88881 4.1584c0.6819 1.2198 1.8066 2.8942 1.8066 2.8942l-0.16487 51.697c1.0418 1.2886 1.9688 1.0189 2.8406 0l-0.19169-51.973s1.1972-1.3114 1.882-2.5293c0.61825-1.0995 1.092-4.1584 1.092-4.1584l-1.9863 0.63482-1.064 0.89184c-1e-5 -2e-5 1.7782-2.634 2.3636-4.0704 0.37476-0.91949 0.68675-3.2612 0.68675-3.2612l-2.6758 1.4614c0 3e-5 1.6436-2.4434 2.27-3.9726 0.53236-1.2996 1.0077-4.1805 1.0077-4.1805l-2.0602 0.42397-1.4671 1.4676c-1e-5 1e-5 1.895-2.346 2.4973-3.4895 0.45372-0.86139 1.1238-3.0656 1.1238-3.0656s-0.85147-0.23375-1.4605-0.13045l1.971-0.33045c0-4e-5 -2.1892-0.87187-1.7279-1.7894 0.48976-0.974 0.96769-3.5547 0.96769-3.5547s-1.6024-0.32176-2.2475-0.13045c-0.47958 0.14223-1.3423 1.011-1.3423 1.011s0.9063-1.7111 0.61907-3.2789l-1.6621-4.9737s-1.2613 3.4506-1.529 4.8919zm1.4666-3.196z"/>
    </g>
    <g fill-rule="evenodd" stroke-width="1.0246">
     <g transform="matrix(-1.0134 0 0 1.0107 477.76 -4.5191)">
      <path d="m212.99 400.48c0.2466 1.5096 1.8144 2.8774 1.8144 2.8774s-1.1277-0.4698-1.6254-0.43269c-0.66944 0.0499-2.0382 0.88551-2.0382 0.88554s1.2668 2.1338 2.0482 2.8416c0.73601 0.66673 2.8808 1.6682 2.8808 1.6682s-0.9738-0.10263-1.3751-0.0254c-0.60657 0.11672-1.8916 0.83146-1.8916 0.83144s1.3514 1.718 2.0617 2.3369c0.94301 0.82159 3.514 2.3005 3.514 2.3005l-1.8648-0.81066-2.0756 0.33305s1.369 2.2312 2.2977 3.2174c1.0927 1.1604 3.4564 2.9864 3.4564 2.9864l-3.0043-0.58838s1.0718 1.9952 1.727 2.6936c1.0237 1.091 3.5768 3.0419 3.5768 3.0419l-1.6995-0.54868-1.6782 0.0315s1.271 2.6536 2.2145 3.4301c1.0451 0.86012 2.657 1.9755 2.657 1.9755l16.998 46.53c1.4059 0.79725 2.1871 0.2335 2.6678-0.98469l-17.425-46.655s0.68922-1.5938 0.92832-2.9261c0.21583-1.2027-0.35419-4.1167-0.35419-4.1167l-1.6549 1.2592-0.70337 1.1706c-2e-5 -2e-5 0.79604-2.9842 0.86925-4.4784 0.0469-0.95648-0.43711-3.1697-0.43711-3.1697l-2.0281 2.2413c0 2e-5 0.73289-2.7662 0.81376-4.358 0.0687-1.3529-0.4407-4.1074-0.4407-4.1074l-1.7942 1.0953-0.89096 1.8278c0 2e-5 1.0013-2.7658 1.1875-4.0025 0.14031-0.93163 0.0383-3.1453 0.0383-3.1453s-1.4405 0.29293-1.9782 0.59691c-0.35573 0.20112-0.99953 0.90189-0.99953 0.90189s0.95887-2.115 1.0877-3.0997c0.13679-1.0453-0.27064-3.531-0.27064-3.531s-1.6117 0.26624-2.1541 0.66183c-0.40321 0.2941-0.92518 1.3741-0.92518 1.3741s0.28342-1.8524-0.50654-3.1622l-3.2112-3.8949s-0.0397 3.5391 0.18712 4.9275zm0.31693-3.3814z"/>
      <path d="m217.33 397.88c0.2466 1.5096 1.8144 2.8774 1.8144 2.8774s-1.1277-0.4698-1.6254-0.43269c-0.66944 0.0499-2.0382 0.88551-2.0382 0.88554s1.2668 2.1338 2.0482 2.8416c0.73601 0.66673 2.8808 1.6682 2.8808 1.6682s-0.9738-0.10263-1.3751-0.0254c-0.60657 0.11672-1.8916 0.83146-1.8916 0.83144s1.3514 1.718 2.0617 2.3369c0.94301 0.82159 3.514 2.3005 3.514 2.3005l-1.8648-0.81066-2.0756 0.33305s1.369 2.2312 2.2977 3.2174c1.0927 1.1604 3.4564 2.9864 3.4564 2.9864l-3.0043-0.58838s1.0718 1.9952 1.727 2.6936c1.0237 1.091 3.5768 3.0419 3.5768 3.0419l-1.6995-0.54868-1.6782 0.0315s1.271 2.6536 2.2145 3.4301c1.0451 0.86012 2.657 1.9755 2.657 1.9755l17.856 48.175c1.4059 0.79725 2.1871 0.2335 2.6678-0.98469l-18.283-48.3s0.68922-1.5938 0.92832-2.9261c0.21583-1.2027-0.35419-4.1167-0.35419-4.1167l-1.6549 1.2592-0.70337 1.1706c-2e-5 -2e-5 0.79604-2.9842 0.86925-4.4784 0.0469-0.95648-0.43711-3.1697-0.43711-3.1697l-2.0281 2.2413c0 2e-5 0.73289-2.7662 0.81376-4.358 0.0687-1.3529-0.4407-4.1074-0.4407-4.1074l-1.7942 1.0953-0.89096 1.8278c0 2e-5 1.0013-2.7658 1.1875-4.0025 0.14031-0.93163 0.0382-3.1453 0.0382-3.1453s-1.4405 0.29293-1.9782 0.59691c-0.35573 0.20112-0.99953 0.90189-0.99953 0.90189s0.95887-2.115 1.0877-3.0997c0.13679-1.0453 0.55004-2.6787 0.55004-2.6787s-1.6117 0.26624-2.1541 0.66183c-0.40321 0.2941-1.7459 0.52185-1.7459 0.52185s0.28342-1.8524-0.50654-3.1622l-3.2112-3.8949s-0.0397 3.5391 0.18712 4.9275zm0.31693-3.3814z"/>
      <path d="m221.68 396.43c0.2466 1.5096 1.8144 2.8774 1.8144 2.8774s-1.1277-0.4698-1.6254-0.43269c-0.66944 0.0499-2.0382 0.88551-2.0382 0.88554s1.2668 2.1338 2.0482 2.8416c0.73601 0.66673 2.8808 1.6682 2.8808 1.6682s-0.9738-0.10263-1.3751-0.0254c-0.60657 0.11672-1.8916 0.83146-1.8916 0.83144s1.3514 1.718 2.0617 2.3369c0.94301 0.82159 3.514 2.3005 3.514 2.3005l-1.8648-0.81066-2.0756 0.33305s1.369 2.2312 2.2977 3.2174c1.0927 1.1604 3.4564 2.9864 3.4564 2.9864l-3.0043-0.58838s1.0718 1.9952 1.727 2.6936c1.0237 1.091 3.5768 3.0419 3.5768 3.0419l-1.6995-0.54868-1.6782 0.0315s1.271 2.6536 2.2145 3.4301c1.0451 0.86012 2.657 1.9755 2.657 1.9755l17.427 47.102c1.4059 0.79725 2.1871 0.2335 2.6678-0.98469l-17.86-47.23s0.68922-1.5938 0.92832-2.9261c0.21583-1.2027-0.35419-4.1167-0.35419-4.1167l-0.98828 1.5259 0.59649-0.76257c-2e-5 -2e-5 -1.1704-1.3177-1.0972-2.812 0.0469-0.95648-0.43711-3.1697-0.43711-3.1697l0.33833 2.308c0 2e-5 -1.6335-2.8328-1.5526-4.4247 0.0688-1.3529-0.4407-4.1074-0.4407-4.1074l-1.7942 1.0953 0.34224 1.8278c0 2e-5 -0.23191-2.7658-0.0457-4.0025 0.14031-0.93163 0.0383-3.1453 0.0383-3.1453s-1.4405 0.29293-1.9782 0.59691c-0.35573 0.20112-0.99953 0.90189-0.99953 0.90189s0.95887-2.115 1.0877-3.0997c0.13679-1.0453 1.4654-2.2999 1.4654-2.2999s-1.6117 0.26624-2.1541 0.66183c-0.40321 0.2941-2.6612 0.14307-2.6612 0.14307s0.28342-1.8524-0.50654-3.1622l-3.2112-3.8949s-0.0397 3.5391 0.18712 4.9275zm0.31693-3.3814z"/>
     </g>
     <g transform="matrix(-1.0134 0 0 1.0107 480.23 -3.9977)">
      <path d="m212.99 400.48c0.2466 1.5096 1.8144 2.8774 1.8144 2.8774s-1.1277-0.4698-1.6254-0.43269c-0.66944 0.0499-2.0382 0.88551-2.0382 0.88554s1.2668 2.1338 2.0482 2.8416c0.73601 0.66673 2.8808 1.6682 2.8808 1.6682s-0.9738-0.10263-1.3751-0.0254c-0.60657 0.11672-1.8916 0.83146-1.8916 0.83144s1.3514 1.718 2.0617 2.3369c0.94301 0.82159 3.514 2.3005 3.514 2.3005l-1.8648-0.81066-2.0756 0.33305s1.369 2.2312 2.2977 3.2174c1.0927 1.1604 3.4564 2.9864 3.4564 2.9864l-3.0043-0.58838s1.0718 1.9952 1.727 2.6936c1.0237 1.091 3.5768 3.0419 3.5768 3.0419l-1.6995-0.54868-1.6782 0.0315s1.271 2.6536 2.2145 3.4301c1.0451 0.86012 2.657 1.9755 2.657 1.9755l16.998 46.53c1.4059 0.79725 2.1871 0.2335 2.6678-0.98469l-17.425-46.655s0.68922-1.5938 0.92832-2.9261c0.21583-1.2027-0.35419-4.1167-0.35419-4.1167l-1.6549 1.2592-0.70337 1.1706c-2e-5 -2e-5 0.79604-2.9842 0.86925-4.4784 0.0469-0.95648-0.43711-3.1697-0.43711-3.1697l-2.0281 2.2413c0 2e-5 0.73289-2.7662 0.81376-4.358 0.0687-1.3529-0.4407-4.1074-0.4407-4.1074l-1.7942 1.0953-0.89096 1.8278c0 2e-5 1.0013-2.7658 1.1875-4.0025 0.14031-0.93163 0.0383-3.1453 0.0383-3.1453s-1.4405 0.29293-1.9782 0.59691c-0.35573 0.20112-0.99953 0.90189-0.99953 0.90189s0.95887-2.115 1.0877-3.0997c0.13679-1.0453-0.27064-3.531-0.27064-3.531s-1.6117 0.26624-2.1541 0.66183c-0.40321 0.2941-0.92518 1.3741-0.92518 1.3741s0.28342-1.8524-0.50654-3.1622l-3.2112-3.8949s-0.0397 3.5391 0.18712 4.9275zm0.31693-3.3814z"/>
      <path d="m217.33 397.88c0.2466 1.5096 1.8144 2.8774 1.8144 2.8774s-1.1277-0.4698-1.6254-0.43269c-0.66944 0.0499-2.0382 0.88551-2.0382 0.88554s1.2668 2.1338 2.0482 2.8416c0.73601 0.66673 2.8808 1.6682 2.8808 1.6682s-0.9738-0.10263-1.3751-0.0254c-0.60657 0.11672-1.8916 0.83146-1.8916 0.83144s1.3514 1.718 2.0617 2.3369c0.94301 0.82159 3.514 2.3005 3.514 2.3005l-1.8648-0.81066-2.0756 0.33305s1.369 2.2312 2.2977 3.2174c1.0927 1.1604 3.4564 2.9864 3.4564 2.9864l-3.0043-0.58838s1.0718 1.9952 1.727 2.6936c1.0237 1.091 3.5768 3.0419 3.5768 3.0419l-1.6995-0.54868-1.6782 0.0315s1.271 2.6536 2.2145 3.4301c1.0451 0.86012 2.657 1.9755 2.657 1.9755l17.856 48.175c1.4059 0.79725 2.1871 0.2335 2.6678-0.98469l-18.283-48.3s0.68922-1.5938 0.92832-2.9261c0.21583-1.2027-0.35419-4.1167-0.35419-4.1167l-1.6549 1.2592-0.70337 1.1706c-2e-5 -2e-5 0.79604-2.9842 0.86925-4.4784 0.0469-0.95648-0.43711-3.1697-0.43711-3.1697l-2.0281 2.2413c0 2e-5 0.73289-2.7662 0.81376-4.358 0.0687-1.3529-0.4407-4.1074-0.4407-4.1074l-1.7942 1.0953-0.89096 1.8278c0 2e-5 1.0013-2.7658 1.1875-4.0025 0.14031-0.93163 0.0382-3.1453 0.0382-3.1453s-1.4405 0.29293-1.9782 0.59691c-0.35573 0.20112-0.99953 0.90189-0.99953 0.90189s0.95887-2.115 1.0877-3.0997c0.13679-1.0453 0.55004-2.6787 0.55004-2.6787s-1.6117 0.26624-2.1541 0.66183c-0.40321 0.2941-1.7459 0.52185-1.7459 0.52185s0.28342-1.8524-0.50654-3.1622l-3.2112-3.8949s-0.0397 3.5391 0.18712 4.9275zm0.31693-3.3814z"/>
      <path d="m221.68 396.43c0.2466 1.5096 1.8144 2.8774 1.8144 2.8774s-1.1277-0.4698-1.6254-0.43269c-0.66944 0.0499-2.0382 0.88551-2.0382 0.88554s1.2668 2.1338 2.0482 2.8416c0.73601 0.66673 2.8808 1.6682 2.8808 1.6682s-0.9738-0.10263-1.3751-0.0254c-0.60657 0.11672-1.8916 0.83146-1.8916 0.83144s1.3514 1.718 2.0617 2.3369c0.94301 0.82159 3.514 2.3005 3.514 2.3005l-1.8648-0.81066-2.0756 0.33305s1.369 2.2312 2.2977 3.2174c1.0927 1.1604 3.4564 2.9864 3.4564 2.9864l-3.0043-0.58838s1.0718 1.9952 1.727 2.6936c1.0237 1.091 3.5768 3.0419 3.5768 3.0419l-1.6995-0.54868-1.6782 0.0315s1.271 2.6536 2.2145 3.4301c1.0451 0.86012 2.657 1.9755 2.657 1.9755l17.427 47.102c1.4059 0.79725 2.1871 0.2335 2.6678-0.98469l-17.86-47.23s0.68922-1.5938 0.92832-2.9261c0.21583-1.2027-0.35419-4.1167-0.35419-4.1167l-0.98828 1.5259 0.59649-0.76257c-2e-5 -2e-5 -1.1704-1.3177-1.0972-2.812 0.0469-0.95648-0.43711-3.1697-0.43711-3.1697l0.33833 2.308c0 2e-5 -1.6335-2.8328-1.5526-4.4247 0.0688-1.3529-0.4407-4.1074-0.4407-4.1074l-1.7942 1.0953 0.34224 1.8278c0 2e-5 -0.23191-2.7658-0.0457-4.0025 0.14031-0.93163 0.0383-3.1453 0.0383-3.1453s-1.4405 0.29293-1.9782 0.59691c-0.35573 0.20112-0.99953 0.90189-0.99953 0.90189s0.95887-2.115 1.0877-3.0997c0.13679-1.0453 1.4654-2.2999 1.4654-2.2999s-1.6117 0.26624-2.1541 0.66183c-0.40321 0.2941-2.6612 0.14307-2.6612 0.14307s0.28342-1.8524-0.50654-3.1622l-3.2112-3.8949s-0.0397 3.5391 0.18712 4.9275zm0.31693-3.3814z"/>
      <path d="m226.31 395.27c0.2466 1.5096 1.8144 2.8774 1.8144 2.8774s-1.1277-0.4698-1.6254-0.43269c-0.66944 0.0499-2.0382 0.88551-2.0382 0.88554s1.2668 2.1338 2.0482 2.8416c0.73601 0.66673 2.8808 1.6682 2.8808 1.6682s-0.9738-0.10263-1.3751-0.0254c-0.60657 0.11672-1.8916 0.83146-1.8916 0.83144s1.3514 1.718 2.0617 2.3369c0.94301 0.82159 3.514 2.3005 3.514 2.3005l-1.8648-0.81066-2.0756 0.33305s1.369 2.2312 2.2977 3.2174c1.0927 1.1604 3.4564 2.9864 3.4564 2.9864l-3.0043-0.58838s1.0718 1.9952 1.727 2.6936c1.0237 1.091 3.5768 3.0419 3.5768 3.0419l-1.6995-0.54868-1.6782 0.0315s1.271 2.6536 2.2145 3.4301c1.0451 0.86012 2.657 1.9755 2.657 1.9755l16.998 45.958c1.4059 0.79725 2.1871 0.2335 2.6678-0.98469l-17.425-46.083s0.68922-1.5938 0.92832-2.9261c0.21583-1.2027-0.35419-4.1167-0.35419-4.1167l-1.6549 1.2592-0.70337 1.1706c-2e-5 -2e-5 0.79604-2.9842 0.86925-4.4784 0.0469-0.95648-0.43711-3.1697-0.43711-3.1697l-2.0281 2.2413c0 2e-5 0.73289-2.7662 0.81376-4.358 0.0687-1.3529-0.4407-4.1074-0.4407-4.1074l-1.7942 1.0953-0.89096 1.8278c0 2e-5 1.0013-2.7658 1.1875-4.0025 0.14031-0.93163 0.0383-3.1453 0.0383-3.1453s-1.4405 0.29293-1.9782 0.59691c-0.35573 0.20112-0.99953 0.90189-0.99953 0.90189s0.95887-2.115 1.0877-3.0997c0.13679-1.0453-0.27064-3.531-0.27064-3.531s-1.6117 0.26624-2.1541 0.66183c-0.40321 0.2941-0.92518 1.3741-0.92518 1.3741s0.28342-1.8524-0.50654-3.1622l-3.2112-3.8949s-0.0397 3.5391 0.18712 4.9275zm0.31693-3.3814z"/>
     </g>
    </g>
   </g>
   <g transform="matrix(.54495 0 0 .5068 -188.16 185.59)" fill="url(#a)" fill-rule="evenodd" stroke="#2b2200" stroke-width="1.0369">
    <path d="m149.53 503.75s-4.8674 1.0781-7.9781 1.1157c-2.0832 0.0252-3.3785 0.0685-7.7408 0.14313-2.1517 0.0368-5.0495-0.99988-9.1561-0.94632 0 0-0.26434 0.2377-0.52773 0.54405s-0.52585 0.68134-0.52208 0.95595c4e-3 0.2801 0.28192 0.6551 0.55904 0.96006s0.55327 0.53994 0.55327 0.53994c2.8291 0.62933 6.4264 1.1067 9.476 0.9586 2.6663-0.1295 5.1402-0.0656 7.2748-0.0927 2.8024-0.0355 6.0461-0.35706 7.906-1.0955 1.1363-0.45118 1.5937-1.349 1.5924-1.5829-3e-3 -0.62308-1.4366-1.5-1.4366-1.5z"/>
    <path d="m123.42 497.9s6.0824-1.1403 9.1931-1.1779c2.0832-0.0252 3.3785-0.0685 7.7408-0.14313 2.1517-0.0368 5.0495 0.99987 9.1561 0.94632 0 0 0.26434-0.23771 0.52773-0.54405s0.52585-0.68134 0.52208-0.95595c-4e-3 -0.28009-0.28192-0.65509-0.55904-0.96006s-0.55327-0.53994-0.55327-0.53994c-2.8291-0.62933-6.4264-1.1067-9.476-0.95861-2.6663 0.12951-5.1402 0.0657-7.2748 0.0927-4.5146 0.0572-8.1601 1.1137-8.3544 1.1162l-0.22651 7.1e-4 -0.11724-7.1e-4 -0.0225 9e-5 -9e-3 -9e-5s-1.7559 0.94556-1.7525 1.5622c3e-3 0.61664 1.2052 1.5622 1.2052 1.5622z"/>
    <path d="m124.37 500.44s4.8674-0.17332 7.9781-0.21091c2.0832-0.0252 3.3785-0.0685 7.7408-0.14313 2.1517-0.0368 5.0495 0.0951 9.1561 0.0415 0 0 0.26434-0.2377 0.52773-0.54406s0.52585-0.68134 0.52208-0.95594c-4e-3 -0.2801-0.28192-0.6551-0.55904-0.96007s-0.55327-0.53993-0.55327-0.53993c-2.8291-0.62933-6.4264-1.1067-9.476-0.95861-2.6663 0.12951-5.1402 0.0657-7.2748 0.0927-4.5146 0.0572-8.2952 1.1837-8.3508 1.1833s-1.151 0.87846-1.1476 1.4951c3e-3 0.61664 1.4366 1.5 1.4366 1.5z"/>
    <path d="m148.99 501.59s-5.0836 0.10514-8.1944 0.14274c-2.0832 0.0252-3.3785 0.0685-7.7408 0.14312-2.1517 0.0368-4.8333-0.0269-8.9398 0.0266 0 0-0.26434 0.2377-0.52773 0.54406s-0.52585 0.68133-0.52208 0.95594c4e-3 0.2801 0.28192 0.6551 0.55904 0.96006s0.55327 0.53994 0.55327 0.53994c2.8291 0.62932 6.3183 0.6743 9.3679 0.52618 2.6663-0.12951 5.1402-0.0657 7.2748-0.0927 4.5146-0.0572 7.9773-0.65058 8.1716-0.65311 0.0971-1e-3 1.4383-0.97623 1.4349-1.5929-3e-3 -0.61667-1.4366-1.5-1.4366-1.5z"/>
    <path d="m122.31 492.49s7.3587-1.9275 9.3862-0.80302c1.1496 0.63763 2.6537 1.549 4.0735 3.0159 1.0841 1.1201 2.1461 2.8081 2.8028 3.4985 1.5168 1.5946 2.4848 3.083 3.4382 4.5239s2.3992 3.7835 2.8953 5.0668 0.72382 3.2572 0.72382 3.2572 0.14897 2.8276-0.4498 3.0954c-0.83068 0.37161-2.0784-1.9166-2.0784-1.9166s-0.65696-1.3265-1.0207-2.7372c-0.34524-1.3389-2.5221-5.5706-4.4641-6.8867-1.427-0.96706-2.7082-4.0957-3.8562-5.1598s-1.9672-2.0678-3.331-2.8621c-0.5426-0.316-2.0548-0.41145-3.4703-0.18707-2.1425 0.33963-4.2873 1.1711-4.2873 1.1711s-1.8396-0.56912-1.6286-1.4476c0.17611-0.73331 1.2667-1.6286 1.2667-1.6286z"/>
    <path d="m124.37 502.92s5.2293-0.1829 8.34-0.22049c2.0832-0.0252 3.3785-0.0685 7.7408-0.14311 2.1517-0.0368 9.0585-0.1866 9.3219-0.49295s0.52585-0.68135 0.52208-0.95596c-4e-3 -0.28008-0.28192-0.65509-0.55904-0.96006s-0.55327-0.53994-0.55327-0.53994c-2.8291-0.62931-6.2454-0.38289-9.295-0.23477-2.6663 0.12951-5.1402 0.0657-7.2748 0.0927-4.5146 0.0572-8.2184 0.45426-8.2427 0.45458l-0.0224 9e-5s-1.4176 0.88327-1.4142 1.4999c3e-3 0.61663 1.4366 1.5 1.4366 1.5z"/>
   </g>
   <g transform="matrix(.54495 0 0 .5068 -245.34 217)" fill="url(#a)" stroke="#540">
    <path d="m266.2 402.37c-0.23772 1.511-1.7975 2.888-1.7975 2.888s1.1249-0.47642 1.6228-0.44224c0.66972 0.046 2.0434 0.87351 2.0434 0.87354s-1.2542 2.1412-2.0314 2.8536c-0.73207 0.67104-2.871 1.6851-2.871 1.6851s0.97318-0.10836 1.375-0.0335c0.60724 0.11315 1.8965 0.82033 1.8965 0.82031s-1.3413 1.7259-2.048 2.349c-0.93816 0.82712-3.5004 2.3212-3.5004 2.3212l1.86-0.82161 2.0775 0.32084s-1.3559 2.2392-2.2788 3.2308c-1.0859 1.1668-3.4388 3.0067-3.4388 3.0067l3.0008-0.60603s-1.06 2.0015-1.7112 2.7037c-1.0172 1.097-3.5589 3.0629-3.5589 3.0629l1.6963-0.55867 1.6784 0.0216s-1.2554 2.661-2.1943 3.443c-1.0401 0.86625-2.6454 1.9911-2.6454 1.9911l-16.728 46.057c-1.4012 0.80551-2.1857 0.24636-2.6736-0.96898l17.154-46.184s-0.69858-1.5897-0.94551-2.9206c-0.22289-1.2014 0.32998-4.1187 0.32998-4.1187l1.6622 1.2495 0.71024 1.1664c2e-5 -2e-5 -0.81357-2.9795-0.89557-4.4732-0.0525-0.95619 0.41847-3.1722 0.41847-3.1722l2.0412 2.2293c0 2e-5 -0.74914-2.7618-0.83937-4.3532-0.0767-1.3524 0.41654-4.1099 0.41654-4.1099l1.8006 1.0847 0.90169 1.8226c0 2e-5 -1.0175-2.7598-1.211-3.9955-0.14578-0.93079-0.0567-3.145-0.0567-3.145s1.4422 0.28446 1.9817 0.58527c0.35691 0.19903 1.0048 0.896 1.0048 0.896s-0.97129-2.1093-1.1059-3.0932c-0.14293-1.0445 0.24988-3.5325 0.24988-3.5325s1.6133 0.25676 2.1579 0.64915c0.40493 0.29172 0.93324 1.3686 0.93324 1.3686s-0.2943-1.8506 0.48794-3.1651l3.1883-3.9137s0.0605 3.5388-0.15815 4.9286zm-0.3368-3.3795z" fill-rule="evenodd" stroke-width=".51847"/>
    <g transform="matrix(-1,0,0,1,421.42,-8.1741)" stroke-width=".51847">
     <g transform="translate(-57.444,8.8278)">
      <path d="m213.26 401.11c1.0231 1.1371 1.1087 3.216 1.1086 3.216s0.33933-1.1736 0.67977-1.5385c0.45792-0.49088 1.9663-1.0355 1.9663-1.0355s0.87138 2.3234 0.93443 3.3758c0.0594 0.99133-0.50188 3.2909-0.5019 3.2909s0.52941-0.82372 0.84079-1.0884c0.47065-0.40003 1.8324-0.95499 1.8324-0.955s0.49418 2.1292 0.53232 3.0706c0.0506 1.2497-0.40493 4.1805-0.40492 4.1805l0.5348-1.9618 1.5588-1.4104s0.88343 2.4642 1.0714 3.8057c0.22114 1.5785 0.16606 4.5648 0.16606 4.5649l1.4214-2.7114s0.8854 2.0846 1.02 3.0328c0.21025 1.4812 0.13396 4.6935 0.13398 4.6935l0.63571-1.6689 1.0749-1.2892s1.2742 2.6521 1.2893 3.8739c0.0168 1.3534-0.12211 3.3087-0.12211 3.3087l9.89 15.533c-0.2581 1.5955-1.1867 1.852-2.4377 1.4645l-9.7206-15.944s-1.6744-0.45994-2.8631-1.1072c-1.0731-0.58436-2.9891-2.8527-2.9891-2.8527l2.0178-0.50263 1.3532 0.18402c-1e-5 -2e-5 -2.8257-1.2468-4.037-2.1249-0.77534-0.56207-2.1986-2.3247-2.1986-2.3247l3.0174-0.17906c0 2e-5 -2.6162-1.1596-3.9083-2.0928-1.0982-0.79307-2.9277-2.9143-2.9277-2.9143l1.9772-0.71392 1.9832 0.44906c2e-5 1e-5 -2.7838-0.95002-3.865-1.5788-0.81443-0.47362-2.4771-1.9387-2.4771-1.9387s1.13-0.94014 1.7036-1.1693c0.3795-0.15157 1.329-0.21513 1.329-0.21513s-2.2496-0.57575-3.0983-1.0915c-0.90092-0.54754-2.5846-2.421-2.5846-2.421s1.2164-1.0904 1.8643-1.2659c0.48175-0.1304 1.6508 0.13841 1.6508 0.13841s-1.6221-0.93827-2.1493-2.3741c-0.48511-1.3213-0.95671-4.8804-0.95299-4.878-2e-3 -0.0193 2.7101 2.1197 3.651 3.1656z" fill="url(#a)" fill-rule="evenodd" stroke="#540" stroke-width=".51847"/>
     </g>
     <path d="m153.06 411.99c1.0231 1.1371 1.1087 3.216 1.1086 3.216s0.33933-1.1736 0.67977-1.5385c0.45792-0.49088 1.9663-1.0355 1.9663-1.0355s0.87138 2.3234 0.93443 3.3758c0.0594 0.99133-0.50188 3.2909-0.5019 3.2909s0.52941-0.82372 0.84079-1.0884c0.47065-0.40003 1.8324-0.95499 1.8324-0.955s0.49418 2.1292 0.53232 3.0706c0.0506 1.2497-0.40493 4.1805-0.40492 4.1805l0.5348-1.9618 1.5588-1.4104s0.88343 2.4642 1.0714 3.8057c0.22114 1.5785 0.16606 4.5648 0.16606 4.5649l1.4214-2.7114s0.8854 2.0846 1.02 3.0328c0.21025 1.4812 0.13396 4.6935 0.13398 4.6935l0.63571-1.6689 1.0749-1.2892s1.2742 2.6521 1.2893 3.8739c0.0168 1.3534-0.12211 3.3087-0.12211 3.3087l9.89 15.533c-0.2581 1.5955-1.1867 1.852-2.4377 1.4645l-9.9797-15.666s-1.4153-0.73855-2.604-1.3858c-1.0731-0.58436-2.9891-2.8527-2.9891-2.8527l2.0178-0.50263 1.3532 0.18402c-1e-5 -2e-5 -2.8257-1.2468-4.037-2.1249-0.77534-0.56207-2.1986-2.3247-2.1986-2.3247l3.0174-0.17906c0 2e-5 -2.6162-1.1596-3.9083-2.0928-1.0982-0.79307-2.9277-2.9143-2.9277-2.9143l1.9772-0.71392 1.9832 0.44906c2e-5 1e-5 -2.7838-0.95002-3.865-1.5788-0.81443-0.47362-2.4771-1.9387-2.4771-1.9387s1.13-0.94014 1.7036-1.1693c0.3795-0.15157 1.329-0.21513 1.329-0.21513s-2.2496-0.57575-3.0983-1.0915c-0.90092-0.54754-2.5846-2.421-2.5846-2.421s1.2164-1.0904 1.8643-1.2659c0.48175-0.1304 1.6508 0.13841 1.6508 0.13841s-1.6221-0.93827-2.1493-2.3741c-0.48511-1.3213-0.95671-4.8804-0.95299-4.878-2e-3 -0.0193 2.7101 2.1197 3.651 3.1656z" fill-rule="evenodd"/>
    </g>
    <g transform="translate(59.943,-9.1959)" stroke-width=".51847">
     <g transform="translate(-57.444,8.8278)">
      <path d="m213.26 401.11c1.0231 1.1371 1.1087 3.216 1.1086 3.216s0.33933-1.1736 0.67977-1.5385c0.45792-0.49088 1.9663-1.0355 1.9663-1.0355s0.87138 2.3234 0.93443 3.3758c0.0594 0.99133-0.50188 3.2909-0.5019 3.2909s0.52941-0.82372 0.84079-1.0884c0.47065-0.40003 1.8324-0.95499 1.8324-0.955s0.49418 2.1292 0.53232 3.0706c0.0506 1.2497-0.40493 4.1805-0.40492 4.1805l0.5348-1.9618 1.5588-1.4104s0.88343 2.4642 1.0714 3.8057c0.22114 1.5785 0.16606 4.5648 0.16606 4.5649l1.4214-2.7114s0.8854 2.0846 1.02 3.0328c0.21025 1.4812 0.13396 4.6935 0.13398 4.6935l0.63571-1.6689 1.0749-1.2892s1.2742 2.6521 1.2893 3.8739c0.0168 1.3534-0.12211 3.3087-0.12211 3.3087l9.89 15.533c-0.2581 1.5955-1.1867 1.852-2.4377 1.4645l-9.7206-15.944s-1.6744-0.45994-2.8631-1.1072c-1.0731-0.58436-2.9891-2.8527-2.9891-2.8527l2.0178-0.50263 1.3532 0.18402c-1e-5 -2e-5 -2.8257-1.2468-4.037-2.1249-0.77534-0.56207-2.1986-2.3247-2.1986-2.3247l3.0174-0.17906c0 2e-5 -2.6162-1.1596-3.9083-2.0928-1.0982-0.79307-2.9277-2.9143-2.9277-2.9143l1.9772-0.71392 1.9832 0.44906c2e-5 1e-5 -2.7838-0.95002-3.865-1.5788-0.81443-0.47362-2.4771-1.9387-2.4771-1.9387s1.13-0.94014 1.7036-1.1693c0.3795-0.15157 1.329-0.21513 1.329-0.21513s-2.2496-0.57575-3.0983-1.0915c-0.90092-0.54754-2.5846-2.421-2.5846-2.421s1.2164-1.0904 1.8643-1.2659c0.48175-0.1304 1.6508 0.13841 1.6508 0.13841s-1.6221-0.93827-2.1493-2.3741c-0.48511-1.3213-0.95671-4.8804-0.95299-4.878-2e-3 -0.0193 2.7101 2.1197 3.651 3.1656z" fill="url(#a)" fill-rule="evenodd" stroke="#540" stroke-width=".51847"/>
     </g>
     <path d="m153.06 411.99c1.0231 1.1371 1.1087 3.216 1.1086 3.216s0.33933-1.1736 0.67977-1.5385c0.45792-0.49088 1.9663-1.0355 1.9663-1.0355s0.87138 2.3234 0.93443 3.3758c0.0594 0.99133-0.50188 3.2909-0.5019 3.2909s0.52941-0.82372 0.84079-1.0884c0.47065-0.40003 1.8324-0.95499 1.8324-0.955s0.49418 2.1292 0.53232 3.0706c0.0506 1.2497-0.40493 4.1805-0.40492 4.1805l0.5348-1.9618 1.5588-1.4104s0.88343 2.4642 1.0714 3.8057c0.22114 1.5785 0.16606 4.5648 0.16606 4.5649l1.4214-2.7114s0.8854 2.0846 1.02 3.0328c0.21025 1.4812 0.13396 4.6935 0.13398 4.6935l0.63571-1.6689 1.0749-1.2892s1.2742 2.6521 1.2893 3.8739c0.0168 1.3534-0.12211 3.3087-0.12211 3.3087l9.89 15.533c-0.2581 1.5955-1.1867 1.852-2.4377 1.4645l-10.167-15.562s-1.2283-0.84236-2.417-1.4897c-1.0731-0.58436-2.9891-2.8527-2.9891-2.8527l2.0178-0.50263 1.3532 0.18402c-1e-5 -2e-5 -2.8257-1.2468-4.037-2.1249-0.77534-0.56207-2.1986-2.3247-2.1986-2.3247l3.0174-0.17906c0 2e-5 -2.6162-1.1596-3.9083-2.0928-1.0982-0.79307-2.9277-2.9143-2.9277-2.9143l1.9772-0.71392 1.9832 0.44906c2e-5 1e-5 -2.7838-0.95002-3.865-1.5788-0.81443-0.47362-2.4771-1.9387-2.4771-1.9387s1.13-0.94014 1.7036-1.1693c0.3795-0.15157 1.329-0.21513 1.329-0.21513s-2.2496-0.57575-3.0983-1.0915c-0.90092-0.54754-2.5846-2.421-2.5846-2.421s1.2164-1.0904 1.8643-1.2659c0.48175-0.1304 1.6508 0.13841 1.6508 0.13841s-1.6221-0.93827-2.1493-2.3741c-0.48511-1.3213-0.95671-4.8804-0.95299-4.878-2e-3 -0.0193 2.7101 2.1197 3.651 3.1656z" fill-rule="evenodd"/>
    </g>
    <g fill-rule="evenodd" stroke-width=".51847">
     <g transform="translate(5.6703 .31989)">
      <path d="m212.99 400.48c0.2466 1.5096 1.8144 2.8774 1.8144 2.8774s-1.1277-0.4698-1.6254-0.43269c-0.66944 0.0499-2.0382 0.88551-2.0382 0.88554s1.2668 2.1338 2.0482 2.8416c0.73601 0.66673 2.8808 1.6682 2.8808 1.6682s-0.9738-0.10263-1.3751-0.0254c-0.60657 0.11672-1.8916 0.83146-1.8916 0.83144s1.3514 1.718 2.0617 2.3369c0.94301 0.82159 3.514 2.3005 3.514 2.3005l-1.8648-0.81066-2.0756 0.33305s1.369 2.2312 2.2977 3.2174c1.0927 1.1604 3.4564 2.9864 3.4564 2.9864l-3.0043-0.58838s1.0718 1.9952 1.727 2.6936c1.0237 1.091 3.5768 3.0419 3.5768 3.0419l-1.6995-0.54868-1.6782 0.0315s1.271 2.6536 2.2145 3.4301c1.0451 0.86012 2.657 1.9755 2.657 1.9755l16.562 46.584c1.4059 0.79725 2.1871 0.2335 2.6678-0.98469l-16.81-46.76s0.5126-1.5401 0.7517-2.8723c0.21583-1.2027-0.35419-4.1167-0.35419-4.1167l-1.6549 1.2592-0.70337 1.1706c-2e-5 -2e-5 0.79604-2.9842 0.86925-4.4784 0.0469-0.95648-0.43711-3.1697-0.43711-3.1697l-2.0281 2.2413c0 2e-5 0.73289-2.7662 0.81376-4.358 0.0687-1.3529-0.4407-4.1074-0.4407-4.1074l-1.7942 1.0953-0.89096 1.8278c0 2e-5 1.0013-2.7658 1.1875-4.0025 0.14031-0.93163 0.0383-3.1453 0.0383-3.1453s-1.4405 0.29293-1.9782 0.59691c-0.35573 0.20112-0.99953 0.90189-0.99953 0.90189s0.95887-2.115 1.0877-3.0997c0.13679-1.0453-0.27064-3.531-0.27064-3.531s-1.6117 0.26624-2.1541 0.66183c-0.40321 0.2941-0.92518 1.3741-0.92518 1.3741s0.28342-1.8524-0.50654-3.1622l-3.2112-3.8949s-0.0397 3.5391 0.18712 4.9275zm0.31693-3.3814z"/>
      <path d="m217.33 397.88c0.2466 1.5096 1.8144 2.8774 1.8144 2.8774s-1.1277-0.4698-1.6254-0.43269c-0.66944 0.0499-2.0382 0.88551-2.0382 0.88554s1.2668 2.1338 2.0482 2.8416c0.73601 0.66673 2.8808 1.6682 2.8808 1.6682s-0.9738-0.10263-1.3751-0.0254c-0.60657 0.11672-1.8916 0.83146-1.8916 0.83144s1.3514 1.718 2.0617 2.3369c0.94301 0.82159 3.514 2.3005 3.514 2.3005l-1.8648-0.81066-2.0756 0.33305s1.369 2.2312 2.2977 3.2174c1.0927 1.1604 3.4564 2.9864 3.4564 2.9864l-3.0043-0.58838s1.0718 1.9952 1.727 2.6936c1.0237 1.091 3.5768 3.0419 3.5768 3.0419l-1.6995-0.54868-1.6782 0.0315s1.271 2.6536 2.2145 3.4301c1.0451 0.86012 2.657 1.9755 2.657 1.9755l17.856 48.175c1.4059 0.79725 2.1871 0.2335 2.6678-0.98469l-18.283-48.3s0.68922-1.5938 0.92832-2.9261c0.21583-1.2027-0.35419-4.1167-0.35419-4.1167l-1.6549 1.2592-0.70337 1.1706c-2e-5 -2e-5 0.79604-2.9842 0.86925-4.4784 0.0469-0.95648-0.43711-3.1697-0.43711-3.1697l-2.0281 2.2413c0 2e-5 0.73289-2.7662 0.81376-4.358 0.0687-1.3529-0.4407-4.1074-0.4407-4.1074l-1.7942 1.0953-0.89096 1.8278c0 2e-5 1.0013-2.7658 1.1875-4.0025 0.14031-0.93163 0.0382-3.1453 0.0382-3.1453s-1.4405 0.29293-1.9782 0.59691c-0.35573 0.20112-0.99953 0.90189-0.99953 0.90189s0.95887-2.115 1.0877-3.0997c0.13679-1.0453-0.27064-3.531-0.27064-3.531s-1.6117 0.26624-2.1541 0.66183c-0.40321 0.2941-0.92518 1.3741-0.92518 1.3741s0.28342-1.8524-0.50654-3.1622l-3.2112-3.8949s-0.0397 3.5391 0.18712 4.9275zm0.31693-3.3814z"/>
      <path d="m221.68 396.43c0.2466 1.5096 1.8144 2.8774 1.8144 2.8774s-1.1277-0.4698-1.6254-0.43269c-0.66944 0.0499-1.6594 1.6746-1.6594 1.6747s0.88802 1.3446 1.6694 2.0525c0.73601 0.66673 2.8808 1.6682 2.8808 1.6682s-0.9738-0.10263-1.3751-0.0254c-0.60657 0.11672-1.8916 0.83146-1.8916 0.83144s1.3514 1.718 2.0617 2.3369c0.94301 0.82159 3.514 2.3005 3.514 2.3005l-1.8648-0.81066-2.0756 0.33305s1.369 2.2312 2.2977 3.2174c1.0927 1.1604 3.4564 2.9864 3.4564 2.9864l-3.0043-0.58838s1.0718 1.9952 1.727 2.6936c1.0237 1.091 3.5768 3.0419 3.5768 3.0419l-1.6995-0.54868-1.6782 0.0315s1.271 2.6536 2.2145 3.4301c1.0451 0.86012 2.657 1.9755 2.657 1.9755l17.427 47.102c1.4059 0.79725 2.1871 0.2335 2.6678-0.98469l-17.86-47.23s0.68922-1.5938 0.92832-2.9261c0.21583-1.2027-0.35419-4.1167-0.35419-4.1167l-1.6549 1.2592-0.70337 1.1706c-2e-5 -2e-5 0.79604-2.9842 0.86925-4.4784 0.0469-0.95648-0.43711-3.1697-0.43711-3.1697l-2.0281 2.2413c0 2e-5 0.73289-2.7662 0.81376-4.358 0.0688-1.3529-0.4407-4.1074-0.4407-4.1074l-1.7942 1.0953-0.89096 1.8278c0 2e-5 1.0013-2.7658 1.1875-4.0025 0.14031-0.93163 0.0383-3.1453 0.0383-3.1453s-1.4405 0.29293-1.9782 0.59691c-0.35573 0.20112-0.99953 0.90189-0.99953 0.90189s0.95887-2.115 1.0877-3.0997c0.13679-1.0453-0.27064-3.531-0.27064-3.531s-1.6117 0.26624-2.1541 0.66183c-0.40321 0.2941-0.92518 1.3741-0.92518 1.3741s0.28342-1.8524-0.50654-3.1622l-3.2112-3.8949s-0.0397 3.5391 0.18712 4.9275zm0.31693-3.3814z"/>
      <path d="m226.31 395.27c0.2466 1.5096 1.8144 2.8774 1.8144 2.8774s-1.1277-0.4698-1.6254-0.43269c-0.66944 0.0499-2.0382 0.88551-2.0382 0.88554s1.2668 2.1338 2.0482 2.8416c0.73601 0.66673 2.8808 1.6682 2.8808 1.6682s-0.9738-0.10263-1.3751-0.0254c-0.60657 0.11672-1.8916 0.83146-1.8916 0.83144s1.3514 1.718 2.0617 2.3369c0.94301 0.82159 3.514 2.3005 3.514 2.3005l-1.8648-0.81066-2.0756 0.33305s1.369 2.2312 2.2977 3.2174c1.0927 1.1604 3.4564 2.9864 3.4564 2.9864l-3.0043-0.58838s1.0718 1.9952 1.727 2.6936c1.0237 1.091 3.5768 3.0419 3.5768 3.0419l-1.6995-0.54868-1.6782 0.0315s1.271 2.6536 2.2145 3.4301c1.0451 0.86012 2.657 1.9755 2.657 1.9755l16.998 45.958c1.4059 0.79725 2.1871 0.2335 2.6678-0.98469l-17.425-46.083s0.68922-1.5938 0.92832-2.9261c0.21583-1.2027-0.35419-4.1167-0.35419-4.1167l-1.6549 1.2592-0.70337 1.1706c-2e-5 -2e-5 0.79604-2.9842 0.86925-4.4784 0.0469-0.95648-0.43711-3.1697-0.43711-3.1697l-2.0281 2.2413c0 2e-5 0.73289-2.7662 0.81376-4.358 0.0687-1.3529-0.4407-4.1074-0.4407-4.1074l-1.7942 1.0953-0.89096 1.8278c0 2e-5 1.0013-2.7658 1.1875-4.0025 0.14031-0.93163 0.0383-3.1453 0.0383-3.1453s-1.4405 0.29293-1.9782 0.59691c-0.35573 0.20112-0.99953 0.90189-0.99953 0.90189s0.95887-2.115 1.0877-3.0997c0.13679-1.0453-0.27064-3.531-0.27064-3.531s-1.6117 0.26624-2.1541 0.66183c-0.40321 0.2941-0.92518 1.3741-0.92518 1.3741s0.28342-1.8524-0.50654-3.1622l-3.2112-3.8949s-0.0397 3.5391 0.18712 4.9275zm0.31693-3.3814z"/>
     </g>
     <g transform="translate(3.3536 .89907)">
      <path d="m212.99 400.48c0.2466 1.5096 1.8144 2.8774 1.8144 2.8774s-1.1277-0.4698-1.6254-0.43269c-0.66944 0.0499-2.0382 0.88551-2.0382 0.88554s1.2668 2.1338 2.0482 2.8416c0.73601 0.66673 2.8808 1.6682 2.8808 1.6682s-0.9738-0.10263-1.3751-0.0254c-0.60657 0.11672-1.8916 0.83146-1.8916 0.83144s1.3514 1.718 2.0617 2.3369c0.94301 0.82159 3.514 2.3005 3.514 2.3005l-1.8648-0.81066-2.0756 0.33305s1.369 2.2312 2.2977 3.2174c1.0927 1.1604 3.4564 2.9864 3.4564 2.9864l-3.0043-0.58838s1.0718 1.9952 1.727 2.6936c1.0237 1.091 3.5768 3.0419 3.5768 3.0419l-1.6995-0.54868-1.6782 0.0315s1.271 2.6536 2.2145 3.4301c1.0451 0.86012 3.2307 1.7206 3.2307 1.7206l15.539 46.955c1.4059 0.79725 2.1871 0.2335 2.6678-0.98469l-16.093-46.952s0.24306-1.4664 0.48216-2.7986c0.21583-1.2027-0.35419-4.1167-0.35419-4.1167l0.97818 0.95925-0.70337 1.1706c-2e-5 -2e-5 -1.837-2.6842-1.7638-4.1785 0.0469-0.95648-0.43711-3.1697-0.43711-3.1697l-0.16162 1.8747c0 2e-5 -1.1336-2.3996-1.0527-3.9914 0.0687-1.3529-0.4407-4.1074-0.4407-4.1074l-1.7942 1.0953-0.89096 1.8278c0 2e-5 1.0013-2.7658 1.1875-4.0025 0.14031-0.93163 0.0383-3.1453 0.0383-3.1453s-1.4405 0.29293-1.9782 0.59691c-0.35573 0.20112-0.99953 0.90189-0.99953 0.90189s0.95887-2.115 1.0877-3.0997c0.13679-1.0453-0.27064-3.531-0.27064-3.531s-1.6117 0.26624-2.1541 0.66183c-0.40321 0.2941-0.92518 1.3741-0.92518 1.3741s0.28342-1.8524-0.50654-3.1622l-3.2112-3.8949s-0.0397 3.5391 0.18712 4.9275zm0.31693-3.3814z"/>
      <path d="m217.33 397.88c0.2466 1.5096 1.8144 2.8774 1.8144 2.8774s-1.1277-0.4698-1.6254-0.43269c-0.66944 0.0499-2.0382 0.88551-2.0382 0.88554s1.2668 2.1338 2.0482 2.8416c0.73601 0.66673 2.8808 1.6682 2.8808 1.6682s-0.9738-0.10263-1.3751-0.0254c-0.60657 0.11672-1.8916 0.83146-1.8916 0.83144s1.3514 1.718 2.0617 2.3369c0.94301 0.82159 3.514 2.3005 3.514 2.3005l-1.8648-0.81066-2.0756 0.33305s1.369 2.2312 2.2977 3.2174c1.0927 1.1604 3.4564 2.9864 3.4564 2.9864l-3.0043-0.58838s1.0718 1.9952 1.727 2.6936c1.0237 1.091 3.5768 3.0419 3.5768 3.0419l-1.6995-0.54868-1.6782 0.0315s1.271 2.6536 2.2145 3.4301c1.0451 0.86012 2.657 1.9755 2.657 1.9755l17.26 48.052c1.4059 0.79725 2.1871 0.2335 2.6678-0.98469l-17.687-48.177s0.68922-1.5938 0.92832-2.9261c0.21583-1.2027-0.35419-4.1167-0.35419-4.1167l0.34491 0.85926-0.0368 0.93726c-2e-5 -2e-5 -1.8703-2.3509-1.7971-3.8452 0.0469-0.95648-0.43711-3.1697-0.43711-3.1697l0.47165 2.5413c0 2e-5 -1.7668-3.0662-1.686-4.658 0.0687-1.3529-0.4407-4.1074-0.4407-4.1074l-1.7942 1.0953-0.89096 1.8278c0 2e-5 1.0013-2.7658 1.1875-4.0025 0.14031-0.93163 0.0382-3.1453 0.0382-3.1453s-1.4405 0.29293-1.9782 0.59691c-0.35573 0.20112-0.99953 0.90189-0.99953 0.90189s0.95887-2.115 1.0877-3.0997c0.13679-1.0453 0.39222-1.7633 0.39222-1.7633s-1.6117 0.26624-2.1541 0.66183c-0.40321 0.2941-1.588-0.39353-1.588-0.39353s0.28342-1.8524-0.50654-3.1622l-3.2112-3.8949s-0.0397 3.5391 0.18712 4.9275zm0.31693-3.3814z"/>
      <path d="m221.68 396.43c0.2466 1.5096 1.8144 2.8774 1.8144 2.8774s-1.1277-0.4698-1.6254-0.43269c-0.66944 0.0499-2.0382 0.88551-2.0382 0.88554s1.2668 2.1338 2.0482 2.8416c0.73601 0.66673 2.8808 1.6682 2.8808 1.6682s-0.9738-0.10263-1.3751-0.0254c-0.60657 0.11672-1.8916 0.83146-1.8916 0.83144s1.3514 1.718 2.0617 2.3369c0.94301 0.82159 3.514 2.3005 3.514 2.3005l-1.8648-0.81066-2.0756 0.33305s1.369 2.2312 2.2977 3.2174c1.0927 1.1604 3.4564 2.9864 3.4564 2.9864l-3.0043-0.58838s1.0718 1.9952 1.727 2.6936c1.0237 1.091 3.5768 3.0419 3.5768 3.0419l-1.6995-0.54868-1.6782 0.0315s1.271 2.6536 2.2145 3.4301c1.0451 0.86012 2.657 1.9755 2.657 1.9755l17.856 48.032c1.4059 0.79725 2.1871 0.2335 2.6678-0.98469l-18.283-48.157s0.68922-1.5938 0.92832-2.9261c0.21583-1.2027-0.35419-4.1167-0.35419-4.1167l-1.6549 1.2592-0.70337 1.1706c-2e-5 -2e-5 0.79604-2.9842 0.86925-4.4784 0.0469-0.95648-0.43711-3.1697-0.43711-3.1697l0.305 2.208c0 2e-5 -1.6002-2.7329-1.5193-4.3247 0.0688-1.3529-0.4407-4.1074-0.4407-4.1074l-1.7942 1.0953 1.3088 1.8612c0 2e-5 -1.1985-2.7991-1.0122-4.0359 0.14031-0.93163 0.0383-3.1453 0.0383-3.1453s-1.4405 0.29293-1.9782 0.59691c-0.35573 0.20112-0.99953 0.90189-0.99953 0.90189s0.95887-2.115 1.0877-3.0997c0.13679-1.0453 1.3076-2.079 1.3076-2.079s-1.6117 0.26624-2.1541 0.66183c-0.40321 0.2941-2.5034-0.0779-2.5034-0.0779 2e-3 5e-3 0.43694-1.4685-0.50654-3.1622l-3.2112-3.8949s-0.0397 3.5391 0.18712 4.9275zm0.31693-3.3814z"/>
      <path d="m226.31 395.27c0.2466 1.5096 1.8144 2.8774 1.8144 2.8774s-1.1277-0.4698-1.6254-0.43269c-0.66944 0.0499-2.0382 0.88551-2.0382 0.88554s1.2668 2.1338 2.0482 2.8416c0.73601 0.66673 2.8808 1.6682 2.8808 1.6682s-0.9738-0.10263-1.3751-0.0254c-0.60657 0.11672-1.8916 0.83146-1.8916 0.83144s1.3514 1.718 2.0617 2.3369c0.94301 0.82159 3.514 2.3005 3.514 2.3005l-2.0648-0.57735-2.0756 0.33305s1.4024 2.4312 2.331 3.4174c1.0927 1.1604 3.623 2.5531 3.6231 2.5532l-3.0043-0.58838s1.0718 1.9952 1.727 2.6936c1.0237 1.091 3.5768 3.0419 3.5768 3.0419l-1.6995-0.54868-1.6782 0.0315s1.271 2.6536 2.2145 3.4301c1.0451 0.86012 2.657 1.9755 2.657 1.9755l17.499 46.601c1.4059 0.79725 2.1871 0.2335 2.6678-0.98469l-17.925-46.726s0.68922-1.5938 0.92832-2.9261c0.21583-1.2027-0.35419-4.1167-0.35419-4.1167l-1.6549 1.2592-0.70337 1.1706c-2e-5 -2e-5 0.79604-2.9842 0.86925-4.4784 0.0469-0.95648-0.43711-3.1697-0.43711-3.1697l-2.0281 2.2413c0 2e-5 0.73289-2.7662 0.81376-4.358 0.0687-1.3529-0.4407-4.1074-0.4407-4.1074l-1.7942 1.0953-0.89096 1.8278c0 2e-5 1.0013-2.7658 1.1875-4.0025 0.14031-0.93163 0.0383-3.1453 0.0383-3.1453s-1.4405 0.29293-1.9782 0.59691c-0.35573 0.20112-0.99953 0.90189-0.99953 0.90189s0.95887-2.115 1.0877-3.0997c0.13679-1.0453-0.27064-3.531-0.27064-3.531s-1.6117 0.26624-2.1541 0.66183c-0.40321 0.2941-0.92518 1.3741-0.92518 1.3741s0.28342-1.8524-0.50654-3.1622l-3.2112-3.8949s-0.0397 3.5391 0.18712 4.9275zm0.31693-3.3814z"/>
     </g>
    </g>
    <g transform="translate(.98817 .48519)" fill-rule="evenodd" stroke-width=".51847">
     <path d="m233.88 393.11c-0.10722 1.5902 1.1033 3.3674 1.1033 3.3674s-0.98889-0.75781-1.4816-0.84473c-0.66265-0.11691-2.1862 0.38675-2.1862 0.38678s0.74162 2.4775 1.3389 3.3897c0.56262 0.85923 2.4187 2.4098 2.4187 2.4098s-0.92363-0.34752-1.3318-0.36974c-0.61684-0.0336-2.0312 0.36868-2.0312 0.36867s0.91952 2.0777 1.4682 2.882c0.72836 1.0678 2.7875 3.7102 2.7875 3.7102l-0.92291-0.091-1.5956-0.34864s0.0521 2.343 0.72868 3.5738c0.7961 1.4483 1.9432 3.1594 1.9432 3.1594l-1.6702-0.67963-2.7201-0.22703s1.3446 2.7273 2.1622 3.291c1.9736 1.3608 3.6774 2.8593 3.6774 2.8593l-1.527-0.98073-2.6063-0.28794s1.0928 3.0382 1.832 4.0605c0.81885 1.1324 2.6303 2.5317 2.6303 2.5317l1.4075 28.719c1.1843 1.159 2.0737 0.78357 2.8214-0.32967l-1.7938-28.953s1.0369-1.4414 1.5758-2.7306c0.48647-1.1638 0.60201-4.257 0.60201-4.257l-1.8992 0.86105-0.95331 1.0093c-2e-5 -2e-5 1.4605-2.8225 1.8752-4.3172 0.26552-0.95677 0.30363-3.3189 0.30363-3.3189l-2.4881 1.7621c0 3e-5 1.3489-2.6176 1.7936-4.2092 0.37793-1.3526 0.51571-4.2692 0.51571-4.2692l-1.9971 0.66021-1.2869 1.6279c-1e-5 1e-5 1.6099-2.55 2.0754-3.7558 0.35069-0.90822 0.7604-3.1753 0.7604-3.1753s-1.4685-0.0637-2.0614 0.10953c-0.39228 0.11465-1.1796 0.66318-1.1796 0.66318s1.419-1.9016 1.7708-2.8665c0.37341-1.0243 0.5486-3.643 0.5486-3.643s-1.629-0.13362-2.2475 0.13126c-0.45983 0.19693-1.2159 1.1599-1.2159 1.1599s0.70159-1.8047 0.23435-3.3286l-2.2281-4.7472s-0.85234 3.5736-0.95095 5.0363zm1.0858-3.3446z"/>
     <path d="m242.57 392.95c-0.44881 1.5294 0.34846 3.5264 0.34847 3.5264s-0.80147-0.95385-1.2636-1.1453c-0.62164-0.25754-2.2181-0.0955-2.2181-0.0955s0.18792 2.5792 0.57365 3.5991c0.36335 0.96062 1.8399 2.8761 1.8399 2.8761s-0.82654-0.53916-1.2202-0.64917c-0.59496-0.16625-2.0628-0.0796-2.0628-0.0796s0.44812 2.2274 0.8097 3.1315c0.48003 1.2001 2.1264 3.7577 2.1264 3.7577l-1.3104-1.6091-2.0065-0.63115s0.23623 2.7172 0.63045 4.0654c0.46382 1.5863 1.7705 4.3754 1.7705 4.3755l-2.4295-1.9186s0.0747 2.3605 0.35174 3.3142c0.43275 1.4897 1.8538 4.4823 1.8538 4.4823l-1.2786-1.2879-1.5169-0.73358s-0.0389 3.0692 0.46157 4.2272c0.5544 1.2827 1.5031 3.0629 1.5031 3.0629l-3.7662 36.051c0.9054 1.3878 1.855 1.2138 2.8259 0.28871l3.4396-36.362s1.3242-1.1829 2.1293-2.3249c0.72679-1.031 1.509-4.0259 1.509-4.0259l-2.0406 0.42965-1.1491 0.77908c-2e-5 -2e-5 2.0367-2.4396 2.765-3.8091 0.46628-0.87664 1.0146-3.1746 1.0146-3.1746l-2.8104 1.1819c-1e-5 3e-5 1.8834-2.2637 2.662-3.7213 0.66169-1.2388 1.4274-4.0564 1.4274-4.0564l-2.0927 0.21238-1.6087 1.3108c-2e-5 1e-5 2.1236-2.1412 2.839-3.2176 0.53892-0.81081 1.4295-2.9355 1.4295-2.9355s-1.4199-0.38003-2.0363-0.33917c-0.40779 0.027-1.2952 0.39219-1.2952 0.39219s1.7969-1.5495 2.3491-2.4154c0.58621-0.91918 1.324-3.438 1.324-3.438s-1.5614-0.48296-2.2226-0.35821c-0.49155 0.0928-1.4381 0.86933-1.4381 0.86933s1.0755-1.6101 0.94912-3.199l-1.148-5.1169s-1.6055 3.3045-2.0183 4.7111zm1.7838-3.0304z"/>
     <path d="m238.52 392.65c-0.29105 1.567 0.70507 3.4727 0.70507 3.4727s-0.89426-0.86746-1.3735-1.011c-0.64461-0.19302-2.2163 0.13042-2.2163 0.13045s0.44909 2.5468 0.93648 3.5221c0.4591 0.91872 2.1227 2.6742 2.1227 2.6742s-0.87706-0.45237-1.2798-0.5218c-0.60878-0.10492-2.0602 0.13046-2.0602 0.13045s0.67218 2.1704 1.1238 3.033c0.59952 1.1451 3.0639 3.4221 3.0639 3.4221s-1.3558-1.083-2.0338-1.3676c-0.58183-0.24426-2.0602-0.42396-2.0602-0.42396s0.51118 2.6792 1.0404 3.9802c0.62264 1.5309 2.2061 4.1728 2.2061 4.1728l-0.57877-0.62848s0.31425 2.3407 0.68675 3.2612c0.58192 1.438 0.2666 3.2374 0.26661 3.2375l-1.4029-1.1513-1.5836-0.57561s0.27324 3.0572 0.88881 4.1584c0.6819 1.2198 1.8066 2.8942 1.8066 2.8942l-0.16487 51.697c1.0418 1.2886 1.9688 1.0189 2.8406 0l-0.19169-51.973s1.1972-1.3114 1.882-2.5293c0.61825-1.0995 1.092-4.1584 1.092-4.1584l-1.9863 0.63482-1.064 0.89184c-1e-5 -2e-5 1.7782-2.634 2.3636-4.0704 0.37476-0.91949 0.68675-3.2612 0.68675-3.2612l-2.6758 1.4614c0 3e-5 1.6436-2.4434 2.27-3.9726 0.53236-1.2996 1.0077-4.1805 1.0077-4.1805l-2.0602 0.42397-1.4671 1.4676c-1e-5 1e-5 1.895-2.346 2.4973-3.4895 0.45372-0.86139 1.1238-3.0656 1.1238-3.0656s-0.85147-0.23375-1.4605-0.13045l1.971-0.33045c0-4e-5 -2.1892-0.87187-1.7279-1.7894 0.48976-0.974 0.96769-3.5547 0.96769-3.5547s-1.6024-0.32176-2.2475-0.13045c-0.47958 0.14223-1.3423 1.011-1.3423 1.011s0.9063-1.7111 0.61907-3.2789l-1.6621-4.9737s-1.2613 3.4506-1.529 4.8919zm1.4666-3.196z"/>
    </g>
    <g fill-rule="evenodd" stroke-width=".5123">
     <g transform="matrix(-1.0134 0 0 1.0107 477.76 -4.5191)">
      <path d="m212.99 400.48c0.2466 1.5096 1.8144 2.8774 1.8144 2.8774s-1.1277-0.4698-1.6254-0.43269c-0.66944 0.0499-2.0382 0.88551-2.0382 0.88554s1.2668 2.1338 2.0482 2.8416c0.73601 0.66673 2.8808 1.6682 2.8808 1.6682s-0.9738-0.10263-1.3751-0.0254c-0.60657 0.11672-1.8916 0.83146-1.8916 0.83144s1.3514 1.718 2.0617 2.3369c0.94301 0.82159 3.514 2.3005 3.514 2.3005l-1.8648-0.81066-2.0756 0.33305s1.369 2.2312 2.2977 3.2174c1.0927 1.1604 3.4564 2.9864 3.4564 2.9864l-3.0043-0.58838s1.0718 1.9952 1.727 2.6936c1.0237 1.091 3.5768 3.0419 3.5768 3.0419l-1.6995-0.54868-1.6782 0.0315s1.271 2.6536 2.2145 3.4301c1.0451 0.86012 2.657 1.9755 2.657 1.9755l16.998 46.53c1.4059 0.79725 2.1871 0.2335 2.6678-0.98469l-17.425-46.655s0.68922-1.5938 0.92832-2.9261c0.21583-1.2027-0.35419-4.1167-0.35419-4.1167l-1.6549 1.2592-0.70337 1.1706c-2e-5 -2e-5 0.79604-2.9842 0.86925-4.4784 0.0469-0.95648-0.43711-3.1697-0.43711-3.1697l-2.0281 2.2413c0 2e-5 0.73289-2.7662 0.81376-4.358 0.0687-1.3529-0.4407-4.1074-0.4407-4.1074l-1.7942 1.0953-0.89096 1.8278c0 2e-5 1.0013-2.7658 1.1875-4.0025 0.14031-0.93163 0.0383-3.1453 0.0383-3.1453s-1.4405 0.29293-1.9782 0.59691c-0.35573 0.20112-0.99953 0.90189-0.99953 0.90189s0.95887-2.115 1.0877-3.0997c0.13679-1.0453-0.27064-3.531-0.27064-3.531s-1.6117 0.26624-2.1541 0.66183c-0.40321 0.2941-0.92518 1.3741-0.92518 1.3741s0.28342-1.8524-0.50654-3.1622l-3.2112-3.8949s-0.0397 3.5391 0.18712 4.9275zm0.31693-3.3814z"/>
      <path d="m217.33 397.88c0.2466 1.5096 1.8144 2.8774 1.8144 2.8774s-1.1277-0.4698-1.6254-0.43269c-0.66944 0.0499-2.0382 0.88551-2.0382 0.88554s1.2668 2.1338 2.0482 2.8416c0.73601 0.66673 2.8808 1.6682 2.8808 1.6682s-0.9738-0.10263-1.3751-0.0254c-0.60657 0.11672-1.8916 0.83146-1.8916 0.83144s1.3514 1.718 2.0617 2.3369c0.94301 0.82159 3.514 2.3005 3.514 2.3005l-1.8648-0.81066-2.0756 0.33305s1.369 2.2312 2.2977 3.2174c1.0927 1.1604 3.4564 2.9864 3.4564 2.9864l-3.0043-0.58838s1.0718 1.9952 1.727 2.6936c1.0237 1.091 3.5768 3.0419 3.5768 3.0419l-1.6995-0.54868-1.6782 0.0315s1.271 2.6536 2.2145 3.4301c1.0451 0.86012 2.657 1.9755 2.657 1.9755l17.856 48.175c1.4059 0.79725 2.1871 0.2335 2.6678-0.98469l-18.283-48.3s0.68922-1.5938 0.92832-2.9261c0.21583-1.2027-0.35419-4.1167-0.35419-4.1167l-1.6549 1.2592-0.70337 1.1706c-2e-5 -2e-5 0.79604-2.9842 0.86925-4.4784 0.0469-0.95648-0.43711-3.1697-0.43711-3.1697l-2.0281 2.2413c0 2e-5 0.73289-2.7662 0.81376-4.358 0.0687-1.3529-0.4407-4.1074-0.4407-4.1074l-1.7942 1.0953-0.89096 1.8278c0 2e-5 1.0013-2.7658 1.1875-4.0025 0.14031-0.93163 0.0382-3.1453 0.0382-3.1453s-1.4405 0.29293-1.9782 0.59691c-0.35573 0.20112-0.99953 0.90189-0.99953 0.90189s0.95887-2.115 1.0877-3.0997c0.13679-1.0453 0.55004-2.6787 0.55004-2.6787s-1.6117 0.26624-2.1541 0.66183c-0.40321 0.2941-1.7459 0.52185-1.7459 0.52185s0.28342-1.8524-0.50654-3.1622l-3.2112-3.8949s-0.0397 3.5391 0.18712 4.9275zm0.31693-3.3814z"/>
      <path d="m221.68 396.43c0.2466 1.5096 1.8144 2.8774 1.8144 2.8774s-1.1277-0.4698-1.6254-0.43269c-0.66944 0.0499-2.0382 0.88551-2.0382 0.88554s1.2668 2.1338 2.0482 2.8416c0.73601 0.66673 2.8808 1.6682 2.8808 1.6682s-0.9738-0.10263-1.3751-0.0254c-0.60657 0.11672-1.8916 0.83146-1.8916 0.83144s1.3514 1.718 2.0617 2.3369c0.94301 0.82159 3.514 2.3005 3.514 2.3005l-1.8648-0.81066-2.0756 0.33305s1.369 2.2312 2.2977 3.2174c1.0927 1.1604 3.4564 2.9864 3.4564 2.9864l-3.0043-0.58838s1.0718 1.9952 1.727 2.6936c1.0237 1.091 3.5768 3.0419 3.5768 3.0419l-1.6995-0.54868-1.6782 0.0315s1.271 2.6536 2.2145 3.4301c1.0451 0.86012 2.657 1.9755 2.657 1.9755l17.427 47.102c1.4059 0.79725 2.1871 0.2335 2.6678-0.98469l-17.86-47.23s0.68922-1.5938 0.92832-2.9261c0.21583-1.2027-0.35419-4.1167-0.35419-4.1167l-0.98828 1.5259 0.59649-0.76257c-2e-5 -2e-5 -1.1704-1.3177-1.0972-2.812 0.0469-0.95648-0.43711-3.1697-0.43711-3.1697l0.33833 2.308c0 2e-5 -1.6335-2.8328-1.5526-4.4247 0.0688-1.3529-0.4407-4.1074-0.4407-4.1074l-1.7942 1.0953 0.34224 1.8278c0 2e-5 -0.23191-2.7658-0.0457-4.0025 0.14031-0.93163 0.0383-3.1453 0.0383-3.1453s-1.4405 0.29293-1.9782 0.59691c-0.35573 0.20112-0.99953 0.90189-0.99953 0.90189s0.95887-2.115 1.0877-3.0997c0.13679-1.0453 1.4654-2.2999 1.4654-2.2999s-1.6117 0.26624-2.1541 0.66183c-0.40321 0.2941-2.6612 0.14307-2.6612 0.14307s0.28342-1.8524-0.50654-3.1622l-3.2112-3.8949s-0.0397 3.5391 0.18712 4.9275zm0.31693-3.3814z"/>
     </g>
     <g transform="matrix(-1.0134 0 0 1.0107 480.23 -3.9977)">
      <path d="m212.99 400.48c0.2466 1.5096 1.8144 2.8774 1.8144 2.8774s-1.1277-0.4698-1.6254-0.43269c-0.66944 0.0499-2.0382 0.88551-2.0382 0.88554s1.2668 2.1338 2.0482 2.8416c0.73601 0.66673 2.8808 1.6682 2.8808 1.6682s-0.9738-0.10263-1.3751-0.0254c-0.60657 0.11672-1.8916 0.83146-1.8916 0.83144s1.3514 1.718 2.0617 2.3369c0.94301 0.82159 3.514 2.3005 3.514 2.3005l-1.8648-0.81066-2.0756 0.33305s1.369 2.2312 2.2977 3.2174c1.0927 1.1604 3.4564 2.9864 3.4564 2.9864l-3.0043-0.58838s1.0718 1.9952 1.727 2.6936c1.0237 1.091 3.5768 3.0419 3.5768 3.0419l-1.6995-0.54868-1.6782 0.0315s1.271 2.6536 2.2145 3.4301c1.0451 0.86012 2.657 1.9755 2.657 1.9755l16.998 46.53c1.4059 0.79725 2.1871 0.2335 2.6678-0.98469l-17.425-46.655s0.68922-1.5938 0.92832-2.9261c0.21583-1.2027-0.35419-4.1167-0.35419-4.1167l-1.6549 1.2592-0.70337 1.1706c-2e-5 -2e-5 0.79604-2.9842 0.86925-4.4784 0.0469-0.95648-0.43711-3.1697-0.43711-3.1697l-2.0281 2.2413c0 2e-5 0.73289-2.7662 0.81376-4.358 0.0687-1.3529-0.4407-4.1074-0.4407-4.1074l-1.7942 1.0953-0.89096 1.8278c0 2e-5 1.0013-2.7658 1.1875-4.0025 0.14031-0.93163 0.0383-3.1453 0.0383-3.1453s-1.4405 0.29293-1.9782 0.59691c-0.35573 0.20112-0.99953 0.90189-0.99953 0.90189s0.95887-2.115 1.0877-3.0997c0.13679-1.0453-0.27064-3.531-0.27064-3.531s-1.6117 0.26624-2.1541 0.66183c-0.40321 0.2941-0.92518 1.3741-0.92518 1.3741s0.28342-1.8524-0.50654-3.1622l-3.2112-3.8949s-0.0397 3.5391 0.18712 4.9275zm0.31693-3.3814z"/>
      <path d="m217.33 397.88c0.2466 1.5096 1.8144 2.8774 1.8144 2.8774s-1.1277-0.4698-1.6254-0.43269c-0.66944 0.0499-2.0382 0.88551-2.0382 0.88554s1.2668 2.1338 2.0482 2.8416c0.73601 0.66673 2.8808 1.6682 2.8808 1.6682s-0.9738-0.10263-1.3751-0.0254c-0.60657 0.11672-1.8916 0.83146-1.8916 0.83144s1.3514 1.718 2.0617 2.3369c0.94301 0.82159 3.514 2.3005 3.514 2.3005l-1.8648-0.81066-2.0756 0.33305s1.369 2.2312 2.2977 3.2174c1.0927 1.1604 3.4564 2.9864 3.4564 2.9864l-3.0043-0.58838s1.0718 1.9952 1.727 2.6936c1.0237 1.091 3.5768 3.0419 3.5768 3.0419l-1.6995-0.54868-1.6782 0.0315s1.271 2.6536 2.2145 3.4301c1.0451 0.86012 2.657 1.9755 2.657 1.9755l17.856 48.175c1.4059 0.79725 2.1871 0.2335 2.6678-0.98469l-18.283-48.3s0.68922-1.5938 0.92832-2.9261c0.21583-1.2027-0.35419-4.1167-0.35419-4.1167l-1.6549 1.2592-0.70337 1.1706c-2e-5 -2e-5 0.79604-2.9842 0.86925-4.4784 0.0469-0.95648-0.43711-3.1697-0.43711-3.1697l-2.0281 2.2413c0 2e-5 0.73289-2.7662 0.81376-4.358 0.0687-1.3529-0.4407-4.1074-0.4407-4.1074l-1.7942 1.0953-0.89096 1.8278c0 2e-5 1.0013-2.7658 1.1875-4.0025 0.14031-0.93163 0.0382-3.1453 0.0382-3.1453s-1.4405 0.29293-1.9782 0.59691c-0.35573 0.20112-0.99953 0.90189-0.99953 0.90189s0.95887-2.115 1.0877-3.0997c0.13679-1.0453 0.55004-2.6787 0.55004-2.6787s-1.6117 0.26624-2.1541 0.66183c-0.40321 0.2941-1.7459 0.52185-1.7459 0.52185s0.28342-1.8524-0.50654-3.1622l-3.2112-3.8949s-0.0397 3.5391 0.18712 4.9275zm0.31693-3.3814z"/>
      <path d="m221.68 396.43c0.2466 1.5096 1.8144 2.8774 1.8144 2.8774s-1.1277-0.4698-1.6254-0.43269c-0.66944 0.0499-2.0382 0.88551-2.0382 0.88554s1.2668 2.1338 2.0482 2.8416c0.73601 0.66673 2.8808 1.6682 2.8808 1.6682s-0.9738-0.10263-1.3751-0.0254c-0.60657 0.11672-1.8916 0.83146-1.8916 0.83144s1.3514 1.718 2.0617 2.3369c0.94301 0.82159 3.514 2.3005 3.514 2.3005l-1.8648-0.81066-2.0756 0.33305s1.369 2.2312 2.2977 3.2174c1.0927 1.1604 3.4564 2.9864 3.4564 2.9864l-3.0043-0.58838s1.0718 1.9952 1.727 2.6936c1.0237 1.091 3.5768 3.0419 3.5768 3.0419l-1.6995-0.54868-1.6782 0.0315s1.271 2.6536 2.2145 3.4301c1.0451 0.86012 2.657 1.9755 2.657 1.9755l18.004 48.113c1.4059 0.79725 2.1871 0.2335 2.6678-0.98469l-18.43-48.24s0.68922-1.5938 0.92832-2.9261c0.21583-1.2027-0.35419-4.1167-0.35419-4.1167l-0.98828 1.5259 0.59649-0.76257c-2e-5 -2e-5 -1.1704-1.3177-1.0972-2.812 0.0469-0.95648-0.43711-3.1697-0.43711-3.1697l0.33833 2.308c0 2e-5 -1.6335-2.8328-1.5526-4.4247 0.0688-1.3529-0.4407-4.1074-0.4407-4.1074l-1.7942 1.0953 0.34224 1.8278c0 2e-5 -0.23191-2.7658-0.0457-4.0025 0.14031-0.93163 0.0383-3.1453 0.0383-3.1453s-1.4405 0.29293-1.9782 0.59691c-0.35573 0.20112-0.99953 0.90189-0.99953 0.90189s0.95887-2.115 1.0877-3.0997c0.13679-1.0453 1.4654-2.2999 1.4654-2.2999s-1.6117 0.26624-2.1541 0.66183c-0.40321 0.2941-2.6612 0.14307-2.6612 0.14307s0.28342-1.8524-0.50654-3.1622l-3.2112-3.8949s-0.0397 3.5391 0.18712 4.9275zm0.31693-3.3814z"/>
      <path d="m226.31 395.27c0.2466 1.5096 1.8144 2.8774 1.8144 2.8774s-1.1277-0.4698-1.6254-0.43269c-0.66944 0.0499-2.0382 0.88551-2.0382 0.88554s1.2668 2.1338 2.0482 2.8416c0.73601 0.66673 2.8808 1.6682 2.8808 1.6682s-0.9738-0.10263-1.3751-0.0254c-0.60657 0.11672-1.8916 0.83146-1.8916 0.83144s1.3514 1.718 2.0617 2.3369c0.94301 0.82159 3.514 2.3005 3.514 2.3005l-1.8648-0.81066-2.0756 0.33305s1.369 2.2312 2.2977 3.2174c1.0927 1.1604 3.4564 2.9864 3.4564 2.9864l-3.0043-0.58838s1.0718 1.9952 1.727 2.6936c1.0237 1.091 3.5768 3.0419 3.5768 3.0419l-1.6995-0.54868-1.6782 0.0315s1.271 2.6536 2.2145 3.4301c1.0451 0.86012 2.657 1.9755 2.657 1.9755l16.998 45.958c1.4059 0.79725 2.1871 0.2335 2.6678-0.98469l-17.425-46.083s0.68922-1.5938 0.92832-2.9261c0.21583-1.2027-0.35419-4.1167-0.35419-4.1167l-1.6549 1.2592-0.70337 1.1706c-2e-5 -2e-5 0.79604-2.9842 0.86925-4.4784 0.0469-0.95648-0.43711-3.1697-0.43711-3.1697l-2.0281 2.2413c0 2e-5 0.73289-2.7662 0.81376-4.358 0.0687-1.3529-0.4407-4.1074-0.4407-4.1074l-1.7942 1.0953-0.89096 1.8278c0 2e-5 1.0013-2.7658 1.1875-4.0025 0.14031-0.93163 0.0383-3.1453 0.0383-3.1453s-1.4405 0.29293-1.9782 0.59691c-0.35573 0.20112-0.99953 0.90189-0.99953 0.90189s0.95887-2.115 1.0877-3.0997c0.13679-1.0453-0.27064-3.531-0.27064-3.531s-1.6117 0.26624-2.1541 0.66183c-0.40321 0.2941-0.92518 1.3741-0.92518 1.3741s0.28342-1.8524-0.50654-3.1622l-3.2112-3.8949s-0.0397 3.5391 0.18712 4.9275zm0.31693-3.3814z"/>
     </g>
    </g>
   </g>
   <g transform="matrix(.54495 0 0 .5068 -188.16 185.59)" fill="#fd5" fill-rule="evenodd" stroke="#540" stroke-width=".51847">
    <path d="m149.53 503.75s-4.8674 1.0781-7.9781 1.1157c-2.0832 0.0252-3.3785 0.0685-7.7408 0.14313-2.1517 0.0368-5.0495-0.99988-9.1561-0.94632 0 0-0.26434 0.2377-0.52773 0.54405s-0.52585 0.68134-0.52208 0.95595c4e-3 0.2801 0.28192 0.6551 0.55904 0.96006s0.55327 0.53994 0.55327 0.53994c2.8291 0.62933 6.4264 1.1067 9.476 0.9586 2.6663-0.1295 5.1402-0.0656 7.2748-0.0927 2.8024-0.0355 6.0461-0.35706 7.906-1.0955 1.1363-0.45118 1.5937-1.349 1.5924-1.5829-3e-3 -0.62308-1.4366-1.5-1.4366-1.5z"/>
    <path d="m123.42 497.9s6.0824-1.1403 9.1931-1.1779c2.0832-0.0252 3.3785-0.0685 7.7408-0.14313 2.1517-0.0368 5.0495 0.99987 9.1561 0.94632 0 0 0.26434-0.23771 0.52773-0.54405s0.52585-0.68134 0.52208-0.95595c-4e-3 -0.28009-0.28192-0.65509-0.55904-0.96006s-0.55327-0.53994-0.55327-0.53994c-2.8291-0.62933-6.4264-1.1067-9.476-0.95861-2.6663 0.12951-5.1402 0.0657-7.2748 0.0927-4.5146 0.0572-8.1601 1.1137-8.3544 1.1162l-0.22651 7.1e-4 -0.11724-7.1e-4 -0.0225 9e-5 -9e-3 -9e-5s-1.7559 0.94556-1.7525 1.5622c3e-3 0.61664 1.2052 1.5622 1.2052 1.5622z"/>
    <path d="m124.37 500.44s4.8674-0.17332 7.9781-0.21091c2.0832-0.0252 3.3785-0.0685 7.7408-0.14313 2.1517-0.0368 5.0495 0.0951 9.1561 0.0415 0 0 0.26434-0.2377 0.52773-0.54406s0.52585-0.68134 0.52208-0.95594c-4e-3 -0.2801-0.28192-0.6551-0.55904-0.96007s-0.55327-0.53993-0.55327-0.53993c-2.8291-0.62933-6.4264-1.1067-9.476-0.95861-2.6663 0.12951-5.1402 0.0657-7.2748 0.0927-4.5146 0.0572-8.2952 1.1837-8.3508 1.1833s-1.151 0.87846-1.1476 1.4951c3e-3 0.61664 1.4366 1.5 1.4366 1.5z"/>
    <path d="m148.99 501.59s-5.0836 0.10514-8.1944 0.14274c-2.0832 0.0252-3.3785 0.0685-7.7408 0.14312-2.1517 0.0368-4.8333-0.0269-8.9398 0.0266 0 0-0.26434 0.2377-0.52773 0.54406s-0.52585 0.68133-0.52208 0.95594c4e-3 0.2801 0.28192 0.6551 0.55904 0.96006s0.55327 0.53994 0.55327 0.53994c2.8291 0.62932 6.3183 0.6743 9.3679 0.52618 2.6663-0.12951 5.1402-0.0657 7.2748-0.0927 4.5146-0.0572 7.9773-0.65058 8.1716-0.65311 0.0971-1e-3 1.4383-0.97623 1.4349-1.5929-3e-3 -0.61667-1.4366-1.5-1.4366-1.5z"/>
    <path d="m122.31 492.49s7.3587-1.9275 9.3862-0.80302c1.1496 0.63763 2.6537 1.549 4.0735 3.0159 1.0841 1.1201 2.1461 2.8081 2.8028 3.4985 1.5168 1.5946 2.4848 3.083 3.4382 4.5239s2.3992 3.7835 2.8953 5.0668 0.72382 3.2572 0.72382 3.2572 0.14897 2.8276-0.4498 3.0954c-0.83068 0.37161-2.0784-1.9166-2.0784-1.9166s-0.65696-1.3265-1.0207-2.7372c-0.34524-1.3389-2.5221-5.5706-4.4641-6.8867-1.427-0.96706-2.7082-4.0957-3.8562-5.1598s-1.9672-2.0678-3.331-2.8621c-0.5426-0.316-2.0548-0.41145-3.4703-0.18707-2.1425 0.33963-4.2873 1.1711-4.2873 1.1711s-1.8396-0.56912-1.6286-1.4476c0.17611-0.73331 1.2667-1.6286 1.2667-1.6286z"/>
    <path d="m124.37 502.92s5.2293-0.1829 8.34-0.22049c2.0832-0.0252 3.3785-0.0685 7.7408-0.14311 2.1517-0.0368 9.0585-0.1866 9.3219-0.49295s0.52585-0.68135 0.52208-0.95596c-4e-3 -0.28008-0.28192-0.65509-0.55904-0.96006s-0.55327-0.53994-0.55327-0.53994c-2.8291-0.62931-6.2454-0.38289-9.295-0.23477-2.6663 0.12951-5.1402 0.0657-7.2748 0.0927-4.5146 0.0572-8.2184 0.45426-8.2427 0.45458l-0.0224 9e-5s-1.4176 0.88327-1.4142 1.4999c3e-3 0.61663 1.4366 1.5 1.4366 1.5z"/>
   </g>
  </g>
 </g>
</svg>
