<?xml version="1.0" encoding="UTF-8"?>
<svg width="52" height="39" enable-background="new 0 0 52 39" version="1.1" viewBox="0 0 52 39" xmlns="http://www.w3.org/2000/svg">
 <style type="text/css">.st0{fill:#FFFFFF;} .st1{fill:#111111;} .st2{fill:#FFFFFF;stroke:#000000;stroke-width:2;stroke-miterlimit:10;} .st3{fill:#FFFFFF;stroke:#000000;stroke-miterlimit:10;} .st4{fill:none;stroke:#000000;stroke-miterlimit:10;} .st5{fill:none;stroke:#000000;stroke-width:3;stroke-linecap:round;stroke-miterlimit:10;} .st6{fill:#FFFFFF;stroke:#000000;stroke-linejoin:round;stroke-miterlimit:10;}</style>
 <path class="st0" d="m48.7 17.5l-0.2 0.2c-0.4 0.4-1 0.4-1.4 0l-8.5-8.5c-0.4-0.4-0.4-1 0-1.4l0.2-0.2c0.4-0.4 1-0.4 1.4 0l8.5 8.5c0.4 0.4 0.4 1 0 1.4z"/>
 <path d="m47.8 18.5c-0.4 0-0.8-0.2-1.1-0.4l-8.5-8.5c-0.3-0.3-0.4-0.7-0.4-1.1s0.2-0.8 0.4-1.1l0.2-0.2c0.6-0.6 1.5-0.6 2.1 0l8.5 8.5c0.6 0.6 0.6 1.5 0 2.1l-0.2 0.2c-0.2 0.4-0.6 0.5-1 0.5zm-8.3-10.7c-0.1 0-0.3 0-0.3 0.1l-0.2 0.2c-0.2 0.2-0.2 0.5 0 0.7l8.5 8.5c0.2 0.2 0.5 0.2 0.7 0l0.2-0.2c0.2-0.2 0.2-0.5 0-0.7l-8.5-8.5c-0.1-0.1-0.2-0.1-0.4-0.1z"/>
 <path d="m41 18h-26l-1 1h-11s3 4 6 5 7 1 7 1 4 0 4 3-6 6-6 6l-1 1v2h5s1-1 6-1 6 1 6 1h5v-2s-2.2-2.1-4-3c-2-1-2-4-2-4s1-5 7-5 6-1 6-1v-2s1 0 1-1 0-1-2-1z"/>
 <path d="m34.7 8.4l5-5c0.7-0.7 1.9-0.7 2.7 0l1.3 1.3c0.7 0.7 0.7 1.9 0 2.7l-4.5 4.5c-1 1-2.7 1-3.7 0l-0.8-0.8c-0.7-0.7-0.7-1.9 0-2.7z"/>
</svg>
