<?xml version="1.0" encoding="UTF-8"?>
<svg width="512" height="512" enable-background="new 0 0 512 512" version="1.1" viewBox="0 0 512 512" xml:space="preserve" xmlns="http://www.w3.org/2000/svg">
	<path d="m285.8 230.5c0.3-22.2 1.9-44.2 9.6-65.3 5.5-15.1 13.6-28.5 27.1-37.6 18.9-12.9 38.4-11.3 57.6-0.6 17.9 10 28.7 26.2 36.7 44.4 7.5 17.2 10.6 35.5 11.6 54.2 1.8 31.9-5.2 62.4-14.4 92.5-1.9 6.1-3.4 12.4-5.6 18.4-2.2 5.8-4.6 7.2-10.8 6-10-2-19.9-5-29.9-6.7-21.1-3.6-42.3-6.7-63.5-9.7-9.3-1.3-11.1-3-11.9-12.2-2.1-24.8-4.3-49.5-6.4-74.3-0.3-3.1-0.1-6.1-0.1-9.1z"/>
	<path d="m197.8 267.3c-15.4 0.8-30.9 1.3-46.3 2.5-11.8 0.9-23.6 2.6-35.4 3.6-8.6 0.8-11.1-1-12.7-9.6-2.5-13.7-4.8-27.5-6.7-41.3-2.4-17.9-3.6-36-1.7-54 3.7-35 13.4-67.5 39.7-92.9 12.6-12.1 27.7-19.2 45.2-19.5 17.6-0.3 31.6 7.6 42 21.7 10 13.4 14.6 28.9 16.5 45.3 3.8 32-1.1 63.2-7.8 94.3-3 14-6.1 28-9.3 42-1.6 7-2.8 7.9-10.1 8.2-4.5 0.2-9 0-13.5 0 0.2 0 0.1-0.2 0.1-0.3z"/>
	<path d="m225.6 339.2c-0.2 14.6-4.4 27.9-13.5 39.5-16.2 20.6-45 21.8-62.6 2.4-4.5-4.9-8.4-10.5-11.5-16.3-10.2-19.3-16.3-40.1-22.6-60.9-2.4-7.9 0-11.1 8.1-11.8 8.8-0.8 17.7-0.8 26.6-1.4 15.9-1.1 31.9-2.6 47.8-3.6 4.9-0.3 9.8 0.3 14.7 0.6 2.8 0.1 4.1 2 4.6 4.4 2.7 13.2 5.5 26.4 8.1 39.7 0.4 2.4 0.2 4.9 0.3 7.4z"/>
	<path d="m283.2 379.1c2.7-9.4 6.3-18.6 9.2-27.9 1.3-4.3 3.6-6.7 8.2-6 11.2 1.8 22.3 3.6 33.5 5.5 16.9 2.9 33.9 5.8 50.8 8.9 9.5 1.7 11.7 5.2 7.6 14.4-6.5 14.6-13.3 29-20.9 43.1-4.5 8.3-10 16.4-16.3 23.4-12.4 13.7-27.9 19-46 12.7-14.3-5-22.4-16.2-26.8-30-2.2-6.7-1.5-36.6 0.7-44.1z"/>
</svg>
