<?xml version="1.0" encoding="UTF-8"?>
<svg width="202.53812" height="392.93619" viewBox="0 0 202.53812 392.93619" xmlns="http://www.w3.org/2000/svg">
 <defs>
  <filter id="j" x="-.13693" y="-.10679" width="1.2739" height="1.2136">
   <feGaussianBlur stdDeviation="1.4858"/>
  </filter>
  <filter id="d" x="-.12399" y="-.10493" width="1.248" height="1.2099">
   <feGaussianBlur stdDeviation=".9468"/>
  </filter>
  <filter id="e" x="-.15011" y="-.11708" width="1.3002" height="1.2342">
   <feGaussianBlur stdDeviation="1.6288"/>
  </filter>
  <filter id="c" x="-.1364" y="-.10638" width="1.2728" height="1.2128">
   <feGaussianBlur stdDeviation="1.48"/>
  </filter>
  <filter id="b" x="-.15137" y="-.10377" width="1.3027" height="1.2075">
   <feGaussianBlur stdDeviation=".9363"/>
  </filter>
  <filter id="a" x="-.63022" y="-.34083" width="2.2604" height="1.6816">
   <feGaussianBlur stdDeviation="3.0752"/>
  </filter>
  <linearGradient id="i" x1="448.82" x2="398.41" y1="389.87" y2="407.61" gradientUnits="userSpaceOnUse">
   <stop stop-color="#faa" offset="0"/>
   <stop stop-color="#ffd5d5" offset="1"/>
  </linearGradient>
  <linearGradient id="h" x1="275.8" x2="478.34" y1="602.43" y2="714.47" gradientUnits="userSpaceOnUse">
   <stop stop-color="#d45500" offset="0"/>
   <stop stop-color="#662900" offset="1"/>
  </linearGradient>
  <linearGradient id="g" x1="406.52" x2="278.39" y1="519.38" y2="357.45" gradientUnits="userSpaceOnUse">
   <stop stop-color="#803300" offset="0"/>
   <stop stop-color="#784929" offset="1"/>
  </linearGradient>
  <linearGradient id="f" x1="297.72" x2="425.63" gradientUnits="userSpaceOnUse">
   <stop stop-color="#c8ab37" offset="0"/>
   <stop stop-color="#af952d" offset="1"/>
  </linearGradient>
 </defs>
 <g transform="translate(-275.8 -333.5)">
  <path d="m408.58 381.18c3.0098 1.5049 13.544 21.068 13.544 21.068l2.2573 30.85-13.544 31.603-33.108 12.039-47.404-21.068s-15.801-33.108-15.801-36.117 2.2573-40.632 6.0196-42.889 32.355-24.078 37.622-24.078 49.661 28.593 50.414 28.593z" fill="#ffd5d5" stroke="#000"/>
  <path d="m398.04 594.88s7.838 62.721-7.5244 79.759c18.708-2.6633 22.921 0.37156 36.87 6.772 6.8389 3.138 20.316-17.306 22.573-1e-5s-19.564 20.316-33.108 16.554-53.424 9.0294-48.157-10.534 2.2573-30.85-1.5049-42.889 30.098-57.938 30.85-49.661z" fill="#faa" stroke="#000"/>
  <path d="m320.61 641.17c4.7525 52.14-13.448 46.057-7.604 63.516 2.4897 7.438 0.33626 9.287 0.48383 14.211 0.12404 4.137 6.6396 7.0732 13.328 7.0356 19.398-0.1091 13.547-3.3348 14.357-11.665 3.3429 6.37-1.1979 8.1111 3.6504 9.4983s11.572 2.041 13.461-5.4977c1.7657-7.0465-6.2752-11.782-7.3303-16.804-2.1103-10.043 0.16222-7.2184-1.1431-18.321 5.916-13.746 45.886-126.35 2.1632-112.13s-30.416 68.256-31.366 70.152z" fill="#faa" stroke="#000"/>
  <path d="m315.27 472.23c4.7786-7.47 14.467-12.392 23.326-12.792 15.036-0.67818 41.385 18.059 41.385 18.059s24.016-1.1076 32.355 6.0196c9.7092 8.2978 12.792 36.117 12.792 36.117s-0.24074 37.944-7.5245 54.929c-5.0367 11.745-23.931 29.952-23.931 29.952l-24.226 24.224s-10.06-24.772-4.0578-35.517c-10.598 6.759-11.605 6.6889-17.002-1.7555-1.1809 11.435-9.8132 7.4772-14.305 11.69-10.744 10.076-29.345 36.87-30.098 32.355s-18.113-117.32 11.287-163.28z" fill="url(#f)" stroke="#000"/>
  <path transform="matrix(.47228 0 0 .39393 208.32 324.31)" d="m382.29 527.36c-5.6812-0.87047-13.542 17.708-13.542 17.708s8.7112 16.412 15.625 15.625 10.417-16.667 10.417-16.667l-8.3333-5.2083s1.5145-10.588-4.1667-11.458z" fill="#515151" filter="url(#j)" opacity=".5982"/>
  <path transform="matrix(-.47228 0 0 -.30944 533.38 710.74)" d="m382.29 527.36c-5.6812-0.87047-13.542 17.708-13.542 17.708s8.7112 16.412 15.625 15.625 10.417-16.667 10.417-16.667l-8.3333-5.2083s1.5145-10.588-4.1667-11.458z" fill="#515151" filter="url(#c)" opacity=".5982"/>
  <path transform="matrix(.21353 0 0 .47228 337.8 280.9)" d="m382.29 527.36c-5.6812-0.87047-13.542 17.708-13.542 17.708s8.7112 16.412 15.625 15.625 10.417-16.667 10.417-16.667l-8.3333-5.2083s1.5145-10.588-4.1667-11.458z" fill="#515151" filter="url(#e)" opacity=".5982"/>
  <path transform="matrix(.59841 0 0 .50011 130.11 286.85)" d="m382.29 527.36c-5.6812-0.87047-5.1393 10.986-5.1393 10.986s-3.0522 11.371 3.8616 10.584 4.3027-3.3032 5.8575-5.357c2.029-2.6802 5.0879-5.7058 4.3388-8.8376-0.83055-3.4726-3.2375-6.5049-8.9187-7.3754z" fill="#515151" filter="url(#b)" opacity=".5982"/>
  <path transform="matrix(.70596 0 0 .80582 113.46 146.49)" d="m382.29 527.36c-5.6812-0.87047-5.1393 10.986-5.1393 10.986s-3.0522 11.371 3.8616 10.584 6.0934-2.4109 7.0323-4.9033c0.64285-1.7064-1.0119-3.4837-1.588-5.2083-1.2852-3.8472 1.5145-10.588-4.1667-11.458z" fill="#515151" filter="url(#d)" opacity=".5982"/>
  <path transform="matrix(-.42931 -.22942 -.22677 .59408 694.51 323.51)" d="m382.29 527.36c-5.6812-0.87047-5.1393 10.986-5.1393 10.986s-3.0522 11.371 3.8616 10.584 4.3027-3.3032 5.8575-5.357c2.029-2.6802 5.0879-5.7058 4.3388-8.8376-0.83055-3.4726-3.2375-6.5049-8.9187-7.3754z" fill="#515151" filter="url(#b)" opacity=".5982"/>
  <path transform="matrix(.59841 0 0 -.74292 171.06 923.51)" d="m380.97 533.77c-5.6812-0.87047-3.813 4.5767-3.813 4.5767s-3.0522 11.371 3.8616 10.584 4.3027-3.3032 5.8575-5.357c2.029-2.6802 6.357-6.1187 4.3388-8.8376-1.7644-2.377-4.5638-0.0952-10.245-0.96562z" fill="#515151" filter="url(#b)" opacity=".5982"/>
  <path transform="matrix(-.25015 -.22754 .31922 -.32293 314.39 861.26)" d="m382.29 531.95c-5.6812-0.87047-7.6686 12.465-7.6686 12.465s2.8381 17.068 9.7519 16.28 4.0542-11.424 4.0542-11.424l-1.9708-10.451s1.5145-6.0003-4.1667-6.8707z" fill="#515151" filter="url(#c)" opacity=".5982"/>
  <path transform="matrix(-.62475 0 0 -.34922 633.38 767.35)" d="m382.29 531.95c-5.6812-0.87047-7.6686 12.465-7.6686 12.465s2.8381 17.068 9.7519 16.28 4.0542-11.424 4.0542-11.424l-1.9708-10.451s1.5145-6.0003-4.1667-6.8707z" fill="#515151" filter="url(#c)" opacity=".5982"/>
  <path transform="matrix(.60831 0 0 .38172 136.47 342.18)" d="m382.29 527.36c-5.6812-0.87047-5.1393 10.986-5.1393 10.986s-3.0522 11.371 3.8616 10.584 6.0934-2.4109 7.0323-4.9033c0.64285-1.7064-1.0119-3.4837-1.588-5.2083-1.2852-3.8472 1.5145-10.588-4.1667-11.458z" fill="#515151" filter="url(#d)" opacity=".5982"/>
  <path transform="matrix(.35316 -.76864 -.89039 -.4091 681.71 984.6)" d="m380.97 533.77c-5.6812-0.87047-3.813 4.5767-3.813 4.5767s-3.0522 11.371 3.8616 10.584 5.7733-2.8131 5.8575-5.357c0.0886-2.6766-4.706-3.492-5.7789-5.9776-0.51114-1.1842 5.5539-2.9552-0.12727-3.8257z" fill="#515151" filter="url(#b)" opacity=".5982"/>
  <path transform="matrix(.59841 0 0 -.53046 144.87 814.41)" d="m382.29 527.36c-5.6812-0.87047-5.1393 10.986-5.1393 10.986s-3.0522 11.371 3.8616 10.584 4.3027-3.3032 5.8575-5.357c2.029-2.6802 5.0879-5.7058 4.3388-8.8376-0.83055-3.4726-3.2375-6.5049-8.9187-7.3754z" fill="#515151" filter="url(#b)" opacity=".5982"/>
  <path transform="matrix(.20073 .07282 .11508 -.31723 275.04 712.62)" d="m382.29 527.36c-5.6812-0.87047-13.542 17.708-13.542 17.708s8.7112 16.412 15.625 15.625 10.417-16.667 10.417-16.667l-8.3333-5.2083s1.5145-10.588-4.1667-11.458z" fill="#515151" filter="url(#e)" opacity=".5982"/>
  <path transform="matrix(-.27158 -.54432 -.34157 .17042 635.27 672.73)" d="m382.29 527.36c-5.6812-0.87047-5.1393 10.986-5.1393 10.986s-3.0522 11.371 3.8616 10.584 6.0934-2.4109 7.0323-4.9033c0.64285-1.7064-1.0119-3.4837-1.588-5.2083-1.2852-3.8472 1.5145-10.588-4.1667-11.458z" fill="#515151" filter="url(#d)" opacity=".5982"/>
  <path transform="matrix(.30915 .51236 -.45419 .27405 470.97 235.97)" d="m382.29 527.36c-5.6812-0.87047-5.1393 10.986-5.1393 10.986s-3.0522 11.371 3.8616 10.584 4.3027-3.3032 5.8575-5.357c2.029-2.6802 5.0879-5.7058 4.3388-8.8376-0.83055-3.4726-3.2375-6.5049-8.9187-7.3754z" fill="#515151" filter="url(#b)" opacity=".5982"/>
  <path transform="matrix(-.33558 -.04163 .07456 -.44791 390.98 782.07)" d="m382.29 531.95c-5.6812-0.87047-7.6686 12.465-7.6686 12.465s2.8381 17.068 9.7519 16.28 4.0542-11.424 4.0542-11.424l-1.9708-10.451s1.5145-6.0003-4.1667-6.8707z" fill="#515151" filter="url(#c)" opacity=".5982"/>
  <path transform="matrix(.27158 -.54432 .34157 .17042 94.83 638.81)" d="m382.29 527.36c-5.6812-0.87047-5.1393 10.986-5.1393 10.986s-3.0522 11.371 3.8616 10.584 6.0934-2.4109 7.0323-4.9033c0.64285-1.7064-1.0119-3.4837-1.588-5.2083-1.2852-3.8472 1.5145-10.588-4.1667-11.458z" fill="#515151" filter="url(#d)" opacity=".5982"/>
  <path transform="matrix(0 .26655 -.19997 0 519.52 459.58)" d="m382.29 527.36c-5.6812-0.87047-5.1393 10.986-5.1393 10.986s-3.0522 11.371 3.8616 10.584 6.0934-2.4109 7.0323-4.9033c0.64285-1.7064-1.0119-3.4837-1.588-5.2083-1.2852-3.8472 1.5145-10.588-4.1667-11.458z" fill="#515151" filter="url(#a)" opacity=".5982"/>
  <path transform="matrix(0 .26655 -.19997 0 471.9 450.45)" d="m382.29 527.36c-5.6812-0.87047-5.1393 10.986-5.1393 10.986s-3.0522 11.371 3.8616 10.584 6.0934-2.4109 7.0323-4.9033c0.64285-1.7064-1.0119-3.4837-1.588-5.2083-1.2852-3.8472 1.5145-10.588-4.1667-11.458z" fill="#515151" filter="url(#a)" opacity=".5982"/>
  <path transform="matrix(0 .26655 -.19997 0 467.93 489.34)" d="m382.29 527.36c-5.6812-0.87047-5.1393 10.986-5.1393 10.986s-3.0522 11.371 3.8616 10.584 6.0934-2.4109 7.0323-4.9033c0.64285-1.7064-1.0119-3.4837-1.588-5.2083-1.2852-3.8472 1.5145-10.588-4.1667-11.458z" fill="#515151" filter="url(#a)" opacity=".5982"/>
  <path transform="matrix(0 .26655 -.19997 0 491.74 487.75)" d="m382.29 527.36c-5.6812-0.87047-5.1393 10.986-5.1393 10.986s-3.0522 11.371 3.8616 10.584 6.0934-2.4109 7.0323-4.9033c0.64285-1.7064-1.0119-3.4837-1.588-5.2083-1.2852-3.8472 1.5145-10.588-4.1667-11.458z" fill="#515151" filter="url(#a)" opacity=".5982"/>
  <path transform="matrix(.26655 0 0 .19997 252.06 410.23)" d="m382.29 527.36c-5.6812-0.87047-5.1393 10.986-5.1393 10.986s-3.0522 11.371 3.8616 10.584 6.0934-2.4109 7.0323-4.9033c0.64285-1.7064-1.0119-3.4837-1.588-5.2083-1.2852-3.8472 1.5145-10.588-4.1667-11.458z" fill="#515151" filter="url(#a)" opacity=".5982"/>
  <path transform="matrix(.26655 0 0 .19997 242.93 457.85)" d="m382.29 527.36c-5.6812-0.87047-5.1393 10.986-5.1393 10.986s-3.0522 11.371 3.8616 10.584 6.0934-2.4109 7.0323-4.9033c0.64285-1.7064-1.0119-3.4837-1.588-5.2083-1.2852-3.8472 1.5145-10.588-4.1667-11.458z" fill="#515151" filter="url(#a)" opacity=".5982"/>
  <path transform="matrix(.26655 0 0 .19997 281.82 461.81)" d="m382.29 527.36c-5.6812-0.87047-5.1393 10.986-5.1393 10.986s-3.0522 11.371 3.8616 10.584 6.0934-2.4109 7.0323-4.9033c0.64285-1.7064-1.0119-3.4837-1.588-5.2083-1.2852-3.8472 1.5145-10.588-4.1667-11.458z" fill="#515151" filter="url(#a)" opacity=".5982"/>
  <path transform="matrix(.26655 0 0 .19997 280.23 438.01)" d="m382.29 527.36c-5.6812-0.87047-5.1393 10.986-5.1393 10.986s-3.0522 11.371 3.8616 10.584 6.0934-2.4109 7.0323-4.9033c0.64285-1.7064-1.0119-3.4837-1.588-5.2083-1.2852-3.8472 1.5145-10.588-4.1667-11.458z" fill="#515151" filter="url(#a)" opacity=".5982"/>
  <path transform="matrix(0 .26655 -.19997 0 517.53 478.23)" d="m382.29 527.36c-5.6812-0.87047-5.1393 10.986-5.1393 10.986s-3.0522 11.371 3.8616 10.584 6.0934-2.4109 7.0323-4.9033c0.64285-1.7064-1.0119-3.4837-1.588-5.2083-1.2852-3.8472 1.5145-10.588-4.1667-11.458z" fill="#515151" filter="url(#a)" opacity=".5982"/>
  <path transform="matrix(0 .26655 -.19997 0 467.53 407.99)" d="m382.29 527.36c-5.6812-0.87047-5.1393 10.986-5.1393 10.986s-3.0522 11.371 3.8616 10.584 6.0934-2.4109 7.0323-4.9033c0.64285-1.7064-1.0119-3.4837-1.588-5.2083-1.2852-3.8472 1.5145-10.588-4.1667-11.458z" fill="#515151" filter="url(#a)" opacity=".5982"/>
  <path transform="matrix(0 .26655 -.19997 0 459.6 391.32)" d="m382.29 527.36c-5.6812-0.87047-5.1393 10.986-5.1393 10.986s-3.0522 11.371 3.8616 10.584 6.0934-2.4109 7.0323-4.9033c0.64285-1.7064-1.0119-3.4837-1.588-5.2083-1.2852-3.8472 1.5145-10.588-4.1667-11.458z" fill="#515151" filter="url(#a)" opacity=".5982"/>
  <path transform="matrix(0 .26655 -.19997 0 410.39 488.15)" d="m382.29 527.36c-5.6812-0.87047-5.1393 10.986-5.1393 10.986s-3.0522 11.371 3.8616 10.584 6.0934-2.4109 7.0323-4.9033c0.64285-1.7064-1.0119-3.4837-1.588-5.2083-1.2852-3.8472 1.5145-10.588-4.1667-11.458z" fill="#515151" filter="url(#a)" opacity=".5982"/>
  <path transform="matrix(.26655 0 0 .19997 279.83 491.97)" d="m382.29 527.36c-5.6812-0.87047-5.1393 10.986-5.1393 10.986s-3.0522 11.371 3.8616 10.584 6.0934-2.4109 7.0323-4.9033c0.64285-1.7064-1.0119-3.4837-1.588-5.2083-1.2852-3.8472 1.5145-10.588-4.1667-11.458z" fill="#515151" filter="url(#a)" opacity=".5982"/>
  <path transform="matrix(.26655 0 0 .19997 286.58 453.08)" d="m382.29 527.36c-5.6812-0.87047-5.1393 10.986-5.1393 10.986s-3.0522 11.371 3.8616 10.584 6.0934-2.4109 7.0323-4.9033c0.64285-1.7064-1.0119-3.4837-1.588-5.2083-1.2852-3.8472 1.5145-10.588-4.1667-11.458z" fill="#515151" filter="url(#a)" opacity=".5982"/>
  <path transform="matrix(.26655 0 0 .19997 271.5 456.26)" d="m382.29 527.36c-5.6812-0.87047-5.1393 10.986-5.1393 10.986s-3.0522 11.371 3.8616 10.584 6.0934-2.4109 7.0323-4.9033c0.64285-1.7064-1.0119-3.4837-1.588-5.2083-1.2852-3.8472 1.5145-10.588-4.1667-11.458z" fill="#515151" filter="url(#a)" opacity=".5982"/>
  <path transform="matrix(.26655 0 0 .19997 273.09 480.07)" d="m382.29 527.36c-5.6812-0.87047-5.1393 10.986-5.1393 10.986s-3.0522 11.371 3.8616 10.584 6.0934-2.4109 7.0323-4.9033c0.64285-1.7064-1.0119-3.4837-1.588-5.2083-1.2852-3.8472 1.5145-10.588-4.1667-11.458z" fill="#515151" filter="url(#a)" opacity=".5982"/>
  <path d="m334.07 623.66c-5.1824-2.4039-51.929-20.732-51.929-20.732l-5.8447 7.2532 31.689 12.068s38.214 17.41 57.941 30.385 53.93 64.776 94.711 61.16c25.714-2.28 7.5816-12.622 13.364-20.334 12.74-16.993-7.0446-27.328-47.892-37.364s-93.551-33.173-92.039-32.436z" fill="url(#h)" stroke="#000"/>
  <path d="m315.27 473.73c-16.554 32.355-3.7622 33.86-12.792 68.473s11.287 41.385 2.2573 60.948 12.841 34.6 30.148 36.857-2.3072-0.73997-0.80231-10.522 0.75244-10.525 0.75244-10.525 1.5127 20.322 12.047 11.293-21.076-26.351-15.057-40.648 7.5245-33.108 3.7622-47.404c-1.8811-7.1482 9.7818-14.108 13.544-24.36 1.8811-5.126-13.876-24.93-7.1796-34.547-12.581 7.8532-9.9385 0.59302-26.68-9.565z" fill="#faa" stroke="#000"/>
  <path d="m306.25 551.23s16.173-10.69 18.811-3.7622-21.821 12.792-21.821 12.792 17.42-9.3808 19.564-3.0098-18.059 9.7818-18.059 9.7818 13.684-5.0813 15.049 0-14.296 8.2769-14.296 8.2769 10.753-2.3339 12.039 0.75245-5.2671 6.0196-5.2671 6.0196h3.7622" fill="none" stroke="#000"/>
  <path d="m381.59 334c-13.633 0.18894-30.188 5.7812-30.188 5.7812s-8.8314-6.2898-13.562-5.25c-19.057 4.1885-40.625 42.125-40.625 42.125s-20.892 42.907-18.062 54.938 24.094-24.844 24.094-24.844-25.817 53.104-6.0312 32.375-0.74001 13.286 8.2812 18.062c8.09 4.2831 12.526 4.1848 15.189-6.6111 2.6164-10.607 2.2451 1.4923 0.11397 9.7588-2.5194 9.7724 19.409-6.6728 14.261 7.2149 10.284-4.7261 5.4949-7.8446 14.986-3.0496l-6.2243 13.398c4.4273 3.4215 10.581-2.6488 10.581-2.6488s-0.14001 21.91 6 30.094c3.9048 5.2048 17.312 9.0312 17.312 9.0312l39.125 4.5s2.3443-23.808-3.75-33.094c-4.1614-6.3404-19.719-11.375-19.719-11.375s-6.9288-1.7838-7.5312-8.8438 10.5-25.156 10.5-25.156l-4.25-3.0312c2.3183-0.70295 4.9785-1.1982 6.6875-0.5 12.039 4.9181 22.063 30.008 23.75 34.438 0.25034-5.5251 1.676-22.489-1.1562-29.188-3.8206-9.0362 8.5116 0.7194 10.531-2.25 3.4321-5.0461-3-18.062-3-18.062s-47.686-13.685-55.25 7.7096c0 0-5.0756 3.3925-6.5534-3.2828-3.4289 7.4711-20.978 18.886-20.978 18.886 9.0179-37.61-24.753-28.118 6.7812-60.938 2.6067-2.7129 15.912-2.7397 26.662 2.1066 0.43267-7.8521 7.182-14.138 7.182-14.138s18.484 4.067 25.594 12.65c7.1101-4.1151 2.1208-12.705-2.25-23.182-1.9554-4.6871-4.3031-6.1199 4.2214-6.7929-2.5866-4.6413-16.219-16.575-20.784-18.801-3.1687-1.5452-7.393-2.0942-11.938-2.0312zm40.938 137.34c-0.0811 1.8114-0.0296 2.3696 0.34375 0.875 0 0-0.19029-0.47142-0.34375-0.875z" fill="url(#g)" stroke="#000"/>
  <path d="m395.97 391.27s61.444-6.8271 51.203 17.068-76.236 18.206-65.995 5.6892" fill="url(#i)" stroke="#000"/>
  <path transform="translate(176.07 5.2671)" d="m200.15 392.09a4.1384 7.9007 0 1 1 -8.2769 0 4.1384 7.9007 0 1 1 8.2769 0z" fill="#501616"/>
  <path transform="translate(190.75 1.1287)" d="m200.15 392.09a4.1384 7.9007 0 1 1 -8.2769 0 4.1384 7.9007 0 1 1 8.2769 0z" fill="#501616"/>
  <path d="m443.19 542.2s-20.152-12.581-25.583-22.573c-5.6913-10.472-5.2671-35.365-5.2671-35.365s-41.791-3.0375-35.838-19.632c5.2413-14.61 13.015 8.6897 5.4907-8.6166s4.5147-21.417 9.8764-12.757c-2.1026-10.001 7.6792-18.437 12.194-10.16s15.639 34.051 18.059 25.583c1.5049-5.2671-6.0196-11.287-3.0098-21.068s6.0196-17.306 10.534 0-0.75244 27.84 3.0098 34.613 29.345 20.316 30.85 39.88-20.316 32.355-20.316 30.098z" fill="#faa" stroke="#000"/>
  <path d="m450.72 525.65s14.209-14.07 7.0185-19.46c-7.3611-5.5184-14.543 14.945-14.543 14.945s14.179-19.284 8.2769-23.326c-6.2067-4.25-8.4493 0.31634-11.935 10.327 0 0 10.755-15.203 5.9158-18.604s-9.5223 9.2758-9.5223 9.2758 9.4834-9.378 3.6584-12.039-6.7071 3.3601-6.7071 3.3601" fill="none" stroke="#000"/>
 </g>
</svg>
