<?xml version="1.0" encoding="UTF-8"?>
<svg width="1589.4" height="2896.2" version="1.1" viewBox="0 0 1589.3921 2896.2259" xml:space="preserve" xmlns="http://www.w3.org/2000/svg" xmlns:xlink="http://www.w3.org/1999/xlink"><defs><linearGradient id="d"><stop stop-color="#fafafa" offset="0"/><stop stop-color="#d3d3d3" offset=".077549"/><stop stop-color="#808080" offset="1"/></linearGradient><linearGradient id="c"><stop stop-color="#fff" offset="0"/><stop stop-color="#3c3c3c" offset=".44265"/><stop stop-color="#797979" offset=".63395"/><stop offset="1"/></linearGradient><radialGradient id="o" cx="980.14" cy="2350.8" r="547.35" gradientTransform="matrix(1.7959 -.07022 .080564 2.0605 -969.52 -2483.1)" gradientUnits="userSpaceOnUse" xlink:href="#c"/><linearGradient id="l" x1="862.34" x2="876.44" y1="2218" y2="2238.1" gradientUnits="userSpaceOnUse" spreadMethod="repeat" xlink:href="#c"/><linearGradient id="m" x1="862.34" x2="856.31" y1="2218" y2="2231.2" gradientUnits="userSpaceOnUse" spreadMethod="repeat" xlink:href="#c"/><radialGradient id="p" cx="1509.1" cy="1037.8" r="279.73" gradientTransform="matrix(1.4226 .022836 -.016517 .46805 -1037.8 999.46)" gradientUnits="userSpaceOnUse" xlink:href="#d"/><radialGradient id="q" cx="1615.9" cy="1149.9" r="358.16" gradientTransform="matrix(2.1659 .0054301 .002424 .25286 -2233.3 1362.7)" gradientUnits="userSpaceOnUse"><stop stop-color="#6d6d6d" offset="0"/><stop stop-color="#cacaca" offset="1"/></radialGradient><radialGradient id="r" cx="1509.1" cy="1037.8" r="279.73" gradientTransform="matrix(1.433 .023139 -.01658 .47067 -1052.2 995.52)" gradientUnits="userSpaceOnUse" xlink:href="#d"/></defs><g transform="translate(-359.99 -1272.7)"><path d="m851.21 2252.5s-399.16 106.31-486.79 187.26c-25.679 119.42 262.8 278.85 262.8 278.85l54.435-105.91-139.19-115.65 347.57-67.971z" fill="#803300" stroke="#1a1a1a" stroke-linecap="round" stroke-linejoin="bevel" stroke-width="5.607"/><path transform="translate(253.14 1300.1)" d="m851.75 826.62 21.814 56.279c-46.373 15.416-94.478 31.816-94.525 54.242-1.2e-4 17.943 16.48 34.532 44.396 48.01v571.63h386.8v-577.08c21.589-12.397 34.039-26.972 34.039-42.568-0.1055-22.401-54.918-43.803-101.24-59.201l28.525-51.32h-319.81z" fill="#fca" stroke="#000" stroke-linecap="round" stroke-width="6.413"/><path d="m936.56 3027.2s-19.211 429.82-27.441 482.05c-8.2297 52.225-64.674 489.92-28.467 620.85l208.81-9.5361c24.647-176.29 26.295-504.76 45.94-601.87 50.038-247.36 120.98-369.61 120.98-369.61s78.05 70.163 106.78 346.1c12.454 119.61-18.672 430.4 10.557 619.42h252.02c36.208-130.93-34.804-466.22-51.263-570.66 0 0-31.706-114.13-10.425-421.64 1.9965-28.85-4.9418-59.401-1.9426-91.72-163.69-13.515-625.56-3.3713-625.56-3.3713z" fill="#803300" stroke="#000" stroke-linecap="round" stroke-linejoin="bevel" stroke-width="11.233"/><path d="m1361.8 4056.1c0 93.108-17.403 109.39 126.31 109.39 143.71 0 206.11-2.7132 206.11-95.679 0-93.108-40.696-177.79-184.41-177.79-143.71 0-148 70.974-148 164.08z" fill="#1a1a1a" stroke="#000" stroke-width="6.9605"/><path d="m1252.1 3226.6c-79.686 69.599-108.05 154.9-117.97 218.43-0.7114 0.035-1.4888 0.2451-2.3398 0.6524 0 0-40.926 127.82-40.926 260.65s-21.461 241.36 4.8496 241.36c26.311 0 8.0006-108.52 18.068-244.71 5.0943-68.913 16.173-138.78 22.301-188.41 73.67-208 73.443-250.76 121.45-279.03l-5.4375-8.9375z" fill-opacity=".24581" fill-rule="evenodd"/><path d="m1565.5 3069.2c-100.34 398.06 64.873 881.92 64.873 881.92l-13.326-184.1c-14.502-85.945-30.542-162.77-37.496-203.79 0 0-33.954-113.61-11.164-419.69 1.7589-23.623-2.9467-48.395-2.8868-74.348z" fill-opacity=".26786" fill-rule="evenodd"/><path d="m901.99 2205.8c-78.734 45.321-218.37 83.864-218.37 83.864l26.444 178.2s198.26-28.276 266.58-92.24c-56.249 268.94-45.594 700.6-71.142 928.31 3.4346 113.05 113.99 126.04 342.3 112.14 286.62-12.068 324.05 41.559 318.38-52.134 28.97-245.58-15.611-769.91-20.271-979.67 64.875 49.296 59.566 59.947 59.566 59.947l161.16-1.152s-104.69-204.86-176.34-243.59c-22.626-0.1626-117.35-6.7173-145.22 1.1223 0 0-116.3 86.376-184.24 86.315-67.941-0.061-186.41-83.366-186.41-83.366-39.106-1.2516-102.08 2.6299-172.43 2.254z" fill="url(#o)" stroke="#000" stroke-linecap="round" stroke-linejoin="round" stroke-width="11.703"/><g transform="matrix(-.52032 -.42898 -.89105 .3054 1270.6 3115.5)"><g transform="translate(5.2157 -.41649)"><ellipse cx="392.26" cy="177.62" rx="1.4322" ry="1.4015"/><path d="m392.54 178.26-0.0877 0.31116 2.2059 0.70647-0.12297 0.38558 0.36062 0.0713 0.14828-0.61731z"/><path d="m392.93 177.74-0.0292 0.32197 2.298 0.29011-0.0502 0.40159 0.36759 4e-3 0.0326-0.63403z"/><path d="m392.7 176.94 0.0535 0.31884 2.2964-0.30274 0.0534 0.40118 0.35657-0.0894-0.12942-0.62153z"/><path d="m392.6 176.52 0.1533 0.28464 2.0766-1.026 0.17973 0.36262 0.3088-0.19944-0.32264-0.54677z"/><path d="m392.09 178.03 0.0877 0.31116-2.2059 0.70647 0.12297 0.38558-0.36062 0.0713-0.14828-0.61731z"/><path d="m392.04 177.8-0.0562 0.31837-2.2937-0.32239-0.0568 0.40071-0.35578-0.0925 0.13473-0.62041z"/><path d="m391.47 176.8-0.0336 0.32154-2.3107-0.1595-0.0284 0.40373-0.36144-0.0671 0.0906-0.62837z"/><path d="m392.07 176.58-0.1533 0.28464-2.0766-1.026-0.17973 0.36262-0.3088-0.19944 0.32264-0.54677z"/><ellipse id="n" cx="391.81" cy="178.31" rx=".11328" ry=".10938" fill="#fff"/><g id="b"><use width="100%" height="100%" xlink:href="#n"/><ellipse cx="391.83" cy="178.36" rx=".044922" ry=".03125"/></g><use width="100%" height="100%" xlink:href="#b"/><use transform="translate(0 .24062)" width="100%" height="100%" xlink:href="#b"/><use transform="translate(.27188)" width="100%" height="100%" xlink:href="#b"/><use transform="translate(.27188 .24062)" width="100%" height="100%" xlink:href="#b"/><use transform="translate(.54375)" width="100%" height="100%" xlink:href="#b"/><use transform="translate(.54375 .24062)" width="100%" height="100%" xlink:href="#b"/><use transform="translate(.81562)" width="100%" height="100%" xlink:href="#b"/><use transform="translate(.81562 .24062)" width="100%" height="100%" xlink:href="#b"/></g></g><path d="m918.75 2994.7c-11.667 3.9988-11.695 4.0083-11.695 4.0083" fill-rule="evenodd" stroke="#000" stroke-width=".022069"/><path d="m1107.9 4042.3c0 93.108 17.403 109.39-126.31 109.39-143.71 0-206.11-2.7131-206.11-95.679 0-93.108 40.696-177.79 184.41-177.79 143.71 0 148 70.974 148 164.08z" fill="#1a1a1a" stroke="#000" stroke-width="6.9605"/><ellipse cx="939.15" cy="1794.8" rx="97.854" ry="92.222" fill="#fca" stroke="#000" stroke-linecap="round" stroke-linejoin="bevel" stroke-width="8.5439"/><ellipse cx="1564.3" cy="1803.3" rx="97.854" ry="92.222" fill="#fca" stroke="#000" stroke-linecap="round" stroke-linejoin="bevel" stroke-width="8.5439"/><path d="m1251.8 1573.5c-120.12 0.263-233.77 23.104-293.7 131.01-60.198 108.17-34.687 233.92 3.105 351.54 11.877 37.018 47.151 65.373 71.176 88.476 61.007 58.806 135.74 82.434 221.31 82.697v0h2.6994v0c85.573-0.2628 153.82-23.891 214.83-82.697 24.025-23.104 51.005-52.643 62.883-89.661 37.789-117.62 71.323-242.19 11.399-350.36-59.928-107.9-173.58-130.74-293.7-131.01z" fill="#fca" stroke="#1a1a1a" stroke-linecap="round" stroke-linejoin="bevel" stroke-width="10"/><path d="m1399.7 1885.9c-63.414 4.1954-118.46-41.691-118.46-41.691s46.413-75.517 110.1-79.712c63.414-3.9332 126.29 27.794 126.29 27.794s-54.239 89.676-117.92 93.609z" fill="#fff" stroke="#000" stroke-width="4.256px"/><ellipse cx="1555.7" cy="1799.3" rx="29.93" ry="138.92" fill="#502d16" stroke="#1a1a1a" stroke-linecap="round" stroke-linejoin="bevel" stroke-width="5.0716"/><path d="m1377.3 1866.5c-22.406 1.0506-41.302-13.652-42.382-33.079-1.0802-19.165 15.927-35.705 38.332-36.755 22.136-1.0505 41.032 13.652 42.112 32.817 1.0803 19.428-15.927 35.967-38.062 37.017z" fill="#333" stroke="#000" stroke-width="3.727px"/><path d="m1296.3 1974.3c0-8.9265-10.528-17.328-27.265-21.791-17.007-4.4633-37.792-4.4633-54.799 0-16.736 4.4632-27.264 12.864-27.264 21.791" fill="none" stroke="#000" stroke-linecap="round" stroke-linejoin="bevel" stroke-width="5.0581px"/><path d="m1104.1 1885.9c63.414 4.1954 118.46-41.691 118.46-41.691s-46.413-75.517-110.1-79.712c-63.414-3.9332-126.29 27.794-126.29 27.794s54.239 89.676 117.92 93.609z" fill="#fff" stroke="#000" stroke-width="4.256px"/><path d="m1124.4 1866.5c22.136 1.3127 41.302-13.127 42.651-32.292 1.6196-19.428-15.387-36.23-37.522-37.543-22.406-1.3126-41.301 13.127-42.921 32.292-1.3497 19.166 15.657 35.967 37.792 37.542z" fill="#333" stroke="#000" stroke-width="3.727px"/><ellipse cx="945.25" cy="1826.7" rx="32.856" ry="130.67" fill="#502d16" stroke="#1a1a1a" stroke-linecap="round" stroke-linejoin="bevel" stroke-width="5.1535"/><rect transform="matrix(.99555 .094253 .64612 .76324 0 0)" x="-513.56" y="2340.2" width="199.71" height="29.702" fill="#502d16" stroke="#000" stroke-linecap="round" stroke-linejoin="bevel" stroke-width="7.0058"/><path transform="matrix(.99033 -.13874 .16528 .98625 0 0)" d="m1292.6 1912c-57.062 83.791-87.846 104.38-380.72 75.506-173.1-17.063-293.81-58.273-275.5-111.51" fill-opacity=".18667"/><g transform="matrix(.99706 -.078089 .070665 1.1018 -106.02 -44.187)" stroke="#000" stroke-miterlimit="10"><path d="m1544.3 1650.8c-2.5057-1.6728-5.0095-3.7779-7.184-6.4499-8.1658-10.038-28.862-42.256-40.9-55.943-39.234-52.212-140.05-89.305-258.32-89.305-123.8 0-227.95 39.782-262.88 95.86-13.81 17.425-32.843 46.367-39.841 55.296-1.173 1.4971-2.4821 2.7625-3.8423 3.8587-64.534 8.5938-103.67 19.683-103.46 31.618 0.43961 25.835 184.91 45.842 412.03 44.686 227.12-1.1555 410.88-23.036 410.44-48.871-0.2051-12.03-40.32-22.795-106.05-30.749z" fill="#999" stroke-linecap="round" stroke-width="17.493"/><ellipse transform="matrix(.99999 -.0050845 .017008 .99986 0 0)" cx="1213.4" cy="1688.8" rx="411.26" ry="46.787" fill="url(#q)" stroke-width="2.9157"/><path d="m1617.5 1660.2c13.867 4.7332 21.447 9.853 21.526 15.229 0.3785 26.095-175.78 48.302-393.46 49.601s-394.45-18.803-394.83-44.897c-0.0907-6.252 9.9767-12.28 28.296-17.851-29.376 7.7379-45.936 16.43-45.804 25.542 0.43951 30.286 184.86 53.738 411.91 52.384 227.05-1.3546 410.76-27.004 410.32-57.29-0.1182-8.1915-13.721-15.881-37.962-22.718z" fill="#666" stroke-width="3.1561"/><path d="m920.42 1655.3s11.665-1.2762 18.664-10.205 26.031-37.872 39.841-55.297c34.93-56.078 139.08-95.86 262.88-95.86 118.27 0 219.08 37.094 258.32 89.305 12.038 13.688 32.734 45.905 40.9 55.943 8.1659 10.038 20.998 12.283 20.998 12.283s-56.247 18.032-321.9 19.596c-265.66 1.5647-319.7-15.767-319.7-15.767z" fill="url(#r)" stroke-linecap="round" stroke-width="2.9155"/><path d="m920.37 1655.3s11.58-1.2705 18.529-10.151c6.9489-8.8802 25.847-37.664 39.558-54.994 34.683-55.77 138.08-95.343 260.98-95.358 117.41-0.014 217.48 36.86 256.43 88.777 11.949 13.61 32.491 45.646 40.596 55.627 8.1052 9.9813 20.844 12.212 20.844 12.212s-55.84 17.938-319.56 19.527c-263.72 1.5883-317.37-15.64-317.37-15.64z" fill="url(#p)" stroke-linecap="round" stroke-width="2.8967"/></g><rect transform="matrix(-.99555 .094253 -.64612 .76324 0 0)" x="-3257.1" y="2692.1" width="199.71" height="29.702" fill="#502d16" stroke="#000" stroke-linecap="round" stroke-linejoin="bevel" stroke-width="7.0058"/><rect transform="matrix(.99555 .094253 .64612 .76324 0 0)" x="-525.62" y="2354.8" width="199.71" height="29.702" fill="#502d16" stroke="#000" stroke-linecap="round" stroke-linejoin="bevel" stroke-width="7.0058"/><path d="m1175.7 2086.6h156.05" fill="none" stroke="#000" stroke-width="7.2"/><path transform="translate(359.99 1272.7)" d="m337.56 1128.3s-152.12 48.879-178.15 81.661c-26.028 32.783 107.65 126.02 107.65 126.02l24.319-21.124-108.91-90.494 163.82-61.273z" fill-opacity=".18667"/></g><g transform="translate(47.174 126.45)" opacity=".504"><path transform="translate(-407.17 -1399.2)" d="m901.99 2205.8c-78.734 45.321-218.37 83.864-218.37 83.864l26.444 178.2s198.26-28.276 266.58-92.24c-56.249 268.94-45.594 700.6-71.142 928.31 3.4346 113.05 113.99 126.04 342.3 112.14 286.62-12.068 324.05 41.559 318.38-52.134 28.97-245.58-15.611-769.91-20.271-979.67 64.875 49.296 59.566 59.947 59.566 59.947l161.16-1.152s-104.69-204.86-176.34-243.59c-22.626-0.1626-117.35-6.7173-145.22 1.1223 0 0-116.3 86.376-184.24 86.315-67.941-0.061-186.41-83.366-186.41-83.366-39.106-1.2516-102.08 2.6299-172.43 2.254z" fill="url(#l)" stroke="#000" stroke-linecap="round" stroke-linejoin="round" stroke-width="11.703"/></g><g transform="translate(47.174 126.45)" opacity=".5"><path transform="translate(-407.17 -1399.2)" d="m901.99 2205.8c-78.734 45.321-218.37 83.864-218.37 83.864l26.444 178.2s198.26-28.276 266.58-92.24c-56.249 268.94-45.594 700.6-71.142 928.31 3.4346 113.05 113.99 126.04 342.3 112.14 286.62-12.068 324.05 41.559 318.38-52.134 28.97-245.58-15.611-769.91-20.271-979.67 64.875 49.296 59.566 59.947 59.566 59.947l161.16-1.152s-104.69-204.86-176.34-243.59c-22.626-0.1626-117.35-6.7173-145.22 1.1223 0 0-116.3 86.376-184.24 86.315-67.941-0.061-186.41-83.366-186.41-83.366-39.106-1.2516-102.08 2.6299-172.43 2.254z" fill="url(#m)" opacity=".504" stroke="#000" stroke-linecap="round" stroke-linejoin="round" stroke-width="11.703"/></g><g transform="translate(47.174 126.45)"><g transform="matrix(-5.5709 11.086 -10.397 -4.58 9341.4 2069.2)" fill="#deaa87"><g transform="matrix(.95365 -.27172 .26414 .97335 -181.39 87.689)" fill="#deaa87" stroke="#000"><path d="m239.62 685.95c2.36 1.31 4.275 2.852 4.715 3.7413 1.9 3.77 1.0727 3.7587 1.3463 8.2252-0.84 1.4-1.0791 3.9257-1.8791 6.2957-0.37 1.09-3.0593 2.1526-5.0693 2.1126-0.63-0.01-1.38 0.39-2.08 0.47-1.11 0.11-2.2778-0.26722-3.0678-0.28722-6.233-1.982-0.61968-6.0793-1.4424-5.2076 1.04-4.43 0.15421-4.846-0.30753-7.1892-0.42 1.32 1.0628 3.5844 0.38557 5.837-0.6646 1.0368-0.42522 2.6581-2.0952 1.4181-1.6222-5.4704-4.7941-8.65 2.8059-13.727" stroke-linecap="round" stroke-linejoin="round" stroke-width=".96927"/><path d="m239.9 696.85-0.61865 4.6414-3.7997 5.2881" stroke-width=".93446px"/><path d="m242.67 697.02-0.38935 4.3474-2.8142 4.8362" stroke-width="1px"/><path d="m236.5 696.65-0.66 5.26-3.9617 4.3856" stroke-width="1px"/></g></g><path d="m1250.1 1029.7 2.8331 315.11-366.67-13.443-2.2676 142.29s400.37 58.107 484.84 19.998c84.469-38.109 23.019-468.16 23.019-468.16z" fill="#803300" stroke="#1a1a1a" stroke-linecap="round" stroke-linejoin="bevel" stroke-width="5.9295"/><rect transform="matrix(.002889 -1 .99648 .083785 0 0)" x="-1407.2" y="881.44" width="161.5" height="55.518" fill="#fff" stroke="#000" stroke-linecap="round" stroke-width="8.7514"/><rect transform="matrix(.99932 -.036875 -.040304 .99919 0 0)" x="1294.5" y="1074.8" width="161.04" height="55.531" fill="#fff" stroke="#000" stroke-linecap="round" stroke-width="8.7399"/><rect x="631.9" y="883.25" width="907.43" height="1468.2" rx="453.71" ry="75.325" fill="#808080" stroke="#000" stroke-linecap="round" stroke-width="5.7745"/><rect x="696.31" y="940.45" width="778.62" height="1353.9" rx="389.31" ry="57.082" fill="#fff" stroke="#000" stroke-linecap="round" stroke-width="5.7745"/><rect x="658.51" y="956.64" width="17.255" height="17.255" ry="5.0094" fill="#fff" stroke="#000" stroke-linecap="round" stroke-width="5.7745"/><rect x="1306.5" y="915.38" width="17.255" height="17.255" ry="5.0094" fill="#fff" stroke="#000" stroke-linecap="round" stroke-width="5.7745"/><rect x="1306.5" y="2303" width="17.255" height="17.255" ry="5.0094" fill="#fff" stroke="#000" stroke-linecap="round" stroke-width="5.7745"/><rect x="851.06" y="2303" width="17.255" height="17.255" ry="5.0094" fill="#fff" stroke="#000" stroke-linecap="round" stroke-width="5.7745"/><rect x="851.06" y="912.32" width="17.255" height="17.255" ry="5.0094" fill="#fff" stroke="#000" stroke-linecap="round" stroke-width="5.7745"/><rect x="658.51" y="1217.7" width="17.255" height="17.255" ry="5.0094" fill="#fff" stroke="#000" stroke-linecap="round" stroke-width="5.7745"/><rect x="658.51" y="1478.7" width="17.255" height="17.255" ry="5.0094" fill="#fff" stroke="#000" stroke-linecap="round" stroke-width="5.7745"/><rect x="658.51" y="1739.7" width="17.255" height="17.255" ry="5.0094" fill="#fff" stroke="#000" stroke-linecap="round" stroke-width="5.7745"/><rect x="658.51" y="2000.7" width="17.255" height="17.255" ry="5.0094" fill="#fff" stroke="#000" stroke-linecap="round" stroke-width="5.7745"/><rect x="658.51" y="2261.8" width="17.255" height="17.255" ry="5.0094" fill="#fff" stroke="#000" stroke-linecap="round" stroke-width="5.7745"/><rect x="1496" y="956.64" width="17.255" height="17.255" ry="5.0094" fill="#fff" stroke="#000" stroke-linecap="round" stroke-width="5.7745"/><rect x="1496" y="1217.7" width="17.255" height="17.255" ry="5.0094" fill="#fff" stroke="#000" stroke-linecap="round" stroke-width="5.7745"/><rect x="1496" y="1478.7" width="17.255" height="17.255" ry="5.0094" fill="#fff" stroke="#000" stroke-linecap="round" stroke-width="5.7745"/><rect x="1496" y="1739.7" width="17.255" height="17.255" ry="5.0094" fill="#fff" stroke="#000" stroke-linecap="round" stroke-width="5.7745"/><rect x="1496" y="2000.7" width="17.255" height="17.255" ry="5.0094" fill="#fff" stroke="#000" stroke-linecap="round" stroke-width="5.7745"/><rect x="1496" y="2261.8" width="17.255" height="17.255" ry="5.0094" fill="#fff" stroke="#000" stroke-linecap="round" stroke-width="5.7745"/><rect x="1077" y="2319.6" width="17.255" height="17.255" ry="5.0094" fill="#fff" stroke="#000" stroke-linecap="round" stroke-width="5.7745"/><path d="m1173.5 941.95 25.67 1349.9c72.746-3.2279 136.26-9.4748 184-17.764l-12.812-1315.4c-51.91-8.1671-119.87-14.079-196.85-16.67z" fill="#520" stroke="#000" stroke-linecap="round" stroke-width="5.7745"/><path d="m975.39 942.8c-79.78 3.4268-148.56 10.478-197.98 19.872l46.456 1316.8c51.545 6.8677 115.53 11.747 186.84 13.771l-35.313-1350.4z" fill="#520" stroke="#000" stroke-linecap="round" stroke-width="5.7745"/><path d="m1085.6 940.45c-38.348 0-75.274 0.8446-110.22 2.3459l35.313 1350.4c24.245 0.6878 49.254 1.0712 74.911 1.0712 39.557 0 77.657-0.876 113.57-2.4698l-25.67-1349.9c-28.272-0.9511-57.608-1.4999-87.904-1.4999z" fill="#520" stroke="#000" stroke-linecap="round" stroke-width="5.7745"/><path d="m777.41 962.67c-50.696 9.6365-81.103 21.696-81.103 34.862v1170.4c2.0756 32.635 1.3723 45.313 3.7848 77.049 32.774 18.456 81.942 28.864 123.77 34.437z" fill="#520" stroke="#000" stroke-linecap="round" stroke-width="5.7745"/><path d="m1370.4 958.62 12.812 1315.4c72.042-15.721 74.596-21.564 89.252-26.202 2.2321-39.282 2.0553-58.557 2.4864-100.41v-1149.9c0-15.085-39.814-28.725-104.55-38.91z" fill="#520" stroke="#000" stroke-linecap="round" stroke-width="5.7745"/><g transform="translate(-407.17 -1399.2)" stroke="#000"><path d="m833.14 2429.3 1.0482-1017.9-55.904-136.86-69.351 138.14-0.30606 1019.2" fill="#f2f2f2" stroke-linecap="round" stroke-linejoin="bevel" stroke-width="8.2723"/><path d="m771.27 1408.6 0.18718 1020.5" fill="none" stroke-width="3.854"/><path d="m625.9 2426.1 330.66 7.1108 2.3843 95.432c-41.722-3.833-84.976-10.055-134.83-6.7667l-6.4665 9.7865-2.3119 245-104.43-0.9855 2.3118-245-5.2115-7.7443-70.478-1.5618-17.34 6.5252z" fill="#784421" stroke-linecap="round" stroke-linejoin="bevel" stroke-width="8.1569"/><path transform="matrix(.42671 -.90439 -.71303 -.70114 0 0)" d="m-1355.6-1711.3a58.926 49.69 0 0 1 -40.116 59.038 58.926 49.69 0 0 1 -72.38 -30.077 58.926 49.69 0 0 1 31.08 -62.794" fill="#784421" stroke-linecap="round" stroke-linejoin="bevel" stroke-width="6.7683"/><path transform="matrix(-.34928 -.93702 .80655 -.59117 0 0)" d="m-2597.8 5.0371a58.286 50.117 0 0 1 -39.681 59.546 58.286 50.117 0 0 1 -71.593 -30.336 58.286 50.117 0 0 1 30.742 -63.334" fill="#784421" stroke-linecap="round" stroke-linejoin="bevel" stroke-width="6.7603"/></g><rect x="1081.6" y="898.6" width="17.255" height="17.255" ry="5.0094" fill="#fff" stroke="#000" stroke-linecap="round" stroke-width="5.7745"/><g transform="translate(-407.17 -1399.2)" stroke="#000" stroke-linecap="round" stroke-linejoin="bevel"><path transform="matrix(-.87202 -.48947 -.68751 .72618 0 0)" d="m-2493.3 2128.7a59.165 52.287 0 0 1 -50.884 51.772 59.165 52.287 0 0 1 -65.127 -37.281 59.165 52.287 0 0 1 32.655 -62.208" fill="#784421" stroke-width="6.957"/><path transform="matrix(-.99873 -.050326 -.46017 .88783 0 0)" d="m-1978.5 2744.3a50.995 27.171 0 0 1 -58.523 19.694 50.995 27.171 0 0 1 -41.458 -29.534" fill="none" stroke-width="8.9947"/><path transform="matrix(-.99889 -.047103 -.4573 .88931 0 0)" d="m-2084.5 3001.8a50.995 27.171 0 0 1 -58.523 19.694 50.995 27.171 0 0 1 -41.458 -29.534" fill="none" stroke-width="8.9947"/><path d="m812.19 2652.8c0.5552-59.154 0.85117-107.64 0.6577-107.76-0.19365-0.1115-1.4689 0.6061-2.8343 1.5945-13.156 9.5238-39.049 15.328-61.08 13.693-11.801-0.8758-22.802-3.6105-29.084-7.2297-1.6031-0.9235-2.337-1.0595-2.4318-0.45-0.0742 0.4803-0.5836 48.633-1.1309 107.01-0.54726 58.373-1.1612 106.62-1.3643 107.21-0.20286 0.5906 0.42974 2.3608 1.4064 3.9346 1.65 2.6588 2.2507 3.1123 8.4848 6.4053 7.6173 4.0233 14.398 5.7321 25.385 6.3959 14.227 0.8596 33.33-2.207 43.946-7.0545 7.5421-3.4438 11.046-6.2952 14.255-11.6l2.7803-4.5958 1.0094-107.55z" fill="#b46f57" stroke-width=".43253"/><path transform="matrix(-.99873 -.050326 -.46017 .88783 0 0)" d="m-2015.7 2824.8a50.995 27.171 0 0 1 -58.523 19.694 50.995 27.171 0 0 1 -41.458 -29.534" fill="none" stroke-width="8.9947"/><path transform="matrix(-.99889 -.047103 -.4573 .88931 0 0)" d="m-2050.8 2921.3a50.995 27.171 0 0 1 -58.523 19.694 50.995 27.171 0 0 1 -41.458 -29.534" fill="none" stroke-width="8.9947"/></g><g transform="matrix(4.2865 11.643 10.847 -3.3795 -8250.4 978.12)" fill="#fca"><g transform="matrix(.95365 -.27172 .26414 .97335 -182.56 51.876)" fill="#fca"><g transform="translate(-7.5417 35.041)" fill="#fca" stroke="#000"><path d="m239.62 685.95c2.36 1.31 4.275 2.852 4.715 3.7413 1.9 3.77 1.0727 3.7587 1.3463 8.2252-0.84 1.4-1.0791 3.9257-1.8791 6.2957-0.37 1.09-3.0593 2.1526-5.0693 2.1126-0.63-0.01-1.38 0.39-2.08 0.47-1.11 0.11-2.2778-0.26722-3.0678-0.28722-6.233-1.982-0.61968-6.0793-1.4424-5.2076 1.04-4.43 0.40413-4.6674-0.0576-7.0106-0.77097-0.43677-1.5416-0.66194-3.3259-0.29482 0 0-3.4278-1.2787 4.1722-6.3555" stroke-linecap="round" stroke-linejoin="round" stroke-width=".96927"/><path d="m239.9 696.85-0.61865 4.6414-3.7997 5.2881" stroke-width=".93446px"/><path d="m242.67 697.02-0.38935 4.3474-2.8142 4.8362" stroke-width="1px"/><path d="m236.5 696.65-0.66 5.26-3.9617 4.3856" stroke-width="1px"/></g></g></g><rect transform="matrix(.31917 -.9477 .91791 .39679 0 0)" x="-1128.7" y="585.27" width="143.67" height="51.513" fill="#803300" stroke="#000" stroke-linecap="round" stroke-width="7.9508"/><path d="m429.58 25.9-6.5581 129.61 1.7438 870.16-16.71-1.4602s1.5362-781.47 7.322-969.24c5.7858-24.033 14.202-29.063 14.202-29.063z" fill-opacity=".18"/><g transform="matrix(.99836 0 0 1.2338 -1179.8 -134.52)" fill="#502d16"><g transform="translate(838.52 -169.91)" fill="#502d16"><path d="m1182.7 756.86s-139.44 8.8076-159.49 32.612c-20.048 23.805-0.737 23.934-0.737 23.934h324.17s20.274 2.7084 0.6129-22.178c-19.661-24.886-164.56-34.369-164.56-34.369z" stroke="#000" stroke-linecap="round" stroke-linejoin="bevel" stroke-width="5.2056"/><g transform="matrix(3.5264 0 0 3.5264 -165.23 -550.12)"><path id="a" d="m342.54 379.89l-3.3501 6.4502" fill="#502d16" fill-rule="evenodd" stroke="#000" stroke-width="1.0866px"/><use width="100%" height="100%" xlink:href="#a"/><use transform="matrix(1 0 0 1.1 5.0404 -38.665)" width="100%" height="100%" xlink:href="#a"/><use transform="matrix(1 0 0 1.2 10.081 -77.33)" width="100%" height="100%" xlink:href="#a"/><use transform="matrix(1 0 0 1.3 15.121 -116)" width="100%" height="100%" xlink:href="#a"/><use transform="matrix(1 0 0 1.4 20.161 -154.66)" width="100%" height="100%" xlink:href="#a"/><use transform="matrix(1 0 0 1.5 25.202 -193.33)" width="100%" height="100%" xlink:href="#a"/><use transform="matrix(1 0 0 1.6 30.242 -231.99)" width="100%" height="100%" xlink:href="#a"/><use transform="matrix(1 0 0 1.7 35.282 -270.66)" width="100%" height="100%" xlink:href="#a"/></g><path d="m1182.6 811.98v-36.884l1.1196 0.2278" fill-rule="evenodd" stroke="#000" stroke-width="3.4045px"/><g transform="matrix(-3.5264 0 0 3.5264 2532.7 -550.12)"><path d="m342.54 379.89l-3.3501 6.4502" fill-rule="evenodd" stroke="#000" stroke-width="1.0866px"/><use width="100%" height="100%" xlink:href="#a"/><use transform="matrix(1 0 0 1.1 5.0404 -38.665)" width="100%" height="100%" xlink:href="#a"/><use transform="matrix(1 0 0 1.2 10.081 -77.33)" width="100%" height="100%" xlink:href="#a"/><use transform="matrix(1 0 0 1.3 15.121 -116)" width="100%" height="100%" xlink:href="#a"/><use transform="matrix(1 0 0 1.4 20.161 -154.66)" width="100%" height="100%" xlink:href="#a"/><use transform="matrix(1 0 0 1.5 25.202 -193.33)" width="100%" height="100%" xlink:href="#a"/><use transform="matrix(1 0 0 1.6 30.242 -231.99)" width="100%" height="100%" xlink:href="#a"/><use transform="matrix(1 0 0 1.7 35.282 -270.66)" width="100%" height="100%" xlink:href="#a"/></g></g></g><g transform="matrix(.47367 0 0 -1.5067 -111.4 1739.8)" fill="#502d16"><g transform="translate(838.52 -169.91)" fill="#502d16"><path d="m1182.7 756.86s-139.44 8.8076-159.49 32.612c-20.048 23.805-0.737 23.934-0.737 23.934h324.17s20.274 2.7084 0.6129-22.178c-19.661-24.886-164.56-34.369-164.56-34.369z" stroke="#000" stroke-linecap="round" stroke-linejoin="bevel" stroke-width="5.2056"/><g transform="matrix(3.5264 0 0 3.5264 -165.23 -550.12)"><path d="m342.54 379.89l-3.3501 6.4502" fill-rule="evenodd" stroke="#000" stroke-width="1.0866px"/><use width="100%" height="100%" xlink:href="#a"/><use transform="matrix(1 0 0 1.1 5.0404 -38.665)" width="100%" height="100%" xlink:href="#a"/><use transform="matrix(1 0 0 1.2 10.081 -77.33)" width="100%" height="100%" xlink:href="#a"/><use transform="matrix(1 0 0 1.3 15.121 -116)" width="100%" height="100%" xlink:href="#a"/><use transform="matrix(1 0 0 1.4 20.161 -154.66)" width="100%" height="100%" xlink:href="#a"/><use transform="matrix(1 0 0 1.5 25.202 -193.33)" width="100%" height="100%" xlink:href="#a"/><use transform="matrix(1 0 0 1.6 30.242 -231.99)" width="100%" height="100%" xlink:href="#a"/><use transform="matrix(1 0 0 1.7 35.282 -270.66)" width="100%" height="100%" xlink:href="#a"/></g><path d="m1182.6 811.98v-36.884l1.1196 0.2278" fill-rule="evenodd" stroke="#000" stroke-width="3.4045px"/><g transform="matrix(-3.5264 0 0 3.5264 2532.7 -550.12)"><path d="m342.54 379.89l-3.3501 6.4502" fill-rule="evenodd" stroke="#000" stroke-width="1.0866px"/><use width="100%" height="100%" xlink:href="#a"/><use transform="matrix(1 0 0 1.1 5.0404 -38.665)" width="100%" height="100%" xlink:href="#a"/><use transform="matrix(1 0 0 1.2 10.081 -77.33)" width="100%" height="100%" xlink:href="#a"/><use transform="matrix(1 0 0 1.3 15.121 -116)" width="100%" height="100%" xlink:href="#a"/><use transform="matrix(1 0 0 1.4 20.161 -154.66)" width="100%" height="100%" xlink:href="#a"/><use transform="matrix(1 0 0 1.5 25.202 -193.33)" width="100%" height="100%" xlink:href="#a"/><use transform="matrix(1 0 0 1.6 30.242 -231.99)" width="100%" height="100%" xlink:href="#a"/><use transform="matrix(1 0 0 1.7 35.282 -270.66)" width="100%" height="100%" xlink:href="#a"/></g></g></g></g></svg>
