<?xml version="1.0" encoding="UTF-8"?>
<svg width="128" height="128" viewBox="0 0 128 128" xmlns="http://www.w3.org/2000/svg" xmlns:xlink="http://www.w3.org/1999/xlink">
 <defs>
  <filter id="w">
   <feGaussianBlur stdDeviation="1.62778"/>
  </filter>
  <linearGradient id="b">
   <stop stop-color="#1a1a1a" offset="0"/>
   <stop stop-color="#2b2b2b" offset="1"/>
  </linearGradient>
  <linearGradient id="a">
   <stop stop-color="#6a3c1d" offset="0"/>
   <stop stop-color="#8f5127" offset="1"/>
  </linearGradient>
  <linearGradient id="c">
   <stop stop-color="#b1b1b1" offset="0"/>
   <stop stop-color="#e4e4e4" offset="1"/>
  </linearGradient>
  <linearGradient id="p" x1="76.281" x2="81.038" y1="63.784" y2="67.027" gradientUnits="userSpaceOnUse">
   <stop stop-color="#007dff" offset="0"/>
   <stop stop-color="#58abff" offset="1"/>
  </linearGradient>
  <linearGradient id="m" x1="57.416" x2="86.903" y1="51" y2="19.844" gradientUnits="userSpaceOnUse">
   <stop stop-color="#4a585b" offset="0"/>
   <stop stop-color="#5e7074" offset="1"/>
  </linearGradient>
  <linearGradient id="e" x1="30.361" x2="31.245" y1="64.515" y2="66.194" gradientUnits="userSpaceOnUse">
   <stop stop-color="#c2a05c" offset="0"/>
   <stop stop-color="#d6be91" offset="1"/>
  </linearGradient>
  <linearGradient id="v" x1="50.27" x2="81.459" y1="86.414" y2="114.79" gradientUnits="userSpaceOnUse" xlink:href="#c"/>
  <linearGradient id="u" x1="52.96" x2="71.062" y1="78.954" y2="89.717" gradientUnits="userSpaceOnUse" xlink:href="#c"/>
  <linearGradient id="t" x1="48.557" x2="58.22" y1="84.824" y2="68.19" gradientUnits="userSpaceOnUse" xlink:href="#c"/>
  <linearGradient id="s" x1="60.788" x2="60.911" y1="70.698" y2="80.482" gradientUnits="userSpaceOnUse" xlink:href="#c"/>
  <linearGradient id="r" x1="74.976" x2="81.948" y1="68.924" y2="77.975" gradientUnits="userSpaceOnUse" xlink:href="#a"/>
  <linearGradient id="q" x2="0" y1="63.395" y2="70.919" gradientUnits="userSpaceOnUse" xlink:href="#a"/>
  <linearGradient id="o" x1="41.059" x2="45.288" gradientUnits="userSpaceOnUse" xlink:href="#a"/>
  <linearGradient id="n" x1="84.233" x2="88.683" gradientUnits="userSpaceOnUse" xlink:href="#a"/>
  <linearGradient id="l" x1="35.162" x2="49.293" y1="37.481" y2="47.94" gradientUnits="userSpaceOnUse" xlink:href="#a"/>
  <linearGradient id="k" x1="37.721" x2="38.834" y1="41.82" y2="46.494" gradientUnits="userSpaceOnUse" xlink:href="#a"/>
  <linearGradient id="j" x1="54.625" x2="55.625" y1="56.375" y2="61.25" gradientUnits="userSpaceOnUse" xlink:href="#b"/>
  <linearGradient id="i" x1="38.802" x2="45.255" y1="54.129" y2="66.371" gradientUnits="userSpaceOnUse" xlink:href="#b"/>
  <linearGradient id="h" x1="47.509" x2="49.144" y1="66.482" y2="60.781" gradientUnits="userSpaceOnUse" xlink:href="#b"/>
  <linearGradient id="g" x1="34.781" x2="35.355" y1="62.018" y2="63.653" gradientUnits="userSpaceOnUse" xlink:href="#b"/>
  <linearGradient id="f" x1="39.819" x2="42.338" y1="59.168" y2="63.322" gradientUnits="userSpaceOnUse" xlink:href="#a"/>
  <linearGradient id="d" x1="39.112" x2="40.924" y1="59.278" y2="61.112" gradientUnits="userSpaceOnUse" xlink:href="#b"/>
 </defs>
 <path d="m59.828 66.261-42.179 10.896 20.604 11.802c10.093-2.9444 20.139-5.9243 30.262-8.8466-10.06 2.9899-20.218 5.9082-30.239 8.9272l-20.433-11.607c-4.599 2.7495-3.6774 6.7432-7.223 9.7644-1.641 1.4172 0.70144 2.7369 3.4182 1.4572 4.193-0.45811 9.9753-2.1957 7.172-4.6832 0.93188 0.61154 2.3031 3.8949 1.3694 5.5563-1.3811 1.9879 0.7499 4.5104-2.4994 6.0651-2.6536 1.0966 0.64621 2.271 1.9982 0.7104 6.7075-0.56983 4.0266 3.7303 6.8947 5.3742 2.4217 2.2611 6.7918 3.2681 8.3342 5.7975 2.7371 2.7983 4.1785 3.7749 6.8431 6.5711 2.1181 1.8061 8.7761 2.8947 13.551 4.4734 11.647 0.70638 18.049-4.0324 26.262-7.7335 2.9466-1.0376 7.1867-2.51 5.3261-4.6446-2.786-3.9334 0.35343-4.8124-2.3682-8.7583 3.6112-3.2225-0.60517-7.6788-7.3392-9.5188-4.5611-2.2149-4.2883-5.4602-7.1245-8.0673-3.6131-1.3017 4.853-1.3158 5.7448-2.4224 4.6608-2.0418-3.5588-4.1056-6.3611-5.6223-4.0151-1.8251-7.9773-3.6774-12.014-5.4914zm-31.415 18.627c1.8827 0.51111 6.833 4.0972 2.1328 2.728-1.2051-0.82011-1.4689-1.8145-2.1328-2.728zm41.713-3.9308c0.94605 0.11581-0.51753 0.52759 0 0zm0.53556 1.3348c0.48787 0.53392-1.2299 0.6859 0 0zm-0.72279 1.5652c0.03713 3.1607-7.9243 2.5905-12.173 3.4365-6.3614 1.4372-11.869 3.5702-18.384 4.8769 10.162-2.7892 20.37-5.5427 30.556-8.3134zm-38.622 5.0508c1.3662 0.17171-0.35202 0.45244 0 0zm3.6033-0.16715 0.62073 0.33365-0.62073-0.33365zm-2.8317 0.68553c0.7742 0.4046 1.859 1.5022 0.51259 0.43958l-0.51259-0.43958zm3.5998 1.1708c1.5974 0.68902-0.2903 0.40654 0 0zm0.05304 2.2335 0.22905 0.38101-0.22905-0.38101zm49.093 0.00917c-0.72948 0.75104-1.3696 0.83814 0 0zm-4.6278 2.7914c-0.96465 0.60696-1.7293 0.48086 0 0zm-43.023 5.6225c2.3141-0.06894 8.6185 0.39571 2.7446 0.30399-0.92755-0.0378-1.863-0.12589-2.7446-0.30399zm10.988 0.27798c2.0525-0.27928 3.0143 0.1288 0 0zm35.133-2.3237c-5.8398 2.6964-13.782 4.0421-21.683 4.9415 7.6482-1.2169 15.477-2.4524 21.683-4.9415zm-42.376 5.7725c1.7207 0.02786 2.5055 0.25621 0 0zm8.1951 0.15588c1.4322-0.18654 2.3987 0.14559 0 0z" fill-opacity=".68493" fill-rule="evenodd" filter="url(#w)"/>
 <path d="m42.197 110.26-0.85617-25.441 5.7486 2.5685 6.7271 1.59 15.533 1.1008 10.029-1.4677 5.504-1.3454 7.2163-4.0362v1.59l-0.61155 26.174-6.6048 3.1801c-4.4291 2.7389-9.1984 3.4367-13.943 4.2809l-10.519-0.12231-9.7848-2.6908-5.8709-3.4247-2.5685-1.957z" fill="url(#v)" fill-rule="evenodd"/>
 <path d="m35.715 71.37 2.3239 3.1801 7.094 4.8924 10.029 2.5685 11.986 0.61155 9.1733-0.85617 8.4394-2.2016 5.9932-3.1801 2.3239-2.0793 2.3239-4.5255 0.36693 7.4609-2.8131 5.504-4.5255 2.6908-6.2378 2.4462-13.821 1.8347-11.375-0.36693-7.5832-1.2231-4.7701-1.8347-4.4032-1.957-3.4247-3.4247-1.3454-2.6908 0.24462-6.8494z" fill="url(#u)" fill-rule="evenodd"/>
 <path d="m35.837 67.456v2.6908l1.59 4.2809 4.8924 3.547 10.763 3.547 8.8064 1.1008 5.137 0.12231 8.8064-0.85617 5.8709-1.2231 7.5832-3.3024 4.5255-3.6693 1.4677-3.1801-2.8131-6.3601-1.59-1.2231c-4.1319-0.75126-5.1926-3.998-8.8686-4.9619-3.5779-0.93817-8.7913-1.8402-15.349 0.55877l-16.634 3.9139-14.188 5.0147z" fill="url(#t)" fill-rule="evenodd"/>
 <path d="m46.478 70.025 2.0793-4.2809 3.6693-2.2016 6.3601-1.1008 7.8279-0.61155-0.12231 2.6908 2.4462 11.864h-5.7486l-7.5832-0.97848-5.504-1.7123-3.1801-1.8346-0.24462-1.8347z" fill="url(#s)" fill-rule="evenodd"/>
 <path d="m42.197 110.26-0.85617-25.441 5.7486 2.5685 6.7271 1.59 15.533 1.1008 10.029-1.4677 5.504-1.3454 7.2163-4.0362v1.59l-0.61155 26.174-6.6048 3.1801c-4.6478 2.6565-9.2956 3.9045-13.943 4.2809l-10.519-0.12231-9.7848-2.6908-5.8709-3.4247-2.5685-1.957z" fill-opacity=".15686" fill-rule="evenodd"/>
 <path d="m35.715 71.37 2.3239 3.1801 7.094 4.8924 10.029 2.5685 11.986 0.61155 9.1733-0.85617 8.4394-2.2016 5.9932-3.1801 2.3239-2.0793 2.3239-4.5255 0.36693 7.4609-2.8131 5.504-4.5255 2.6908-6.2378 2.4462-13.821 1.8347-11.375-0.36693-7.5832-1.2231-4.7701-1.8347-4.4032-1.957-3.4247-3.4247-1.3454-2.6908 0.24462-6.8494z" fill-opacity=".15686" fill-rule="evenodd"/>
 <path d="m46.478 70.025 2.0793-4.2809 3.6693-2.2016 6.3601-1.1008 7.8279-0.61155-0.12231 2.6908 2.4462 11.864h-5.7486l-7.5832-0.97848-5.504-1.7123-3.1801-1.8346-0.24462-1.8347z" fill-opacity=".15686" fill-rule="evenodd"/>
 <path d="m68.861 78.464-2.8131-13.943 2.0793 1.2231 3.7916 1.1008 3.0578 0.12231 5.8709-0.24462 1.957-0.61155 3.4247-1.4677-1.7123 13.21-2.0793 0.85617-6.6048 1.7123-4.1586-0.85617-2.8131-1.1008z" fill="url(#r)" fill-rule="evenodd"/>
 <path d="m66.681 62.789 4.5838-2.1622 3.9784-0.95135 3.4595 0.17297 5.3622 1.2973 2.4216 1.9027 0.07088 0.85675-2.9249 1.9973-2.854 0.69189-5.0162 0.51892-6.6595-0.95135-2.5946-1.3838-0.08649-1.1243 0.25946-0.86487z" fill="url(#q)" fill-rule="evenodd"/>
 <path d="m68.497 65.643 1.3838-0.95135 3.027-1.4703 3.027-0.77838 2.7676 0.25946 1.6432 0.25946 1.9027 0.43243 3.2 1.4703c-1.737 1.0977-3.4692 2.2067-5.8811 1.7297l-4.8432 0.43243-3.6246-0.32253-2.6024-1.0613z" fill="url(#p)" fill-rule="evenodd"/>
 <path d="m66.09189,68.04521 4.64217,1.10153 7.396.23604 4.72085-.78681 3.54064-.94417 .23604.86549-.31472,1.18021-3.54064.94417-5.90106.86549-7.396-.47208-3.06855-.78681-.62945-.3934-.31472-.94417 .62945-.86549z" fill="#1a1a1a" fill-rule="evenodd"/>
 <path d="m67.429 74.812 3.0686 0.94417 3.2259 0.31472 3.3833-0.07868 2.9899-0.3934 4.0914-0.86549h1.1802l-0.07868 1.4949-1.4949 0.47208-3.6193 0.78681-2.2817 0.31472h-4.4061l-3.3833-0.55077-2.2817-0.55076-0.3934-1.8883z" fill="#1a1a1a" fill-rule="evenodd"/>
 <path d="m39.39 74.256 0.89017-43.507 5.8974 13.909 0.22254 29.821-1.7803 0.44509-2.0029 0.44509-2.2254-0.44509-1.0014-0.66763z" fill="url(#o)" fill-rule="evenodd"/>
 <path d="m83.009 60.347 0.33382-5.6748 1.6691-0.55636 1.7803-2.448 0.66763-2.7818-1.1127-2.448 3.8945-0.89017v18.582l-1.7633 0.98444-2.7538 0.12827 0.70074-1.3021-0.74578-1.8135-2.2254-1.224-0.44509-0.55636z" fill="url(#n)" fill-rule="evenodd"/>
 <path d="m52.631 55.674-11.35-27.039 46.066-10.126 13.686 23.923-48.403 13.241z" fill="url(#m)" fill-rule="evenodd"/>
 <path d="m25.37 50.221 14.688-21.03h1.224l11.35 26.705-2.1142 0.72326-10.014-25.314-12.907 18.582-2.2254 0.33382z" fill="url(#l)" fill-rule="evenodd"/>
 <path d="m27.818 49.554 12.574-18.36-0.66763 16.468-11.906 1.8916z" fill="url(#k)" fill-rule="evenodd"/>
 <path d="m27.818 49.554 12.574-18.36-0.66763 16.468-11.906 1.8916z" fill-opacity=".15686" fill-rule="evenodd"/>
 <path d="m25.37 50.221 14.688-21.03h1.224l11.35 26.705-2.0029 0.55636-10.126-25.147-12.907 18.582-2.2254 0.33382z" fill-opacity=".15686" fill-rule="evenodd"/>
 <path d="m86.84 46.358 0.36693 1.2231 0.18347 2.6908-2.0793 3.547-35.837 8.6229-0.06116-3.4247-1.162-4.8313 1.3454 0.06116 0.91733 2.4462 2.5685-1.0396 32.045-8.8064 1.7123-0.48924z" fill="url(#j)" fill-rule="evenodd"/>
 <path d="m40.261 50.174 1.4584-0.04419 2.6958 1.5026 2.1655 3.3146 0.57453 2.1213 0.7513 4.0217-0.35355 3.6239-1.8562 4.331-3.0052 2.1655-1.4142 0.53033s-1.5468-0.22097-1.9445-0.39775-3.9333-5.5685-3.9333-5.5685l-0.53033-5.0823s0.39775-3.8891 0.53033-4.3752 1.9887-3.8449 1.9887-3.8449l2.8726-2.2981z" fill="url(#i)" fill-rule="evenodd"/>
 <path d="m40.747 49.953 1.5468-0.04419 2.0771 0.53033 1.9004 1.2816 1.9004 2.5633 0.88388 2.6075 0.44194 4.2426-0.66291 4.4636-1.9004 3.2704s-1.0165 1.4142-1.1932 1.5468-1.2816 0.61872-1.2816 0.61872l-1.149 0.44194-1.812 0.17678s0.7513-0.39775 1.3258-0.57452 2.2097-1.6794 2.2097-1.6794l1.8562-3.0936 0.88388-2.6516v-2.3423l-0.35355-3.7123-1.149-3.6681-1.591-2.1213-1.7236-1.1048-1.7236-0.53033-0.48614-0.22097z" fill="url(#h)" fill-rule="evenodd"/>
 <path d="m32.483 63.079 4.331-1.9445 1.7678-1.0607 0.7513 2.2539s-1.5026 0.17678-1.9445 0.44194-3.1378 1.812-3.1378 1.812l-1.0165 0.7513 0.04419-1.2816-0.7955-0.97227z" fill="url(#g)" fill-rule="evenodd"/>
 <path d="m38.272 62.814 0.7513 1.812 1.37 0.97227 1.0165 0.22097 0.7513-0.30936 0.66291-0.83969 0.70711-2.3865-0.08839-3.1378-0.83969-1.8562-1.6352-1.0607h-1.0165l-1.37 0.7955-0.66291 1.2816-0.22097 2.2539 1.2816-0.57453 0.13258 2.3423-0.83969 0.48613z" fill="url(#f)" fill-rule="evenodd"/>
 <path d="m28.505 64.67 3.8891-1.37 1.0165 0.61872-0.35355 1.5468-3.2262 2.1213-1.0607-1.37-0.26516-1.5468z" fill="url(#e)" fill-rule="evenodd"/>
 <path d="m28.50524,64.71394 1.41421.44194 .22097.44194 .22097,1.14905-.39775.7513-1.14905-1.41421-.35355-.88388 .04419-.48614z" fill-opacity=".15686" fill-rule="evenodd"/>
 <path d="m40.703 56.361 1.1932 1.6352 0.83969 1.4584 0.22097 0.7955-0.13258 2.3865-1.6352 2.4307-0.53033 0.61872 1.0165 0.04419 0.88388-0.70711 0.7513-1.812 0.13258-1.9887 0.08839-1.37-0.70711-2.0771-0.7513-0.97227-1.37-0.44194z" fill-opacity=".15686" fill-rule="evenodd"/>
 <path d="m39.11184,59.63161 .22097,2.69584 1.28163-.30936 1.01647-.7513 .22097-.88388-.70711-1.10485-1.14905.04419-.88388.30936z" fill="url(#d)" fill-rule="evenodd"/>
 <path d="m87.25,18.125-47.5,10.6875-14.875,21.6875 14.71875-2.4375-.03125,2.0625c-3.88185,2.17524-4.83285,6.66374-5.03125,10.8125 0,.3727.03281.73245.0625,1.09375-.81572.36627-1.63632.695-2.46875,1.03125l-3.875,1.5625c-.40375,1.36977 1.04593,2.28926 1.5625,3.25l3.53125-2.21875c.03399-.12243.06644-.22942.09375-.34375 .48022-.30255.95558-.60574 1.4375-.875 .20174.99267.48602,1.92831.84375,2.78125-.6837,1.3324-.61521,2.67977-.40625,4.09375-.01458,1.87863.19972,3.77448 0,5.90625 .13507,3.72579 2.97878,6.00718 5.84375,7.875l1.03125,25.5c9.11915,7.0427 17.39237,8.80034 28.59375,8.125 9.24894-1.15571 16.01434-4.65902 21.0625-7.46875l.5625-27.875c1.9786-1.55232 3.17224-3.65129 3.40625-6.15625-.0174-2.48275-.13645-4.966-.1875-7.4375-.11437-3.46681-2.6737-5.7087-5.3125-7.53125l-.125-16.5625 11.40625-3.1875-14.34375-24.375zm-.3125.9375 13.65625,23.03125-47.9375,13.40625-10.4375-26.21875 44.71875-10.21875zm-11.0625,3.5-.28125.0625 1.28125,2.15625-2.9375.625-.03125.28125 3.09375-.71875 2.125,3.59375 .21875.03125-2.125-3.6875 8.09375-1.875h-.15625l-8.03125,1.6875-1.25-2.15625zm-11.96875,3.71875-.46875.09375c.10295.22305.7694,1.5925 1.15625,2.40625l-18.59375,4.375-1.21875-3.03125-.4375-.125 1.3125,3.21875-.78125.1875 .21875.25 .65625-.15625 7.78125,19.21875h.375l-7.78125-19.3125 18.59375-4.34375c.95874,2.01536 1.54217,3.22888 2.6875,5.625l-5.46875,1.28125 .21875.25 5.375-1.28125c.84521,1.7681 2.03125,4.28125 2.03125,4.28125l.34375.0625c0,0-1.17761-2.5582-2.03125-4.40625l19.34375-4.5625 4.90625,9.21875-6.21875,1.8125 .3125.1875 6.0625-1.71875 .96875,1.8125 .25.03125-1-1.90625 3.34375-.96875-.1875-.25-3.28125.9375-4.84375-9.21875 4.34375-1.03125-.25-.1875-4.21875,1-1.8125-3.46875-.375.03125 1.875,3.5-19.34375,4.53125c-1.12601-2.43773-1.67038-3.65702-2.59375-5.65625l3.46875-.8125-.25-.25-3.34375.78125c-.37083-.80292-1.03003-2.20048-1.125-2.40625zm-23.71875,3.1875 1.03125.03125 10.875,26.40625-1.28125.5-10.09375-26.15625c-.3777-.15578-.13371.1623-.46875-.09375l-12.96875,19.40625-1.375.40625 14.28125-20.5zm.25,2.21875 5.28125,12.625-.1875,6.625c-1.36601-.91789-3.08-1.35389-5.15625-1.0625l.0625.0625c-.08138-.00019-.1703-.03524-.25-.03125l.25-18.21875zm-.53125.65625-.28125,14.65625-11.25,2.25 11.53125-16.90625zm45.8125,2.25-10.28125,2.46875-.84375-1.90625-.375-.03125 .90625,2.03125-1.59375.375 .3125.1875 1.375-.34375 2.65625,5.875-16.46875,4.03125-4.84375-11.96875-.375-.09375 5,12.125-3.375.8125 .375.0625 3.0625-.75 1.3125,3.21875 .28125.09375-1.375-3.375 16.46875-4 1.40625,3.125 .25.03125-1.40625-3.21875 3.15625-.78125-.15625-.125-3.0625.75-2.59375-5.875 10.25-2.53125-.0625-.1875zm-47.4375,3.875-4.34375,7.0625-2-.03125-.4375.40625 2.25-.03125-.40625.625 .34375.21875 .5-.875 3.9375-.0625-.15625.375 .03125.09375 .21875-.46875h.75l.25-.21875h-.875l.78125-1.59375-.25-.125-.65625,1.71875-3.84375-.03125 3.96875-7.03125-.0625-.03125zm51.15625,7.3125 .40625,18.0625c-1.1378.9572-2.51985,1.30532-3.25,1.25 .53033-1.59522-.20949-2.51395-1.21875-3.59375-.25137-.88945-.8512-1.74191-1.65625-2.5l.03125-4.15625 1.75-.4375c1.97864-2.42188 2.68253-4.94949 1.65625-7.875l2.28125-.75zm-43.125.625 2.9375,7.53125-1,.21875c-.49296-.97885-1.11888-1.83279-1.875-2.53125l-.0625-5.21875zm40.1875.40625c1.3286,2.42875.08387,4.85523-1.46875,6.6875l-2.53125.625-.84375-6.0625 4.84375-1.25zm-5.46875,1.5625 .9375,5.78125-3.25.84375-1.40625-5.78125 3.71875-.84375zm-4.25,1.0625 1.46875,5.6875-2.65625.875-1.28125-5.875 2.46875-.6875zm-35.0625.65625c10.32006-.00338 8.96979,21.19323.65625,21.4375 2.36955-.72159 4.34809-2.75587 5.3125-6.40625 .7983-3.00981.27908-6.35106-.5625-9.65625-.77265-2.9885-3.16792-4.83721-5.40625-5.375zm-.4375.1875c1.53329-1e-005 3.03073,1.47352 4.125,3.3125s2.25,4.72392 2.25,7.59375c-.14669,4.30899-1.71441,9.0965-6.28125,10.34375-3.54996-.69945-5.04192-4.10439-5.71875-7.5 .74997-.38938 1.4993-.74742 2.28125-1.0625 .66822,2.08993 1.39331,2.67412 2.78125,2.875 1.86549.40762 2.48075-1.32226 3-4.71875 .11775-3.24611-1.69002-5.45912-3.90625-5.09375v.03125h-.0625c-.91985.46055-1.48611.94961-2.03125,1.78125-.30792.64811-.31673,1.77582-.1875,2.65625-.72668.4461-1.48456.85501-2.25,1.21875-.03286-.32855-.06907-.6613-.09375-.96875 .05921-4.38506 1.53615-9.23934 6.09375-10.46875zm32.53125,0 .96875,5.6875-1.90625.46875-1.3125-5.53125 2.25-.625zm-2.875.875 1.375,5.59375-2.625.5625-1.15625-5.5625 2.40625-.59375zm-2.90625.875 1.03125,5.4375-2.6875.53125-.90625-5.40625 2.5625-.5625zm-3.1875.84375 1.125,5.34375-1.8125.3125-1.71875-5.09375 2.40625-.5625zm-2.8125.5 1.46875,5.5-2.4375.40625-.40625-5.34375 1.375-.5625zm-1.875.71875 .28125,5.4375-2.15625.40625-.75-5.125 2.625-.71875zm-10.53125.78125 .75,1.9375 2.71875-.75 .25,5.09375-1.71875.40625-2.625-6.53125 .625-.15625zm33.125.1875-.03125,3.125c-.57573-.38684-1.19968-.71407-1.875-.9375-1.20546-.39884-2.56472-.65776-3.9375-.78125l5.84375-1.40625zm-25.84375.0625 .75,4.875-3.65625,1.09375-.375-5.125 3.28125-.84375zm-17,1.28125c1.35166.02312 2.41476,2.40645 2.875,4.0625 .2737,1.94113-.75264,3.71002-2.21875,4.875-1.32355-.20689-1.58046-1.4646-2.03125-2.59375l.65625-.25 1.90625-.40625c1.17302-.99188.85027-1.49966.75-2.15625-.44792-.96462-.89583-.66974-1.34375-1l-1.4375.5c-.31696.2426-.63948.46951-.96875.6875-.11594-.66159-.075-1.32578.15625-1.8125 .22881-.48158.50628-1.53075 1.65625-1.90625zm1.1875.125c1.55274.48695 2.24845,2.26114 2.34375,4.28125-.20613,2.25493-.46954,4.70784-2.34375,4.75 1.63486-1.2297 1.95723-2.90406 2-5.125-.22844-1.17501-.83917-3.04157-2-3.90625zm34.90625.5c.83933-.03619 2.19818.16618 4.875.65625 .61926.11337 1.85845.65231 1.9375,1.53125-1.7432-.48173-5.97697-1.5544-7.9375-1.875 .30833-.18363.6214-.29079 1.125-.3125zm-26.625.4375 1.6875,4.25-1.4375.34375c.11519-1.53576.04582-3.11103-.25-4.59375zm21.5625.375c.14835-.01356.27735-.00743.40625,0 4.20828.36302 8.04564,1.12207 11.375,2.15625v.4375c-1.7898-.49988-4.01681-.8125-6.46875-.8125-3.07294-.00176-6.95409.96665-9.71875,2.34375 .03638-.70064.53745-2.1163.96875-2.625 .93902-.80603 2.39909-1.40506 3.4375-1.5zm-3.53125.9375c-.93758.67924-1.33884,2.35154-1.625,2.84375-4.14133,0-7.97862.4496-11.21875,1.21875l-.625-1.03125 13.46875-3.03125zm-26.9375.53125c1.38944.46947 1.80896,1.56132.0625,2.375l-.9375.1875-.21875-2.0625 1.09375-.5zm43.25.125c.26632.27843 1.09018,1.62231 1.25,1.90625-.20017-.08733-1.02844-.51394-1.25-.59375v-1.3125zm-7.5.625c3.10055.26188 8.48578.6963 10.28125,3.53125-.26275.41468-.62601.75215-1.03125,1.0625-2.96821-1.32945-6.10014-2.41055-8.875-2.28125-2.78742.12989-5.65282,1.43205-8.1875,3.15625-.04002-.01544-.08506-.01552-.125-.03125-1.1122-.24712-1.81123-1.5524-1.34375-2.5625 2.60479-1.66523 6.27111-2.79662 9.28125-2.875zm-37.78125.40625 .1875,1.65625c-2.08555.72927-3.50163,1.80967-5.125,2.84375 .10227-.62487.00769-1.14099-.59375-1.6875 2.08759-.83937 4.04607-1.21306 5.53125-2.8125zm15.375,1.375 .59375,1.03125c-1.10322.267-2.15067.56625-3.09375.90625-.76569.27604-1.43498.58156-2.0625.90625 .14863-.62209.23658-1.25481.3125-1.90625l4.25-.9375zm12.25.34375-.5625,1.65625 .75,3.75c-.97674.45432-1.00974,1.29806-.71875,1.96875l-.0625-.09375c-2.22438-.17261-3.69525-.11782-5.4375.03125-1.94726.16661-3.60171.52967-4.96875,1l-.28125-7.25c3.6844-.8261 7.54599-.96175 11.28125-1.0625zm10.5625.5c2.81375-.08711 5.72253.68609 8.5,2.25-2.41219,1.54926-6.50652,1.73946-9,1.96875-2.5836-.02186-5.11026-.39529-7.5-1.28125 2.42414-1.88238 5.15456-2.84941 8-2.9375zm-22.125.65625 .3125,7.25c-2.0987.76686-3.49899,1.81539-4.25,2.96875-1.23528-.52544-2.23888-1.09699-2.96875-1.71875-.34286-.29207-.59457-.60506-.8125-.90625-.12462-.34911-.18575-.69391-.21875-1.03125 1.06475-1.07289 1.85092-2.5524 2.375-4.21875 .72283-.56492 1.57682-1.12211 2.625-1.5 .95747-.34669 1.94626-.6112 2.9375-.84375zm35.8125.09375c2.40285,1.51454 3.79448,3.58738 4.3125,6.34375 0,1.2679-.49002,2.504-1.40625,3.6875l-6.96875-3.75c.95108-.49137.31533-2.78683-.03125-2.21875l.28125-1.84375c2.82176-.0794 3.68552-.89818 3.8125-2.21875zm-57.875.09375c.83599.43854.40473,1.00999.53125,1.625-2.15826,1.56821-2.22414,1.60248-2.59375,1.84375-.09348.06102-.12978.0946-.3125.21875-.82486-.61153-1.33848-1.53981-1.4375-2.40625l3.8125-1.28125zm-2.0625,3.46875c.60796-.66617.22986-2.28585-1-1.96875h-.0625c.49077.16872 1.13174,1.18919.84375,1.90625l.21875.0625zm36.4375-1.75c.56612.43021 1.28915.79056 2.1875,1.09375 1.8881.63724 4.44021,1.03125 7.25,1.03125 3.22045.01235 6.44979-.43732 9.28125-2l-.375,2.34375c-.46725.09091-1.75093.51167-2.21875.59375l.125-.875-.28125-.03125-.0625.90625c-1.15334.18472-2.54209.41628-3.6875.53125l-.0625-.625h-.1875l-.03125.625c-1.12174.09002-2.71264.24731-3.8125.25-.02116-.27908.09987-.8881.0625-1.0625h-.25c.01314.0613-.08212.90183-.0625,1.09375-1.16216-.02867-3.06667-.25536-4.1875-.40625l-.125-1.0625-.3125-.03125 .15625,1.09375c-.71821-.12538-2.18056-.59539-2.875-.78125l-.53125-2.6875zm19.5625,2.6875c.03382.38384.25146.85454-.28125,1.375-6.68108,2.81754-13.05215,2.05118-19.59375.8125-1.27457-.55464-.74736-1.58452-.3125-1.9375 5.34053,2.60683 16.39221,1.26572 20.1875-.25zm-50.0625.53125c.73372,1.46925 1.57032,2.11771 2.90625,2.96875l-.125,3.09375c.50901.21008.87574.44975 1.25.65625h-1.09375c-1.89992-1.66852-3.16619-3.83662-2.9375-6.71875zm26.3125,1.1875c.55309-.00374 1.12861.00657 1.71875.03125l.03125,6.40625c-4.93426-.12604-9.37726-.89164-12.625-2.0625-.38065-.13723-.74642-.29169-1.09375-.4375h.0625c1.09844-1.77509 5.09466-3.89143 11.90625-3.9375zm1.96875.0625 1.0625.0625c.3408.58997.89731.97687 1.1875.6875l.84375,4.34375c-.25179.18737-.55671.09922-.15625,1.1875-.33187.00846-1.41151.125-1.75.125-.41248,0-.81252-.02226-1.21875-.03125l.03125-6.375zm21.1875.125 7.28125,3.8125c-.19619.23925-.39233.48381-.625.71875-4.45807,3.96497-10.20787,5.99578-16.125,7.0625l-.875-.9375c3.50969.11139 6.77183-.78131 9-2.46875l.15625-.125 .03125-.21875 .1875-1.28125c.80733.37817 1.10929-2.2473.25-1.9375l.71875-4.625zm-39.6875.5v3.96875c-1.8383.47496-4.0738,1.84545-6.34375-.15625l-.03125-2.34375c.69724.046 1.3714.01095 2.03125-.125 1.71509.16 3.16902-.36031 4.34375-1.34375zm38.59375.46875-.59375,3.75-1.40625.28125 .28125-3.625c.41448-.09475 1.30277-.30308 1.71875-.40625zm-2.09375.5-.25,3.5625c-.98372.16888-2.29709.39703-3.21875.5l-.09375-3.4375c1.04596-.14941 2.5019-.40173 3.5625-.625zm12.5625.03125c-.10531,1.41745-.05069,4.42012.1875,5.6875-.23915,1.01649-.59772,1.93002-1.0625,2.78125l-.4375-5.75c.51598-.96155 1.03696-2.22672 1.3125-2.71875zm-27.09375.0625c.61773.18415 1.74332.31424 2.375.4375l.4375,3.625c-.5542-.12101-1.65084-.46096-2.21875-.625l-.59375-3.4375zm2.65625.46875c1.01683.14722 2.76635.32781 3.8125.34375 .01559,1.08387.0182,2.54198.0625,3.625-.91806-.05366-2.54377-.08841-3.46875-.25l-.40625-3.71875zm8.03125.0625 .09375,3.46875c-1.05238.08876-2.92342.52086-3.9375.5-.02199-1.08333-.10089-2.57296-.125-3.65625 1.0506-.02178 2.89588-.18657 3.96875-.3125zm-32.125.34375c.07422.07216.13988.15156.21875.21875 1.0899.92846 2.59908,1.73221 4.46875,2.40625 2.22788.80318 4.95031,1.41811 7.96875,1.78125l-3.96875,4.84375 .03125.03125c-4.10532-.78462-7.79232-1.9594-10.8125-3.25-1.73056-.73504-3.44883-1.63315-4.875-2.78125l1.6875.0625c.96517.27937 2.30246.20066 5.3125-.875l-.03125-2.4375zm-10.4375,1.0625c.58327.895 1.28152,1.65693 2.0625,2.34375l-.34375,5.40625c-.74797-1.12436-1.31574-2.39575-1.59375-3.875 .13084-1.26288-.00114-2.58889-.125-3.875zm57.375,1.21875 .5,5.65625c-3.13531,5.20981-10.32412,7.31151-17.28125,8.28125l-.25-6.40625c6.10729-.93358 12.05107-2.84648 16.625-7 .12213-.12332.26779-.30673.40625-.53125zm-8.5625.1875c.60482.09629.30788.92634 0,1.4375-6.51725,1.82224-12.26719,2.20435-17.25.0625l-.21875-1.0625c5.92853,2.19149 11.44395,1.03754 17.46875-.4375zm-46.4375,1.21875c1.65544,1.36902 3.64074,2.38148 5.59375,3.28125 3.09172,1.32117 6.84398,2.32657 11,2.96875l-.1875,6.375c-6.56207-.79804-13.43397-2.54576-16.78125-7.09375l.375-5.53125zm20.96875.75c1.97447.22716 4.07012.34375 6.25.34375 .44218,0 1.53562-.05173 1.96875-.0625 .22261.35669.13146.14894.53125.28125l.21875,1.4375 .0625.28125 .25.09375c1.9936.7988 4.04147,1.24867 6.03125,1.375l1.28125,1c-3.64216.64337-7.34351.94115-10.84375,1.0625-3.38897,0-6.61406-.34914-9.625-.90625l3.875-4.90625zm24.15625.34375 .09375.40625c-3.19221,2.32112-9.10275,3.03539-14.40625,1l-.09375-1.0625c1.68932.41615 3.82502.81627 5.4375.84375 .00511.08795-.03125.625-.03125.625l.3125.09375c0,0-.03039-.75325-.03125-.78125 2.71178-.06549 5.69326-.29956 8.71875-1.125zm-7.375,5.0625 .03125,6.46875c-3.95466.52468-7.81065.68801-10.78125.84375-2.7828-.22902-6.48057-.36065-10.3125-.8125l.3125-6.34375c3.08069.45441 6.37022.71875 9.8125.71875 3.5336-.12914 7.25977-.32709 10.9375-.875zm15.78125,1.28125-.25,8.9375c-2.34211,1.10767-4.68716,2.03846-7.03125,2.8125l-.90625-7.5c2.87505-1.03663 5.63752-2.41339 8.1875-4.25zm-50.375,2.0625c2.08311,1.08474 4.2565,1.90001 6.46875,2.5625l-.28125,6.75c-2.0009-.66578-3.99808-1.39475-5.96875-2.25l-.21875-7.0625zm41.875,2.3125 .90625,7.46875c-5.74964,1.86341-11.49412,2.73301-17.1875,2.75v-7.625c5.55567-.12984 11.11576-.78346 16.28125-2.59375zm-35.09375.34375c5.51059,1.60395 11.32043,2.1167 17.0625,2.3125 .47977-.0015.95722-.02184 1.4375-.03125l-.0625,7.625c-6.32598-.02324-12.588-1.14852-18.71875-3.15625l.28125-6.75zm43.34375,4.46875-.3125,11.34375c-4.82454,2.03544-9.6651,3.65525-14.5,4.65625l-.53125-11.03125c5.06765-.89854 10.18574-2.5348 15.34375-4.96875zm-49.90625.28125c4.3181,1.8775 8.67576,3.31517 13.0625,4.25l-.0625,11.0625c-4.26182-1.17805-8.49117-3.05787-12.6875-5.8125l-.3125-9.5zm13.4375,4.3125c6.85747,1.41652 13.78435,1.64235 20.8125.4375l.53125,11.03125c-7.18113,1.44737-14.36922,1.52753-21.46875-.375l.125-11.09375zm-13.125,5.375c1.80522,1.18667 3.60566,2.20992 5.40625,3.09375l-.03125,7.875c-1.6849-.94615-3.3928-2.02505-5.125-3.3125l-.25-7.65625zm49.28125,1.59375-.1875,6.5c-1.59259.88125-3.37669,1.82643-5.3125,2.75l-.5-6.96875c1.99001-.69124 3.9978-1.43581 6-2.28125zm-43.5,1.6875c6.04891,2.9009 12.08159,4.15676 18.125,4.1875l.0625,8.28125c-5.88968.10394-11.92915-1.09681-18.28125-4.59375l.09375-7.875zm37.25.6875 .5,7c-4.09418,1.93181-8.9748,3.72367-14.9375,4.46875-1.41028.17622-2.8249.27405-4.25.3125l-.0625-8.28125c6.22285-.02085 12.45631-1.33586 18.75-3.5z"/>
</svg>
