<?xml version="1.0" encoding="UTF-8"?>
<svg viewBox="0 0 379.0618 734.40118" xmlns="http://www.w3.org/2000/svg">
 <g transform="translate(1079.5 281.98)" stroke="#000">
  <path d="m-941.33 263.96h34.345v60.609h-34.345z" fill="#f95" fill-rule="evenodd" stroke-linecap="round" stroke-width="7.2"/>
  <path d="m-843.35 263.96h34.345v60.609h-34.345z" fill="#f95" fill-rule="evenodd" stroke-linecap="round" stroke-width="7.2"/>
  <path d="m-749.97 418.68-98.444-33.92-4.0008 17.87c13.753 34.95 62.654 48.826 104 38.151 14.284-6.6942 4.0716-14.502-1.5514-22.101z" fill="#520" fill-rule="evenodd" stroke-linecap="round" stroke-width="7.2"/>
  <path transform="matrix(-1 0 0 1 -906.61 -145.42)" d="m-88.256 557.89c0 9.7631-15.52 17.678-34.664 17.678s-34.664-7.9146-34.664-17.678 15.52-17.678 34.664-17.678 34.664 7.9146 34.664 17.678z" fill="#f95" fill-rule="evenodd" stroke-linecap="round" stroke-width="7.2"/>
  <path d="m-807.65 307.87c3.6697 23.352-0.89422 37.272-4.7235 52.798 8.6622 14.902 49.786 31.016 50.758 38.223-35.379-2.0801-43.18-4.5455-54.872 18.045l-32.294-25.091 2.674-84.985 38.457 1.0102z" fill="#a40" fill-rule="evenodd" stroke-linecap="round" stroke-width="7.2"/>
  <path d="m-763.4 425.09c-4.0988-13.392-13.423-13.722-13.344-13.877" fill="none" stroke-width="7.2"/>
  <path d="m-780.23 428.35c-3.2946-14.245-13.344-13.877-13.344-13.877" fill="none" stroke-width="7.2"/>
  <path transform="translate(-1103 -136.35)" d="m119.2 213.68c0 12.692-13.455 22.981-30.052 22.981s-30.052-10.289-30.052-22.981 13.455-22.981 30.052-22.981 30.052 10.289 30.052 22.981z" fill="#f95" fill-rule="evenodd" stroke-linecap="round" stroke-width="7.2"/>
  <path transform="matrix(.99414,-.10813,.10813,.99414,0,0)" d="m-1026.2-298.94h16.362v609.33h-16.362z" fill="#a40" fill-rule="evenodd" stroke-linecap="round" stroke-width="7.2"/>
  <g transform="translate(-1248.8 -197.17)" fill="#e6e6e6" stroke-width="7.2">
   <path d="m202.98 3.4402c9.3731-9.8783 22.151-19.92 25.676-32.761-4.6098-14.451-24.318-40.626-37.379-50.862-11.383 12.619-15.992 40.009-18.443 54.978 5.3611 12.189 19.431 20.241 30.146 28.645z" fill-rule="evenodd" stroke-linecap="round"/>
   <path d="m190.36-81.209c7.9842 27.462 13.755 54.432 13.214 80"/>
  </g>
  <path d="m-1057.3-197.68c8.0244-3.4294 13.269-2.8341 23.208-1.0946l1.4272 12.195c-6.7278 2.4645-13.543 4.7478-23.208 1.0945l-1.4272-12.195z" fill="#a40" fill-rule="evenodd" stroke-linecap="round" stroke-width="7.2"/>
  <path d="m-1011.2 29.661c-8.1441 0.38135-19.092 2.3329-21.906 11.156-0.9803 8.7392 12.464 6.458 19.468 7.4703 9.9851 1.2474 15.757 24.754 21.898 15.65 3.6508-7.578-1.3169-31.686-7.7094-32.964-3.8338-0.99677-7.7828-1.4539-11.75-1.3125z" fill="#f95" fill-rule="evenodd" stroke-linecap="round" stroke-width="7.2"/>
  <path d="m-991.09 86.247c9.697 7.368 10.408 2.816 23.52-4.6647l-24.42-38.763c-10.1 12.084-3.1615 28.087 0.89937 43.427z" fill="#fff" fill-rule="evenodd" stroke-linecap="round" stroke-width="7.2"/>
  <path d="m-991.46 43.505c4.3094-11.391 14.399-17.001 29.482-17.618 10.639 11.786 24.414 22.945 22.282 37.286-6.031 15.364-18.327 15.065-29.482 17.618-14.973-4.8833-17.584-22.128-22.282-37.286z" fill="#fff" fill-rule="evenodd" stroke-linecap="round" stroke-width="7.2"/>
  <path d="m-900.93-33.03h60.609v24.244h-60.609z" fill="#fff" stroke-linecap="round" stroke-width="7.2"/>
  <path d="m-955.48 114.45h157.58c14.474 50.316 11.752 100.42 16 145.46-47.14 18.856-131.67 18.856-189.58 0 2.9049-29.346 1.3763-91.068 16-145.46z" fill="#fff" fill-rule="evenodd" stroke-linecap="round" stroke-width="7.2"/>
  <g transform="translate(-1147.4 -226.76)" fill="#ccc" fill-rule="evenodd" stroke-linecap="round" stroke-width="7.2">
   <path d="m202.03 214.36h143.44c11.607 37.382 9.9151 113.44 0 145.44l-70.711 58.589-72.731-58.589c-18.844-26.943-6.8523-108.22 0-145.44z"/>
   <path transform="matrix(.90905,-.41668,.41668,.90905,0,0)" d="m189.44 324.04h60.609v70.711h-60.609z"/>
   <path transform="matrix(-.90905,-.41668,-.41668,.90905,0,0)" d="m-318.03 88.104h60.609v70.711h-60.609z"/>
  </g>
  <path transform="matrix(.9769 -.21368 .21368 .9769 -1208.1 -183.68)" d="m132.55 279.09c0 6.4158-8.4154 11.617-18.796 11.617s-18.796-5.201-18.796-11.617 8.4154-11.617 18.796-11.617 18.796 5.201 18.796 11.617z" fill="#f95" fill-rule="evenodd" stroke-linecap="round" stroke-width="7.2"/>
  <path transform="matrix(.9769 -.21368 .21368 .9769 -1237.5 -243.43)" d="m148.49 356.87c0 5.8579-9.4975 10.607-21.213 10.607s-21.213-4.7487-21.213-10.607 9.4975-10.607 21.213-10.607 21.213 4.7487 21.213 10.607z" fill="#f95" fill-rule="evenodd" stroke-linecap="round" stroke-width="7.2"/>
  <path d="m-1041.4 81.576c-7.3274 3.5752-16.608 9.7026-15.698 18.919 2.5606 8.413 13.62 7.76 20.452 5.9159 9.6627-2.8087 21.163-8.5715 23.198-19.363 0.3515-8.4042-10.267-10.278-16.643-8.9199-3.9151 0.60289-7.7223 1.747-11.309 3.4478z" fill="#f95" fill-rule="evenodd" stroke-linecap="round" stroke-width="7.2"/>
  <path d="m-1001 423.2 98.444-33.92 4.0008 17.87c-13.753 34.95-62.654 48.826-104 38.151-9.1791-8.8587-0.4208-14.958 1.5515-22.101z" fill="#520" fill-rule="evenodd" stroke-linecap="round" stroke-width="7.2"/>
  <path transform="translate(-844.36 -140.9)" d="m-88.256 557.89c0 9.7631-15.52 17.678-34.664 17.678s-34.664-7.9146-34.664-17.678 15.52-17.678 34.664-17.678 34.664 7.9146 34.664 17.678z" fill="#f95" fill-rule="evenodd" stroke-linecap="round" stroke-width="7.2"/>
  <path d="m-943.32 312.39c-3.6697 23.352 0.89422 37.272 4.7235 52.798-8.6622 14.902-49.786 31.016-50.758 38.223 35.379-2.0801 43.18-4.5455 54.872 18.045l32.294-25.091-2.674-84.985-38.457 1.0102z" fill="#a40" fill-rule="evenodd" stroke-linecap="round" stroke-width="7.2"/>
  <path d="m-987.57 429.61c4.0988-13.392 13.423-13.722 13.344-13.877" fill="none" stroke-width="7.2"/>
  <path d="m-970.74 432.87c3.2946-14.245 13.344-13.877 13.344-13.877" fill="none" stroke-width="7.2"/>
  <path d="m-782-40.592 37.764-21.462c16.08-4.7863 28.482 20.152 27.806 55.916l-5.6166 297.3c-0.67566 35.764-14.165 68.409-30.245 73.195l-37.764 21.462c-16.08 4.7863-28.482-20.152-27.806-55.916l5.6167-297.3c0.67566-35.764 14.165-68.409 30.245-73.195z" fill="#ff0" fill-rule="evenodd" stroke-linecap="round" stroke-width="7.6001"/>
  <path d="m-730.94-42.715c-14.882 4.4433-29.463 17.331-44.298 23.397-9.537 7.4467-16.534 29.928-16.012 51.656-0.66526 30.766-0.67525 61.489-1.6332 92.279-1.3146 70.983-3.6029 142.31-3.0558 212.99 3.0432 19.624 14.694 25.639 23.223 15.401 13.809-9.4965 28.606-11.269 41.572-27.595 8.2184-14.961 10.291-40.148 9.2891-61.063 1.2773-95.811 5.0534-192.09 4.29-287.52-2.0208-11.847-7.2904-21.066-13.375-19.551z" fill="#a00" fill-rule="evenodd" stroke-linecap="round" stroke-width="7.6001"/>
  <path d="m-704.31 151.34c-0.75056 25.77-10.771 49.402-18.041 50.899s-14.239-18.216-13.488-43.986 8.9367-47.837 16.206-49.335 16.073 16.652 15.322 42.422z" fill="#ff0" fill-rule="evenodd" stroke-linecap="round" stroke-width="7.6001"/>
  <path d="m-789.48-109.01c0 43.788-35.497 79.286-79.286 79.286s-79.286-35.497-79.286-79.286 35.497-46.429 79.286-46.429 79.286 2.6403 79.286 46.429z" fill="#f95" fill-rule="evenodd" stroke-linecap="round" stroke-width="7.2"/>
  <path d="m-851.05-114.99c2.3403 5.5564 3.7084 12.271 3.7084 19.502 0 19.149-9.5939 34.672-21.429 34.672s-21.429-15.523-21.429-34.672c0-6.6837 1.1688-12.926 3.1938-18.22" fill="#f95" fill-rule="evenodd" stroke-linecap="round" stroke-width="7.2"/>
  <g fill="#f95" fill-rule="evenodd" stroke-linecap="round" stroke-width="7.2">
   <path transform="translate(-174.77 -249.59)" d="m-739.29 132.72c0 2.1697-1.7589 3.9286-3.9286 3.9286s-3.9286-1.7589-3.9286-3.9286 1.7589-3.9286 3.9286-3.9286 3.9286 1.7589 3.9286 3.9286z"/>
   <path transform="translate(-82.268 -249.59)" d="m-739.29 132.72c0 2.1697-1.7589 3.9286-3.9286 3.9286s-3.9286-1.7589-3.9286-3.9286 1.7589-3.9286 3.9286-3.9286 3.9286 1.7589 3.9286 3.9286z"/>
  </g>
  <path d="m-846.62-57.585c-8.1466 20.881-50.185 8.4536-57.857-12.143" fill="none" stroke-linecap="round" stroke-width="7.2"/>
  <g transform="translate(-4.5821 -17.617)" fill="#ccc" fill-rule="evenodd" stroke-linecap="round" stroke-width="7.2">
   <path transform="matrix(.98019,-.19805,.19805,.98019,0,0)" d="m-781.77-290.9 41.969 7.8358c7.1316 40.5 12.732 80.691 1.4003 117.46l-53.227-38.676c40.822-29.715 32.566-51.668 9.8576-86.62z"/>
   <path d="m-904.47-127.45-44.118-3.4885c-14.687 38.286-23.735 76.571-23.207 114.86l56.975-25.94c-28.349-58.747-17.44-67.849 10.35-85.428z"/>
  </g>
  <path transform="translate(114.09 -340.74)" d="m-959.48 122.36c0 7.8898-10.349 14.286-23.115 14.286s-23.115-6.3959-23.115-14.286 10.349-14.286 23.115-14.286 23.115 6.3959 23.115 14.286z" fill="#ccc" fill-rule="evenodd" stroke-linecap="round" stroke-width="7.2"/>
  <path d="m-965.49-175.72c61.586-59.584 139.26-53.219 194.87 1.4286l-12.286 39.282c-57.242-19.609-114.48-18.091-171.73 0l-10.857-40.711z" fill="#ccc" fill-rule="evenodd" stroke-linecap="round" stroke-width="7.2"/>
 </g>
</svg>
