<?xml version="1.0" encoding="UTF-8"?>
<svg width="585.57336" height="370.96451" viewBox="0 0 585.57336 370.96451" xmlns="http://www.w3.org/2000/svg">
 <defs>
  <linearGradient id="c" x1="511.92" x2="511.5" y1="188.46" y2="177.84" gradientUnits="userSpaceOnUse">
   <stop stop-color="#f00" offset="0"/>
   <stop stop-color="#f00" stop-opacity="0" offset="1"/>
  </linearGradient>
  <radialGradient id="b" cx="246.71" cy="463.48" r="149.08" gradientTransform="matrix(1 0 0 .50087 0 224.37)" gradientUnits="userSpaceOnUse">
   <stop stop-color="#decd40" offset="0"/>
   <stop stop-color="#a4cd40" offset=".7486"/>
   <stop stop-color="#a4cd40" offset="1"/>
  </radialGradient>
  <radialGradient id="a" cx="95.074" cy="339.28" r="11.594" gradientTransform="matrix(.69927 .05934 -.06768 .79759 51.556 63.034)" gradientUnits="userSpaceOnUse">
   <stop offset="0"/>
   <stop stop-opacity="0" offset="1"/>
  </radialGradient>
 </defs>
 <g transform="matrix(1.5674 0 0 1.5674 -215.29 -522.05)">
  <path d="m433.78 395.53 22.916-37.018-27.439 36.188z"/>
  <path d="m458.13 428.31 30.717-30.854-34.934 29.019z"/>
  <path d="m233.62 418.31-11.218-42.067 7.5106 44.789z"/>
  <path d="m443.5 500.78 27.076 34.093-31.472-32.741z"/>
  <path d="m462.26 479.31 37.324 22.415-40.965-19.605z"/>
  <path d="m457.39 455.73 43.536 0.24168-45.188-4.534z"/>
  <path d="m178.97 457.61-41.611 12.806 44.472-9.2055z"/>
  <path d="m205.88 482.98-34.813 26.145 38.724-23.726z"/>
  <path d="m233.47 406.97-23.522-36.636 20.823 40.36z"/>
  <path d="m261.3 510.37-5.9898 43.123 1.978-45.372z"/>
  <path d="m418.3 508.61 5.1078 43.236-9.5578-44.398z"/>
  <path d="m236.77 501.04-13.008 41.548 9.4212-44.427z"/>
  <path d="m363.47 526.38-3.8374 43.368-0.2814-45.414z"/>
  <path transform="translate(43.085 13.559)" d="m434.31 437.04c5.0316 77.896-76.051 76.674-132.88 77.281-70.133 0.74811-172.49 8.0685-173.44-71.686-0.74849-62.257 110.08-76.598 173.44-82.876 68.94-6.8301 128.74 13.101 132.88 77.281z" fill-rule="evenodd"/>
  <path d="m343.76 511.31-3.8374 43.368-0.2814-45.414z"/>
  <path d="m303.77 389.32-11.218-42.067 7.5106 44.789z"/>
  <path d="m375.43 384.21 0.24169-43.536-4.534 45.188z"/>
  <path d="m473.2 449.88c4.8938 74.412-73.969 73.244-129.24 73.823-68.213 0.71464-167.76 7.7075-168.7-68.479-0.728-59.472 107.07-73.171 168.7-79.168 67.052-6.5246 125.21 12.515 129.24 73.823z" fill="url(#b)" fill-rule="evenodd"/>
  <path d="m338.94 472.16c2.0881 8e-3 4.1307-0.37634 6.0938-1.1875 3.2234-1.332 5.8173-3.6522 7.6875-6.6562 1.7991 2.5114 4.1528 4.4797 7 5.6562 10.47 4.3262 23.659-3.5659 29.469-17.625 1.3461-3.2575 1.92-6.711 2.5302-9.7698 4e-3 -6.1268 10.103-4.9418 16.409-4.9106 2.04 0.0101-7.5228-0.35525-7.5966-1.6792-4.9523 1.747-35.112 0.50261-41.877-10.576-2.5461 2.5793-4.7879 5.7432-6.5284 9.3727-6.326-12.21-18.402-18.736-28.125-14.719-10.47 4.3262-14.247 19.222-8.4375 33.281 4.7202 11.423 14.326 18.778 23.375 18.812z" fill-rule="evenodd"/>
  <path d="m339.36 468.38c1.442-0.0854 2.8555-0.40544 4.2188-0.96875 4.7653-1.9691 7.8613-6.5725 8.9062-12.25 1.2148 5.2041 4.2117 9.3693 8.6875 11.219 8.7246 3.6052 19.721-2.9716 24.562-14.688 1.5142-3.6644 3.2717-9.0382 3.2966-12.55-16.776 1.7109-28.607-6.8469-29.363-9.2503-2.2199 2.4039-4.1298 5.357-5.5269 8.7382-0.88641 2.1451-1.5094 4.3348-1.875 6.4688-0.37545-1.8081-0.90852-3.628-1.6562-5.4375-4.8412-11.716-15.838-18.293-24.562-14.688s-11.872 16.034-7.0312 27.75c4.0848 9.8853 12.557 16.118 20.344 15.656z" fill="#fff" fill-rule="evenodd"/>
  <path transform="matrix(-1.0545 .60258 -.82167 -1.3784 1205.8 216.17)" d="m719.2 144.94c0 3.6622-3.1971 6.6309-7.141 6.6309s-7.141-2.9688-7.141-6.6309 3.1971-6.6309 7.141-6.6309 7.141 2.9688 7.141 6.6309z" fill-rule="evenodd"/>
  <path transform="matrix(1.069 .57653 .78761 -1.3982 -506.65 236.42)" d="m719.2 144.94c0 3.6622-3.1971 6.6309-7.141 6.6309s-7.141-2.9688-7.141-6.6309 3.1971-6.6309 7.141-6.6309 7.141 2.9688 7.141 6.6309z" fill-rule="evenodd"/>
  <g transform="matrix(1.2487 0 0 1.0186 -284.74 312.08)">
   <path d="m462.81 154.74c-0.87348-8e-3 -2.9902 1.518-5.1449 3.7729l-2.0236 2.1266c-2.4626 2.5771-3.9886 5.0912-3.4299 5.6251s2.991-1.093 5.4536-3.67l1.372-1.4406v0.34299c7.3462 9.1097 20.058 10.733 27.913 19.046 17.517 18.537 33.397 14.236 47.285-0.8672 7.7025-8.3765 21.174-9.706 30.306-18.145l1.4406 1.5092c2.4625 2.5771 4.8949 4.2382 5.4536 3.7043s-0.96738-3.048-3.4299-5.6251l-2.0236-2.1266c-2.4626-2.5771-4.8949-4.2382-5.4536-3.7043-0.45254 0.43242 0.48629 2.1749 2.1608 4.1845-31.962 25.912-78.2 25.689-102.14 0.0342 1.9354-2.2131 3.0613-4.1976 2.5724-4.6647-0.0698-0.0667-0.18391-0.10186-0.30869-0.10285z"/>
   <path d="m489.83 179.75c13.551 2.2384 29.21 1.438 41.629-0.84958 0.2696-1.0784-16.918 23.921-41.629 0.84958z" fill="url(#c)"/>
  </g>
  <path d="m322.5 383.69 1.8122-43.499-6.1613 44.995z"/>
  <path d="m412.17 376.59-1.424-43.514-2.802 45.328z"/>
  <path d="m449.43 413.82 30.717-30.854-34.934 29.019z"/>
  <path d="m266.08 410.19-11.218-42.067 7.5106 44.789z"/>
  <path d="m428.73 398.8 5.1078-43.236-9.5578 44.398z"/>
  <path d="m296.66 509.47-7.1916 42.939 3.2441-45.299z"/>
  <path d="m428.07 502.57 22.741 37.126-27.269-36.317z"/>
  <path d="m249.12 397.7-23.522-36.636 20.823 40.36z"/>
  <path d="m281.74 400.92-11.218-42.067 7.5106 44.789z"/>
  <path d="m354.95 378.97-7.3561-42.911 3.4176 45.286z"/>
  <path d="m389.51 392.92 6.0926-43.109-10.568 44.168z"/>
  <path d="m207.62 501.91-29.797 31.743 34.066-30.033z"/>
  <path d="m181.01 437.77-43.536-0.24169 45.188 4.534z"/>
  <path d="m183.27 471.39-34.813 26.145 38.724-23.726z"/>
  <path d="m326.37 513.63-3.8374 43.368-0.2814-45.414z"/>
  <path d="m395.94 515.95-3.8374 43.368-0.2814-45.414z"/>
  <path d="m181.85 450.85-43.537-0.11976 45.2 4.4074z"/>
  <path d="m188.87 426.07-34.082-27.09 32.728 31.486z"/>
  <path d="m217.97 427.58-11.218-42.067 7.5106 44.789z"/>
  <path d="m201.01 415.09-23.522-36.636 20.823 40.36z"/>
  <path d="m247.38 508.89-7.1916 42.939 3.2441-45.299z"/>
  <path d="m448.35 488.01 37.324 22.415-40.965-19.605z"/>
  <path d="m467.85 470.8 43.109 6.0926-44.168-10.568z"/>
  <path d="m467.49 443.22 39.196-18.951-42.568 15.825z"/>
  <path d="m273.79 525.45-2.9562 43.437-1.2033-45.399z"/>
  <path transform="translate(140.48 117.91)" d="m106.67 339.28c0 6.0832-5.191 11.015-11.594 11.015s-11.594-4.9314-11.594-11.015 5.191-11.015 11.594-11.015 11.594 4.9314 11.594 11.015z" fill="url(#a)" fill-rule="evenodd"/>
  <path transform="translate(200.77 76.169)" d="m106.67 339.28c0 6.0832-5.191 11.015-11.594 11.015s-11.594-4.9314-11.594-11.015 5.191-11.015 11.594-11.015 11.594 4.9314 11.594 11.015z" fill="url(#a)" fill-rule="evenodd"/>
  <path transform="translate(145.7 155.59)" d="m106.67 339.28c0 6.0832-5.191 11.015-11.594 11.015s-11.594-4.9314-11.594-11.015 5.191-11.015 11.594-11.015 11.594 4.9314 11.594 11.015z" fill="url(#a)" fill-rule="evenodd"/>
  <path transform="translate(106.27 125.45)" d="m106.67 339.28c0 6.0832-5.191 11.015-11.594 11.015s-11.594-4.9314-11.594-11.015 5.191-11.015 11.594-11.015 11.594 4.9314 11.594 11.015z" fill="url(#a)" fill-rule="evenodd"/>
  <path transform="translate(337 116.75)" d="m106.67 339.28c0 6.0832-5.191 11.015-11.594 11.015s-11.594-4.9314-11.594-11.015 5.191-11.015 11.594-11.015 11.594 4.9314 11.594 11.015z" fill="url(#a)" fill-rule="evenodd"/>
  <path transform="translate(310.34 73.27)" d="m106.67 339.28c0 6.0832-5.191 11.015-11.594 11.015s-11.594-4.9314-11.594-11.015 5.191-11.015 11.594-11.015 11.594 4.9314 11.594 11.015z" fill="url(#a)" fill-rule="evenodd"/>
  <path transform="translate(313.23 163.13)" d="m106.67 339.28c0 6.0832-5.191 11.015-11.594 11.015s-11.594-4.9314-11.594-11.015 5.191-11.015 11.594-11.015 11.594 4.9314 11.594 11.015z" fill="url(#a)" fill-rule="evenodd"/>
  <path transform="translate(245.41 56.458)" d="m106.67 339.28c0 6.0832-5.191 11.015-11.594 11.015s-11.594-4.9314-11.594-11.015 5.191-11.015 11.594-11.015 11.594 4.9314 11.594 11.015z" fill="url(#a)" fill-rule="evenodd"/>
  <path transform="translate(185.7 116.17)" d="m106.67 339.28c0 6.0832-5.191 11.015-11.594 11.015s-11.594-4.9314-11.594-11.015 5.191-11.015 11.594-11.015 11.594 4.9314 11.594 11.015z" fill="url(#a)" fill-rule="evenodd"/>
  <path transform="translate(183.38 163.13)" d="m106.67 339.28c0 6.0832-5.191 11.015-11.594 11.015s-11.594-4.9314-11.594-11.015 5.191-11.015 11.594-11.015 11.594 4.9314 11.594 11.015z" fill="url(#a)" fill-rule="evenodd"/>
  <path transform="translate(142.22 79.067)" d="m106.67 339.28c0 6.0832-5.191 11.015-11.594 11.015s-11.594-4.9314-11.594-11.015 5.191-11.015 11.594-11.015 11.594 4.9314 11.594 11.015z" fill="url(#a)" fill-rule="evenodd"/>
  <path transform="translate(343.38 86.604)" d="m106.67 339.28c0 6.0832-5.191 11.015-11.594 11.015s-11.594-4.9314-11.594-11.015 5.191-11.015 11.594-11.015 11.594 4.9314 11.594 11.015z" fill="url(#a)" fill-rule="evenodd"/>
 </g>
</svg>
