<?xml version="1.0" encoding="UTF-8"?>
<svg width="138.5204" height="114.83022" viewBox="0 0 138.5204 114.83022" xmlns="http://www.w3.org/2000/svg">
 <g transform="matrix(1.25 0 0 -1.25 101.07 6.4075)">
  <path d="m0 0c0-2.832-2.295-5.126-5.126-5.126s-5.126 2.294-5.126 5.126 2.295 5.126 5.126 5.126 5.126-2.295 5.126-5.126" fill="#f8c2d9"/>
 </g>
 <g transform="matrix(1.25 0 0 -1.25 21.533 43.226)">
  <path d="m0,0c-11.587-8.42-21.397-19.012-15.419-33.25 4.228-10.075 13.912-16.018 23.975-19.148 18.077-5.625 39.667-7.124 57.689-.575 7.357,2.673 14.183,6.723 19.734,12.274 0,0 17.125,15.09 0,32.214 0,0-11.008,10.602-19.571,15.902 0,0-12.79,8.969-15.086,12.639-1.724,2.757-4.955,5.282-7.925,6.467-7.17,2.862-11.247-3.02-15.915-7.364-2.346-2.183-5.038-4.056-7.615-5.95-5.21-3.825-12.864-8.12-19.867-13.209" fill="#f8c2d9"/>
 </g>
 <g transform="matrix(1.25 0 0 -1.25 126.33 78.107)">
  <path d="m0 0c0-1.493-2.647-2.702-5.913-2.702-3.264 0-5.911 1.209-5.911 2.702s2.647 2.703 5.911 2.703c3.266 0 5.913-1.209 5.913-2.703" fill="#ed2f84"/>
 </g>
 <g transform="matrix(1.25 0 0 -1.25 28.16 71.72)">
  <path d="m0 0c0-1.493-2.647-2.703-5.912-2.703s-5.912 1.21-5.912 2.703 2.647 2.702 5.912 2.702 5.912-1.208 5.912-2.702" fill="#ed2f84"/>
 </g>
 <g transform="matrix(1.25 0 0 -1.25 47.365 85.689)">
  <path d="m0 0s0.474-11.342 11.104-4.726c0 0 19.847-10.396 21.973 2.126" fill="none" stroke="#292929" stroke-width="1.223"/>
 </g>
 <g transform="matrix(1.25 0 0 -1.25 33.147 57.54)">
  <path d="m0,0c0-.742-.634-1.343-1.414-1.343s-1.413.601-1.413,1.343 .633,1.341 1.413,1.341 1.414-.6 1.414-1.341" fill="#292929"/>
 </g>
 <g transform="matrix(1.25 0 0 -1.25 112.17 65.046)">
  <path d="m0,0c0-.742-.632-1.343-1.413-1.343s-1.413.601-1.413,1.343 .634,1.341 1.413,1.341 1.413-.601 1.413-1.341" fill="#292929"/>
 </g>
 <g transform="matrix(1.25 0 0 -1.25 37.008 46.952)">
  <path d="m0 0s-4.688 1.021-8.155 0c0 0 7.744 4.079 8.155 0" fill="#292929"/>
 </g>
 <g transform="matrix(1.25 0 0 -1.25 108.87 53.881)">
  <path d="m0 0s4.759-0.606 7.685-2.728c0 0-5.933 6.435-7.685 2.728" fill="#292929"/>
 </g>
</svg>
