<?xml version="1.0" encoding="UTF-8"?>
<svg width="75.662mm" height="83.761mm" version="1.1" viewBox="0 0 268.09495 296.78941" xmlns="http://www.w3.org/2000/svg">
 <g transform="translate(265.48 -261.11)">
  <path d="m-265.46 338.83c1.0197-7.8513 3.0847-16.992 6.7478-24.5 5.5323-12.112 14.513-24.491 25.796-32.804-2.2732-3.5359-10.009-4.4524-10.577-10.135 5.1229-2.5666 10.107 1.8195 13.33 4.7455 3.086 2.7827 3.6918-5.1766 4.4626-7.0793 1.6238-3.1108 5.0555-10.379 9.3255-7.1187 1.8611 4.9658-2.4874 10.321-5.7956 13.751-6.8664 4.5445 2.6072 1.596 5.9734 1.7731 3.8391-0.8812 9.325 3.7239 4.1249 6.3508-4.4858 2.7494-9.6365 1.2735-13.959-0.55023-5.8674-2.2923-10.582 5.6794-15.062 8.9672-6.5526 7.3682-12.647 16.776-16.119 25.08-3.7452 9.3094-6.8439 19.998-5.249 30.187 0.88542 4.2822 2.7781 6.4872 4.7373 10.33 3.0331 4.0691 6.0106 9.2139 9.4708 12.026 3.2941 4.0867 12.809 6.412 14.595-0.41495 2.6253-5.5524 8.5182-11.213 11.833-14.544-8.629 3.8811-17.937 7.2872-24.527 14.396-4.6234-0.60539 0.37241-5.6117 0.68331-8.5185 4.9055-13.48 15.792-23.523 27.85-30.935 7.3754-6.2133 16.945-8.1536 25.759-10.81-3.2786-1.2868-12.241 0.20861-17.762 0.44007-8.9498 0.85491-18.096 3.5315-26.468 6.1362-4.5444-2.1371 6.2344-7.8511 7.1509-10.146 11.278-7.3162 23.963-9.743 36.565-12.505 6.7894-1.3734 13.941-0.6667 20.499-1.2598 1.7914-0.86847-3.6956-2.8714-5.0548-4.0592-2.9118-1.3557-3.6918-2.0856-6.73-3.843-4.7365-3.1303-9.0921-5.554-12.914-9.9311 2.642-1.8342 7.7419 0.35713 11.082 0.87567 6.8745 1.6796 13.147 2.5804 19.344 4.0771 8.4265 2.353 17.06 5.2778 23.244 11.435 1.7126-1.1468-2.2277-4.9881-3.2224-7.1514-3.38-6.4934-8.4484-11.769-12.841-17.453-1.5547-1.6668-2.7292-5.4917 0.83117-3.6042 6.3461 2.12 11.464 5.5204 17.193 8.4465 6.9786 4.5525 14.028 10.202 19.038 16.96 9.6023-7.6036 21.943-11.428 33.898-14.016 5.2094-0.4351 12.709-1.3434 18.467-2.2836 1.9064 2.1577-3.4096 2.8321-4.6454 3.2075-10.789 4.8775-23.792 10.759-26.396 23.717-2.6824 6.7653 3.4283 0.43072 6.2515 0.46546 9.3803-3.6683 20.672-4.0917 30.755-5.4872 8.675 0.89506 18.541 0.39204 26.393 1.9289 1.0478 3.0054-6.5102 1.4385-8.4493 2.8906-11.917 3.2713-27.119 9.2378-30.265 22.454 6.1801 0.7966 10.883 2.1883 16.934 3.9253 4.9695 1.7548 12.311 4.6604 16.142 6.4157 7.4792 3.7798 15.536 7.5617 22.249 12.717-1.5695 1.4793-4.4456-1.083-6.6419-1.4557-7.5633-2.6999-16.458-6.288-24.932-7.5631-2.9549-0.55602-8.97-0.99375-10.697 0.23305 1.4471 2.8948 5.9198 5.1585 8.2723 7.3875 5.8501 3.0164 9.8499 8.2701 14.49 12.644 1.6607 2.4356 4.4142 8.7256 8.3466 5.0048 9.9989-7.0561 20.788-14.305 25.746-26.031 6.0209-15.441 3.9122-33.827-2.7832-48.301-2.0266-1.1638-4.3714 2.0132-6.2743 2.3774-3.8382 1.168-10.186-0.74731-11.352-4.6484 0.81621-5.722 7.8458-2.5926 10.442-3.2877-3.0939-3.9765-8.1148-5.9852-10.149-11.112-2.3312-5.5136 4.3165-6.0053 7.2283-2.718 4.0908 3.088 4.2935 9.4154 8.2519 12.567 1.9106-4.1989 3.1588-12.343 9.6073-10.249 6.637-0.42709 3.3018 7.9664 0.11217 10.081-1.7728 3.1637-8.3947 3.187-5.4447 7.5043 6.6162 14.499 8.4366 32.311 3.294 47.832-4.837 13.177-17.163 21.363-28.006 29.207-4.7146 1.5066 0.66028 5.9488 0.65742 9.1016 1.2343 4.8425 4.4892 9.645 4.8145 14.408-4.268 0.87014-3.4875-7.284-6.6741-10.499-2.2749-2.3697-3.5877-3.7506-5.8176-5.5593-6.8474-4.215-12.774-8.9364-19.908-12.596-2.4916 0.90552 1.4315 5.3882 1.5674 8.0054 4.6105 10.164 7.4801 21.214 6.4516 32.582-2.1587 3.7728 5.0734 21.931-2.0635 18.694-2.8741-5.5498-5.1522-10.3-8.7323-15.368-4.0037-3.7898-6.0826-8.8568-10.594-12.728-4.1459-1.4466-0.49046 4.948-0.29253 7.0681 3.8465 13.413 2.8773 27.431 0.60421 41.057 1.7252 5.9081-4.8619 4.6563-4.2312 0.43579-1.7438-5.3223-3.9797-9.9522-9.0693-12.866-2.3414-1.9647-3.961-3.1903-6.5137-4.9733-1.8534 6.0838-1.5974 13.081-3.1446 19.527-1.629 4.0566-0.64087 11.07-4.2264 13.416-3.6392-2.102-3.4745-6.0598-7.6716-7.3841-0.19385-6.3026-6.7476-9.853-11.226-13.655-1.241-1.2804-1.4836-3.4159-3.1937-3.1154-1.9069 9.1452-0.82329 20.229-1.2341 30.07 0.74134 17.932 0.52854 36.221 1.5506 54.005 7.8446 0.0315 15.444-2.445 23.127-3.2251 4.3052-1.3836 7.8791-1.6182 12.672-3.2979 3.6106-2.4372 7.0811 2.5405 1.6629 3.1573-8.5578 1.9336-16.451 3.7841-24.903 5.1714-3.8112 1.4386-8.0003 0.77614-11.344 2.977 1.091 2.721 4.316 3.7265 6.1588 6.8376 4.813 3.8745 10.879 8.4833 15.199 12.152 4.3336 3.1262 8.1759 6.2667 12.866 9.0929 2.9547 3.7341-3.1502 2.8013-4.6511 0.87995-2.0106-2.1644-6.2973-4.7184-8.0099-6.1686-6.5837-5.4094-13.787-10.156-19.558-15.55-1.8388-2.7069-4.2687-5.1237-7.4884-5.9142-4.8944 1.0678-11.198 2.2532-15.112 2.5795-5.1633 3.0786-9.3506-3.1325-3.0216-4.6558 5.1898 1.0589 10.687-1.3411 15.82-1.6316 5.2033-0.0814 1.9859-7.8083 2.6642-10.696 0.14029-5.7154-0.38713-11.449 0.0774-16.306 0.22131-15.308-0.59312-30.979-0.34368-45.514 0.1106-3.9403 0.15094-7.3376-0.14344-10.944 0.25804-3.0523 2.6759-6.6411 0.95273-9.258-3.6548 1.2694-5.8111 8.8858-9.0144 12.496-2.7929 3.5652-2.9305 9.3661-6.6429 11.855-4.7535-3.1539-7.5874-8.8622-11.209-13.283-2.1556-3.3235-3.1727-6.3744-5.1284-9.7938-5.588 4.5497-8.3679 12.251-13.612 17.14-3.921-1.0669-2.3584-5.1015-4.9642-8.0764-2.4181-4.1629-6.6-8.19-8.6652-13.166-3.3968-0.39543-6.1296 7.4832-5.7612 11.343-0.66225 7.9517-1.2127 15.96-1.7332 22.907-0.68767 14.492-0.34593 29.195-0.65653 43.791 0.82824 4.2347-1.3681 9.3272 1.3523 12.711 4.401 0.12878 10.093-2.8683 13.662 0.10611 1.8057 2.7974-1.8497 3.7817-3.593 2.567-6.3287 0.28319-12.634 2.9373-18.908 2.4866-5.6452 3.9657-11.559 9.284-16.786 13.75-3.1196 2.1655-6.4278 5.9482-10.345 6.9752-1.6037-0.77396-1.3188-3.274 1.0594-4.3558 8.9254-5.8922 16.591-13.673 24.781-20.121-4.2784-1.4819-9.6669-2.8435-14.345-3.6316-4.1391-0.64342-7.7166-1.1584-12.147-1.7488-3.3424-1.1547-8.9221-0.098-12.397-0.45209-2.2319-5.032 6.3877-4.1898 8.8828-4.0307 9.6338 0.78662 18.814 2.6552 28.421 5.0765 2.5066 0.25774 7.8906 3.0629 6.4567-2.0618-0.0223-5.2414 0.54917-9.8913 0.42982-15.392 0.0682-3.2293 0.66108-7.4004 0.84617-11.345-0.35642-15.558 0.73949-29.904 2.1106-45.576 0.90308-7.7808-5.43 3.2855-7.2116 5.5089-2.2889 4.7227-6.3301 1.3182-5.0787-2.7243-1.881-6.6124-1.7624-13.822-3.0878-20.698-8.1598 7.2233-15.896 14.69-21.894 23.561-3.7783-0.37676-3.719-6.2377-4.5041-9.3174 0.0251-6.0958-0.456-12.128 0.0505-17.948 1.2517-6.2841 4.0826-12.449 6.6103-17.833-6.6256 5.4772-11.656 12.608-14.477 20.313-4.5651 4.3718-2.6525-5.7567-2.1622-8.5157 1.7129-13.163 2.9337-26.105 6.11-38.656-8.5191 0.54806-15.346-5.4364-19.187-12.521-2.3672-3.4937-5.0375-6.9429-6.0659-9.8254-2.6528-4.5366-3.1969-9.7422-3.0725-14.851zm11.284 24.154c0.33589-0.22821-0.18642-0.28165 0 0zm5.922 9.7788c0.35752-0.11834-0.34834-0.24118 0 0zm5.2739-10.339c12.821-7.2504 26.39-12.529 40.1-17.516 3.7578 2.5772-3.1652 3.5312-5.1295 4.7699-15.426 7.212-27.151 21.483-28.944 38.34-1.4234 7.7502-2.2541 16.763-3.299 24.947 2.2392-1.077 4.2638-5.28 6.618-7.3885 8.1397-7.803 16.792-15.317 26.277-21.44 7.4443 0.77353-4.1028 5.9575-6.3368 8.2382-9.7815 8.1809-15.353 19.798-17.128 32.045 0.39722 6.2662-0.77365 12.67 1.2608 18.677 4.0857-3.5759 6.8026-9.4377 11.877-12.474 5.405-2.237 8.4794-12.833 13.76-12.193-0.11494 3.4353-0.35111 7.9385 0.0361 10.929 0.98033 5.2651 0.84157 10.955 2.6159 16.256 5.5622-7.0233 11.56-13.995 17.089-21.169 3.6002-0.38799 3.1025 4.5328 4.8446 7.0913 3.4113 5.2612 7.1357 8.4503 9.3061 14.702 5.2617-5.0998 9.0414-12.544 14.119-18.029 3.9126 1.5806 1.8033 6.2473 4.4247 9.237 2.902 6.4014 6.3882 10.432 10.933 15.891 3.4497-4.9266 4.5985-10.089 8.4989-15.096 2.5979-3.4226 4.4351-8.6843 7.1963-11.138 3.1174 2.9248 4.3364 6.7816 6.6979 9.8837 3.3532 6.1746 11.543 8.6759 13.684 15.587 2.007 1.465 3.3903 2.482 4.513 4.5175 2.5599-3.6302 2.4913-10.574 3.6744-15.42 1.2815-5.1289 0.68237-10.622 2.279-15.518 3.9695-0.16204 5.5703 3.7039 8.8015 5.5208 3.3235 2.1956 6.035 4.5051 8.3508 7.1671 1.4019 1.2941 2.487 5.7305 3.2143 2.0032 3.2694-14.103 0.96867-28.738-2.8526-42.268-1.8079-3.5374 1.9309-4.6449 4.4019-1.9454 6.6129 3.9564 9.794 11.638 14.986 17.361 1.405 2.2172 2.952 4.4682 4.3025 6.73 0.48796-8.8646-0.0763-17.95-0.48222-26.839-1.2692-9.7631-6.4674-18.943-9.4599-28.139 0.26257-3.2018 4.7014 0.83993 6.7618 1.3446 6.6665 4.132 13.085 8.4968 19.271 12.552 5.5591 6.1545 2.6844-1.8758 0.85456-4.9183-4.5893-7.4912-9.5946-14.007-16.548-19.216-5.621-3.28-10.039-7.9806-15.802-11.472 0.43018-3.9947 9.8845-1.6458 13.537-1.773 7.2754 0.90242 13.71 3.1345 20.443 5.4112-1.096-2.1703-3.3638-2.2194-5.345-3.6326-5.2745-2.5026-11.393-5.3945-16.368-6.938-7.5281-2.8544-14.97-4.519-23.022-4.873-1.0035-3.2342 1.8984-7.0776 3.5005-10.059 6.2557-8.4338 16.719-12.627 26.061-15.534-2.6644-2.4118-10.685-1.6941-15.353-1.6429-12.635 1.7178-26.127 2.0716-36.744 9.8348-4.2672-0.46949-1.6807-6.8142-0.9148-10.032 1.9561-9.2084 12.256-15.463 18.932-18.357 5.4685-3.3074-4.4669-1.5071-6.6795-0.70497-10.423 2.8208-21.722 5.9188-29.566 13.863-0.86637 4.0267-4.5208-2.2566-5.5689-3.8554-6.1777-7.3762-13.558-12.473-21.836-17.019-2.3687-1.2071-6.394-3.4799-9.4951-4.2254-0.60001 4.708 6.0888 6.8612 7.6292 11.182 2.5608 5.28 7.07 10.981 9.7476 15.661-1.0274 0.89194-1.7807 3.9987-3.6016 2.3078-2.0694-4.0475-7.2198-7.687-11.235-9.1499-3.8993-1.8133-10.487-3.7621-15.433-4.9173-7.2066-0.98344-14.134-3.2747-21.539-3.9058 0.55876 3.2806 5.7508 4.4806 7.957 7.0342 6.2865 2.9638 11.719 7.7414 18.26 10.435-0.87823 2.8704-4.9454 0.50048-9.2305 0.48856-16.229-6e-3 -32.387 3.6539-47.264 10.275-2.6952 1.1664-12.579 7.2934-7.8071 6.8406 11.732-2.8402 23.48-4.142 35.577-4.1647 4.2204 0.24213 9.2021-0.73111 13.024 0.23815 1.1494 2.7582-5.1445 2.5082-7.0405 3.5579-10.923 2.502-22.031 5.4664-30.848 12.868-10.795 7.2426-21.034 16.501-24.548 29.174zm13.07-41.481c0.26046 0.14114-0.42163 0.0437 0 0zm15.646-3.227c0.26046 0.14114-0.42163 0.0437 0 0zm23.469-31.683c0.26046 0.14114-0.42163 0.0437 0 0zm10.197 1.7018c0.62069-0.33382-0.0538 0.33269 0 0zm0.59536 6.2261c0.41224 0.18069-0.31921 0.12972 0 0zm0.89092 102.16c2.3242-6.355 8.9153-10.226 13.537-14.692 10.006-7.2529 22.862-3.9021 33.902-0.97293 5.539 1.1139 10.849 3.1582 15.409 4.4178 3.6371 1.0676 5.7059 1.7735 8.7931 3.1871 1.2118 2.1779 7.5598 1.503 4.6658 5.0924-10.31 11.303-26.069 15.835-40.889 13.978-12.521-0.11991-23.907-4.7843-34.798-10.016-0.25003-0.25744-0.65495-0.5956-0.61997-0.99345zm3.6122-0.42457c1.5616 2.8206 6.6731 3.1429 9.2384 4.6475 4.2642 1.0464 8.5302 3.8575 12.792 2.9287 1.6411-2.9172 2.6382-7.7627 5.0951-8.9901 3.2696 1.2468 4.3133 3.7571 6.3808 6.2858 2.1274-1.6467 2.2387-8.423 5.5204-6.9311 4.1614 2.2261 4.638 8.1097 7.1534 11.149 8.8508-2.0382 18.065-5.7218 23.792-13.174-2.6425-2.2138-7.4613-5.1089-11.557-5.0327-3.7055 2.209-5.6573 6.437-6.684 10.751-4.1812 0.13924-1.3546-5.6177-3.9012-7.8542-1.9117-4.1404-3.4788-8.7568-8.9668-8.6025-4.0728-0.43006-10.446-3.9521-13.388-0.2821-4.8782 2.3913-4.609 9.2048-6.8826 13.364-4.0163-0.73905-0.60618-7.7978-4.5445-9.7822-4.6774-1.6208-8.4524 7.4191-12.823 9.6652-0.46742 0.56294-0.9216 1.1953-1.2243 1.8581zm25.621-15.255c0.35749 0.11847-0.34841 0.24107 0 0zm-15.059 4.9383c0.34823-0.24127-0.35752-0.1182 0 0zm3.3248-1.369c0.3576-0.11833-0.34843-0.24118 0 0zm1.3658-1.323c1.7109 0.40311 2.0076 5.519 3.7688 2.0096 0.62262-2.5468 4.3694-6.4543-0.83299-4.3047-0.6451 0.50638-3.8356 1.0185-2.9358 2.2951zm9.6721 21.769c5.1775 1.8857 8.3717-1.1882 4.8874-5.8957-2.2738-4.3619-4.2296 4.5611-4.8874 5.8957zm10.604 0.6819c3.4608 1.1158 8.7114-0.2867 6.204-4.6504-0.1534-1.1788-1.8886-6.164-3.5943-2.5202-0.61192 2.0421-3.305 5.7015-2.6097 7.1706zm5.9345-5.3837c0.35084 0.24969-0.35074 0.25 0 0zm-3.3248-6.6007c0.35752-0.11821-0.34823-0.24127 0 0zm7.3857-8.4776c-0.0146-0.34511-0.40721 0.10142 0 0zm1.5633-0.23753c1.8544 1.2746 2.6278 7.6718 4.9862 4.2303 3.5366-3.2746 2.3745-4.3065-1.6745-4.854-1.0681-0.35886-3.2523-1.3206-3.3116 0.6237zm12.198 1.8534c1.2218-0.26598-1.1375 0.01 0 0zm-60.225 49.155c0.46494 6e-3 -0.0595 0.51033 0 0zm5.158 7.5036c0.32735 0.36283-0.22256 0.0738 0 0zm6.5794-107.26c0.12988-9.6 8.0358-17.729 16.877-19.155 5.5479-1.2578 12.569-0.76941 13.709 5.4721 4.9419 1.7657 4.1248 10.607 8.9168 3.5964 5.7006-5.1612 14.282-4.7362 20.601-1.5722 6.5057 3.1529 12.533 10.247 9.7072 18.094-0.3935 7.568-7.714 14.002-14.284 14.471-4.7668 0.17746-10.415 0.28701-15.083-2.0262-4.2932-2.234-9.7232-5.8373-9.9746-11.148-3.9288 6.5221-11.579 6.7874-18.156 5.7984-3.4721-0.20083-8.0365-3.693-10.195-7.0255-1.3351-1.5657-2.438-3.7679-2.1184-6.506zm2.1485 2.638c1.2742 7.6129 10.345 10.855 17.357 9.4053 7.9817-0.55838 10.409-9.9881 13.426-16.023 1.3369-4.8135-1.3424-8.5512-5.3971-10.241-3.17-2.2537-8.5414-4.665-13.184-1.9948-7.4958 3.1086-12.667 10.664-12.202 18.854zm6.4255-6.3936c1.4643-6.9653 11.167-9.3209 15.224-4.7569 5.7023 2.3697 3.5133 10.085-2.2693 11.932-5.1176 1.7735-13.498-0.30062-12.955-7.1753zm3.3165 6.2566c0.35749-0.11846-0.34841-0.24107 0 0zm5.2259-5.8184c0.33588-0.22823-0.18605-0.28166 0 0zm0.43968-0.25005c4.7648 1.3558 3.2257-4.6784-0.18963-0.23798l0.18944 0.238zm-1.7357 17.43c-0.0428-0.18827-0.42917 0.14023 0 0zm0.66621-32.63c0.35074-0.25-0.35084-0.24969 0 0zm16.274 27.454c0.50522 6.2982 7.69 9.2103 12.762 10.141 8.8704 2.5252 19.711-1.8784 21.523-11.698 1.8208-4.6599 1.3304-11.411-2.3562-13.519-0.81656-4.8852-5.4731 0.88758-5.405-3.3344-3.2166-2.0342-7.6116-3.9571-11.793-2.0137-8.3661 2.4068-14.892 11.738-14.731 20.424zm7.4564-5.6585c1.9561-7.4291 10.354-9.1385 16.571-6.7365 5.6434 2.6038 6.222 11.63-0.51718 14.281-5.5968 1.4968-16.612 0.28943-16.054-7.5449zm5.1172-3.0691c0.37239-0.3509-0.38561-0.12135 0 0zm1.6016-1.5157c0.46515-5e-3 -0.0595-0.51007 0 0zm4.3406 4.0615c3.5761-0.3794 1.4598-2.8673 0 0zm-4.5519 18.057c0.15769-0.38181-0.45015 0.32995 0 0zm-35.812 20.631c0.44077 0.0856-0.44078 0.0856 0 0zm5.7206 30.068c0.51658 0.0845-0.51302 0.23218 0 0zm18.627-79.026c0.20858 0.14743-0.38091 0.25124 0 0zm11.051 108.3c0.35096 0.24986-0.35096 0.24986 0 0zm7.0694-50.013c0.43647 0.21086-0.2461 0.10644 0 0zm13.034-98.129c0.2613 0.14104-0.42157 0.0436 0 0zm2.3876 150.39c0.34845 0.24108-0.35752 0.11811 0 0zm0.58675-4.6938c0.34845 0.24108-0.35762 0.118 0 0zm13.696 0.0978c0.18589 0.28187-0.33553 0.22793 0 0zm12.871-90.962c0.14014 0.42888-0.189 0.0419 0 0zm8.5386 21.972c0.34842 0.24107-0.35749 0.11846 0 0zm8.4669 4.4571c0.26131 0.14105-0.42157 0.0436 0 0zm16.371 6.3974c0.34842 0.24118-0.35761 0.11833 0 0zm0.0978-29.337c0.34823 0.24127-0.35752 0.1182 0 0zm-0.0309 29.758c0.13994 0.42915-0.18889 0.0415 0 0zm1.5036 5.791c0.81937 0.10913 0.0662 0.52966 0 0zm-206.83-108.17c3.0567 1.6469 4.8327 3.7526 7.6292 5.2166 5.2734 1.9873-0.34299-5.1138-2.6861-5.0125-1.0996-0.30792-4.2263-1.8827-4.9431-0.20404zm7.5297 1.9646c0.34835 0.24117-0.35752 0.11833 0 0zm-5.3352 240.07c0.33582-0.22817-0.18639-0.28163 0 0zm1.6376-139.97c-0.0424-0.18828-0.42864 0.14016 0 0zm5.327 69.583c0.15874-0.53852-0.17118-0.0978 0 0zm0.48832-22.001c0.17845-0.65166-0.17777-0.11761 0 0zm-5e-3 0.63174c0.20548-0.38723-0.22041-0.0914 0 0zm3.3988-143.29c2.531 1.3414 5.2913 1.0548 7.6412 2.5605 4.5878 1.499 12.658-5.9254 2.7079-3.9824-2.76 0.74734-7.4075 1.6528-8.8417 0.0425-0.51536-0.24745-2.0057 0.8649-1.5073 1.3794zm1.236 263.89c0.34832-0.2412-0.35747-0.11799 0 0zm2.7136-271.78c3.2679-2.8849 5.3085-5.6443 5.5747-9.4519-3.0223 1.6415-5.6336 6.7254-5.5747 9.4519zm0.12224 243.47c0.35756-0.118-0.34838-0.2412 0 0zm2.8542-3.2092c-0.0419-0.18902-0.42888 0.14017 0 0zm5.7512 4.3337c0.35075-0.2498-0.35075-0.2498 0 0zm14.57 3.4715c0.35756-0.11799-0.34838-0.2412 0 0zm3.7343 3.9294c-0.0433-0.18799-0.42842 0.14151 0 0zm0.0795 0.51991c0.34829-0.24132-0.35754-0.11769 0 0zm2.6018-30.119c0.17356-0.39186-0.31884-0.38174 0 0zm0.3318-7.0408c0.35086-0.24986-0.35086-0.24986 0 0zm2.463-169.89c-0.0424-0.18828-0.42865 0.14016 0 0zm2.1 125.71c0.15873-0.53851-0.17118-0.0978 0 0zm6.4484-14.719c0.20548-0.38722-0.22042-0.0914 0 0zm3.1612-142.99c0.37745 0.1098-0.0615-0.37916 0 0zm22.264-10.143c0.20621-0.38689-0.22101-0.0916 0 0zm6.8839 166.56c0.35084-0.24974-0.35075-0.25004 0 0zm4.9988 4.8894c0.16935-0.33944-0.45674-0.16133 0 0zm2.3166-146.76c0.8729 0.21739-0.79774-1.53 0 0zm0.6056-0.61118c0.41464-0.0958-0.0575-0.61773 0 0zm18.444-2.7381c0.1728-0.39193-0.31875-0.38184 0 0zm0 184.5c0.20432-0.38919-0.21929-0.0887 0 0zm0.13623 8.7296c0.35731-0.38156-0.35722-0.38186 0 0zm2.5095-3.3004c0.1581-0.53851-0.17037-0.0978 0 0zm0.67881 32.513c0.2056-0.3878-0.22082-0.0901 0 0zm0.19557 10.855c0.20654-0.38671-0.22149-0.0919 0 0zm4.6348-89.988c0.35084-0.24975-0.35075-0.25005 0 0zm1.2957 84.701c-0.0978-0.17035-0.53854 0.15811 0 0zm11.846-4.9542c0.31878-0.38185-0.17282-0.39197 0 0zm1.624-64.247c0.38514 0.24326-0.40989-0.71693 0 0zm4.0741 5.1094c0.1581-0.53851-0.17038-0.0978 0 0zm13.644-153.88c-0.0423-0.18851-0.42833 0.14074 0 0zm2.0352-23.194c0.0692 1.0529 0.51715-0.11848-2.4e-4 6e-5zm1.4668 154.07c0.35095-0.24987-0.35096-0.24987 0 0zm2.0149 3.3961c0.20649-0.38653-0.22144-0.0919 0 0zm2.0002-109.59c0.47812-0.0757-0.31634-0.2747 0 0zm2.2049 77.937c0.17281-0.39192-0.31874-0.38184 0 0zm3.2166-106.26c0.51301-0.2321-0.51645-0.0846 0 0zm8.0676 106.16c0.34823-0.24128-0.35752-0.11821 0 0zm3.9084 5.7695c0.17281-0.39191-0.31874-0.38183 0 0zm0.80372-79.631c-0.0423-0.18852-0.42834 0.14074 0 0zm1.9344 47.556c0.2398 1.067 0.12731-0.68923 0 0zm12.422-6.8452c0.35085-0.24969-0.35073-0.25 0 0zm5.1828-5.5739c0.34843-0.24118-0.3576-0.11833 0 0zm0.93159-66.124c-0.0147-0.34513-0.40708 0.10154 0 0zm4.0556 76.098c0.34842-0.24107-0.35749-0.11846 0 0zm5.6718-32.172c0.35761-0.11833-0.34842-0.24118 0 0zm2.2703 15.762c0.15768-0.3818-0.45015 0.32994 0 0zm1.1057-86.035c1.4092 4.4925 7.9141 7.2434 10.891 11.551 1.255-2.5614-3.814-4.2618-3.3776-6.7399-1.1233-3.1128-3.0878-9.2108-7.1246-8.075-0.67457 0.88782-0.71125 2.2506-0.38895 3.2642zm0.3778 15.446c3.0661 3.5421 8.2921 0.73965 10.974-1.6706-2.967-0.94681-11.048-3.9819-10.974 1.6706zm16.249-5.4111c3.7286-0.75934 7.972-4.7217 7.2705-9.088-4.1506-2.6539-7.1398 5.5604-7.2705 9.088zm-255.28 49.774c0.3622 0.25065-0.35059 0.37592 0 0zm3.7166 16.526c0.34834 0.24117-0.35752 0.11833 0 0zm3.0245 5.0406c0.53458 0.2702-0.41585 0.23637 0 0zm7.1417 7.0883c0.30694-0.3852 0.0474 0.34103 0 0zm4e-3 0.29053c0.35059 0.37593-0.3622 0.25065 0 0zm4.7508 7.5374c0.26047 0.14114-0.42163 0.0437 0 0zm0.82306 37.152c0.35081 0.24985-0.35081 0.24985 0 0zm1.5346-11.122c0.14474 0.64452-0.16221 0.12514 0 0zm3.6532-123.63c0.18642 0.28165-0.33589 0.22821 0 0zm0.56783 47.876c0.48591-0.22993-0.14056 0.35759 0 0zm18.663 211.71c0.24613 0.1063-0.43689 0.21047 0 0zm3.0437-19.711c0.29462 0.36295-0.3036 0.24478 0 0zm7.5379 15.437c0.82026-0.66942-0.67804 0.90826 0 0zm14.549-47.432c0.14006 0.42876-0.18823 0.0424 0 0zm3.1602-3.6976c0.35075 0.2498-0.35076 0.2498 0 0zm19.659-31.927c0.28781 0.30217-0.34937 0.0764 0 0zm24.244-1.37c0.34846 0.2412-0.35764 0.118 0 0zm9.5832-165.6c0.35074 0.25-0.35084 0.24969 0 0zm12.419 172.74c0.46221 0.24417-0.329 0.40058 0 0zm0.0671 8.147c0.13951 0.42955-0.18869 0.0406 0 0zm0.12879 7.4991c0.35752 0.11811-0.34846 0.24108 0 0zm8.8193 59.331c0.37754 0.57809-0.40096 0.0825 0 0zm2.0235-5.0096c0.45676 0.1612-0.16933 0.33944 0 0zm0.75311 8.2219c0.26121 0.1409-0.42201 0.0424 0 0zm6.3659-80.897c0.14011 0.42894-0.18898 0.0418 0 0zm3.1602 70.768c0.35752 0.11812-0.34845 0.24108 0 0zm9.5253 25.249c0.60055 0.63682-0.75985-0.41846 0 0zm6.0228-28.51c0.44071 0.0852-0.44071 0.0852 0 0zm3.1555-237.57c0.86933 0.1663-0.39715 0.23282 0 0zm13.067 116.3c0.47609 0.0919-0.17164 0.39537 0 0zm16.054-20.731c0.18592 0.2819-0.3356 0.22794 0 0zm12.322-32.075c0.18605 0.28167-0.33587 0.22823 0 0zm0.66675 31.195c0.59312 7e-3 -0.18982 0.52645 0 0zm8.9107 7.2852c0.35752 0.1182-0.34823 0.24127 0 0zm12.321-110.45c0.34823 0.24128-0.35752 0.11821 0 0z"/>
  <path d="m-102.35 453.96c-1.2528-1.3178-2.6018-3.0465-2.9978-3.8416s-3.0712-3.6229-5.9449-6.284c-4.8895-4.5277-5.9873-5.8864-10.122-12.527-0.88313-1.4182-2.0793-3.0072-2.6582-3.5312-1.0357-0.93734-1.0683-0.93315-2.0358 0.26167-0.54077 0.66782-1.8071 2.7114-2.8142 4.5413s-2.5547 4.3498-3.4394 5.5999c-0.88463 1.2501-3.0356 5.0521-4.7799 8.449s-3.3654 6.0563-3.6024 5.9098c-0.23702-0.14648-1.9185-2.1714-3.7367-4.4998-4.2735-5.4729-7.6045-11.531-8.5206-15.496-0.63788-2.7611-1.7339-4.4646-2.8726-4.4646-0.4488 0-2.8353 2.9817-7.6809 9.5964-2.1367 2.9168-4.4217 5.9451-5.0777 6.7296l-1.1928 1.4263-1.3219-2.689c-0.72703-1.4789-2.9241-4.8482-4.8824-7.4872-2.248-3.0295-3.8501-5.774-4.346-7.4454-0.72364-2.4386-2.2032-4.2028-3.4805-4.1498-0.28543 0.0118-1.4263 1.2051-2.5353 2.6516-1.109 1.4466-4.843 6.1089-8.2979 10.361-4.983 6.1325-6.3744 7.5647-6.7308 6.9278-0.75188-1.3436-2.4002-15.856-2.4003-21.132-7e-5 -4.9027-0.0129-4.9548-1.1365-4.6303-2.0002 0.57766-3.5843 2.0152-6.9448 6.3024-1.9966 2.5471-4.3715 4.9073-6.0609 6.0232-1.6759 1.107-4.4768 3.883-7.0604 6.9977-3.9609 4.7752-4.3169 5.0776-4.7412 4.0277-0.79224-1.9605-1.018-15.859-0.32145-19.785 0.67485-3.8038 2.9892-10.842 4.663-14.18 3.1692-6.3204 9.3324-13.338 15.289-17.408 4.1959-2.8672 5.5319-4.2484 5.1279-5.3014-0.57928-1.5096-2.8998-0.81433-7.0713 2.1185-8.3026 5.8374-21.121 17.199-24.928 22.094-1.3806 1.7755-2.4382 2.7452-2.5683 2.355-0.51996-1.5599 3.1196-26.743 4.5216-31.287 2.3992-7.775 6.6769-14.449 13.246-20.668 4.9148-4.6522 10.102-8.0711 15.82-10.426 3.0585-1.2599 3.9692-1.8692 4.0949-2.7396 0.0903-0.62547-0.15506-1.241-0.55612-1.3949-1.3626-0.52286-23.871 8.5472-34.164 13.767-2.8954 1.4682-5.3684 2.5654-5.4956 2.4382-0.46267-0.46266 2.0688-5.8423 4.4467-9.4498 2.8404-4.3092 8.857-10.489 13.889-14.266 8.5233-6.3971 10.782-7.9137 14.617-9.8137 5.1203-2.5367 9.5496-4.0193 19.638-6.5733 8.007-2.027 9.4337-2.6193 9.4337-3.9159 0-0.84237-0.63345-0.88148-12.122-0.74833-13.511 0.1566-24.461 1.3324-36.618 3.932-1.421 0.30386-1.4681 0.26643-0.75761-0.60167 1.3259-1.62 7.2422-5.165 11.648-6.9797 16.928-6.9717 36.74-10.183 50.015-8.1068 1.3237 0.20703 2.0474 0.0482 2.6847-0.589 0.82652-0.82652 0.66472-0.98399-3.0749-2.9926-2.1711-1.1661-5.652-3.2304-7.7354-4.5874s-4.6262-2.9288-5.6505-3.4929c-2.9482-1.6234-7.1407-4.5665-8.1911-5.75-0.95934-1.0808-0.95786-1.0839 0.50508-1.0654 0.80699 0.0102 3.0582 0.35208 5.0028 0.75972 1.9445 0.40763 3.9901 0.82295 4.5457 0.92294 11.276 2.0293 22.814 5.2462 27.739 7.7338 2.7723 1.4003 6.7179 4.6973 8.0745 6.7471 0.72817 1.1003 1.6452 2.0006 2.0377 2.0006 0.69057 0 2.8074-2.2836 2.8074-3.0286 0-0.20182-1.835-3.1827-4.0778-6.6241-2.2428-3.4415-4.7801-7.5744-5.6385-9.1844-0.85836-1.61-2.4194-3.6074-3.469-4.4386-1.899-1.504-3.9873-4.3568-3.9873-5.447 0-1.0264 1.2928-0.61299 6.7426 2.1561 10.612 5.392 19.366 12.151 24.54 18.948 1.6846 2.2129 3.3245 4.1852 3.6443 4.3828 0.33503 0.20706 1.1378-0.29392 1.894-1.1821 2.8686-3.3688 9.4734-7.3632 16.63-10.057 4.5701-1.7204 15.016-4.5961 18.22-5.016 3.4764-0.45555 3.1484 0.245-1.1232 2.3987-7.0803 3.5698-13.034 8.7643-15.248 13.304-1.8243 3.74-3.4159 10.932-2.7859 12.589 0.71519 1.8811 1.8499 2.1191 3.9761 0.83405 6.5703-3.971 13.231-5.9406 25.585-7.5659 8.7283-1.1483 20.463-1.4153 22.819-0.51924 1.3578 0.51623 1.2006 0.62229-3.6289 2.4474-6.0475 2.2854-8.6039 3.5564-12.624 6.2764-5.6503 3.8226-9.9674 9.2878-11.328 14.34-0.76258 2.832-0.32643 3.6698 1.9118 3.6722 5.3262 6e-3 14.334 2.1562 23.552 5.6223 5.9269 2.2286 18.203 7.9151 17.849 8.2684-0.11634 0.11634-2.474-0.47239-5.2392-1.3083-7.8232-2.3649-11.567-3.0323-18.794-3.3501-5.9963-0.26368-6.8002-0.19926-7.7024 0.61726-0.55405 0.50141-1.0074 1.0652-1.0074 1.2528 0 0.18765 1.0796 1.1141 2.3991 2.0587 1.3195 0.94464 4.5583 3.3618 7.1973 5.3715s6.2414 4.7414 8.0052 6.0705c3.8929 2.9334 8.7508 8.4548 12.728 14.467 2.8309 4.2787 4.9702 9.1339 4.3139 9.7902-0.17009 0.1701-0.93192-0.27668-1.693-0.99285-2.0175-1.8986-17.982-12.319-21.953-14.33-3.8479-1.9481-5.4422-2.1819-5.4422-0.79816 0 0.5068 1.6019 4.9957 3.5598 9.9752s4.0162 10.645 4.5739 12.589c1.1099 3.8697 1.9193 14.595 1.9438 25.759l0.0144 6.566-1.9356-3.0305c-1.9204-3.0067-6.6308-9.4587-10.96-15.012-2.3952-3.0726-6.8912-6.7103-8.9242-7.2206-0.81322-0.20411-1.4557-0.0313-1.9074 0.51289-0.57879 0.69739-0.44029 1.8276 0.92196 7.5237 2.6681 11.156 3.2429 16.148 2.9431 25.561-0.2574 8.0812-0.97015 13.132-1.8532 13.132-0.23657 0-0.55691-0.39945-0.71186-0.88766-0.43116-1.3584-4.527-5.4321-8.5474-8.5011-1.9873-1.517-4.5969-3.548-5.7991-4.5134-1.2022-0.96536-2.7276-1.7552-3.3898-1.7552-1.4109 0-1.9643 1.6266-2.4918 7.3236-0.76652 8.2784-3.2562 21.45-4.2717 22.599-0.18258 0.2066-1.357-0.70253-2.6097-2.0203zm-24.258-47.334c4.8089-1.0116 10.379-3.2132 14.852-5.8706 4.0002-2.3765 9.9602-7.8521 9.9602-9.1506 0-0.53799-1.6156-1.6021-4.672-3.0772-5.4719-2.6409-4.7033-2.3552-13.981-5.1951-23.027-7.0486-34.733-8.0242-42.652-3.5553-3.8324 2.1625-12.394 9.7387-14.361 12.708-2.5101 3.7895-2.3018 4.3275 2.5302 6.5363 10.768 4.9224 20.021 7.5819 28.95 8.3213 6.8925 0.57077 14.612 0.28533 19.374-0.71638zm22.526-51.261c2.9717-1.452 6.3705-4.7064 7.7486-7.4195 1.2351-2.4316 2.2157-7.087 2.19-10.398-0.0642-8.2875-9.8331-15.983-20.348-16.028-4.244-0.0184-7.7198 1.3094-10.802 4.1266-1.4606 1.3349-2.7919 2.4271-2.9584 2.4271-0.16656 0-1.1285-1.2436-2.1377-2.7636s-2.2048-2.8838-2.6568-3.0309c-0.45205-0.14702-1.1956-1.1594-1.6522-2.2496-1.6119-3.8483-7.6088-5.1788-14.847-3.2939-8.1595 2.1247-14.448 9.3398-15.205 17.445-0.41368 4.4301 0.30922 6.4042 3.6774 10.042 3.7118 4.0092 6.0521 5.0729 11.932 5.4237 6.093 0.36351 9.6553-0.59443 12.722-3.4211l2.1698-2.0001 0.30615 1.5308c0.70608 3.5304 7.8045 8.9303 13.712 10.431 1.4724 0.37401 4.8419 0.5923 8.0812 0.52354 4.7082-0.0999 5.9391-0.3052 8.068-1.3454z" fill="#000080" stroke="#000" stroke-linecap="round" stroke-linejoin="round" stroke-width=".50508"/>
  <path d="m-131.77 399.63c-1.6947-3.4374-2.822-5.0822-3.9899-5.8217-1.5356-0.97226-1.6821-0.9821-2.5854-0.17362-0.52666 0.47138-1.5225 2.1537-2.2129 3.7386l-1.2553 2.8815-2.2417-2.7519c-2.1841-2.6812-4.0447-3.7388-5.2583-2.9887-0.3293 0.20352-1.4767 2.2705-2.5498 4.5932-1.7572 3.8036-2.0896 4.223-3.3443 4.2213-1.6419-2e-3 -16.878-5.1592-18.625-6.3042-0.66167-0.43355-1.203-0.98257-1.203-1.2201 0-0.23749 2.3297-2.8408 5.177-5.7852 3.6372-3.7611 5.6312-5.4439 6.7039-5.6577 2.2086-0.44009 3.204 0.91208 3.6992 5.025 0.40254 3.3437 1.4722 5.2988 2.5386 4.6397 0.29587-0.18286 1.1128-2.1522 1.8154-4.3764 1.7502-5.5404 2.4327-6.705 5.1415-8.7733 2.7081-2.0678 3.5004-2.1389 9.0007-0.80785 2.2313 0.53998 4.9004 1.1168 5.9314 1.2819 1.0979 0.17579 2.4579 0.89259 3.283 1.7303 2.0532 2.0846 5.1967 8.6378 5.1967 10.833 0 1.8336 1.5941 4.1835 2.4705 3.6418 0.22733-0.14049 0.91825-1.6403 1.5354-3.3328 0.71178-1.9521 1.9245-3.9148 3.3166-5.3677 1.982-2.0685 2.3574-2.2586 3.8758-1.9626 2.3881 0.46548 8.053 3.3841 8.7068 4.4858 0.46774 0.78817 0.15769 1.2821-2.061 3.283-1.4364 1.2954-3.8965 3.1319-5.4669 4.081-3.0577 1.8481-10.459 4.7934-13.428 5.3432l-1.8084 0.33493-2.3621-4.791z" fill="#008080" stroke="#000" stroke-linecap="round" stroke-linejoin="round" stroke-width=".50508"/>
  <path d="m-233.37 278.47c-0.55559-0.32156-2.342-1.5647-3.9699-2.7626-2.4278-1.7865-2.7455-2.1774-1.7678-2.1751 2.4667 6e-3 4.9398 1.0807 6.4537 2.8049 2.2221 2.5309 1.856 3.6214-0.71606 2.1327z" fill="#000080" stroke="#000" stroke-linecap="round" stroke-linejoin="round" stroke-width=".50508"/>
  <path d="m-223.01 270.96c6e-3 -0.88313 2.796-5.8211 3.5539-6.2895 1.0388-0.64203 1.0695 0.18723 0.0877 2.3714-1.07 2.3804-3.6498 5.1561-3.6416 3.9181z" fill="#000080" stroke="#000" stroke-linecap="round" stroke-linejoin="round" stroke-width=".50508"/>
  <path d="m-221.75 282.35c-0.83337-0.38159-1.8982-0.70406-2.3662-0.71659-0.46805-0.0125-1.4831-0.26311-2.2557-0.55685-1.9902-0.75666-0.57862-1.5152 1.5843-0.85135 1.2149 0.37286 2.8106 0.29319 6.0085-0.3 6.0569-1.1235 7.4588-0.37391 3.8604 2.0642-1.901 1.288-4.5055 1.4255-6.8312 0.36056z" fill="#000080" stroke="#000" stroke-linecap="round" stroke-linejoin="round" stroke-width=".50508"/>
  <path d="m-17.904 285.45c-5.4446-4.6503-7.2532-7.8228-5.357-9.3966 1.6179-1.3427 4.525 1.8935 6.1232 6.8164 0.45092 1.389 1.5156 3.2606 2.3658 4.1593 2.7531 2.9097 1.2164 2.1349-3.132-1.5792z" fill="#000080" stroke="#000" stroke-linecap="round" stroke-linejoin="round" stroke-width=".50508"/>
  <path d="m-6.8432 287.75c0-3.109 3.1942-8.1577 5.1611-8.1577 3.1428 0 0.35977 6.2624-3.7208 8.3725-1.3396 0.69273-1.4402 0.67771-1.4402-0.21484z" fill="#000080" stroke="#000" stroke-linecap="round" stroke-linejoin="round" stroke-width=".50508"/>
  <path d="m-22.447 294.88c-1.0234-0.82873-1.1123-1.1294-0.61082-2.0665 0.79566-1.4867 2.6794-1.8656 5.7887-1.1644 3.9641 0.89401 4.2511 1.2472 2.0961 2.5791-2.6062 1.6108-5.7426 1.8918-7.274 0.65177z" fill="#000080" stroke="#000" stroke-linecap="round" stroke-linejoin="round" stroke-width=".50508"/>
 </g>
</svg>
