<?xml version="1.0" encoding="UTF-8"?>
<svg width="210mm" height="297mm" version="1.1" viewBox="0 0 210 297" xmlns="http://www.w3.org/2000/svg">
 <g transform="matrix(.26458 0 0 .26458 -47.875 64.792)" fill-rule="evenodd">
  <path d="m364.25 545.67v14.173h14.173v-14.173z" fill="#009ee0"/>
  <path d="m364.25 531.5v14.173h14.173v-14.173z" fill="#009ee0"/>
  <path d="m364.25 517.32v14.173h14.173v-14.173z" fill="#009ee0"/>
  <path d="m364.25 503.15v14.173h14.173v-14.173z" fill="#009ee0"/>
  <path d="m364.25 488.98v14.173h14.173v-14.173z" fill="#ffcb00"/>
  <path d="m350.08 474.8v14.173h14.173v-14.173z" fill="#ffcb00"/>
  <path d="m364.25 474.8v14.173h14.173v-14.173z" fill="#ffcb00"/>
  <path d="m350.08 460.63v14.173h14.173v-14.173z" fill="#ffcb00"/>
  <path d="m364.25 460.63v14.173h14.173v-14.173z" fill="#ffcb00"/>
  <path d="m364.25 446.46v14.173h14.173v-14.173z" fill="#ffcb00"/>
  <path d="m378.43 446.46v14.173h14.173v-14.173z" fill="#ffcb00"/>
  <path d="m378.43 432.28v14.173h14.173v-14.173z" fill="#ffcb00"/>
  <path d="m392.6 418.11v14.173h14.173v-14.173z" fill="#ffcb00"/>
  <path d="m406.77 403.94v14.173h14.173v-14.173z" fill="#ffcb00"/>
  <path d="m406.77 389.76v14.173h14.173v-14.173z" fill="#ffcb00"/>
  <path d="m406.77 375.59v14.173h14.173v-14.173z" fill="#ffcb00"/>
  <path d="m392.6 432.28v14.173h14.173v-14.173z" fill="#ffcb00"/>
  <path d="m406.77 418.11v14.173h14.173v-14.173z" fill="#ffcb00"/>
  <path d="m420.94 403.94v14.173h14.173v-14.173z" fill="#ffcb00"/>
  <path d="m420.94 389.76v14.173h14.173v-14.173z" fill="#ffcb00"/>
  <path d="m435.12 389.76v14.173h14.173v-14.173z" fill="#ffcb00"/>
  <path d="m420.94 375.59v14.173h14.173v-14.173z" fill="#ffcb00"/>
  <path d="m435.12 361.42v14.173h14.173v-14.173z" fill="#ffcb00"/>
  <path d="m449.29 347.24v14.173h14.173v-14.173z" fill="#ffcb00"/>
  <path d="m463.46 333.07v14.173h14.173v-14.173z" fill="#ffcb00"/>
  <path d="m463.46 318.9v14.173h14.173v-14.173z" fill="#ffcb00"/>
  <path d="m406.77 333.07v14.173h14.173v-14.173z" fill="#ffcb00"/>
  <path d="m406.77 318.9v14.173h14.173v-14.173z" fill="#ffcb00"/>
  <path d="m392.6 304.72v14.173h14.173v-14.173z" fill="#ffcb00"/>
  <path d="m378.43 290.55v14.173h14.173v-14.173z" fill="#ffcb00"/>
  <path d="m364.25 276.38v14.173h14.173v-14.173z" fill="#ffcb00"/>
  <path d="m350.08 262.2v14.173h14.173v-14.173z" fill="#ffcb00"/>
  <path d="m335.91 248.03v14.173h14.173v-14.173z" fill="#ffcb00"/>
  <path d="m321.73 233.86v14.173h14.173v-14.173z" fill="#ffcb00"/>
  <path d="m307.56 219.68v14.173h14.173v-14.173z" fill="#ffcb00"/>
  <path d="m279.21 205.51v14.173h14.173v-14.173z" fill="#ffcb00"/>
  <path d="m265.04 191.34v14.173h14.173v-14.173z" fill="#ffcb00"/>
  <path d="m236.69 177.17v14.173h14.173v-14.173z" fill="#ffcb00"/>
  <path d="m194.17 162.99v14.173h14.173v-14.173z" fill="#ffcb00"/>
  <path d="m151.65 148.82v14.173h14.173v-14.173z" fill="#ffcb00"/>
  <path d="m293.39 219.68v14.173h14.173v-14.173z" fill="#ffcb00"/>
  <path d="m265.04 205.51v14.173h14.173v-14.173z" fill="#ffcb00"/>
  <path d="m250.87 191.34v14.173h14.173v-14.173z" fill="#ffcb00"/>
  <path d="m222.52 177.17v14.173h14.173v-14.173z" fill="#ffcb00"/>
  <path d="m180 162.99v14.173h14.173v-14.173z" fill="#ffcb00"/>
  <path d="m137.48 148.82v14.173h14.173v-14.173z" fill="#ffcb00"/>
  <path d="m208.35 177.17v14.173h14.173v-14.173z" fill="#ffcb00"/>
  <path d="m165.83 162.99v14.173h14.173v-14.173z" fill="#ffcb00"/>
  <path d="m123.31 148.82v14.173h14.173v-14.173z" fill="#ffcb00"/>
  <path d="m435.12 375.59v14.173h14.173v-14.173z" fill="#ffcb00"/>
  <path d="m449.29 361.42v14.173h14.173v-14.173z" fill="#ffcb00"/>
  <path d="m463.46 347.24v14.173h14.173v-14.173z" fill="#ffcb00"/>
  <path d="m477.64 333.07v14.173h14.173v-14.173z" fill="#ffcb00"/>
  <path d="m420.94 333.07v14.173h14.173v-14.173z" fill="#ffcb00"/>
  <path d="m420.94 318.9v14.173h14.173v-14.173z" fill="#ffcb00"/>
  <path d="m406.77 304.72v14.173h14.173v-14.173z" fill="#ffcb00"/>
  <path d="m392.6 290.55v14.173h14.173v-14.173z" fill="#ffcb00"/>
  <path d="m378.43 276.38v14.173h14.173v-14.173z" fill="#ffcb00"/>
  <path d="m364.25 262.2v14.173h14.173v-14.173z" fill="#ffcb00"/>
  <path d="m350.08 248.03v14.173h14.173v-14.173z" fill="#ffcb00"/>
  <path d="m335.91 233.86v14.173h14.173v-14.173z" fill="#ffcb00"/>
  <path d="m321.73 219.68v14.173h14.173v-14.173z" fill="#ffcb00"/>
  <path d="m293.39 205.51v14.173h14.173v-14.173z" fill="#ffcb00"/>
  <path d="m279.21 191.34v14.173h14.173v-14.173z" fill="#ffcb00"/>
  <path d="m250.87 177.17v14.173h14.173v-14.173z" fill="#ffcb00"/>
  <path d="m208.35 162.99v14.173h14.173v-14.173z" fill="#ffcb00"/>
  <path d="m165.83 148.82v14.173h14.173v-14.173z" fill="#ffcb00"/>
  <path d="m449.29 375.59v14.173h14.173v-14.173z" fill="#ffcb00"/>
  <path d="m463.46 361.42v14.173h14.173v-14.173z" fill="#ffcb00"/>
  <path d="m477.64 347.24v14.173h14.173v-14.173z" fill="#ffcb00"/>
  <path d="m491.81 333.07v14.173h14.173v-14.173z" fill="#ffcb00"/>
  <path d="m435.12 333.07v14.173h14.173v-14.173z" fill="#ffcb00"/>
  <path d="m435.12 318.9v14.173h14.173v-14.173z" fill="#ffcb00"/>
  <path d="m420.94 304.72v14.173h14.173v-14.173z" fill="#ffcb00"/>
  <path d="m406.77 290.55v14.173h14.173v-14.173z" fill="#ffcb00"/>
  <path d="m392.6 276.38v14.173h14.173v-14.173z" fill="#ffcb00"/>
  <path d="m378.43 262.2v14.173h14.173v-14.173z" fill="#ffcb00"/>
  <path d="m364.25 248.03v14.173h14.173v-14.173z" fill="#ffcb00"/>
  <path d="m350.08 233.86v14.173h14.173v-14.173z" fill="#ffcb00"/>
  <path d="m335.91 219.68v14.173h14.173v-14.173z" fill="#ffcb00"/>
  <path d="m307.56 205.51v14.173h14.173v-14.173z" fill="#ffcb00"/>
  <path d="m293.39 191.34v14.173h14.173v-14.173z" fill="#ffcb00"/>
  <path d="m265.04 177.17v14.173h14.173v-14.173z" fill="#ffcb00"/>
  <path d="m222.52 162.99v14.173h14.173v-14.173z" fill="#ffcb00"/>
  <path d="m180 148.82v14.173h14.173v-14.173z" fill="#ffcb00"/>
  <path d="m236.69 162.99v14.173h14.173v-14.173z" fill="#ffcb00"/>
  <path d="m194.17 148.82v14.173h14.173v-14.173z" fill="#ffcb00"/>
  <path d="m250.87 162.99v14.173h14.173v-14.173z" fill="#ffcb00"/>
  <path d="m208.35 148.82v14.173h14.173v-14.173z" fill="#ffcb00"/>
  <path d="m378.43 248.03v14.173h14.173v-14.173z" fill="#ffcb00"/>
  <path d="m449.29 333.07v14.173h14.173v-14.173z" fill="#ffcb00"/>
  <path d="m449.29 318.9v14.173h14.173v-14.173z" fill="#ffcb00"/>
  <path d="m435.12 304.72v14.173h14.173v-14.173z" fill="#ffcb00"/>
  <path d="m420.94 290.55v14.173h14.173v-14.173z" fill="#ffcb00"/>
  <path d="m378.43 545.67v14.173h14.173v-14.173z" fill="#009ee0"/>
  <path d="m378.43 531.5v14.173h14.173v-14.173z" fill="#009ee0"/>
  <path d="m378.43 517.32v14.173h14.173v-14.173z" fill="#009ee0"/>
  <path d="m378.43 503.15v14.173h14.173v-14.173z" fill="#009ee0"/>
  <path d="m378.43 488.98v14.173h14.173v-14.173z" fill="#009ee0"/>
  <path d="m378.43 474.8v14.173h14.173v-14.173z" fill="#009ee0"/>
  <path d="m378.43 460.63v14.173h14.173v-14.173z" fill="#009ee0"/>
  <path d="m392.6 460.63v14.173h14.173v-14.173z" fill="#009ee0"/>
  <path d="m392.6 446.46v14.173h14.173v-14.173z" fill="#009ee0"/>
  <path d="m406.77 446.46v14.173h14.173v-14.173z" fill="#009ee0"/>
  <path d="m420.94 432.28v14.173h14.173v-14.173z" fill="#009ee0"/>
  <path d="m435.12 418.11v14.173h14.173v-14.173z" fill="#009ee0"/>
  <path d="m449.29 403.94v14.173h14.173v-14.173z" fill="#009ee0"/>
  <path d="m406.77 432.28v14.173h14.173v-14.173z" fill="#009ee0"/>
  <path d="m420.94 418.11v14.173h14.173v-14.173z" fill="#009ee0"/>
  <path d="m435.12 403.94v14.173h14.173v-14.173z" fill="#009ee0"/>
  <path d="m449.29 389.76v14.173h14.173v-14.173z" fill="#009ee0"/>
  <path d="m463.46 389.76v14.173h14.173v-14.173z" fill="#009ee0"/>
  <path d="m463.46 375.59v14.173h14.173v-14.173z" fill="#009ee0"/>
  <path d="m477.64 375.59v14.173h14.173v-14.173z" fill="#009ee0"/>
  <path d="m491.81 375.59v14.173h14.173v-14.173z" fill="#009ee0"/>
  <path d="m505.98 375.59v14.173h14.173v-14.173z" fill="#009ee0"/>
  <path d="m520.16 375.59v14.173h14.173v-14.173z" fill="#009ee0"/>
  <path d="m534.33 375.59v14.173h14.173v-14.173z" fill="#009ee0"/>
  <path d="m548.5 375.59v14.173h14.173v-14.173z" fill="#009ee0"/>
  <path d="m562.68 375.59v14.173h14.173v-14.173z" fill="#009ee0"/>
  <path d="m576.85 375.59v14.173h14.173v-14.173z" fill="#009ee0"/>
  <path d="m477.64 361.42v14.173h14.173v-14.173z" fill="#009ee0"/>
  <path d="m491.81 361.42v14.173h14.173v-14.173z" fill="#009ee0"/>
  <path d="m505.98 361.42v14.173h14.173v-14.173z" fill="#009ee0"/>
  <path d="m520.16 361.42v14.173h14.173v-14.173z" fill="#009ee0"/>
  <path d="m534.33 361.42v14.173h14.173v-14.173z" fill="#009ee0"/>
  <path d="m548.5 361.42v14.173h14.173v-14.173z" fill="#009ee0"/>
  <path d="m562.68 361.42v14.173h14.173v-14.173z" fill="#009ee0"/>
  <path d="m576.85 361.42v14.173h14.173v-14.173z" fill="#009ee0"/>
  <path d="m591.02 361.42v14.173h14.173v-14.173z" fill="#009ee0"/>
  <path d="m491.81 347.24v14.173h14.173v-14.173z" fill="#009ee0"/>
  <path d="m505.98 347.24v14.173h14.173v-14.173z" fill="#009ee0"/>
  <path d="m520.16 347.24v14.173h14.173v-14.173z" fill="#009ee0"/>
  <path d="m534.33 347.24v14.173h14.173v-14.173z" fill="#009ee0"/>
  <path d="m548.5 347.24v14.173h14.173v-14.173z" fill="#009ee0"/>
  <path d="m562.68 347.24v14.173h14.173v-14.173z" fill="#009ee0"/>
  <path d="m576.85 347.24v14.173h14.173v-14.173z" fill="#009ee0"/>
  <path d="m591.02 347.24v14.173h14.173v-14.173z" fill="#009ee0"/>
  <path d="m505.98 333.07v14.173h14.173v-14.173z" fill="#009ee0"/>
  <path d="m520.16 333.07v14.173h14.173v-14.173z" fill="#009ee0"/>
  <path d="m534.33 333.07v14.173h14.173v-14.173z" fill="#009ee0"/>
  <path d="m548.5 333.07v14.173h14.173v-14.173z" fill="#009ee0"/>
  <path d="m562.68 333.07v14.173h14.173v-14.173z" fill="#009ee0"/>
  <path d="m562.68 318.9v14.173h14.173v-14.173z" fill="#009ee0"/>
  <path d="m576.85 318.9v14.173h14.173v-14.173z" fill="#009ee0"/>
  <path d="m591.02 318.9v14.173h14.173v-14.173z" fill="#009ee0"/>
  <path d="m591.02 304.72v14.173h14.173v-14.173z" fill="#009ee0"/>
  <path d="m576.85 333.07v14.173h14.173v-14.173z" fill="#009ee0"/>
  <path d="m591.02 333.07v14.173h14.173v-14.173z" fill="#009ee0"/>
  <path d="m605.2 333.07v14.173h14.173v-14.173z" fill="#009ee0"/>
  <path d="m605.2 318.9v14.173h14.173v-14.173z" fill="#009ee0"/>
  <path d="m605.2 304.72v14.173h14.173v-14.173z" fill="#009ee0"/>
  <path d="m619.37 304.72v14.173h14.173v-14.173z" fill="#ffcb00"/>
  <path d="m619.37 290.55v14.173h14.173v-14.173z" fill="#ffcb00"/>
  <path d="m605.2 290.55v14.173h14.173v-14.173z" fill="#ffcb00"/>
  <path d="m591.02 290.55v14.173h14.173v-14.173z" fill="#ffcb00"/>
  <path d="m576.85 290.55v14.173h14.173v-14.173z" fill="#ffcb00"/>
  <path d="m562.68 290.55v14.173h14.173v-14.173z" fill="#ffcb00"/>
  <path d="m548.5 290.55v14.173h14.173v-14.173z" fill="#ffcb00"/>
  <path d="m548.5 304.72v14.173h14.173v-14.173z" fill="#ffcb00"/>
  <path d="m548.5 318.9v14.173h14.173v-14.173z" fill="#ffcb00"/>
  <path d="m562.68 304.72v14.173h14.173v-14.173z" fill="#ffcb00"/>
  <path d="m576.85 304.72v14.173h14.173v-14.173z" fill="#ffcb00"/>
  <path d="m562.68 276.38v14.173h14.173v-14.173z" fill="#ffcb00"/>
  <path d="m576.85 262.2v14.173h14.173v-14.173z" fill="#ffcb00"/>
  <path d="m591.02 262.2v14.173h14.173v-14.173z" fill="#ffcb00"/>
  <path d="m605.2 262.2v14.173h14.173v-14.173z" fill="#ffcb00"/>
  <path d="m591.02 248.03v14.173h14.173v-14.173z" fill="#ffcb00"/>
  <path d="m661.89 219.68v14.173h14.173v-14.173z" fill="#ffcb00"/>
  <path d="m661.89 205.51v14.173h14.173v-14.173z" fill="#ffcb00"/>
  <path d="m661.89 191.34v14.173h14.173v-14.173z" fill="#ffcb00"/>
  <path d="m676.06 191.34v14.173h14.173v-14.173z" fill="#ffcb00"/>
  <path d="m676.06 177.17v14.173h14.173v-14.173z" fill="#ffcb00"/>
  <path d="m690.24 177.17v14.173h14.173v-14.173z" fill="#ffcb00"/>
  <path d="m676.06 162.99v14.173h14.173v-14.173z" fill="#ffcb00"/>
  <path d="m690.24 162.99v14.173h14.173v-14.173z" fill="#ffcb00"/>
  <path d="m690.24 148.82v14.173h14.173v-14.173z" fill="#ffcb00"/>
  <path d="m704.41 148.82v14.173h14.173v-14.173z" fill="#ffcb00"/>
  <path d="m718.58 134.65v14.173h14.173v-14.173z" fill="#ffcb00"/>
  <path d="m704.41 134.65v14.173h14.173v-14.173z" fill="#ffcb00"/>
  <path d="m704.41 162.99v14.173h14.173v-14.173z" fill="#ffcb00"/>
  <path d="m718.58 148.82v14.173h14.173v-14.173z" fill="#ffcb00"/>
  <path d="m732.76 134.65v14.173h14.173v-14.173z" fill="#ffcb00"/>
  <path d="m746.93 120.47v14.173h14.173v-14.173z" fill="#1b1918"/>
  <path d="m718.58 77.953v14.173h14.173v-14.173z" fill="#1b1918"/>
  <path d="m718.58 162.99v14.173h14.173v-14.173z" fill="#ffcb00"/>
  <path d="m732.76 148.82v14.173h14.173v-14.173z" fill="#ffcb00"/>
  <path d="m746.93 134.65v14.173h14.173v-14.173z" fill="#ffcb00"/>
  <path d="m761.1 120.47v14.173h14.173v-14.173z" fill="#1b1918"/>
  <path d="m732.76 162.99v14.173h14.173v-14.173z" fill="#ffcb00"/>
  <path d="m746.93 148.82v14.173h14.173v-14.173z" fill="#ffcb00"/>
  <path d="m761.1 134.65v14.173h14.173v-14.173z" fill="#ffcb00"/>
  <path d="m775.28 120.47v14.173h14.173v-14.173z" fill="#1b1918"/>
  <path d="m746.93 162.99v14.173h14.173v-14.173z" fill="#ffcb00"/>
  <path d="m761.1 148.82v14.173h14.173v-14.173z" fill="#ffcb00"/>
  <path d="m775.28 134.65v14.173h14.173v-14.173z" fill="#ffcb00"/>
  <path d="m789.45 120.47v14.173h14.173v-14.173z" fill="#1b1918"/>
  <path d="m761.1 162.99v14.173h14.173v-14.173z" fill="#ffcb00"/>
  <path d="m775.28 148.82v14.173h14.173v-14.173z" fill="#ffcb00"/>
  <path d="m789.45 134.65v14.173h14.173v-14.173z" fill="#ffcb00"/>
  <path d="m803.62 120.47v14.173h14.173v-14.173z" fill="#1b1918"/>
  <path d="m775.28 162.99v14.173h14.173v-14.173z" fill="#ffcb00"/>
  <path d="m789.45 148.82v14.173h14.173v-14.173z" fill="#ffcb00"/>
  <path d="m803.62 134.65v14.173h14.173v-14.173z" fill="#ffcb00"/>
  <path d="m817.8 120.47v14.173h14.173v-14.173z" fill="#1b1918"/>
  <path d="m576.85 276.38v14.173h14.173v-14.173z" fill="#ffcb00"/>
  <path d="m591.02 276.38v14.173h14.173v-14.173z" fill="#ffcb00"/>
  <path d="m605.2 276.38v14.173h14.173v-14.173z" fill="#ffcb00"/>
  <path d="m633.54 304.72v14.173h14.173v-14.173z" fill="#009ee0"/>
  <path d="m633.54 290.55v14.173h14.173v-14.173z" fill="#009ee0"/>
  <path d="m619.37 276.38v14.173h14.173v-14.173z" fill="#009ee0"/>
  <path d="m619.37 262.2v14.173h14.173v-14.173z" fill="#009ee0"/>
  <path d="m605.2 248.03v14.173h14.173v-14.173z" fill="#009ee0"/>
  <path d="m633.54 276.38v14.173h14.173v-14.173z" fill="#009ee0"/>
  <path d="m633.54 262.2v14.173h14.173v-14.173z" fill="#009ee0"/>
  <path d="m619.37 248.03v14.173h14.173v-14.173z" fill="#009ee0"/>
  <path d="m647.72 276.38v14.173h14.173v-14.173z" fill="#009ee0"/>
  <path d="m647.72 262.2v14.173h14.173v-14.173z" fill="#009ee0"/>
  <path d="m633.54 248.03v14.173h14.173v-14.173z" fill="#009ee0"/>
  <path d="m661.89 276.38v14.173h14.173v-14.173z" fill="#009ee0"/>
  <path d="m661.89 262.2v14.173h14.173v-14.173z" fill="#009ee0"/>
  <path d="m647.72 248.03v14.173h14.173v-14.173z" fill="#009ee0"/>
  <path d="m647.72 233.86v14.173h14.173v-14.173z" fill="#009ee0"/>
  <path d="m647.72 219.68v14.173h14.173v-14.173z" fill="#009ee0"/>
  <path d="m647.72 205.51v14.173h14.173v-14.173z" fill="#009ee0"/>
  <path d="m647.72 191.34v14.173h14.173v-14.173z" fill="#009ee0"/>
  <path d="m647.72 177.17v14.173h14.173v-14.173z" fill="#009ee0"/>
  <path d="m661.89 177.17v14.173h14.173v-14.173z" fill="#009ee0"/>
  <path d="m661.89 162.99v14.173h14.173v-14.173z" fill="#009ee0"/>
  <path d="m676.06 148.82v14.173h14.173v-14.173z" fill="#009ee0"/>
  <path d="m661.89 148.82v14.173h14.173v-14.173z" fill="#009ee0"/>
  <path d="m676.06 134.65v14.173h14.173v-14.173z" fill="#009ee0"/>
  <path d="m690.24 120.47v14.173h14.173v-14.173z" fill="#009ee0"/>
  <path d="m690.24 106.3v14.173h14.173v-14.173z" fill="#009ee0"/>
  <path d="m690.24 92.126v14.173h14.173v-14.173z" fill="#009ee0"/>
  <path d="m704.41 106.3v14.173h14.173v-14.173z" fill="#009ee0"/>
  <path d="m704.41 92.126v14.173h14.173v-14.173z" fill="#009ee0"/>
  <path d="m718.58 106.3v14.173h14.173v-14.173z" fill="#009ee0"/>
  <path d="m718.58 92.126v14.173h14.173v-14.173z" fill="#009ee0"/>
  <path d="m732.76 106.3v14.173h14.173v-14.173z" fill="#009ee0"/>
  <path d="m732.76 92.126v14.173h14.173v-14.173z" fill="#009ee0"/>
  <path d="m746.93 106.3v14.173h14.173v-14.173z" fill="#009ee0"/>
  <path d="m746.93 92.126v14.173h14.173v-14.173z" fill="#009ee0"/>
  <path d="m761.1 106.3v14.173h14.173v-14.173z" fill="#009ee0"/>
  <path d="m761.1 92.126v14.173h14.173v-14.173z" fill="#009ee0"/>
  <path d="m732.76 77.953v14.173h14.173v-14.173z" fill="#009ee0"/>
  <path d="m718.58 63.78v14.173h14.173v-14.173z" fill="#009ee0"/>
  <path d="m676.06 49.606v14.173h14.173v-14.173z" fill="#009ee0"/>
  <path d="m775.28 106.3v14.173h14.173v-14.173z" fill="#009ee0"/>
  <path d="m775.28 92.126v14.173h14.173v-14.173z" fill="#009ee0"/>
  <path d="m746.93 77.953v14.173h14.173v-14.173z" fill="#009ee0"/>
  <path d="m732.76 63.78v14.173h14.173v-14.173z" fill="#009ee0"/>
  <path d="m690.24 49.606v14.173h14.173v-14.173z" fill="#009ee0"/>
  <path d="m690.24 35.433v14.173h14.173v-14.173z" fill="#009ee0"/>
  <path d="m647.72 63.78v14.173h14.173v-14.173z" fill="#009ee0"/>
  <path d="m633.54 77.953v14.173h14.173v-14.173z" fill="#009ee0"/>
  <path d="m647.72 77.953v14.173h14.173v-14.173z" fill="#009ee0"/>
  <path d="m661.89 77.953v14.173h14.173v-14.173z" fill="#009ee0"/>
  <path d="m676.06 77.953v14.173h14.173v-14.173z" fill="#009ee0"/>
  <path d="m690.24 77.953v14.173h14.173v-14.173z" fill="#009ee0"/>
  <path d="m704.41 77.953v14.173h14.173v-14.173z" fill="#009ee0"/>
  <path d="m619.37 92.126v14.173h14.173v-14.173z" fill="#009ee0"/>
  <path d="m633.54 92.126v14.173h14.173v-14.173z" fill="#009ee0"/>
  <path d="m647.72 92.126v14.173h14.173v-14.173z" fill="#009ee0"/>
  <path d="m661.89 92.126v14.173h14.173v-14.173z" fill="#009ee0"/>
  <path d="m676.06 92.126v14.173h14.173v-14.173z" fill="#009ee0"/>
  <path d="m591.02 106.3v14.173h14.173v-14.173z" fill="#009ee0"/>
  <path d="m605.2 106.3v14.173h14.173v-14.173z" fill="#009ee0"/>
  <path d="m619.37 106.3v14.173h14.173v-14.173z" fill="#009ee0"/>
  <path d="m633.54 106.3v14.173h14.173v-14.173z" fill="#009ee0"/>
  <path d="m647.72 106.3v14.173h14.173v-14.173z" fill="#009ee0"/>
  <path d="m661.89 106.3v14.173h14.173v-14.173z" fill="#009ee0"/>
  <path d="m676.06 106.3v14.173h14.173v-14.173z" fill="#009ee0"/>
  <path d="m576.85 120.47v14.173h14.173v-14.173z" fill="#009ee0"/>
  <path d="m591.02 120.47v14.173h14.173v-14.173z" fill="#009ee0"/>
  <path d="m605.2 120.47v14.173h14.173v-14.173z" fill="#009ee0"/>
  <path d="m619.37 120.47v14.173h14.173v-14.173z" fill="#009ee0"/>
  <path d="m633.54 120.47v14.173h14.173v-14.173z" fill="#009ee0"/>
  <path d="m647.72 120.47v14.173h14.173v-14.173z" fill="#009ee0"/>
  <path d="m661.89 120.47v14.173h14.173v-14.173z" fill="#009ee0"/>
  <path d="m789.45 106.3v14.173h14.173v-14.173z" fill="#009ee0"/>
  <path d="m789.45 92.126v14.173h14.173v-14.173z" fill="#009ee0"/>
  <path d="m761.1 77.953v14.173h14.173v-14.173z" fill="#009ee0"/>
  <path d="m746.93 63.78v14.173h14.173v-14.173z" fill="#009ee0"/>
  <path d="m704.41 49.606v14.173h14.173v-14.173z" fill="#009ee0"/>
  <path d="m704.41 35.433v14.173h14.173v-14.173z" fill="#009ee0"/>
  <path d="m661.89 63.78v14.173h14.173v-14.173z" fill="#009ee0"/>
  <path d="m803.62 106.3v14.173h14.173v-14.173z" fill="#009ee0"/>
  <path d="m803.62 92.126v14.173h14.173v-14.173z" fill="#009ee0"/>
  <path d="m775.28 77.953v14.173h14.173v-14.173z" fill="#009ee0"/>
  <path d="m761.1 63.78v14.173h14.173v-14.173z" fill="#009ee0"/>
  <path d="m718.58 49.606v14.173h14.173v-14.173z" fill="#009ee0"/>
  <path d="m817.8 106.3v14.173h14.173v-14.173z" fill="#009ee0"/>
  <path d="m817.8 92.126v14.173h14.173v-14.173z" fill="#009ee0"/>
  <path d="m789.45 77.953v14.173h14.173v-14.173z" fill="#009ee0"/>
  <path d="m775.28 63.78v14.173h14.173v-14.173z" fill="#009ee0"/>
  <path d="m732.76 49.606v14.173h14.173v-14.173z" fill="#009ee0"/>
  <path d="m704.41 120.47v14.173h14.173v-14.173z" fill="#009ee0"/>
  <path d="m718.58 120.47v14.173h14.173v-14.173z" fill="#009ee0"/>
  <path d="m732.76 120.47v14.173h14.173v-14.173z" fill="#009ee0"/>
  <path d="m690.24 134.65v14.173h14.173v-14.173z" fill="#009ee0"/>
  <path d="m676.06 120.47v14.173h14.173v-14.173z" fill="#009ee0"/>
  <path d="m676.06 276.38v14.173h14.173v-14.173z" fill="#009ee0"/>
  <path d="m676.06 262.2v14.173h14.173v-14.173z" fill="#009ee0"/>
  <path d="m661.89 248.03v14.173h14.173v-14.173z" fill="#009ee0"/>
  <path d="m690.24 276.38v14.173h14.173v-14.173z" fill="#009ee0"/>
  <path d="m690.24 262.2v14.173h14.173v-14.173z" fill="#009ee0"/>
  <path d="m676.06 248.03v14.173h14.173v-14.173z" fill="#009ee0"/>
  <path d="m704.41 276.38v14.173h14.173v-14.173z" fill="#009ee0"/>
  <path d="m704.41 262.2v14.173h14.173v-14.173z" fill="#009ee0"/>
  <path d="m477.64 318.9v14.173h14.173v-14.173z" fill="#009ee0"/>
  <path d="m477.64 304.72v14.173h14.173v-14.173z" fill="#009ee0"/>
  <path d="m491.81 304.72v14.173h14.173v-14.173z" fill="#009ee0"/>
  <path d="m505.98 304.72v14.173h14.173v-14.173z" fill="#009ee0"/>
  <path d="m520.16 304.72v14.173h14.173v-14.173z" fill="#009ee0"/>
  <path d="m534.33 304.72v14.173h14.173v-14.173z" fill="#009ee0"/>
  <path d="m477.64 290.55v14.173h14.173v-14.173z" fill="#009ee0"/>
  <path d="m491.81 290.55v14.173h14.173v-14.173z" fill="#009ee0"/>
  <path d="m505.98 290.55v14.173h14.173v-14.173z" fill="#009ee0"/>
  <path d="m520.16 290.55v14.173h14.173v-14.173z" fill="#009ee0"/>
  <path d="m534.33 290.55v14.173h14.173v-14.173z" fill="#009ee0"/>
  <path d="m477.64 276.38v14.173h14.173v-14.173z" fill="#009ee0"/>
  <path d="m491.81 276.38v14.173h14.173v-14.173z" fill="#009ee0"/>
  <path d="m505.98 276.38v14.173h14.173v-14.173z" fill="#009ee0"/>
  <path d="m520.16 276.38v14.173h14.173v-14.173z" fill="#009ee0"/>
  <path d="m534.33 276.38v14.173h14.173v-14.173z" fill="#009ee0"/>
  <path d="m548.5 276.38v14.173h14.173v-14.173z" fill="#009ee0"/>
  <path d="m477.64 262.2v14.173h14.173v-14.173z" fill="#009ee0"/>
  <path d="m491.81 262.2v14.173h14.173v-14.173z" fill="#009ee0"/>
  <path d="m505.98 262.2v14.173h14.173v-14.173z" fill="#009ee0"/>
  <path d="m520.16 262.2v14.173h14.173v-14.173z" fill="#009ee0"/>
  <path d="m534.33 262.2v14.173h14.173v-14.173z" fill="#009ee0"/>
  <path d="m548.5 262.2v14.173h14.173v-14.173z" fill="#009ee0"/>
  <path d="m562.68 262.2v14.173h14.173v-14.173z" fill="#009ee0"/>
  <path d="m477.64 248.03v14.173h14.173v-14.173z" fill="#009ee0"/>
  <path d="m491.81 248.03v14.173h14.173v-14.173z" fill="#009ee0"/>
  <path d="m505.98 248.03v14.173h14.173v-14.173z" fill="#009ee0"/>
  <path d="m520.16 248.03v14.173h14.173v-14.173z" fill="#009ee0"/>
  <path d="m534.33 248.03v14.173h14.173v-14.173z" fill="#009ee0"/>
  <path d="m548.5 248.03v14.173h14.173v-14.173z" fill="#009ee0"/>
  <path d="m562.68 248.03v14.173h14.173v-14.173z" fill="#009ee0"/>
  <path d="m576.85 248.03v14.173h14.173v-14.173z" fill="#009ee0"/>
  <path d="m477.64 233.86v14.173h14.173v-14.173z" fill="#009ee0"/>
  <path d="m491.81 233.86v14.173h14.173v-14.173z" fill="#009ee0"/>
  <path d="m505.98 233.86v14.173h14.173v-14.173z" fill="#009ee0"/>
  <path d="m520.16 233.86v14.173h14.173v-14.173z" fill="#009ee0"/>
  <path d="m534.33 233.86v14.173h14.173v-14.173z" fill="#009ee0"/>
  <path d="m548.5 233.86v14.173h14.173v-14.173z" fill="#009ee0"/>
  <path d="m562.68 233.86v14.173h14.173v-14.173z" fill="#009ee0"/>
  <path d="m576.85 233.86v14.173h14.173v-14.173z" fill="#009ee0"/>
  <path d="m591.02 233.86v14.173h14.173v-14.173z" fill="#009ee0"/>
  <path d="m605.2 233.86v14.173h14.173v-14.173z" fill="#009ee0"/>
  <path d="m619.37 233.86v14.173h14.173v-14.173z" fill="#009ee0"/>
  <path d="m633.54 233.86v14.173h14.173v-14.173z" fill="#009ee0"/>
  <path d="m477.64 219.68v14.173h14.173v-14.173z" fill="#009ee0"/>
  <path d="m491.81 219.68v14.173h14.173v-14.173z" fill="#009ee0"/>
  <path d="m505.98 219.68v14.173h14.173v-14.173z" fill="#009ee0"/>
  <path d="m520.16 219.68v14.173h14.173v-14.173z" fill="#009ee0"/>
  <path d="m534.33 219.68v14.173h14.173v-14.173z" fill="#009ee0"/>
  <path d="m548.5 219.68v14.173h14.173v-14.173z" fill="#009ee0"/>
  <path d="m562.68 219.68v14.173h14.173v-14.173z" fill="#009ee0"/>
  <path d="m576.85 219.68v14.173h14.173v-14.173z" fill="#009ee0"/>
  <path d="m591.02 219.68v14.173h14.173v-14.173z" fill="#009ee0"/>
  <path d="m605.2 219.68v14.173h14.173v-14.173z" fill="#009ee0"/>
  <path d="m619.37 219.68v14.173h14.173v-14.173z" fill="#009ee0"/>
  <path d="m633.54 219.68v14.173h14.173v-14.173z" fill="#009ee0"/>
  <path d="m477.64 205.51v14.173h14.173v-14.173z" fill="#009ee0"/>
  <path d="m491.81 205.51v14.173h14.173v-14.173z" fill="#009ee0"/>
  <path d="m505.98 205.51v14.173h14.173v-14.173z" fill="#009ee0"/>
  <path d="m520.16 205.51v14.173h14.173v-14.173z" fill="#009ee0"/>
  <path d="m534.33 205.51v14.173h14.173v-14.173z" fill="#009ee0"/>
  <path d="m548.5 205.51v14.173h14.173v-14.173z" fill="#009ee0"/>
  <path d="m562.68 205.51v14.173h14.173v-14.173z" fill="#009ee0"/>
  <path d="m576.85 205.51v14.173h14.173v-14.173z" fill="#009ee0"/>
  <path d="m591.02 205.51v14.173h14.173v-14.173z" fill="#009ee0"/>
  <path d="m605.2 205.51v14.173h14.173v-14.173z" fill="#009ee0"/>
  <path d="m619.37 205.51v14.173h14.173v-14.173z" fill="#009ee0"/>
  <path d="m633.54 205.51v14.173h14.173v-14.173z" fill="#009ee0"/>
  <path d="m477.64 191.34v14.173h14.173v-14.173z" fill="#009ee0"/>
  <path d="m491.81 191.34v14.173h14.173v-14.173z" fill="#009ee0"/>
  <path d="m505.98 191.34v14.173h14.173v-14.173z" fill="#009ee0"/>
  <path d="m520.16 191.34v14.173h14.173v-14.173z" fill="#009ee0"/>
  <path d="m534.33 191.34v14.173h14.173v-14.173z" fill="#009ee0"/>
  <path d="m548.5 191.34v14.173h14.173v-14.173z" fill="#009ee0"/>
  <path d="m562.68 191.34v14.173h14.173v-14.173z" fill="#009ee0"/>
  <path d="m576.85 191.34v14.173h14.173v-14.173z" fill="#009ee0"/>
  <path d="m591.02 191.34v14.173h14.173v-14.173z" fill="#009ee0"/>
  <path d="m605.2 191.34v14.173h14.173v-14.173z" fill="#009ee0"/>
  <path d="m619.37 191.34v14.173h14.173v-14.173z" fill="#009ee0"/>
  <path d="m633.54 191.34v14.173h14.173v-14.173z" fill="#009ee0"/>
  <path d="m477.64 177.17v14.173h14.173v-14.173z" fill="#009ee0"/>
  <path d="m491.81 177.17v14.173h14.173v-14.173z" fill="#009ee0"/>
  <path d="m505.98 177.17v14.173h14.173v-14.173z" fill="#009ee0"/>
  <path d="m520.16 177.17v14.173h14.173v-14.173z" fill="#009ee0"/>
  <path d="m534.33 177.17v14.173h14.173v-14.173z" fill="#009ee0"/>
  <path d="m548.5 177.17v14.173h14.173v-14.173z" fill="#009ee0"/>
  <path d="m562.68 177.17v14.173h14.173v-14.173z" fill="#009ee0"/>
  <path d="m576.85 177.17v14.173h14.173v-14.173z" fill="#009ee0"/>
  <path d="m591.02 177.17v14.173h14.173v-14.173z" fill="#009ee0"/>
  <path d="m605.2 177.17v14.173h14.173v-14.173z" fill="#009ee0"/>
  <path d="m619.37 177.17v14.173h14.173v-14.173z" fill="#009ee0"/>
  <path d="m633.54 177.17v14.173h14.173v-14.173z" fill="#009ee0"/>
  <path d="m94.961 134.65v14.173h14.173v-14.173z" fill="#009ee0"/>
  <path d="m80.787 120.47v14.173h14.173v-14.173z" fill="#009ee0"/>
  <path d="m94.961 120.47v14.173h14.173v-14.173z" fill="#009ee0"/>
  <path d="m109.13 120.47v14.173h14.173v-14.173z" fill="#009ee0"/>
  <path d="m123.31 120.47v14.173h14.173v-14.173z" fill="#009ee0"/>
  <path d="m137.48 120.47v14.173h14.173v-14.173z" fill="#009ee0"/>
  <path d="m151.65 120.47v14.173h14.173v-14.173z" fill="#009ee0"/>
  <path d="m165.83 120.47v14.173h14.173v-14.173z" fill="#009ee0"/>
  <path d="m180 120.47v14.173h14.173v-14.173z" fill="#009ee0"/>
  <path d="m194.17 120.47v14.173h14.173v-14.173z" fill="#009ee0"/>
  <path d="m208.35 120.47v14.173h14.173v-14.173z" fill="#009ee0"/>
  <path d="m222.52 120.47v14.173h14.173v-14.173z" fill="#009ee0"/>
  <path d="m236.69 120.47v14.173h14.173v-14.173z" fill="#009ee0"/>
  <path d="m250.87 120.47v14.173h14.173v-14.173z" fill="#009ee0"/>
  <path d="m265.04 120.47v14.173h14.173v-14.173z" fill="#009ee0"/>
  <path d="m279.21 120.47v14.173h14.173v-14.173z" fill="#009ee0"/>
  <path d="m293.39 120.47v14.173h14.173v-14.173z" fill="#009ee0"/>
  <path d="m38.268 106.3v14.173h14.173v-14.173z" fill="#009ee0"/>
  <path d="m52.441 106.3v14.173h14.173v-14.173z" fill="#009ee0"/>
  <path d="m66.614 106.3v14.173h14.173v-14.173z" fill="#009ee0"/>
  <path d="m80.787 106.3v14.173h14.173v-14.173z" fill="#009ee0"/>
  <path d="m94.961 106.3v14.173h14.173v-14.173z" fill="#009ee0"/>
  <path d="m109.13 106.3v14.173h14.173v-14.173z" fill="#009ee0"/>
  <path d="m123.31 106.3v14.173h14.173v-14.173z" fill="#009ee0"/>
  <path d="m137.48 106.3v14.173h14.173v-14.173z" fill="#009ee0"/>
  <path d="m151.65 106.3v14.173h14.173v-14.173z" fill="#009ee0"/>
  <path d="m165.83 106.3v14.173h14.173v-14.173z" fill="#009ee0"/>
  <path d="m180 106.3v14.173h14.173v-14.173z" fill="#009ee0"/>
  <path d="m80.787 92.126v14.173h14.173v-14.173z" fill="#009ee0"/>
  <path d="m137.48 77.953v14.173h14.173v-14.173z" fill="#009ee0"/>
  <path d="m151.65 77.953v14.173h14.173v-14.173z" fill="#009ee0"/>
  <path d="m94.961 92.126v14.173h14.173v-14.173z" fill="#009ee0"/>
  <path d="m109.13 92.126v14.173h14.173v-14.173z" fill="#009ee0"/>
  <path d="m123.31 92.126v14.173h14.173v-14.173z" fill="#009ee0"/>
  <path d="m137.48 92.126v14.173h14.173v-14.173z" fill="#009ee0"/>
  <path d="m151.65 92.126v14.173h14.173v-14.173z" fill="#009ee0"/>
  <path d="m165.83 92.126v14.173h14.173v-14.173z" fill="#009ee0"/>
  <path d="m165.83 77.953v14.173h14.173v-14.173z" fill="#009ee0"/>
  <path d="m180 92.126v14.173h14.173v-14.173z" fill="#009ee0"/>
  <path d="m194.17 92.126v14.173h14.173v-14.173z" fill="#009ee0"/>
  <path d="m194.17 106.3v14.173h14.173v-14.173z" fill="#009ee0"/>
  <path d="m208.35 106.3v14.173h14.173v-14.173z" fill="#009ee0"/>
  <path d="m222.52 106.3v14.173h14.173v-14.173z" fill="#009ee0"/>
  <path d="m236.69 106.3v14.173h14.173v-14.173z" fill="#009ee0"/>
  <path d="m250.87 106.3v14.173h14.173v-14.173z" fill="#009ee0"/>
  <path d="m265.04 106.3v14.173h14.173v-14.173z" fill="#009ee0"/>
  <path d="m279.21 106.3v14.173h14.173v-14.173z" fill="#009ee0"/>
  <path d="m293.39 106.3v14.173h14.173v-14.173z" fill="#009ee0"/>
  <path d="m307.56 120.47v14.173h14.173v-14.173z" fill="#009ee0"/>
  <path d="m66.614 120.47v14.173h14.173v-14.173z" fill="#009ee0"/>
  <path d="m24.094 106.3v14.173h14.173v-14.173z" fill="#009ee0"/>
  <path d="m66.614 92.126v14.173h14.173v-14.173z" fill="#009ee0"/>
  <path d="m123.31 77.953v14.173h14.173v-14.173z" fill="#009ee0"/>
  <path d="m52.441 120.47v14.173h14.173v-14.173z" fill="#009ee0"/>
  <path d="m9.9213 106.3v14.173h14.173v-14.173z" fill="#009ee0"/>
  <path d="m52.441 92.126v14.173h14.173v-14.173z" fill="#009ee0"/>
  <path d="m109.13 77.953v14.173h14.173v-14.173z" fill="#009ee0"/>
  <path d="m109.13 134.65v14.173h14.173v-14.173z" fill="#009ee0"/>
  <path d="m123.31 134.65v14.173h14.173v-14.173z" fill="#009ee0"/>
  <path d="m137.48 134.65v14.173h14.173v-14.173z" fill="#009ee0"/>
  <path d="m151.65 134.65v14.173h14.173v-14.173z" fill="#009ee0"/>
  <path d="m165.83 134.65v14.173h14.173v-14.173z" fill="#009ee0"/>
  <path d="m180 134.65v14.173h14.173v-14.173z" fill="#009ee0"/>
  <path d="m194.17 134.65v14.173h14.173v-14.173z" fill="#009ee0"/>
  <path d="m208.35 134.65v14.173h14.173v-14.173z" fill="#009ee0"/>
  <path d="m222.52 134.65v14.173h14.173v-14.173z" fill="#009ee0"/>
  <path d="m222.52 148.82v14.173h14.173v-14.173z" fill="#009ee0"/>
  <path d="m236.69 134.65v14.173h14.173v-14.173z" fill="#009ee0"/>
  <path d="m236.69 148.82v14.173h14.173v-14.173z" fill="#009ee0"/>
  <path d="m250.87 148.82v14.173h14.173v-14.173z" fill="#009ee0"/>
  <path d="m265.04 148.82v14.173h14.173v-14.173z" fill="#009ee0"/>
  <path d="m265.04 162.99v14.173h14.173v-14.173z" fill="#009ee0"/>
  <path d="m279.21 162.99v14.173h14.173v-14.173z" fill="#009ee0"/>
  <path d="m293.39 162.99v14.173h14.173v-14.173z" fill="#009ee0"/>
  <path d="m307.56 162.99v14.173h14.173v-14.173z" fill="#009ee0"/>
  <path d="m321.73 162.99v14.173h14.173v-14.173z" fill="#009ee0"/>
  <path d="m335.91 162.99v14.173h14.173v-14.173z" fill="#009ee0"/>
  <path d="m350.08 162.99v14.173h14.173v-14.173z" fill="#009ee0"/>
  <path d="m364.25 162.99v14.173h14.173v-14.173z" fill="#009ee0"/>
  <path d="m378.43 162.99v14.173h14.173v-14.173z" fill="#009ee0"/>
  <path d="m392.6 162.99v14.173h14.173v-14.173z" fill="#009ee0"/>
  <path d="m406.77 162.99v14.173h14.173v-14.173z" fill="#009ee0"/>
  <path d="m420.94 162.99v14.173h14.173v-14.173z" fill="#009ee0"/>
  <path d="m435.12 162.99v14.173h14.173v-14.173z" fill="#009ee0"/>
  <path d="m449.29 162.99v14.173h14.173v-14.173z" fill="#009ee0"/>
  <path d="m463.46 162.99v14.173h14.173v-14.173z" fill="#009ee0"/>
  <path d="m477.64 162.99v14.173h14.173v-14.173z" fill="#009ee0"/>
  <path d="m491.81 162.99v14.173h14.173v-14.173z" fill="#009ee0"/>
  <path d="m505.98 162.99v14.173h14.173v-14.173z" fill="#009ee0"/>
  <path d="m520.16 162.99v14.173h14.173v-14.173z" fill="#009ee0"/>
  <path d="m534.33 162.99v14.173h14.173v-14.173z" fill="#009ee0"/>
  <path d="m548.5 162.99v14.173h14.173v-14.173z" fill="#009ee0"/>
  <path d="m562.68 162.99v14.173h14.173v-14.173z" fill="#009ee0"/>
  <path d="m576.85 162.99v14.173h14.173v-14.173z" fill="#009ee0"/>
  <path d="m591.02 162.99v14.173h14.173v-14.173z" fill="#009ee0"/>
  <path d="m605.2 162.99v14.173h14.173v-14.173z" fill="#009ee0"/>
  <path d="m619.37 162.99v14.173h14.173v-14.173z" fill="#009ee0"/>
  <path d="m633.54 162.99v14.173h14.173v-14.173z" fill="#009ee0"/>
  <path d="m647.72 162.99v14.173h14.173v-14.173z" fill="#009ee0"/>
  <path d="m279.21 148.82v14.173h14.173v-14.173z" fill="#009ee0"/>
  <path d="m279.21 177.17v14.173h14.173v-14.173z" fill="#009ee0"/>
  <path d="m293.39 177.17v14.173h14.173v-14.173z" fill="#009ee0"/>
  <path d="m307.56 177.17v14.173h14.173v-14.173z" fill="#009ee0"/>
  <path d="m321.73 177.17v14.173h14.173v-14.173z" fill="#009ee0"/>
  <path d="m335.91 177.17v14.173h14.173v-14.173z" fill="#009ee0"/>
  <path d="m350.08 177.17v14.173h14.173v-14.173z" fill="#009ee0"/>
  <path d="m364.25 177.17v14.173h14.173v-14.173z" fill="#009ee0"/>
  <path d="m378.43 177.17v14.173h14.173v-14.173z" fill="#009ee0"/>
  <path d="m392.6 177.17v14.173h14.173v-14.173z" fill="#009ee0"/>
  <path d="m406.77 177.17v14.173h14.173v-14.173z" fill="#009ee0"/>
  <path d="m420.94 177.17v14.173h14.173v-14.173z" fill="#009ee0"/>
  <path d="m435.12 177.17v14.173h14.173v-14.173z" fill="#009ee0"/>
  <path d="m449.29 177.17v14.173h14.173v-14.173z" fill="#009ee0"/>
  <path d="m463.46 177.17v14.173h14.173v-14.173z" fill="#009ee0"/>
  <path d="m307.56 191.34v14.173h14.173v-14.173z" fill="#009ee0"/>
  <path d="m321.73 191.34v14.173h14.173v-14.173z" fill="#009ee0"/>
  <path d="m335.91 191.34v14.173h14.173v-14.173z" fill="#009ee0"/>
  <path d="m350.08 191.34v14.173h14.173v-14.173z" fill="#009ee0"/>
  <path d="m364.25 191.34v14.173h14.173v-14.173z" fill="#009ee0"/>
  <path d="m378.43 191.34v14.173h14.173v-14.173z" fill="#009ee0"/>
  <path d="m392.6 191.34v14.173h14.173v-14.173z" fill="#009ee0"/>
  <path d="m406.77 191.34v14.173h14.173v-14.173z" fill="#009ee0"/>
  <path d="m420.94 191.34v14.173h14.173v-14.173z" fill="#009ee0"/>
  <path d="m435.12 191.34v14.173h14.173v-14.173z" fill="#009ee0"/>
  <path d="m449.29 191.34v14.173h14.173v-14.173z" fill="#009ee0"/>
  <path d="m463.46 191.34v14.173h14.173v-14.173z" fill="#009ee0"/>
  <path d="m321.73 205.51v14.173h14.173v-14.173z" fill="#009ee0"/>
  <path d="m335.91 205.51v14.173h14.173v-14.173z" fill="#009ee0"/>
  <path d="m350.08 205.51v14.173h14.173v-14.173z" fill="#009ee0"/>
  <path d="m364.25 205.51v14.173h14.173v-14.173z" fill="#009ee0"/>
  <path d="m378.43 205.51v14.173h14.173v-14.173z" fill="#009ee0"/>
  <path d="m392.6 205.51v14.173h14.173v-14.173z" fill="#009ee0"/>
  <path d="m406.77 205.51v14.173h14.173v-14.173z" fill="#009ee0"/>
  <path d="m420.94 205.51v14.173h14.173v-14.173z" fill="#009ee0"/>
  <path d="m435.12 205.51v14.173h14.173v-14.173z" fill="#009ee0"/>
  <path d="m449.29 205.51v14.173h14.173v-14.173z" fill="#009ee0"/>
  <path d="m463.46 205.51v14.173h14.173v-14.173z" fill="#009ee0"/>
  <path d="m350.08 219.68v14.173h14.173v-14.173z" fill="#009ee0"/>
  <path d="m364.25 219.68v14.173h14.173v-14.173z" fill="#009ee0"/>
  <path d="m364.25 233.86v14.173h14.173v-14.173z" fill="#009ee0"/>
  <path d="m378.43 233.86v14.173h14.173v-14.173z" fill="#009ee0"/>
  <path d="m392.6 233.86v14.173h14.173v-14.173z" fill="#009ee0"/>
  <path d="m406.77 233.86v14.173h14.173v-14.173z" fill="#009ee0"/>
  <path d="m420.94 233.86v14.173h14.173v-14.173z" fill="#009ee0"/>
  <path d="m435.12 233.86v14.173h14.173v-14.173z" fill="#009ee0"/>
  <path d="m449.29 233.86v14.173h14.173v-14.173z" fill="#009ee0"/>
  <path d="m463.46 233.86v14.173h14.173v-14.173z" fill="#009ee0"/>
  <path d="m378.43 219.68v14.173h14.173v-14.173z" fill="#009ee0"/>
  <path d="m392.6 219.68v14.173h14.173v-14.173z" fill="#009ee0"/>
  <path d="m392.6 248.03v14.173h14.173v-14.173z" fill="#009ee0"/>
  <path d="m406.77 248.03v14.173h14.173v-14.173z" fill="#009ee0"/>
  <path d="m420.94 248.03v14.173h14.173v-14.173z" fill="#009ee0"/>
  <path d="m435.12 248.03v14.173h14.173v-14.173z" fill="#009ee0"/>
  <path d="m449.29 248.03v14.173h14.173v-14.173z" fill="#009ee0"/>
  <path d="m463.46 248.03v14.173h14.173v-14.173z" fill="#009ee0"/>
  <path d="m392.6 262.2v14.173h14.173v-14.173z" fill="#009ee0"/>
  <path d="m406.77 262.2v14.173h14.173v-14.173z" fill="#009ee0"/>
  <path d="m420.94 262.2v14.173h14.173v-14.173z" fill="#009ee0"/>
  <path d="m435.12 262.2v14.173h14.173v-14.173z" fill="#009ee0"/>
  <path d="m449.29 262.2v14.173h14.173v-14.173z" fill="#009ee0"/>
  <path d="m463.46 262.2v14.173h14.173v-14.173z" fill="#009ee0"/>
  <path d="m406.77 276.38v14.173h14.173v-14.173z" fill="#009ee0"/>
  <path d="m420.94 276.38v14.173h14.173v-14.173z" fill="#009ee0"/>
  <path d="m435.12 276.38v14.173h14.173v-14.173z" fill="#009ee0"/>
  <path d="m435.12 290.55v14.173h14.173v-14.173z" fill="#009ee0"/>
  <path d="m449.29 290.55v14.173h14.173v-14.173z" fill="#009ee0"/>
  <path d="m449.29 304.72v14.173h14.173v-14.173z" fill="#009ee0"/>
  <path d="m463.46 304.72v14.173h14.173v-14.173z" fill="#009ee0"/>
  <path d="m463.46 290.55v14.173h14.173v-14.173z" fill="#009ee0"/>
  <path d="m449.29 276.38v14.173h14.173v-14.173z" fill="#009ee0"/>
  <path d="m463.46 276.38v14.173h14.173v-14.173z" fill="#009ee0"/>
  <path d="m406.77 219.68v14.173h14.173v-14.173z" fill="#009ee0"/>
  <path d="m420.94 219.68v14.173h14.173v-14.173z" fill="#009ee0"/>
  <path d="m435.12 219.68v14.173h14.173v-14.173z" fill="#009ee0"/>
  <path d="m449.29 219.68v14.173h14.173v-14.173z" fill="#009ee0"/>
  <path d="m463.46 219.68v14.173h14.173v-14.173z" fill="#009ee0"/>
  <path d="m293.39 148.82v14.173h14.173v-14.173z" fill="#009ee0"/>
  <path d="m307.56 148.82v14.173h14.173v-14.173z" fill="#009ee0"/>
  <path d="m321.73 148.82v14.173h14.173v-14.173z" fill="#009ee0"/>
  <path d="m335.91 148.82v14.173h14.173v-14.173z" fill="#009ee0"/>
  <path d="m350.08 148.82v14.173h14.173v-14.173z" fill="#009ee0"/>
  <path d="m364.25 148.82v14.173h14.173v-14.173z" fill="#009ee0"/>
  <path d="m378.43 148.82v14.173h14.173v-14.173z" fill="#009ee0"/>
  <path d="m392.6 148.82v14.173h14.173v-14.173z" fill="#009ee0"/>
  <path d="m406.77 148.82v14.173h14.173v-14.173z" fill="#009ee0"/>
  <path d="m420.94 148.82v14.173h14.173v-14.173z" fill="#009ee0"/>
  <path d="m435.12 148.82v14.173h14.173v-14.173z" fill="#009ee0"/>
  <path d="m449.29 148.82v14.173h14.173v-14.173z" fill="#009ee0"/>
  <path d="m463.46 148.82v14.173h14.173v-14.173z" fill="#009ee0"/>
  <path d="m477.64 148.82v14.173h14.173v-14.173z" fill="#009ee0"/>
  <path d="m491.81 148.82v14.173h14.173v-14.173z" fill="#009ee0"/>
  <path d="m505.98 148.82v14.173h14.173v-14.173z" fill="#009ee0"/>
  <path d="m520.16 148.82v14.173h14.173v-14.173z" fill="#009ee0"/>
  <path d="m534.33 148.82v14.173h14.173v-14.173z" fill="#009ee0"/>
  <path d="m548.5 148.82v14.173h14.173v-14.173z" fill="#009ee0"/>
  <path d="m562.68 148.82v14.173h14.173v-14.173z" fill="#009ee0"/>
  <path d="m576.85 148.82v14.173h14.173v-14.173z" fill="#009ee0"/>
  <path d="m591.02 148.82v14.173h14.173v-14.173z" fill="#009ee0"/>
  <path d="m605.2 148.82v14.173h14.173v-14.173z" fill="#009ee0"/>
  <path d="m619.37 148.82v14.173h14.173v-14.173z" fill="#009ee0"/>
  <path d="m633.54 148.82v14.173h14.173v-14.173z" fill="#009ee0"/>
  <path d="m647.72 148.82v14.173h14.173v-14.173z" fill="#009ee0"/>
  <path d="m250.87 134.65v14.173h14.173v-14.173z" fill="#009ee0"/>
  <path d="m265.04 134.65v14.173h14.173v-14.173z" fill="#009ee0"/>
  <path d="m279.21 134.65v14.173h14.173v-14.173z" fill="#009ee0"/>
  <path d="m293.39 134.65v14.173h14.173v-14.173z" fill="#009ee0"/>
  <path d="m307.56 134.65v14.173h14.173v-14.173z" fill="#009ee0"/>
  <path d="m321.73 134.65v14.173h14.173v-14.173z" fill="#009ee0"/>
  <path d="m335.91 134.65v14.173h14.173v-14.173z" fill="#009ee0"/>
  <path d="m350.08 134.65v14.173h14.173v-14.173z" fill="#009ee0"/>
  <path d="m364.25 134.65v14.173h14.173v-14.173z" fill="#009ee0"/>
  <path d="m378.43 134.65v14.173h14.173v-14.173z" fill="#009ee0"/>
  <path d="m392.6 134.65v14.173h14.173v-14.173z" fill="#009ee0"/>
  <path d="m406.77 134.65v14.173h14.173v-14.173z" fill="#009ee0"/>
  <path d="m420.94 134.65v14.173h14.173v-14.173z" fill="#009ee0"/>
  <path d="m435.12 134.65v14.173h14.173v-14.173z" fill="#009ee0"/>
  <path d="m449.29 134.65v14.173h14.173v-14.173z" fill="#009ee0"/>
  <path d="m676.06 63.78v14.173h14.173v-14.173z" fill="#009ee0"/>
  <path d="m690.24 63.78v14.173h14.173v-14.173z" fill="#009ee0"/>
  <path d="m704.41 63.78v14.173h14.173v-14.173z" fill="#009ee0"/>
  <path d="m505.98 134.65v14.173h14.173v-14.173z" fill="#009ee0"/>
  <path d="m520.16 134.65v14.173h14.173v-14.173z" fill="#009ee0"/>
  <path d="m534.33 134.65v14.173h14.173v-14.173z" fill="#009ee0"/>
  <path d="m548.5 134.65v14.173h14.173v-14.173z" fill="#009ee0"/>
  <path d="m562.68 134.65v14.173h14.173v-14.173z" fill="#009ee0"/>
  <path d="m576.85 134.65v14.173h14.173v-14.173z" fill="#009ee0"/>
  <path d="m591.02 134.65v14.173h14.173v-14.173z" fill="#009ee0"/>
  <path d="m605.2 134.65v14.173h14.173v-14.173z" fill="#009ee0"/>
  <path d="m619.37 134.65v14.173h14.173v-14.173z" fill="#009ee0"/>
  <path d="m633.54 134.65v14.173h14.173v-14.173z" fill="#009ee0"/>
  <path d="m647.72 134.65v14.173h14.173v-14.173z" fill="#009ee0"/>
  <path d="m661.89 134.65v14.173h14.173v-14.173z" fill="#009ee0"/>
  <path d="m491.81 318.9v14.173h14.173v-14.173z" fill="#009ee0"/>
  <path d="m505.98 318.9v14.173h14.173v-14.173z" fill="#009ee0"/>
  <path d="m520.16 318.9v14.173h14.173v-14.173z" fill="#009ee0"/>
  <path d="m534.33 318.9v14.173h14.173v-14.173z" fill="#009ee0"/>
  <path d="m718.58 276.38v14.173h14.173v-14.173z" fill="#009ee0"/>
  <path d="m732.76 276.38v14.173h14.173v-14.173z" fill="#009ee0"/>
  <path d="m732.76 290.55v14.173h14.173v-14.173z" fill="#009ee0"/>
  <path d="m718.58 304.72v14.173h14.173v-14.173z" fill="#009ee0"/>
  <path d="m746.93 276.38v14.173h14.173v-14.173z" fill="#009ee0"/>
  <path d="m746.93 290.55v14.173h14.173v-14.173z" fill="#009ee0"/>
  <path d="m732.76 304.72v14.173h14.173v-14.173z" fill="#009ee0"/>
  <path d="m633.54 318.9v14.173h14.173v-14.173z" fill="#009ee0"/>
  <path d="m647.72 304.72v14.173h14.173v-14.173z" fill="#009ee0"/>
  <path d="m647.72 290.55v14.173h14.173v-14.173z" fill="#009ee0"/>
  <path d="m647.72 318.9v14.173h14.173v-14.173z" fill="#009ee0"/>
  <path d="m661.89 304.72v14.173h14.173v-14.173z" fill="#009ee0"/>
  <path d="m661.89 290.55v14.173h14.173v-14.173z" fill="#009ee0"/>
  <path d="m661.89 318.9v14.173h14.173v-14.173z" fill="#009ee0"/>
  <path d="m676.06 304.72v14.173h14.173v-14.173z" fill="#009ee0"/>
  <path d="m676.06 318.9v14.173h14.173v-14.173z" fill="#009ee0"/>
  <path d="m676.06 333.07v14.173h14.173v-14.173z" fill="#009ee0"/>
  <path d="m690.24 347.24v14.173h14.173v-14.173z" fill="#009ee0"/>
  <path d="m690.24 333.07v14.173h14.173v-14.173z" fill="#009ee0"/>
  <path d="m704.41 347.24v14.173h14.173v-14.173z" fill="#009ee0"/>
  <path d="m704.41 333.07v14.173h14.173v-14.173z" fill="#009ee0"/>
  <path d="m718.58 347.24v14.173h14.173v-14.173z" fill="#009ee0"/>
  <path d="m718.58 361.42v14.173h14.173v-14.173z" fill="#009ee0"/>
  <path d="m704.41 375.59v14.173h14.173v-14.173z" fill="#009ee0"/>
  <path d="m732.76 347.24v14.173h14.173v-14.173z" fill="#009ee0"/>
  <path d="m732.76 361.42v14.173h14.173v-14.173z" fill="#009ee0"/>
  <path d="m718.58 375.59v14.173h14.173v-14.173z" fill="#009ee0"/>
  <path d="m477.64 389.76v14.173h14.173v-14.173z" fill="#009ee0"/>
  <path d="m491.81 389.76v14.173h14.173v-14.173z" fill="#009ee0"/>
  <path d="m505.98 389.76v14.173h14.173v-14.173z" fill="#009ee0"/>
  <path d="m520.16 389.76v14.173h14.173v-14.173z" fill="#009ee0"/>
  <path d="m534.33 389.76v14.173h14.173v-14.173z" fill="#009ee0"/>
  <path d="m548.5 389.76v14.173h14.173v-14.173z" fill="#009ee0"/>
  <path d="m562.68 389.76v14.173h14.173v-14.173z" fill="#009ee0"/>
  <path d="m505.98 403.94v14.173h14.173v-14.173z" fill="#009ee0"/>
  <path d="m520.16 403.94v14.173h14.173v-14.173z" fill="#009ee0"/>
  <path d="m534.33 403.94v14.173h14.173v-14.173z" fill="#009ee0"/>
  <path d="m548.5 403.94v14.173h14.173v-14.173z" fill="#009ee0"/>
  <path d="m562.68 403.94v14.173h14.173v-14.173z" fill="#009ee0"/>
  <path d="m576.85 403.94v14.173h14.173v-14.173z" fill="#009ee0"/>
  <path d="m491.81 403.94v14.173h14.173v-14.173z" fill="#009ee0"/>
  <path d="m505.98 418.11v14.173h14.173v-14.173z" fill="#009ee0"/>
  <path d="m520.16 418.11v14.173h14.173v-14.173z" fill="#009ee0"/>
  <path d="m534.33 418.11v14.173h14.173v-14.173z" fill="#009ee0"/>
  <path d="m548.5 418.11v14.173h14.173v-14.173z" fill="#009ee0"/>
  <path d="m562.68 418.11v14.173h14.173v-14.173z" fill="#009ee0"/>
  <path d="m576.85 418.11v14.173h14.173v-14.173z" fill="#009ee0"/>
  <path d="m591.02 418.11v14.173h14.173v-14.173z" fill="#009ee0"/>
  <path d="m548.5 432.28v14.173h14.173v-14.173z" fill="#009ee0"/>
  <path d="m562.68 432.28v14.173h14.173v-14.173z" fill="#009ee0"/>
  <path d="m576.85 432.28v14.173h14.173v-14.173z" fill="#009ee0"/>
  <path d="m591.02 432.28v14.173h14.173v-14.173z" fill="#009ee0"/>
  <path d="m562.68 446.46v14.173h14.173v-14.173z" fill="#009ee0"/>
  <path d="m576.85 446.46v14.173h14.173v-14.173z" fill="#009ee0"/>
  <path d="m591.02 446.46v14.173h14.173v-14.173z" fill="#009ee0"/>
  <path d="m605.2 446.46v14.173h14.173v-14.173z" fill="#009ee0"/>
  <path d="m576.85 460.63v14.173h14.173v-14.173z" fill="#009ee0"/>
  <path d="m591.02 460.63v14.173h14.173v-14.173z" fill="#009ee0"/>
  <path d="m605.2 460.63v14.173h14.173v-14.173z" fill="#009ee0"/>
  <path d="m619.37 460.63v14.173h14.173v-14.173z" fill="#009ee0"/>
  <path d="m591.02 474.8v14.173h14.173v-14.173z" fill="#009ee0"/>
  <path d="m605.2 474.8v14.173h14.173v-14.173z" fill="#009ee0"/>
  <path d="m619.37 474.8v14.173h14.173v-14.173z" fill="#009ee0"/>
  <path d="m605.2 503.15v14.173h14.173v-14.173z" fill="#009ee0"/>
  <path d="m619.37 503.15v14.173h14.173v-14.173z" fill="#009ee0"/>
  <path d="m633.54 503.15v14.173h14.173v-14.173z" fill="#009ee0"/>
  <path d="m534.33 432.28v14.173h14.173v-14.173z" fill="#009ee0"/>
  <path d="m548.5 446.46v14.173h14.173v-14.173z" fill="#009ee0"/>
  <path d="m562.68 460.63v14.173h14.173v-14.173z" fill="#009ee0"/>
  <path d="m576.85 474.8v14.173h14.173v-14.173z" fill="#009ee0"/>
  <path d="m591.02 488.98v14.173h14.173v-14.173z" fill="#009ee0"/>
  <path d="m605.2 488.98v14.173h14.173v-14.173z" fill="#009ee0"/>
  <path d="m619.37 488.98v14.173h14.173v-14.173z" fill="#009ee0"/>
  <path d="m605.2 517.32v14.173h14.173v-14.173z" fill="#009ee0"/>
  <path d="m619.37 531.5v14.173h14.173v-14.173z" fill="#009ee0"/>
  <path d="m633.54 531.5v14.173h14.173v-14.173z" fill="#009ee0"/>
  <path d="m647.72 531.5v14.173h14.173v-14.173z" fill="#009ee0"/>
  <path d="m661.89 531.5v14.173h14.173v-14.173z" fill="#009ee0"/>
  <path d="m619.37 517.32v14.173h14.173v-14.173z" fill="#009ee0"/>
  <path d="m633.54 517.32v14.173h14.173v-14.173z" fill="#009ee0"/>
  <path d="m647.72 517.32v14.173h14.173v-14.173z" fill="#009ee0"/>
  <path d="m661.89 517.32v14.173h14.173v-14.173z" fill="#009ee0"/>
  <path d="m392.6 545.67v14.173h14.173v-14.173z" fill="#009ee0"/>
  <path d="m392.6 531.5v14.173h14.173v-14.173z" fill="#009ee0"/>
  <path d="m406.77 545.67v14.173h14.173v-14.173z" fill="#009ee0"/>
  <path d="m406.77 531.5v14.173h14.173v-14.173z" fill="#009ee0"/>
  <path d="m420.94 545.67v14.173h14.173v-14.173z" fill="#009ee0"/>
 </g>
</svg>
