<?xml version="1.0" encoding="UTF-8"?>
<svg viewBox="0 0 295.86832 368.66943" xmlns="http://www.w3.org/2000/svg">
 <g transform="translate(-158.19 -232.31)">
  <path d="m225.40625,232.3125a4.93455,4.93455 0 0,0 -1.125.125c-21.00827,4.65283-32.50342,21.54942-37,28.125a4.93455,4.93455 0 0,0 6.6875,6.96875c0,0-.00049-.009.15625-.0937 .64069-.34512 2.65896-1.21179 4.03125-1.3125s1.43924-.50418 2.28125,1.25c.13559.28249.18535.4634.1875.46875a4.93455,4.93455 0 0,0 .0312.0312c-.0469-.11384-.038-.0593.0312.125 .89473,2.38158.67766,5.89474-.4375,9.03125s-3.36321,5.72418-3.875,6.03125c-.52872.31723-1.54652.72675-2.71875,1.09375-1.33199.41605-2.83537.78189-4.21875,1.03125 .42388-.0757.35184-.0987-.21875,0-.35513.0624-.46086.0929-.28125.0625l-.96875.15625c-.4541.0682-.65671.11596-.5.0937-.59157.0825-1.15468.12973-1.6875.1875l-.5.0625h-.0625l-.96875.0937a4.93455,4.93455 0 0,0 -3.8125,2.53125c-6.52319,11.83789-13.66596,31.44815-18.09375,53.21875s-6.15957,45.57339-.9375,65.59375a4.93455,4.93455 0 0,0 4.53125,3.6875l12.3125.65625c-3.92855,2.32968-6.37415,4.73952-7.71875,6.5625-2.44304,3.31223-1.69463,6.16545-.96875,8.59375 .36294,1.21415.86313,2.36088 1.6875,3.5 .48422.6691 1.19566,1.36764 2.125,1.96875-.0695.53601-.10531.56519-.15625,1.28125-.1317,1.85143-.25593,4.1445.5,6.75 .27785.95768.62113,1.62013.96875,2.21875-1.03379,1.31062-2.03125,2.94207-2.03125,5.53125 0,3.47883.6875,10.46875.6875,10.46875a4.93455,4.93455 0 0,0 2.96875,4.125c.0242.73575-5e-005,.76385.0625,1.625 .0992,1.36592.26069,2.80966.5625,4.25s.26252,2.91108 2.40625,4.9375c1.13696,1.07473 2.26582,1.77243 3.375,2.3125 .0255.49814.0286.96814.0937,1.5 .10716.8754-.0111,1.60647 1.03125,3.34375 .92414,1.54024 1.31224,1.6429 1.9375,2.21875s1.32286,1.17488 2.03125,1.78125c.30478.26089.41388.36076.71875.625-.13105.31823-.32205.64101-.40625.9375-.63716,2.2435-.4167,4.09261-.0937,5.90625s.85144,3.50144 1.65625,5.09375c.4024.79615.84504,1.57844 1.625,2.40625s2.11106,2.03125 4.4375,2.03125c.98547,0 1.37152-.14045 1.875-.25l2.875,9.03125a4.93455,4.93455 0 0,0 6.75,2.96875c.38465-.0107 1.56855.001 4.375.46875 .9502.15837 3.62381,2.46062 5.0625,6.15625 1.43323,3.68161 1.37148,7.97863.53125,9.59375 .30982-.26431.2586-.21298-.125.0625a4.93455,4.93455 0 0,0 -.0312.0312c-.18415.12886.005.0275 0,.0312s-.20273.11419-.0312,0c-.0916.0636-.0792.0401-.15625.0937l-.0625.0312a4.93455,4.93455 0 0,0 -.0312,0c-.0602.0328-.16365.0951-.375.1875-.17247.0755-.35925.16937-.59375.25l-.1875.0625c-.32488.10477-.62512.18834-.875.25 .33551-.0826.32112-.0985-.0937,0a4.93455,4.93455 0 0,0 -.0312,0c-.30021.0716-.65728.14239-1.09375.21875-.80667.14044-1.67831.27608-2.5.34375a4.93455,4.93455 0 0,0 -.0312,0c-.37248.0321-.44318.0482-.21875.0312-1.1085.0834-2.19664.0937-3.21875.0937 .0224,0-.19391-.023-.75-.0312-2.02454-.03027-3.4377-.12465-3.4377-.12465a4.93455,4.93455 0 0,0 -3.59375,8.65625c0,0 6.26423,5.426 12.5,10.125l-.25.15625c-.96537.61683-1.82091,1.20412-2.5625,1.75s-1.29119.85617-2.15625,1.9375c-1.67937,2.09921-1.85549,3.66128-2.28125,5.53125s-.73079,3.92171-.96875,5.875-.42255,3.81458-.53125,5.28125-.15625,2.16771-.15625,3.03125c0,2.5269 1.08284,3.23514 1.5625,3.71875s.84751.71031 1.1875.9375c.67998.45437 1.31329.79129 2.0625,1.15625 1.49842.72991 3.34496,1.50273 5.40625,2.25 4.12259,1.49453 8.73822,2.94242 12.9375,3.125 3.92169.17051 11.11164-.4094 18.09375-1 3.49106-.2953 6.83634-.61971 9.375-.875 1.26933-.12765 2.31554-.21985 3.125-.3125l1.03125-.125c.2861-.0381.26625-.004 1-.1875 .50498-.12628.72463-.26248 1.03125-.40625l.3125-.0312c.80007-.0514 1.82113-.12085 2.875-.21875s2.12114-.21681 3.125-.375c.50193-.0791.98457-.1534 1.5-.28125 .49952-.1239.99488-.18048 2.03125-.8125 .43316.0189.85227.0623 1.3125.0625 1.81906.00084 3.88776-.13489 5.9375-.34375s4.03843-.47701 5.78125-.875c.87141-.19899 1.67885-.41275 2.5625-.78125 .7176-.29926 1.87305-.41533 2.875-2.15625l5.71875-1.46875c2.41389-.0394 5.98839-.29441 10.09375-.78125 2.23686-.26526 4.48224-.58347 6.46875-.96875 1.89476-.36749 3.39274-.64658 5.1875-1.5625-.12343.30094-.27794.55314-.4375.9375-.50666,1.22046-1.0943,2.71863-1.65625,4.25s-1.07494,3.09753-1.5,4.53125-.84375,2.35449-.84375,4.3125c0,2.8274 1.12833,4.95979 2.625,6.8125s3.50484,3.44734 6.21875,4.1875c1.32205.36056 3.58607.81512 7.1875,1.46875s8.22212,1.4329 13.15625,2.0625c9.86826,1.2592 20.43671,2.33404 28.125.0625 5.94321-1.75595 10.80958-3.63693 14.5-5.34375s5.83669-2.68044 7.875-4.71875c1.56154-1.56154 1.65327-2.47578 1.84375-3.4375 .76552-.32575 1.46776-.66448 2.15625-1.03125 1.81199-.96528 4.04795-2.04717 4.21875-2.09375 1.49585-.40796 2.79519-1.27003 3.90625-2.34375 .64239-.0108 1.1479-.096 1.65625-.1875 .89965-.16185 1.78569-.39525 2.71875-.6875 1.49633-.46867 3.11477-1.16926 4.6875-1.875a4.93455,4.93455 0 0,0 2.1875-1.0625c.92216-.48055 1.853-.95681 2.6875-1.53125 .84204-.57964 1.68609-1.29085 2.5-2.46875 1.19684-.56567 2.34087-1.22181 3.40625-2 .82998-.60625 1.60289-1.26573 2.34375-2.09375s1.66378-1.71655 1.9375-3.90625c.30101-2.40817.22057-5.78753-1.03125-10.3125-1.24413-4.49719-4.05182-10.0058-10.03125-12.375l-.3125-4.5a4.93455,4.93455 0 0,0 -1.21875-2.90625c-.0819-.73204-.17927-1.35154-.28125-2.84375-.0745-1.09034-.10423-2.23747-.0937-3.09375s.27899-1.67104-.0312-.84375c.18089-.48237.99329-2.03245 1.625-3.71875 .31585-.84315.77019-1.58777.625-3.59375-.0726-1.00299-.52422-2.72264-2.03125-3.90625s-3.24085-1.23792-4.25-1.09375l-.40625.0625c.0771-.3001.17026-.46421.25-.78125 .69358-2.75773 1.37982-5.99912 1.9375-9.28125s.99205-6.58698 1.1875-9.5625c.0801-1.21925.12562-2.31715.125-3.40625 .22343-.0913.5027-.15501.71875-.25 1.40314-.6169 2.62108-.88019 4.1875-2.96875 .26312-.35078.43173-.59599.65625-1 .46846-.11325 1.00085-.19071 1.4375-.34375 1.61232-.56509 3.29347-1.36486 5.15625-2.375 2.74986-1.49118 5.75371-3.45654 8.625-5.5a4.93455,4.93455 0 0,0 .15625-.0625l3.40625-1.4375a4.93455,4.93455 0 0,0 .96875-.53125l5.8125-4.15625a4.93455,4.93455 0 0,0 1.40625-1.5625c1.86601-3.27834 2.21456-6.95445 1.96875-10.625 2.15604-1.72552 4.40436-4.62317 5.28125-9.40625 .24604-1.34206.12764-1.4963.0937-2.0625s-.10615-1.17482-.1875-1.90625c-.13742-1.23555-.3624-2.88197-.625-4.59375 1.03419-5.32959 1.71416-10.51781 1.375-15.0625-.36469-4.8868-.8718-9.73582-1.5625-14.40625a4.93455,4.93455 0 0,0 -.5313-3.2188c-.88361-5.10204-1.98652-9.90379-3.625-14-.21992-.54979-.50863-1.03267-.75-1.5625 .2265-.49148.52636-.99852.71875-1.46875 1.39122-3.40039.88725-6.07645.59375-8.4375s-.78125-4.28125-.78125-4.28125a4.93455,4.93455 0 0,0 -8.59375-2c0,0-.68243.82002-1.59375,1.78125-.29944.31584-.42135.38411-.75.6875-2.61706-1.78993-5.72952-2.94357-9.25-2.21875 0,0-1.5582.41166-2.46875.625-4.31608-6.06747-9.54844-12.85465-15.4375-17.40625-.0473-.0366-.16988-.11857-.34375-.25l-.0937-.0625-.40625-1.21875c-.21573-.64821-.45677-1.39796-.71875-2.15625l-.0312-.0937-.34385-1.06255a4.93455,4.93455 0 0,0 -.1875-.5c-.14418-.31674-.34201-.80474-1-1.53125a4.93455,4.93455 0 0,0 -.125-.125 4.93455,4.93455 0 0,0 -.625-.5625c1.2666.9193 1.26823.87907-.15625-.0937-.84346-.69399-1.5853-1.11562-2.34375-1.5-.99402-.50376-2.0195-.94169-3-1.34375-.60977-.25004-.63323-.2379-1.15625-.4375-.13744-.39357-.13527-.67735-.34375-1.09375-.004-.007.004-.024 0-.0312-.25634-.51201-.60328-1.0701-1-1.5625-.15494-.19124-.38035-.45649-.71875-.78125a4.93455,4.93455 0 0,0 -.0625-.0312l-.15625-.15625-.0312-.0312-.0937-.0312-1.78125-.875 .0312-.0312 .625.1875 1.125.71875c-.10395-.10811-.10497-.16345-.53125-.46875a4.93455,4.93455 0 0,0 -.0625-.0312l-.0625-.0312c.0283.0125-.2113-.22507-.9375-.59375h-.0625c-.005-.003-.0255-.0284-.0312-.0312l-.3125-.0937c-.21258-.10097-.39003-.21927-.78125-.34375a4.93455,4.93455 0 0,0 -.84375-.1875l-5.28125-.71875c.24247-.0904.3794-.089.625-.1875 2.79409-1.12101 6.16237-3.09994 7.875-6.875 1.02426-2.25773 4.37798-9.24553 7.125-16.90625s5.46239-15.74112 3.53125-23.15625c.12968.49793-.053-.67989 0-1.96875s.19179-2.88063.21875-4.46875 .25297-2.97874-.78125-5.34375c-.51711-1.1825-2.0162-3.08727-4.28125-3.5s-3.8283.50519-4.84375,1.21875c-2.05031,1.44075-3.97308,3.43396-6.0625,5.5-.25356-.88212-.57324-1.92013-1.09375-3.0625a4.93455,4.93455 0 0,0 -.0312-.0312c.45769.99452.45971.96511-.0312-.0937-2.08372-4.5057-6.15579-9.1636-12.875-12.625-9.4992-4.89353-17.16978-7.90323-24.5-8.46875-.13308-.0835-.2344-.16518-.375-.25-.12155-.0738.0516.0494-.0312,0-.39743-.23719-.62972-.36508-.125-.0625a4.93455,4.93455 0 0,0 0-.0312c.35203.20871.14514.0905-.21875-.125l-.0312-.0312c-.46291-.26961-.92419-.49714-1.3125-.6875-1.20501-.59056-2.4082-1.33058-4.875-1.125-2.38166.19847-3.69202,1.22366-4.71875,2.0625-.39965.32651-.58731.59176-.90625.90625-2.06739-1.39113-4.30867-1.75894-6.90625-1.78125-1.22183-.0102-2.4349.25565-3.65625.75l-.0312-.0625c-.0657.0247-.19688.077-.3125.125-.0441.0183-.0685.006-.125.0312a4.93455,4.93455 0 0,0 -.28125.15625l-.0625.0312h-.0312c.0541-.0347.11248-.058-.25.15625l.0312.0312c-.48122.26892-.9698.56608-1.375.9375-.73433.67314-1.71236,1.55579-2.65625,2.71875a4.93455,4.93455 0 0,0 0,.0312c-.0273.0337-.006.0294-.0312.0625-.01.0128.01.0185 0,.0312s-.0257-.007-.0312,0 .0107.0176 0,.0312c.0797-.10573-.0884.0698-.1875.1875l-.0312.0312c-.0753.0928.0391-.053-.0937.125h.0312c-.12151.15129-.2218.40075-.34375.5625l-1.28125.4375c-1.04052-.23702-2.17423-.30019-3.5.0312-2.60865.65217-4.56796,1.92108-6.53125,4.03125-10.35747,4.64487-18.82952,9.76882-23.21875,12.875-.50763.35924-.95447.77477-1.4375,1.15625-1.98033-.87918-3.79906-1.72073-4.65625-2.5a4.93455,4.93455 0 0,0 -8.25,3.40625c-.28547,5.5604.54848,8.87968 1.28125,11.3125-5.85704,7.63414-9.53239,14.16203-10.59375,16.125-.89604.39981-1.9347.88744-3.09375,1.75-2.60121,1.93581-5.60617,5.92279-5.25,11.0625 .29374,4.23873 1.62803,7.33186 3.28125,9.5625-.96579,1.24126-1.70974,2.36758-2.28125,3.5-1.10648,2.19243-1.40458,5.35003-.25,7.46875 .1423.26112.23502.31563.375.53125-.50972.58319-.96736,1.02505-1.5,1.75-2.01778,2.74628-4.47546,6.70969-3.625,11.8125 .63439,3.80631 2.53116,6.86154 4.78125,9.3125-3.59163,5.46134-8.77607,12.67992-11.65625,18.21875-2.15141,4.13734-2.70929,9.14897-3.0625,14.4375l-1.28125,1.5625-.0625-.0625a4.93455,4.93455 0 0,0 -4.875-1.0625l-4.78125,1.5625-.34375.0937 .0312.0937c-1.22708.41929-2.11749,1.18369-2.75,2l-1.78125.28125c-.0258-.14679-.033-.2902-.0625-.4375-.29833-1.4911-.73285-2.98928-1.84375-4.53125-.88545-1.22904-2.86931-2.65627-5.125-2.875 .0921-.24058.23191-.53785.28125-.71875a4.93455,4.93455 0 0,0 -.65625-4.0625c-.0399-.21748-.003-.044-.0312-.28125-.1359-1.16041-.27378-2.77042-.40625-4.65625-.26493-3.77166-.48746-8.63256-.625-13.59375s-.18385-10.03676-.0937-14.15625c.0702-3.21122.29403-4.96993.4375-6.1875 .58722-.21369 1.08738-.40276 1.9375-.65625 2.65303-.79109 6.23432-1.68143 9.46875-2.40625h.0312c4.56261-1.01759 8.46875-1.78125 8.46875-1.78125a4.93455,4.93455 0 0,0 3.9375-5.59375c-1.33616-8.57373-8.52635-18.31137-20.15625-25.75a4.93455,4.93455 0 0,0 -4.15675-.53145l-7.90625,2.53125-2.71875.875c.0241-.0866.0389-.23193.0625-.3125 .0705-.24041.17321-.34949.28125-.53125 .92179-.67422 2.81932-1.5635 4.75-2.03125 2.1825-.52876 3.9375-.6875 3.9375-.6875a4.93455,4.93455 0 0,0 4.53125-4.4375c0,0 4.64121-48.24083 7-70.40625 .10938-1.02838.18438-1.79611.28125-2.6875 .38301-3.53113.71782-6.46226.875-7.5625a4.93455,4.93455 0 0,0 -4.8125-5.625zm169.53125,115c.041.0128.14092.0284.25.0625v.0625l-.25-.125zm-146.59375,129.65625c.0258.0429.0683.0828.0937.125-.11338.18946-.18478.26484-.34375.625a4.93455,4.93455 0 0,0 -.0312.0312c-.3189.72634-.33888.89567-.21875.5625-.0334.0924-.1103.32828-.1875.59375-.004.0128.004.0182 0,.0312-.12997.45675-.24635.94139-.3125,1.4375a4.93455,4.93455 0 0,0 -.0312.40625c-.76135,14.34918 5.14448,28.13087 5.96875,38.5 .0297.5036.10681.92518.15625,1.25 .004.0289-.004.005 0,.0312 .0639.4136.12054.61412.0937.46875-.11469-.61346-.12293-.48877.0625.375 .15195.71622.33732,1.24276.46875,1.625a4.93455,4.93455 0 0,0 0,.0312c.12706.36401.14847.37184.0937.21875-.00016-.00044 2e-005,.0311 0,.0312s.0581.31276.34375.9375c.3461.75689.73712,1.37427 1.09375,1.875 .16451.23098.40408.52622.71875.875 1.10303,1.22261 3.09415,2.30223 5.21875,2.5-1.48837.37637-3.08774.78805-4.6875,1.21875-3.77534,1.01642-7.25,2-7.25,2a4.93455,4.93455 0 0,0 -.78125.3125l-17.46875-41.75c2.17235-1.85538 3.5625-3.625 3.5625-3.625 1.35662-1.47738 2.21457-3.69427 2.09375-5.25-.0332-.42707-.17243-.70024-.25-1.0625a4.93455,4.93455 0 0,0 .40625-.125l10.875-4.09375a4.93455,4.93455 0 0,0 .3125-.15625zm129.53125,36.125c.64745,1.27797 1.05262,2.16461 1.78125,3.53125-.74132.28623-1.63026.58761-2.8125,1.03125 .35641-1.53656.73225-3.02088 1.03125-4.5625zm-32.6875,4.3125c.36667,1.15431.67213,2.1949 1.0625,3.375 2.02382,6.11812 4.06229,11.90854 5.4375,14.84375 .30488.65073.66514,1.34339 1.15625,2.09375 .24403.37286.46838.67064.625.875l.1875.25c.46282.57474.97582,1.12917 1.5625,1.625 .39256.33104.49861.3848.25.1875v-.0312c.24198.19298.45101.36262.65625.5 .0566.0378.27219.22535.71875.46875v-.0312c.29274.16045.33284.20314.125.0937a4.93455,4.93455 0 0,0 .0312,0c-.0162-.008.27042.17372.75.375l.0937.0312c-.0832-.0265-.39893-.14569.15625.0625 .42955.16031.72233.23089.9375.28125-.24859-.0627.17547.0468.0937.0312-.1882-.0359-.5056-.0878.21875.0625a4.93455,4.93455 0 0,0 .0312,0c-3.9199,1.1304-7.34453,2.88569-9.96875,5.0625-1.42719.0338-3.625.0625-3.625.0625a4.93455,4.93455 0 0,0 -2.75.96875c0,0-5.98701,4.43309-12.09375,9.03125-2.71706,2.04585-5.33387,4.02783-7.59375,5.78125 1.35318-2.90621 1.94242-6.65298.34375-10.25-.88457-1.99028-2.67568-6.80039-4.4375-11.125-.88091-2.16231-1.77819-4.20585-2.625-5.9375-.29165-.59639-.60168-1.1236-.90625-1.65625 .42847-.8532.59249-1.57372.6875-2.15625 .0982.0815.14004.13417.25.21875 .94079.72369 2.09003,1.39158 3.375,1.9375a4.93455,4.93455 0 0,0 1.1875.59375c3.00955,1.02659 5.58372.36859 7.78125-.46875s4.12756-2.004 5.75-3.375c4.53147-3.82919 7.91602-8.63425 10.53125-13.78125zm-22,8.03125c-.4517-.0386-.5931.029 0,.0312v-.0312zm-57.46875,3.0625c.008.0228.0231.0395.0312.0625-.0983.0157-.21555.0452-.3125.0625 .0895-.0474.1945-.0748.28125-.125zm103.75,9.125a4.93455,4.93455 0 0,0 2.125,1.25c-.0216.59508-.0294,1.08037-.0312,2.3125-8e-005,.0504-3e-005,.10548 0,.15625-1.44814-.14203-2.9072-.27861-4.34375-.21875-.70167.0292-1.34416.17967-2.03125.25 .37998-.21222.81081-.3424 1.15625-.59375 .0671-.049.22509-.1738.4375-.34375 .65416-.5248 1.23436-1.09509 1.78125-1.71875-.45372.51948-.39616.48303.125-.125 .23673-.2763.50579-.60044.78125-.96875zm42.8125,22.1875c.14573.65055.34745,1.28917.34375,1.28125s-.22334-.40742-.34375-1.28125z"/>
  <path d="m283.71 521.6-17.423-42.388 135.48-4.4208-1.8203 56.17-14.563-1.5603s1.3002-15.343-4.9409-23.664-43.428-5.9811-50.709-5.461-33.806-6.2412-37.187-3.9007 1.5603 28.865 1.5603 28.865z" fill="#677821"/>
  <path d="m384.59 475.34-107.12 3.5c3.8692 5.6704 9.8511 14.271 14.156 19.75 0.18489-1.0976 0.47448-1.8982 0.9375-2.2188 3.3806-2.3404 29.906 4.4264 37.188 3.9062 6.8263-0.48758 39.933-2.5664 49.188 4.0312-1.3931-11.888-1.573-13.333 5.6562-28.969z" fill="#502d16"/>
  <path d="m225.34 237.25c-18.901 4.186-29.526 19.552-34 26.094 0 0 9.7546-5.9618 13.531 1.9062s-1.2479 19.199-5.9688 22.031-14.156 3.4688-14.156 3.4688c-12.26 22.249-28.376 77.566-18.562 115.19l17.938 0.9375 5.6562 11 19.188-3.4375s-4e-3 -6.6095 0.625-8.8125c0.5665-1.9828 5.2756-3.643 6.25-3.9688-1.2195-3.1364-2.5723-38.684-0.875-44.812 0.61155-2.2081 23.594-6.625 23.594-6.625-0.92988-5.9668-7.3267-15.557-17.938-22.344l-18.562 5.9688s1.3875-9.8875 2.8125-11.312c3.7766-3.7766 12.281-4.4062 12.281-4.4062s6.9286-72.063 8.1875-80.875zm-9.5 164.41c0.12616 0.32446 0.25554 0.31302 0.375-0.125l-0.375 0.125zm6.6562 81.375-22.344 10.062 5.0312 15.688c0.043-0.22375 0.64086-1.039 7.25 0.0625 7.5533 1.2589 12.988 15.69 9.125 22.969-2.971 5.5985-18.562 4.0938-18.562 4.0938s17.942 15.435 21.719 15.75 24.228-5.0381 22.969-8.5l-25.188-60.125z" fill="#b3b3b3"/>
  <path d="m220.44 533.19c-4.585 3.9688-17.438 2.7188-17.438 2.7188s17.942 15.435 21.719 15.75c1.7097 0.14247 6.8283-0.89635 11.812-2.375l-16.094-16.094z" fill="#ececec"/>
  <path d="m280.59 527.07-0.26005 5.461 26.265 3.3806 0.5201-6.7612z" fill="#502d16"/>
  <path d="m268.89 518.22s0.5201 8.0615 2.0804 9.3617 14.823 1.0402 18.983 1.3002 19.504 4.9409 21.064 3.6407-0.78015-15.863-0.78015-15.863z" fill="#806600"/>
  <path d="m276.69 532.01-3.3806 5.9811s-3.9007-4.9409-6.2412-4.6809-16.123 4.1608-16.123 4.1608l-0.26005 6.7612-5.201-0.13003s-3.4456-3.7707-6.0461-3.2506-26.2 13.262-28.28 15.863-2.8605 15.603-2.8605 16.643 12.482 5.9811 18.463 6.2412 30.166-2.0804 31.206-2.3404 4.1608-6.7612 4.1608-6.7612 4.1608 3.1206 5.9811 4.1608 15.863-0.26004 16.383-1.8203 1.5603-7.8014 1.5603-7.8014 4.9409 4.1608 6.5012 4.4208 17.943-1.0402 21.324-2.8605 7.2813-6.7612 5.201-11.442-7.0213-18.723-8.8416-19.764-28.865-4.9409-30.166-4.6809-3.3806 1.3002-3.3806 1.3002z" fill="#d4aa00"/>
  <path d="m294.84 532.53c-2.1177 3.7656-3.6312 12.683-3.5625 13.062l2.3649 6.4014c0 3.1612-6.4274 5.0049-6.4274 5.0049l-2.5625-8.8438s-18.595 1.6913-18.397 4.9747l0.36546 6.0566-12.79-1.7528-2.6475 3.5966s-16.933 7.3655-19.875 8.4688-9.1611-2.4323-11.762-2.0421c-3.6776 0.55165-3.3003 7.1671-3.3003 7.1671l-3.75 1.0625c4.1823 1.7311 10.49 3.7428 14.25 3.9062 5.9811 0.26005 30.179-2.0837 31.219-2.3438s4.1562-6.75 4.1562-6.75 4.1484 3.1161 5.9688 4.1562 15.886-0.25221 16.406-1.8125 1.5625-7.8125 1.5625-7.8125 4.9397 4.1774 6.5 4.4375 17.932-1.0547 21.312-2.875 7.2991-6.7566 5.2188-11.438-7.0234-18.741-8.8438-19.781c-0.91566-0.52324-8.2128-1.7666-15.406-2.8438z" fill="#a80"/>
  <path d="m243.73 542.6 7.0863-2.9255c3.3806-1.0402 7.6213 5.9424 10.012 10.012 4.1764 7.1095 6.7612 23.794 6.7612 23.794s0.91017 1.5603-0.13002 2.2104-8.1915 1.0402-8.7116 1.0402 0.39007-4.4208 0-5.7211-4.9844-13.156-8.4516-19.244c-1.8601-3.266-6.5662-9.1667-6.5662-9.1667z" fill="#784421"/>
  <path d="m270.45 535.65 7.2813-1.3002c4.2908-1.5603 10.402 7.6714 12.092 14.563 0.96966 3.9532 4.1608 20.414 4.1608 20.414l-9.2317 2.3404s1.2016-5.4639 0.91017-8.4516c-0.52009-5.331-5.331-18.333-7.8014-21.324-1.5821-1.9151-7.4114-6.2412-7.4114-6.2412z" fill="#784421"/>
  <path d="m414.52 546.71s-6.1708-1.0582-5.914-0.11457c0.73877 2.7139 8.5144 9.9519 8.5144 12.46 0 3.3806-4.1608 8.3215-3.1206 9.8818s8.3215-2.6005 8.5816-4.6809-1e-5 -14.426-8.0615-17.547z" fill="#806600"/>
  <path d="m377.59 532.79 1.8203 8.5816 29.385 0.52009-1.5603-8.5816z" fill="#502d16"/>
  <path d="m369.27 525.77 3.6407 8.3215s13.262 3.1206 21.064 3.3806 16.123-0.78015 16.123-0.78015-1.0402-8.3215-0.26004-10.402 3.1206-5.9811 1.3002-5.721-8.5816 1.3002-10.142 1.3002-15.863-2.0804-18.463-1.0402-13.262 4.9409-13.262 4.9409z" fill="#806600"/>
  <path d="m409.06 546.31s4.9409 1.8203 5.7211 2.3404 3.3598 11.029 2.0804 16.383c-0.75432 3.1568-5.461 8.0615-5.461 8.0615z" fill="#502d16"/>
  <path d="m394.23 547.87s11.702 13.522 11.702 16.383-4.9409 10.922-3.1206 11.442 12.222-3.6407 13.262-5.9811-1.3002-18.463-3.6407-21.324-8.3215-3.6407-8.3215-3.6407z" fill="#806600"/>
  <path d="m376.55 537.99s-0.26005 5.9811 0.26005 7.5414 9.8818 5.201 13.262 4.1608 14.303-3.6407 16.383-3.6407 5.201-0.78015 5.201-0.78015l-0.49125-7.234s-1.4572-1.3199-2.9192-0.6781l-0.49029 1.4109c-6.4537 1.4105-20.154 0.78014-22.234 0.52009s-7.3036-2.5243-7.3036-2.5243c-0.94115 0.68057-2.4116 0.37983-1.668 1.2241z" fill="#806600"/>
  <path d="m369.01 549.17c1.0402-0.26005 7.5414-2.3404 12.482-2.3404s11.296-0.20675 15.603 2.8605c5.5963 3.9854 9.3617 15.603 10.142 17.943s-1.0402 7.0213-1.0402 7.0213l-9.1017 1.8203z" fill="#784421"/>
  <path d="m403.06 557.44-7.7812 5.5 0.34375 12.094 1.4688 1.4375 9.0938-1.8125s1.8426-4.6908 1.0625-7.0312c-0.4542-1.3626-1.9374-5.8727-4.1875-10.188z" fill="#502d16"/>
  <path d="m351.84 551.77c2.8605-2.6005 9.3617-5.461 15.603-5.721s14.563 2.3404 19.244 4.4208 14.303 15.603 14.823 19.764-0.52009 7.2813-3.3806 8.0615-8.3215 4.6809-8.3215 3.3806-5.461-26.005-11.442-28.865-20.804 3.1206-22.104 3.3806-4.4208-4.4208-4.4208-4.4208z" fill="#d4aa00"/>
  <path d="m399.47 565.41c-4.427 1.3619-9.7318 2.944-12.75 3.6562 1.891 6.2342 3.0938 12.016 3.0938 12.625 0 1.3002 5.452-2.6261 8.3125-3.4062s3.8951-3.9017 3.375-8.0625c-0.1362-1.0896-0.89892-2.8125-2.0312-4.8125z" fill="#a80"/>
  <path d="m345.6 558.01c1.0402-0.5201 10.402-7.5414 10.402-7.5414s11.442-1.8203 16.643-0.26005 12.944 7.0983 16.903 13.002c2.2017 3.2835 3.6407 9.3617 3.1206 11.442s-6.7612 11.442-6.7612 11.442z" fill="#784421"/>
  <path d="m389.25 562.78-8.8125 3.2812 1.0938 17 4.375 3.0312s6.2612-9.3571 6.7812-11.438-0.9233-8.154-3.125-11.438c-0.099-0.1476-0.2089-0.29041-0.3125-0.4375z" fill="#502d16"/>
  <path d="m345.86 552.55s-23.924 17.683-24.705 18.984-4.6809 11.182-4.6809 13.522 2.3404 5.461 5.201 6.2412 34.326 7.0213 45.768 3.6407 18.723-7.2813 20.284-8.8416 2.3404-16.123-3.1206-20.284-21.844-13.002-26.525-13.262-12.222 0-12.222 0z" fill="#d4aa00"/>
  <path d="m206.93 423.08 4.5635-1.731s0.79961-1.6251 2.7538-1.8096c3.74-0.35328 8.1041-1.0228 8.1041-1.0228s1.0228-1.4949 2.6751-1.6523l8.0254-1.3376s-0.23604-1.5736 0.70812-1.8096l5.1142-1.6523 2.0457 1.8883 4.0914-0.94416 4.5635-5.665 3.3046 0.62944 5.9797 56.492-12.589 8.0254-10.858 4.0914-1.8883-0.15736-3.1472 1.2589-0.62944-0.15736-14.635 4.5634z" fill="#784421"/>
  <path d="m245.97 413.62-4.25 1.4375 3.2812 5.5-0.77681 6.7489-2.1919-1.5614s1.0915 13.208 0.30473 16.512-5.1797 13.707-5.1797 13.707l-1.125-17.625-4.5492 14.943-12.607-2.8179-4.0938 29.031 0.34375 2.5938 14.625-4.5625 0.625 0.15625 3.1562-1.25 1.875 0.15625 10.875-4.0938 11.656-7.4688-10.719-41.469z" fill="#502d16"/>
  <path d="m292.18 297.07c-1.7884-2.3387-8.3959-3.3584-12.09-6.7167-0.49643 9.6695 2.3862 11.069 2.3508 15.784 0 0 5.5069-6.5468 9.7392-9.0676z" fill="#677821"/>
  <path d="m346.41 268.44c-1.3231 0.11026-2.7857 1.6304-3.6875 2.6875-1.5902 0.20617-3.1864 0.49653-4.7812 0.8125-0.91871-1.5847-5.4876-3.0243-7.2188-1.4375-1.2085 1.1078-2.9544 2.8037-3.25 4.1562-1.5891 0.5133-3.1388 1.0807-4.6875 1.6562-0.76735-0.40211-1.6335-0.58382-2.3438-0.40625-1.1704 0.29261-3.6018 1.6468-4.9375 3.3438l-0.0312 0.0312c-10.386 4.583-18.969 9.8404-23.125 12.781-12.162 8.6066-23.062 29.375-23.062 29.375s-7.301 1.964-6.8438 8.5625c0.58163 8.3931 5.3125 9.375 5.3125 9.375-10.709 11.475-2.0366 8.5763-3.2188 12.906 0 0-7.1061 6.1757-6.1562 11.875 0.62282 3.7369 3.5082 7.2491 6.3438 9.375-3.4879 5.8587-10.769 15.556-13.73 21.25-4.3659 8.3959-2.5033 35.281-2.5033 35.281s-2.5716 16.286 0.78681 28.376 15.696 15.936 15.696 15.936l127.62 1.6875v-61.438l36.938-19.156s-14.769-25.197-26.188-30.906-26.875-10.75-26.875-10.75l-7.1875-6.1562c0.32715-0.85881 0.64908-1.7251 0.9375-2.625 2.7075-0.26443 7.0098-0.78354 9.7812-1.7812 4.198-1.5113 10.135-2.2142 12.094-6.5312 2.214-4.8803 12.938-26.939 10.375-36.781-0.80296-3.0832 1.6343-13.879-2.0625-11.281-2.5813 1.8139-11.13 11.238-13.312 11.406 0 0 3.7981-13.301-11.875-21.375-9.9301-5.1155-17.473-7.9177-23.969-8.0938-1.5037-1.0104-3.6078-2.2592-4.8438-2.1562z" fill="#abc837"/>
  <path d="m291.38 319.84c-1.0686 1.6623-8.25 2.0625-8.25 2.0625s4.3472-0.30879 5.2812 1.25c1.72 2.8706-0.3236 7.258-2.625 9.6875-4.0534 4.2791-13.759 5.5312-16.781 5.5312-1.3278 0-3.0236-0.75792-4.5312-1.5938 1.5148 2.2204 3.2812 2.5938 3.2812 2.5938-0.49225 0.52747-0.89935 0.99993-1.3125 1.4688 1.9293-0.31281 3.9572-0.625 4.4062-0.625 0.83959 0 4.2188-1 4.2188-1s1.3358 2.0042 1 2.8438 1.1562 1.6875 1.1562 1.6875l-1.8438 1.1875 1.1875 1.6562s4.195-0.99584 3.1875-0.15625 0.6875 1.8438 0.6875 1.8438l-0.1875 3.0312s3.3122-4.325 5.4375-4.5625c1.1682-0.13052 3.4533-2.4962 4.125-3s4.7188 0 4.7188 0l-3.375-0.5c-1.2718-0.41566-1.6279-1.1386-1-2.1875l3.1875-0.84375-3.3438-0.34375c-0.57109-0.74504-1.3449-1.4483 0.84375-2.5l3-0.1875s-3.8239-2.8921-4.2354-4.9086c-0.77678-3.8071 1.7666-12.435 1.7666-12.435z" fill="#677821"/>
  <path d="m290.16 343.08c-4.8062-0.17192-9.7226-1.1151-14.105 1.6792l2.6867-4.7017 7.0526-0.67167z"/>
  <path d="m302.78 318.1s-2.2214 1.2614-2.6122 2.256c-1.3061 3.3246-2.8497 4.2745-2.9684 5.6993s0.11874 9.6176 0.83115 9.9738 2.7309 2.1372 2.7309 2.1372l-2.3747 0.71241s3.4433-0.23747 2.9684 0.59368 0.47494 2.6122 0.47494 2.6122 0.53557 1.1107 2.4341 2.3747c3.4811 2.3178 9.4551 1.6578 9.7363-0.41558l4.3339 2.909-3.0229-2.8438c2.7309 0.59368 3.7947-1.5494 3.7947-1.5494l-4.3339-1.5436 1.781-2.6122s9.8551-2.7309 12.111-4.512 5.6993-0.47495 5.6993-0.47495l-2.7309 2.6122s2.9529-1.3418 4.037-2.4934c3.6832-6.1046 4.2564-10.561 1.1874-15.554-1.781-3.6808-3.4433-4.1558-3.4433-4.1558s3.1278 4.2434 2.6122 6.5305c-1.0549 4.6787-4.4563 4.6545-8.127 5.7441 2.1515 2.8191-2.9154 6.2482-3.7466 6.4857-5.6993 3.2059-21.372 2.8496-23.272 2.1372s-2.6934-5.6086-2.3747-8.549c0.32817-3.0275 4.2745-8.074 4.2745-8.074z" fill="#677821"/>
  <path d="m301.92 341.9c4.424-0.66082 8.8274-1.2463 12.594 0.50376l5.0375 0.33583-4.3659-2.1829s0-2.3508-0.67168-2.3508-11.418 0.33584-11.418 0.33584z"/>
  <path transform="translate(.75563,-.83959)" d="m285.29246,341.22998c0,.37095-.30072.67167-.67167.67167s-.67167-.30072-.67167-.67167 .30071-.67167.67167-.67167 .67167.30072.67167.67167z" fill="#fff"/>
  <path transform="translate(28.966 -2.099)" d="m285.29246,341.22998c0,.37095-.30072.67167-.67167.67167s-.67167-.30072-.67167-.67167 .30071-.67167.67167-.67167 .67167.30072.67167.67167z" fill="#fff"/>
  <path d="m279.42 360.2s-6.7167-4.8696-6.3809-9.7392-2.1829-1.3434-2.1829-1.3434c-2.4439 3.9741-1.9737 7.9481-1.3434 11.922l4.03 0.50376z" fill="#f4eed7"/>
  <path d="m272.31 347.91c0.024 1.1822 0.0625 2.9734 0.0625 3.4062 0 0.58771 1.9187 4.896 0.90625 7.0312-0.64145 1.3529-3.5939 2.2707-3.8125 2.375 6e-3 0.0414-7e-3 0.0836 0 0.125l0.4375 0.25 3.625 0.46875 5.875-1.3438s-6.7108-4.8804-6.375-9.75c0.14393-2.087-0.23703-2.6212-0.71875-2.5625z" fill="#d3bc5f"/>
  <path d="m328.62 359.11c-1.8471-1.0075-2.0812-7.2448-1.1754-10.747 0.51003-1.9718 2.5188-4.9536 3.5263-1.0915s5.5413 9.0676 7.3884 10.075c-1.3433 1.1754-4.3659 2.3508-4.3659 2.3508z" fill="#f4eed7"/>
  <path d="m330.28 345.75c-0.32594 0.63498 0.14219 1.6005 0.23511 2.2509 0.16792 1.1754 4.161 5.9633 2.9836 8.8428-0.64529 1.5782-3.7606 2.0139-4.5625 2.3125l5.0625 0.53125s3.0004-1.1683 4.3438-2.3438c-1.8471-1.0075-6.3675-6.2004-7.375-10.062-0.19678-0.75432-0.43296-1.2406-0.6875-1.5312z" fill="#d3bc5f"/>
  <path d="m268.84 357.85s0.67167 3.5263 3.0225 3.0225 8.06-2.015 10.747-2.3508 8.3959 0.67168 12.762 0.50376 30.821-2.9329 31.988-2.099c0.58773 1.3434 0.50066 2.2669 5.0376 2.2669 4.3691 0 4.6177-0.67167 5.1215-2.5188s3.0225-2.3508 3.0225-2.3508l3.5263-0.67167 0.67167 9.4034s-1.3433-1.0915-1.5113-1.7631-1.0075-4.5045-1.0075-4.5045-2.5724-0.0992-3.2411 1.1217c-1.0024 1.8303-2.8176 2.3997-4.3152 2.6564-5.8771 1.0075-7.3764-1.9311-8.4798-2.6027-2.2669 0-26.615 1.6792-32.324 2.1829s-9.0676-0.50375-9.9072-0.33583-9.5713 2.5188-11.25 3.0225-4.03-1.3434-4.03-1.3434z" fill="#445016"/>
  <path d="m348.12 268.81c0.0522 0.39579 0.0685 0.82936-0.1875 1-0.47208 0.31472-3.0938 1.0312-3.0938 1.0312l6.4062-0.25c-0.932-0.62628-2.0814-1.3505-3.125-1.7812zm-14.917 1.0276c2.1462 0.54807 3.2618 0.52913 4.3933 2.4044 0.87178 1.5982-1.4983 3.4327-3.2572 4.2242-1.9012 0.85549-3.78 1.317-6.25-0.28125-1.2159-0.78675-0.58989-2.1647 0.46875-3.4688-1.3698 1.594-2.2797 3.3116-0.78125 4.2812 2.8546 1.8471 5.0215 1.3324 7.2188 0.34375 2.0328-0.91469 4.8272-3.0958 3.8197-4.9429-0.69266-1.2699-3.3023-2.5408-5.6121-2.5607zm-9.8326 6.5036c0.12673 0.4137 2.0725 1.2917 2.0938 2.6562-0.0858 2.9055-3.8132 5.2053-6.8125 5.0625-2.6582-0.12658-3.9866-1.1675-4.0312-2-0.0331 0.24244-0.0586 0.47438-0.0312 0.71875 0.13938 1.2501-0.33878 1.8633 3.1875 2.0312s8.6491-1.959 8.75-5.375c0.0567-1.9208-2.165-2.6959-3.1562-3.0938zm-11.469 10.562c-0.58779-0.0139-1.189 0.1306-1.7812 0.34375 0.44209-0.13517 0.88364-0.19763 1.3125-0.1875 2 0.0473 4.875 2.5232 4.875 3.5s-4.1845 3.4876-7.8125 3.9062-1.9277-3.0881-1.375-4.5938c0.1663-0.45305 0.43321-0.90275 0.78125-1.2812-0.53219 0.49225-0.98763 1.0578-1.2188 1.6875-0.66507 1.8118-2.6784 6.035 1.6875 5.5312s9.4062-3.5433 9.4062-4.7188-3.4682-4.1306-5.875-4.1875zm-9.1875 11.812c-1.6579 0.0882-3.4167 1.0448-4.3438 2.375-1.1561 1.6589-3.0188 4.7192-0.5 6.0625s10.938-2.36 10.938-4.375-3.1481-3.8001-5.375-4.0312c-0.23039-0.0239-0.48191-0.0439-0.71875-0.0312zm-0.40625 0.3125c0.19766-0.0105 0.37023-0.02 0.5625 0 1.8585 0.19292 4.5 1.6934 4.5 3.375s-6.9917 4.7774-9.0938 3.6562-0.55859-3.6781 0.40625-5.0625c0.77369-1.1102 2.2414-1.8951 3.625-1.9688z" fill="#677821"/>
  <path d="m398.75 296.06c-0.75209-0.13099-15.654 11.033-17.125 12.062-4.4185 3.0921-6.8691 6.6167-13.25 4.9375-0.16792 1.9311 1.8504 2.6626 4.9375 3.375 3.4935 3.4222 0.6515 10.572-3.5625 12.125v6.1562c0 2.3747-1.4254 10.219-4.75 14.969s-7.8315 8.7876-9.9688 9.5-1.069 2.3645 1.4375 3.4375c1.09 0.46659 3.5312-0.60613 3.5312 0.34375s-15.688 16.644-22.812 22.344-29.269 10.875-46.75 3.3125c-6.2869-2.7197-17.094-11.406-17.094-11.406l-8.625-3.6875-0.53125 0.90625c4.0419 1.5206 9.1817 4.3147 12 6.5938 2.9831 2.4124 21.364 19.706 35.375 19.469 6.5676-0.11131 15.731-3.0945 23.875-6.7188l-0.15625 4.2188s-7.8593 7.8632-8.8125 9.5312-4.7812 4.0625-4.7812 4.0625l-7.625 4.2812-31.938 4.5312-4.0312-7.1562s2.3828-7.1327 1.9062-8.5625-5.25-2.875-5.25-2.875 3.8203-5.9531 3.3438-6.9062-5.25-3.0938-5.25-3.0938l-1.4375-11.906-2.625-2.1562 0.71875 14.312-0.71875 3.5625-5.9375 10.25c-0.6757 5.2842 0.27886 4.2052 0.9375 4.2812l5-6.1875 2.875 4.5312-3.8125 11.906c0.28618 2.989 1.1269 5.0503 2.1562 3.3438l4.75-7.875 4.0625 10.5-0.96875 7.625 4.0625 5 20.969 34.781 69.094-3.8125 12.875-48.125s-8.5065-19.095-7.0312-28.906c1.5352-10.21 12.508-24.957 15.844-26.625 2.1116-1.0558 8.6905-0.20632 13.25 0.5625-1.2098-0.93506-2.4028-1.7327-3.5625-2.3125-5.8181-2.909-12.664-5.6414-18-7.625l-2.5625 0.0312c0.32332-0.19836 0.65413-0.43824 0.96875-0.625-4.2566-1.5524-7.2812-2.5312-7.2812-2.5312l-7.1875-6.1562c0.32715-0.85881 0.64908-1.7251 0.9375-2.625 2.7075-0.26443 7.0098-0.78354 9.7812-1.7812 4.198-1.5113 10.135-2.2142 12.094-6.5312-0.95309 1.0032-14.637 7.147-18.531 4.4062-0.2932-0.29418-0.14257-1.858 0.4375-4.2188 3.654-0.81399 8.1484-3.7498 9.4951-4.4979 1.7782-0.98786 4.1299-7.0958 4.1299-7.0958-3.2519 0.20078-6.6886 1.7755-9.4062-0.125 1.4301-3.1249 3.1686-6.431 5.25-9.6562 5.0793-7.8707 15.62-14.572 15.25-19.281 0.084-0.11544 0.0815-0.17877 0.0312-0.1875z" fill="#677821"/>
  <path d="m248.78 455.78s-3.2589 1.3827-3.8125 2.875c-0.25886 0.69779 0.21485 1.4843 0.4746 2.1818 2.3772 6.3828 9.7754 17.943 9.7754 17.943s28.128 4.0625 49.812 4.0625 95.781-6.1875 95.781-6.1875l-8.3438-15.031s-89.124 1.6836-108.19 0.96875c-13.857-0.51962-27.977-2.4359-34.719-3.4375z" fill="#784421"/>
  <path d="m225.34 237.25c-18.901 4.186-29.526 19.552-34 26.094 0 0 9.7546-5.9618 13.531 1.9062 0.15736 0.32783 0.31008 0.66101 0.4375 1 5.2377-8.5982 11.495-15.111 18.844-18.594 0.51309-4.8242 0.9631-8.8355 1.1875-10.406zm-30.219 51.625c-4.744 1.4818-10.375 1.875-10.375 1.875-12.26 22.249-28.376 77.566-18.562 115.19l17.938 0.9375 0.21875 0.4375c-3.8465-32.396-1.3572-82.424 10.781-118.44z" fill="#e6e6e6"/>
  <path d="m220.62 327.88-7.9062 2.5312c5.3894 5.079 13.31 15.126 17.219 21.625 4.6574-1.0395 8.625-1.8125 8.625-1.8125-0.92988-5.9668-7.3267-15.557-17.938-22.344z" fill="#e6e6e6"/>
  <path d="m208.35 415.68c1.0932 24.841 8.7101 46.42 14.477 68.924l-20.772 5.3502c-8.116-21.867-10.929-45.118-13.218-73.645z" fill="#241c1c"/>
  <path d="m220 408.44s-6.9488 2.2165-9.7812 2.5312-15.413-0.95748-23.281 1.875-10.76 5.9244-12.428 8.1853c-1.4258 1.9331 0.16419 6.9375 2.0525 7.2522s6.904-6.8116 11.312-8.5c6.6877-2.5613 14.293-2.7355 21.406-1.9062 6.7191 0.78327 12.594-1.875 12.594-1.875 2.203-0.15736 0.95749-8.1919-1.875-7.5625zm8.8125 69.25s-3.3991 0.22923-5.047 0.62722c-5.6457 1.3635-11.645 4.721-16.366 5.9799s-8.4777 1.8706-12.594 1.5738c-4.188-0.30201-1.2587 10.694 0.94432 10.694s25.824-5.6742 28.656-6.6183 6.7646-5.4967 6.7646-5.4967c2.9898-1.5736-2.3583-6.76-2.3583-6.76z" fill="#6c5d53"/>
  <path d="m233.47 413.88c-0.58733 0.45933-0.40625 1.6562-0.40625 1.6562 1.2452 0.99422 3.7304 4.597 5.1875 6.2188 0 0-1.4113-4.1742-2.9062-6.0625-0.73237-0.92509-1.3924-1.4756-1.875-1.8125zm-9.5625 3.3125c-0.98473 0.48683-1.5625 1.3125-1.5625 1.3125 0.4514 0.88998 3.3226 2.3728 4.5016 3.0853 0 0-0.80854-2.6886-1.5953-3.5541-0.26063-0.28669-0.74477-0.6432-1.3438-0.84375z" fill="#ac9393"/>
  <path d="m178.48 431.03s-0.88903 4.7247 0 7.7889c0.44715 1.5412 2.6705 4.0058 2.6705 4.0058s-3.5607 2.448-3.5607 5.1184 0.66762 10.014 0.66762 10.014l2.893 1.1127s-0.13066 9.086 1.5578 10.682c2.4831 2.3472 4.8959 2.2254 4.8959 2.2254s-0.22255 4.8959 0.44508 6.0086 6.4738 5.4875 7.1213 6.6762c1.3208 2.425 23.431-4.2418 25.446-6.5077l-2.0773-22.947c1.1127-3.3381 6.8969-2.1463 6.8969-2.1463s7.5664-5.5635 8.234-7.1213 2.893-2.0029 5.1184-5.5635 2.893-15.133-2.6705-18.916-13.575-3.1156-14.465-3.1156-5.5635 5.7861-5.5635 5.7861-4.6897-3.9152-7.5664-4.4508c-7.6131-1.4174-19.584 1.7803-22.922 3.7832s-7.1213 7.5664-7.1213 7.5664z" fill="#abc837"/>
  <path d="m211.47 420.91c0.13543 3.4557 1.4868 11.935-2.9643 13.197-3.3207 0.85457-21.714 4.2243-21.714 4.2243-1.1671 0.66529-3.6069 2.4939-5.6339 4.4845 2.5847-0.56033 5.3522-2.4959 6.9029-2.4296 8.1607-2.7994 22.965-2.7793 22.66-0.78918-0.21752 1.4178 3.7391 12.279 1.25 12.594-0.69819 0.0883-8.5138 2.885-12.906 3.7812-4.3964 0.89712-13.368 1.5792-13.368 1.5792l-3.0068 1.8896 8.6562 0.46875c7.2222-0.67011 14.526-0.93387 20.938-5.6562 3.5107 1.6506 4.2374 9.5326 3.1562 10.844 0 0-6.9568 2.6131-10.562 3.4688-4.4832 1.0639-13.671 2.0479-13.671 2.0479l-3.6462 1.259 9.1294 1.0993c5.875-1.1565 11.75-1.6924 17.625-4.4062l0.96875 10.844c-7.0729 2.7013-14.146 5.4236-21.219 4.0312 0.54515 0.51201 0.94904 0.95305 1.0938 1.2188 1.3208 2.425 24.704-3.2966 26.719-5.5625 1.3634-1.5332 3.5502-9.7936 2.4375-10.906s-2.6562-2.875-2.6562-2.875 3.332-0.77702 3.3438-4.2957c0.0112-3.3381 0.4375-7.9543 0.4375-7.9543s7.5511-5.5672 8.2188-7.125 2.8996-2.0018 5.125-5.5625c1.3663-2.186 2.1395-7.3996 1.25-11.969-0.43913 1.4604-0.89807 3.0544-1.3125 4.5938-1.1015 4.0914-3.3125 5.9688-3.3125 5.9688s-8.3393 11.343-8.9688 11.5-5.6675-0.80473-8.5-1.9062-3.4688-10.844-3.4688-10.844l2.8125-15-1.1875 1.4062s-2.2766-1.8853-4.625-3.2188z" fill="#677821"/>
  <path d="m293.34 434.38c18.588-1.3583 82.111-69.028 86.281-79.094 0.92445-2.2315-1.7256-3.9863-3.875-4.3125l-2.2812 0.34375 3.2812 2.9375c-1.5476 2.0121-58.857 72.033-83.406 75.312v4.8125z" fill="#502d16"/>
  <path d="m405.34 365.84-2.0255-6.1956c-0.59573-1.3106-8.102-3.9318-8.102-3.9318s0.11914-3.4553-2.5021-4.2893l-9.5318-1.3106c-3.9318 0.47659-15.074 15.909-21.446 24.783-21.456 29.875-55.999 95.079-55.999 95.079l18.11-0.23829-1.668 6.1956h20.97s6.9105-46.229 16.681-66.246 26.689-45.038 31.455-46.706 8.102-0.47659 8.102-0.47659z" fill="#784421"/>
  <path d="m293.34 434.38v-4.8125c-1.7289 0.23094-3.3461 0.16627-4.7188-0.3125-16.225-5.6592-16.5-52.406-16.5-52.406l-3.1875-1.1875s1.2224 51.421 22.031 58.656c0.65003 0.22601 1.5281 0.12439 2.375 0.0625z" fill="#784421"/>
  <path d="m296.78 403.25c-0.43165-5e-3 -0.82953 0.0318-1.2188 0.0625-6.403 0.5055-15.014 8.5963-15.688 10.281s-4.731 6.228-4.5625 8.25c0.063 0.75617 0.17985 2.5388 1.0312 3.125l2.2812 1.5938c0.74737 0.51459 3.178 2.1795 3.0938 1l-0.34375-1.9375c-0.28361-1.6478 3.9718 0.72269 4.4062 1.2812 1.1795 1.5165 2.0042 5.2225 0.65625 7.75s-3.1778 0.818-5.0312 0.3125-1.2705-3.262-0.34375-5.0312c1.2637-1.6007-1.133-1.7012-2.3125-0.4375-1.1439 2.1468-2.6904 4.9719-2.25 6.8438 0.674 2.8645 3.875 5.5312 3.875 5.5312s13.315 22.44 15 24.125c1.685 1.685 5.9088 5.894 7.5938 6.0625s7.0828-6.739 8.0938-7.75-1.1795-18.876 0-19.719 10.933-6.9058 12.281-10.781-4.0312-11.312-4.0312-11.312-3.03 4.7268-2.1875 5.9062 2.3577 2.872-0.84375 5.0625-7.7495 5.204-11.625 3.6875-7.416-7.0528-5.5625-8.9062 8.0798-5.7407 11.281-3.7188 4.5638 3.049 5.4062 2.375 3.3425-4.0595 2.5-6.25 1.0397-6.2305-1.6562-9.9375c-2.5275-3.4753-13.369-7.399-19.844-7.4688zm5.4688 51.5c1.0696-5e-3 2.0625 1.2825 2.0625 2.125 0 1.348-1.8438 12.812-1.8438 12.812-0.1685-1.011-3.3792-9.5865-2.0312-13.125 0.5055-1.3269 1.1708-1.8095 1.8125-1.8125zm-10.594 0.84375c0.0458-9e-3 0.11905-3.4e-4 0.1875 0.0312 0 0 3.5392 7.16 4.7188 9.6875s-2.5448-2.8518-3.2188-4.0312c-0.63187-1.1058-2.3746-5.5536-1.6875-5.6875z" fill="#f4eed7"/>
  <path d="m391.16 351.19c-0.4066 0.2408-0.82615 0.55946-1.25 0.90625-3.707 3.033-30.5 39.911-34.375 47.156s-33.783 72.627-33.783 72.627c1.0936 1.0876 2.552-1.0102 3.6265 0.49826 0 0 28.642-68.239 31.844-73.125s28.824-42.282 32.531-43.125c2.86-1.3824 3.8338-0.43722 5.4688-0.40625 0 0 0.12123-3.4785-2.5-4.3125zm0.70375 7.5475c-2.359 1.685-21.367 28.312-25.204 34.296-11.289 17.608-18.541 45.824-20.562 53.406-1.7796 6.6736-3.7238 24.992-4.1875 29.5h1.25s6.8862-46.233 16.656-66.25 26.703-45.051 31.469-46.719 8.0938-0.46875 8.0938-0.46875l5.9688 3.3438c0.0264 0.0793-1.7711-5.4912-2.1998-6.4402-4.6261-3.1954-6.9608-2.2718-11.284-0.6685z" fill="#502d16"/>
  <path d="m280,423.1875c-1.13.18337-1.88395,1.55551-2.28125,2.75l.90625.625c.74737.51459 3.178,2.17949 3.09375,1l-.34375-1.9375c-.18929-1.0998 1.63092-.40304 3,.34375-1.08376-1.17992-2.68789-2.68032-4-2.78125-.13691-.0105-.2485-.0205-.375,0zm.34375,5.46875c-.52744.083-1.15144.36985-1.59375.84375-.0617.11578-.12384.25553-.1875.375 .5493.35506.96875.76683.96875,1.21875 0,.48194.32149,1.09043.6875,1.625 .0735-.92173.41424-1.96128.84375-2.78125 .78984-1.00046.16031-1.41965-.71875-1.28125z" fill="#d3bc5f"/>
  <path d="m315 409.19c0.41274 1.3867 0.79053 3.3113 0.0937 4.4062-1.1795 1.8535-6.5625 3.875-6.5625 3.875s6.5748 0.83951 6.4062 2.1875 0.33574 6.0435-0.84375 5.875-6.4278-3.0055-8.2812-2.5-10.1 2.6778-10.438 4.5312 3.217 9.114 6.25 10.125c1.2956 0.43186 2.9244 0.19916 4.4062-0.1875-0.46858-0.062-0.9216-0.16633-1.375-0.34375-3.8755-1.5165-7.416-7.0528-5.5625-8.9062s8.0798-5.7407 11.281-3.7188 4.5638 3.049 5.4062 2.375 3.3425-4.0595 2.5-6.25 1.0397-6.2305-1.6562-9.9375c-0.36978-0.50845-0.93901-1.0171-1.625-1.5312zm4.3125 13.312s-2.4858 3.8531-2.3438 5.4688c1.5179-1.1899 1.9557-3.2724 2.8438-1.75 1.1795 2.022 3.3792 2.861 2.0312 6.0625s-8.0963 9.6195-9.7812 10.125c-1.685 0.50549-8.4198 3.5312-9.0938 3.5312s2.8438 1.6698 2.8438 2.3438 0.6875 6.758 0.6875 7.9375-3.875 13.969-3.875 13.969l-0.0625-1.0312-0.0937 0.53125c-0.1685-1.011-3.3792-9.5865-2.0312-13.125 0.5055-1.3269 1.1708-1.8095 1.8125-1.8125 0.68264-3e-3 1.3368 0.52694 1.7188 1.125-0.337-1.685-2.0203-3.712-3.0312-3.375s-4.2242 3.2035-3.7188 5.5625c0.31974 1.4921 2.0825 7.6564 3.5625 12.812 0.87459 0.64846 1.6574 1.1345 2.1875 1.1875 1.685 0.1685 7.0828-6.739 8.0938-7.75s-1.1795-18.876 0-19.719 10.933-6.9058 12.281-10.781-4.0312-11.312-4.0312-11.312z" fill="#d3bc5f"/>
  <path d="m392.47 461.62s-17.038 0.29998-36.906 0.59375l-2.0938 12.844s-3.375-1.7802-3.375-1.1875-6.9094 4.3559-8.6875 5.3438c-0.6926 0.38478-1.3812 1.1612-1.9688 2 28.314-1.8262 60.993-4.5411 61.25-4.5625v-0.21875l-8.2188-14.812zm-140.38 10.281-0.3125 1.25c1.8632 3.1541 3.4375 5.625 3.4375 5.625l1.1875 0.15625-1.9375-6.6562-2.375-0.375zm13.062 1.5625-1.4062 4.75-7.0625 0.75c1.5179 0.21232 5.5871 0.76978 12.188 1.5-0.22333-1.4556-0.62901-3.9655-0.78125-5.0312-0.19757-1.383-2.9375-1.9688-2.9375-1.9688zm28.062 0.75c-1.7799 0.19535-3 6.9688-3 6.9688l-8.7812 0.5c5.7533 0.48403 11.843 0.89208 17.75 1.0625l-2.25-1.1875s-1.368-6.491-3.3438-7.2812c-0.12348-0.0494-0.25634-0.0755-0.375-0.0625zm-17.219 1.0312-2.25 5.7188c1.9893 0.2007 4.0068 0.40547 6.1562 0.59375-0.0858-0.39032-0.96648-4.3727-1.5312-4.9375-0.59271-0.59272-2.375-1.375-2.375-1.375zm26.469 3.75-0.4375 3.8125c1.0091 0.016 2.0143 0.0312 3 0.0312 0.74586 0 1.6978-0.0171 2.5625-0.0312l-5.125-3.8125z" fill="#502d16"/>
  <path d="m292.84 434.5c2.5838-0.0601 6.0899-1.468 10.25-3.9375l-1.9375-3.5938c-3.0705 1.5145-5.8418 2.3584-8.3125 2.5938v4.9375z" fill="#502d16"/>
  <path d="m292.84 434.5v-4.9375c-1.5328 0.14604-2.9812 0.11915-4.2188-0.3125-1.842-0.64249-3.4521-1.8329-4.9062-3.4062l-0.125 3.3438c2.1409 2.3524 4.5658 4.1482 7.375 5.125 0.54028 0.18786 1.1948 0.20333 1.875 0.1875z" fill="#784421"/>
  <path d="m329.44 424.46c0.59574-1.4298 4.4084-8.2211 4.885-8.3403s13.225-2.1446 14.298-1.9064l-1.8408 7.0403-14.959 2.134z" fill="#b3b3b3"/>
  <path d="m327.84375,403.375c-2.65057.0274-5.77023,2.03414-5.90625,3.15625-.18137,1.49615-.0548,2.62223.40625,3.8125 .15572.40194.10517.77202.3337,1.15625 .95475-.57107 1.35243-1.62309 2.2288-.5625 .52242.69656.239,2.00023-.0937,3l5.40625-9.84375c-.65626-.53499-1.49148-.72788-2.375-.71875z" fill="#f4eed7"/>
  <path d="m338.5 392.88c-2.6496-0.0762-5.8515 1.8216-6.0312 2.9375-0.23971 1.4879-0.13298 2.6051 0.28125 3.8125 0.20796 0.60611 0.51488 1.207 0.875 1.7812 0 0 1.3642-1.3203 1.7812-0.84375 1.6878 1.5545 1.0098 3.1041 0.1875 3.4375 1.9531 2.2095 4.1255 4.2253 4.3125 6.2812 0.30299 3.3309 2.3299 5.4109 3.75 2.2812s-0.27311-16.603-2.8125-18.844c-0.63485-0.56024-1.4605-0.81834-2.3438-0.84375z" fill="#f4eed7"/>
  <path d="m274.38 399.09c-0.88269-0.0394-1.732 0.14406-2.4062 0.65625-2.6968 2.0488-5.4056 15.368-4.2188 18.594s3.0999 0.32452 3.6462-2.9752l1.9062-8.1562 6.0312-1.9375c0.50162-1.1738 0.95255-1.3358 0.82255-2.8373-0.0975-1.1261-3.1332-3.2256-5.7812-3.3438z" fill="#f4eed7"/>
  <path d="m271 387.25c-0.41753 0.0166-0.83513 0.10221-1.2188 0.28125-3.069 1.4324-8.5095 13.909-8.0312 17.312s3.0184 1.9534 4.25-1.1562l4.3474-10.222 5.5276 2.034c0.73843-1.0412 1.1534-2.0987 1.3438-3.5938 0.16658-1.3081-3.296-4.7722-6.2188-4.6562z" fill="#f4eed7"/>
  <path d="m374.12 479.27s3.5744 21.446 4.2893 23.591 10.723 22.876 13.821 23.353 9.2935-2.3829 11.438-6.6722 6.1956-24.783 4.5276-30.025-7.1488-12.153-7.1488-12.153z" fill="#808080"/>
  <path d="m347.57 480.34c-1.2872 3.4018-1.2032 20.285-0.68937 24.649s7.1782 24.078 9.2752 28.553c2.0017 4.2723 5.559 6.2499 9.3954 1.0356s7.7855-20.792 8.8998-31.716c0.76409-7.4908 1.5535-19.962-1.586-22.533s-23.829-5.4444-25.295 0.0113z" fill="#b3b3b3"/>
  <path d="m367.81 478.47-1.09 0.14935-2.8513-0.3613s3.0275 16.356 2.8593 24.614c-0.23315 11.448-5.3497 33.932-5.3497 33.932-1.668 0-2.5058-2.1465-2.5058-2.1465l-1.9062 0.375c2.0743 3.1693 5.2369 4.125 8.5938-0.4375 3.8364-5.2143 7.792-20.795 8.9062-31.719 0.76409-7.4908 1.5457-19.96-1.5938-22.531-0.78487-0.6428-2.6584-1.3293-5.0625-1.875z" fill="#999"/>
  <path d="m387.55 413.08s-16.85 6.403-21.905 10.447-6.066 8.088-5.055 9.773 4.044 6.066 4.044 6.066-11.795 2.022-12.132 6.066 4.381 14.154 4.381 14.154l2.696 1.685s-0.67399 10.447 2.359 11.795 5.729 2.022 5.729 2.022 3.707 9.436 5.729 10.447 9.436 1.011 9.436 1.011 6.403 6.403 8.762 6.403 20.894-3.707 22.916-6.403 8.425-25.949 8.425-25.949z" fill="#abc837"/>
  <path d="m376.75 426.22-9.4062 3.5312-6.8125 3.4062c0.0212 0.0414 0.0391 0.0861 0.0625 0.125 0.86613 1.4436 3.3834 5.17 4.0391 6.1211 2.0655-0.69974 6.4737-3.162 8.5859-4.7461 2.696-2.022 3.5312-8.4375 3.5312-8.4375zm11.312 3.875s1.4932 12.646 1.1562 14.5 1.8577 3.361 2.3632 4.2035 4.5443 3.8687 5.3868 4.2057 3.3872 8.937 3.2188 10.622-6e-3 3.3805-6e-3 4.223 2.364 1.3518 3.038 2.0258 6.2318 3.0105 6.9058 5.0325-0.6875 7.4375-0.6875 7.4375 2.723 3.7078 1.375 4.7188-15.69 4.5435-17.375 4.375c-1.685-0.1685-4.8628-4.2322-5.0312-4.9062s5.375-2.1875 5.375-2.1875-7.5853 1.3438-10.281 1.3438c-2.4412 0-9.5726-0.85208-11.031-1.0312 0.32968 0.41458 0.65798 0.73524 0.9375 0.875 2.022 1.011 9.4375 1 9.4375 1s6.391 6.4062 8.75 6.4062 20.884-3.7103 22.906-6.4062c1.3642-1.8189 4.6468-12.671 6.6875-19.75zm-14.5 26.625-0.5 2.0312s-5.554 0.33825-8.25 0.84375-7.1406 0.0997-7.1406 0.0997l2.2343 1.4003s10.97-0.32475 11.812-0.15625 6.0625 3.375 6.0625 3.375zm8.25 14.812 0.1875 3.375s-4.5595 0.84375-6.75 0.84375c-1.824 0-9.3242-1.6265-12.188-2.25 2.5355 1.0248 4.5938 1.5938 4.5938 1.5938s0.24766 0.56794 0.53125 1.25c3.3615 0.10788 12.438-0.25 12.438-0.25l3.2188 2.5312z" fill="#677821"/>
  <path d="m428.83 384.6s-13.143 2.696-19.04 7.2455-24.938 17.692-27.297 23.421-1.5165 17.524 0.5055 20.557 18.029 10.952 21.905 21.736 10.447 24.264 11.795 26.117 20.22-9.6044 23.253-15.165 9.9415-27.971 9.099-39.26-2.359-22.579-5.392-30.161-9.099-15.67-14.828-14.491z" fill="#808080"/>
  <path d="m426.33 425.9s-0.72659-6.3864 3.9871-7.9672 10.243 3.8955 9.3874 8.312-2.4802 6.653-5.465 7.6882-7.4649-4.6791-7.9095-8.033z" fill="#666"/>
  <path d="m429.91 384.5c-0.35987 4e-3 -0.70444 0.02-1.0625 0.0937 0 0-13.165 2.7005-19.062 7.25s-24.922 17.709-27.281 23.438-1.522 17.498 0.5 20.531c1.7124 2.5686 13.465 8.6504 19.375 17l9.0938 5.5938s-6.5735-11.673-10.781-16.844c-4.0637-4.9935-11.516-7.4853-13.812-13.5-1.7838-4.6729-1.2911-10.531 1.0122-14.971 5.9564-11.481 26.943-22.582 30.144-24.435 2.2125-1.2809 8.7033-3.1078 12.594-4.125-0.2365-0.026-0.48245-0.0337-0.71875-0.0312z" fill="#ccc"/>
  <path d="m383.41 405.73c1.2608-1.5375 5.6796-4.179 10.398-4.0948s21.701 9.1172 31.67 22.706c6.841 9.325 22.725 34.505 16.323 45.752l-5.8382 4.1701-3.4059 1.4153s6.7829-5.2749 7.2246-7.9624c0.83403-6.1956-7.7505-24.193-11.206-29.078s-14.475-19.683-24.306-26.57c-3.5731-2.5032-7.7406-4.7119-12.093-5.0042-1.0861-0.0729-1.8959 0.14024-3.1574 0.83403z" fill="#502d16"/>
  <path d="m434.81 391.42s-4.8865-4.718-9.099-2.022-3.033 10.615 1.1795 12.806 7.077 2.359 9.773 0.674 0.67399-8.9305-1.8535-11.458z" fill="#666"/>
  <path d="m405.46 390.38c2.5021-1.9064 8.5786-4.5276 14.536 0.59574s16.731 18.912 21.804 30.263c4.2304 9.4666 6.9589 28.819 6.6722 30.382-1.3106 7.1488-5.0042 7.3871-5.0042 7.3871l1.4298-4.885s-3.8885-23.464-9.2935-33.838c-5.6041-10.755-21.208-27.642-23.234-28z" fill="#502d16"/>
  <path d="m405.58 417.63s-4.8865-4.718-9.099-2.022-3.033 10.615 1.1795 12.806 7.077 2.359 9.773 0.674 0.67399-8.9305-1.8535-11.458z" fill="#666"/>
  <path d="m396.82 418.47c-1.4418 2.3937-0.58975 7.414 2.7802 8.9304s5.7606 0.63907 6.5715 0.0843c3.2015-2.1905 6.8242-18.451 6.8242-18.451-2.6626 1.4133-5.1146 4.6877-8.5211 6.6943-2.9577 1.7422-5.9557-0.0792-7.6548 2.7417z" fill="#999"/>
  <path d="m383.44 285.16c0.3562 3.6638 0.74595 8.243 0.46875 9.9062-0.47659 2.8595-8.8359 10.367-9.3125 10.844s-8.2149 2.1308-7.5 2.25 7.371-1.293 8.5625-1.5312c1.002-0.20041 8.683-4.936 11.469-6.6562 0.10661-0.39241 1.9843-7.7731-3.6875-14.812z" fill="#677821"/>
  <path d="m431.66 457.36s-1.0402-6.7123-6.0256-7.1114-8.8335 6.6224-6.8022 10.914 4.2112 6.1574 7.3774 6.445 5.9357-6.7063 5.4504-10.248z" fill="#666"/>
  <path d="m423.27 452.34c-3.6529 3.7603-1.8535 11.963 1.685 12.974s8.425-0.84249 10.447-3.37 6.066-11.121 6.066-11.121-6.5559 1.9609-9.9414 2.1905c-2.755 0.18683-6.1793-2.8122-8.2565-0.674z" fill="#999"/>
  <path d="m429.84 419.65c3.033-1.5165 6.6873 0.39435 9.773-0.67399 3.0178-1.0448 7.9195-5.392 7.9195-5.392s-2.155 10.204-5.5605 13.817c-2.3438 2.4863-7.414 4.718-9.2675 4.381-4.6736-1.0464-6.3747-9.6063-2.8645-12.132z" fill="#999"/>
  <path d="m425.29 391.68c-1.6417 3.4581 3.2857 9.5202 8.3407 10.026s8.2952-5.122 10.026-9.3517c1.2241-2.9919-0.42125-9.6887-0.42125-9.6887s-3.0918 3.7509-5.1392 4.9707c-3.8457 2.2911-11.221 0.70522-12.806 4.044z" fill="#999"/>
  <path d="m322.68 438.98s-0.50897-2.9678 1.1591-5.1124 8.412-1.7669 12.922-1.6574c1.4188 0.0344 2.9245-0.12977 4.116 1.8957l-4.051 4.3432z" fill="#b3b3b3"/>
  <path d="m341.95 433.04s7.268-0.11914 9.0552 0.47659l-1.4725 7.6793-9.5859-1.2782z" fill="#b3b3b3"/>
  <path d="m341.94 433.03-3.6875 8 9.6562 0.9375 1.0625 2.9688s1.6855-0.59177 2.2812-1.1875 1.3125-7.5 1.3125-7.5 0.2247-2.1543-1.5625-2.75c-0.11539-0.0385-0.31109-0.061-0.46875-0.0937-0.30249 1.6071-1.3545 7.0625-1.75 7.0625-0.45508 0-7.1562-0.84375-7.1562-0.84375l2.0938-6.5938h-1.7812z" fill="#808080"/>
  <path d="m248.54 424.46s3.8127 5.4808 6.9105 7.3871 16.204 7.1488 15.251 7.3871-21.029-3.8272-21.446-7.8637z" fill="#677821"/>
  <path d="m306.21 479.5s-1.6681 5.9573-0.71488 13.583 10.962 33.123 14.059 35.506 6.3906 3.1387 11.156-1.8655 14.579-20.772 15.294-26.253 1.1915-23.115-1.4298-25.974-25.736-4.051-28.595-3.8127-8.102 4.2893-9.77 8.8169z" fill="#b3b3b3"/>
  <path d="m317.91 470.66c-0.91082-0.0154-1.5801 1e-3 -1.9375 0.0312-2.8595 0.2383-8.0819 4.2849-9.75 8.8125 0 0-1.6719 5.9683-0.71875 13.594 0.14282 1.1426 0.50427 2.724 1 4.5312-0.37058-2.6407 0.73121-8.0825 0.59375-12.344-0.18388-5.7003 2.7358-10.68 7.7007-12.151s29.237 1.1201 29.237 1.1201v-0.15625c-3.7422-2.2276-20.106-3.336-26.125-3.4375z" fill="#ccc"/>
  <path d="m342.47 473.44c1.5146 4.0402 3.6231 13.76 2.5782 20.602-1.8243 11.945-6.5013 24.429-15.033 32.985-1.8895 1.895-4.954 3.5976-7.2954 3.3507 2.5233 0.86073 6.3975-0.98082 8.75-2.9688 7.7927-6.585 12.308-16.98 14.531-26.938 1.8894-8.4611 1.1837-23.109-1.4375-25.969-0.35465-0.38689-1.0897-0.73609-2.0938-1.0625z" fill="#999"/>
  <path d="m252.25 481.04c-0.67526 12.727 5.0832 26.276 5.9811 37.967 0.26005 4.4208 3.9007 9.1017 7.5414 2.0804s9.8818-33.286 9.6218-37.187-11.182-7.2813-14.303-7.2813-8.2574 0.0388-8.8416 4.4208z" fill="#b3b3b3"/>
  <path d="m269.67 486.24c0.54985 9.8973 11.25 32.222 13.002 35.887 2.8605 5.9811 16.643 8.0615 18.983-1.3002s3.1206-25.745 2.6005-31.466-7.2813-10.922-11.962-11.182-13.522 0.26004-16.123 0.78014-6.732 3.127-6.5012 7.2813z" fill="#b3b3b3"/>
  <path d="m355.40625,477.25c-4.01716.15853-7.29411,1.04788-7.84375,3.09375-.12796.33818-.24197.82714-.34375,1.40625l.40625.125c.0919-.36776.36135-2.48141 2.84375-3.125 1.99112-.51621 5.07184-1.19883 6.4375-1.5-.50593-.001-1.01307-.0192-1.5,0z" fill="#ccc"/>
  <path d="m288.16 478.12c-4.5833 0.0609-10.05 0.45367-12 0.84375-2.6005 0.52009-6.7308 3.1269-6.5 7.2812 0.54985 9.8973 11.279 32.21 13.031 35.875 0.66659 1.3938 1.9302 2.5628 3.5 3.4375l4.1562 0.15625c-2.8427 1.7464-18.926-40.261-11.406-44.5 0.91941-0.18388 9.5783-0.71875 11.969-0.71875 1.2718 0 2.692-0.93565 3.75-1.8125-0.8191-0.27517-1.628-0.4585-2.375-0.5-1.1702-0.065-2.5972-0.0828-4.125-0.0625z" fill="#ccc"/>
  <path d="m259.84 476.62c-3.0817 0.0673-7.0825 0.57199-7.5938 4.4062-0.67526 12.727 5.0708 26.277 5.9688 37.969 0.10457 1.7776 0.77202 3.6035 1.75 4.6875 0.96834-0.36261 1.763-0.7066 2.0625-0.90625 1.1033-0.73553 6.25-24.817 6.25-26.656s-0.5625-14.156-0.5625-14.156l4.8125-1.5312c-3.5261-2.247-9.3035-3.8125-11.438-3.8125-0.39007 0-0.80975-0.01-1.25 0z" fill="#ccc"/>
  <path d="m387 569c-0.14325 0.0348-0.33865 0.095-0.46875 0.125-4.7809 1.1033-20.988 3.3151-23.562 6.625s-2.1875 7.7188-2.1875 7.7188 2.5671 5.8704-0.375 8.8125c-1.7215 1.7215-7.3166 2.6822-11.688 3.1875 7.3469 0.64052 14.434 0.73469 18.719-0.53125 11.442-3.3806 18.721-7.2835 20.281-8.8438 1.2752-1.2753 2.0299-11.225-0.71875-17.094z" fill="#a80"/>
  <path d="m263.31 555.38-9.5938 3.25c2.5171 5.5792 4.7624 11.479 5.0312 12.375 0.39007 1.3002-0.5201 5.75 0 5.75s7.6786-0.41238 8.7188-1.0625 0.125-2.2188 0.125-2.2188-1.5811-10.237-4.2812-18.094z" fill="#502d16"/>
  <path d="m290.53 552.25-7.25 1.6875c1.2101 3.5702 2.1604 7.0812 2.375 9.2812 0.29148 2.9876-0.90625 8.4375-0.90625 8.4375l9.2188-2.3438s-2.1348-10.94-3.4375-17.062z" fill="#502d16"/>
  <path d="m412.41 388c-3.012 0.0191-5.5301 1.3027-6.9375 2.375-2.5021 1.9064-4.4062 8.0938-4.4062 8.0938l6.3125-5s2.4115-1.2392 4.375-1.2188c0.16691-1.3369 0.59648-3.9937 1.4688-4.1875l0.21875-0.0312c-0.34546-0.0315-0.69659-0.0334-1.0312-0.0312z" fill="#784421"/>
  <path d="m391.19 401.84c-3.6605 0.65266-6.7568 2.6258-7.7812 3.875-4.6348 5.6518-4.2349 10.708-4.2349 10.708l3.5787-1.3326s3.8671-5.8769 6.25-7.1875c0.37924-0.20858 0.71387-0.37302 1.0312-0.5 0.33354-1.9657 0.70159-4.0286 0.9375-5.0312 0.0464-0.19711 0.13131-0.36961 0.21875-0.53125z" fill="#784421"/>
  <path d="m280 402c0.0532 1.0388-0.12765 2.2222-1.0938 2.5938-1.6903 0.65012-3.1172-2.0977-4.9375-1.1875s-4.6774 8.1869-4.9375 11.438c-0.10633 1.3291-0.10244 3.2673-0.0625 5.0938 1.0897 0.37846 2.301-1.2593 2.6875-3.5938 0.24077-1.4542 1.5406-3.1479 3-4.5625-0.39648-1.2891-1.0501-3.0265-1.0938-3.5938-0.0596-0.77448 1.6113-1.0166 1.9688-0.71875 0.33404 0.27836 0.64919 2.6542 0.71875 2.9688 1.3023-1.273 2.7022-2.6864 3.3438-4.1875 0.50162-1.1738 0.6925-2.311 0.5625-3.8125-0.01152-0.13305-0.06818-0.28215-0.15625-0.4375z" fill="#decd87"/>
  <path d="m271,391.59375c-.19961-.005-.39997.0437-.5625.125-1.30024.65012-5.96986,9.10209-6.75,11.3125-.45895,1.30036-.74855,2.6461-.9375,3.71875 .98682.38296 2.42142-.97036 3.25-3.0625 .72653-1.83447 3.16647-3.14413 5.5625-4.625-.10845-.52768-.60743-2.99302-.5-3.90625 .11915-1.01273 2.10253-.47507 2.28125.0312 .16374.46392.407,2.23033.4375,2.53125 .8455-.63846 1.53003-1.42391 2.09375-2.21875 .481-.67822.82867-1.37903 1.0625-2.1875-.14975.05-.32066.0825-.5.0937-1.82033.11377-4.04025-1.77695-5.4375-1.8125z" fill="#decd87"/>
  <path d="m348.47 414.22c-0.75688 2.6021-1.8526 6.2522-2.2188 6.3438-0.52009 0.13003-14.287 1.7137-14.938 1.8438-0.2484 0.0497-0.91245 0.73037-1.5938 1.5-0.0767 0.15967-0.23716 0.45668-0.28125 0.5625-0.59573 1.4298 1.0625 1.0625 1.0625 1.0625l1.3125-2.1562 13.469-1.5312 0.46875 2.5s1.7988-0.71676 2.1562-1.3125 2.2812-5.9609 2.2812-6.4375-0.49018-2.1367-1.5625-2.375c-0.0231-5e-3 -0.12253 3e-3 -0.15625 0z" fill="#808080"/>
  <path d="m330.0625,404c-.59974.25538-1.24202.49215-1.75.59375-1.30024.26005-2.42839.90976-2.875,1.5625-.84516,1.23522-2.55793,3.84863-2.16785,4.85631 .0372.0962.99754-1.11681 1.73035.11244 .41546.69691.11813,1.89408-.1875,2.8125 2.17127,2.38136 4.83169,4.50323 5.125,6.75 .43295,3.31648 2.54705,5.33897 3.84375,2.15625s-.93746-16.61002-3.5625-18.75c-.0472-.0385-.10723-.0587-.15625-.0937z" fill="#decd87"/>
  <path d="m339.97 393.19c-0.16409 0.71512-0.58556 1.4993-1.5312 2.0312-2.0804 1.1702-4.1613 1.8186-4.0312 2.4688s-0.25 3.25-0.25 3.25c0.43005-0.3281 1.0052-0.65478 1.25-0.375 1.2906 1.1886 1.2015 2.3586 0.71875 3l0.375 0.5-0.375 0.5c1.8003 1.9849 3.6107 3.8443 3.7812 5.7188 0.30299 3.3309 2.3299 5.4109 3.75 2.2812s-0.27311-16.603-2.8125-18.844c-0.25879-0.22838-0.56181-0.39858-0.875-0.53125z" fill="#decd87"/>
  <path d="m339.6875,432.78125c-.7242,1.78578-1.81523,4.39107-2.09375,4.4375-1.36525.26004-9.55184-.23308-14.15625,0-.43558.022-.84375,1-.84375,1 .0174.46446.0937.75.0937.75l14.15625.25 .6875,4.3125 1.4375-.375c0,0 3.09772-7.03701 1.90625-9.0625-.37451-.63666-.76336-1.03435-1.1875-1.3125z" fill="#808080"/>
  <path d="m316.43 482.79c0 1.466-1.1884 2.6544-2.6544 2.6544s-2.6544-1.1884-2.6544-2.6544 1.1884-2.6544 2.6544-2.6544 2.6544 1.1884 2.6544 2.6544z" fill="#333"/>
  <path d="m302.46 476.08s-1.6765 1.2573-1.6765 2.5147 2.3218 2.9041 3.9117 3.772c2.3101 1.261 6.5479 1.4836 7.6838 1.8162 3.1122 0.91103 4.6971-2.2606 2.7242-3.4228-0.64823-0.38185-5.2389-1.3272-6.0772-1.6066s-6.5661-3.0735-6.5661-3.0735z" fill="#784421"/>
  <path transform="translate(26.264 -3.772)" d="m316.43 482.79c0 1.466-1.1884 2.6544-2.6544 2.6544s-2.6544-1.1884-2.6544-2.6544 1.1884-2.6544 2.6544-2.6544 2.6544 1.1884 2.6544 2.6544z" fill="#333"/>
  <path d="m346.05 471.19s-5.4485 4.3308-6.147 5.0294-3.0735 3.4926-1.1176 4.4705 3.772-0.55882 4.6102-0.97793 7.9632-5.718 7.9632-6.7058c0-1.9559-3.3529-4.1911-5.3088-1.8162z" fill="#784421"/>
  <path transform="translate(40.933 -.69852)" d="m316.43 482.79c0 1.466-1.1884 2.6544-2.6544 2.6544s-2.6544-1.1884-2.6544-2.6544 1.1884-2.6544 2.6544-2.6544 2.6544 1.1884 2.6544 2.6544z" fill="#333"/>
  <path d="m352.61 471.75s-0.69852 9.919 0.69852 11.176 2.375 1.6765 3.2132 0.41912 0.31513-9.8476-0.13971-10.757c-0.69852-1.397-3.772-0.83822-3.772-0.83822z" fill="#784421"/>
  <path transform="matrix(1.1842 0 0 1.1316 -80.643 -59.543)" d="m316.43 482.79c0 1.466-1.1884 2.6544-2.6544 2.6544s-2.6544-1.1884-2.6544-2.6544 1.1884-2.6544 2.6544-2.6544 2.6544 1.1884 2.6544 2.6544z" fill="#333"/>
  <path d="m291.7 472.59c-2.6816 1.3884-4.062 5.3469-4.3308 8.522-0.2119 2.5024 0.1397 5.5183 2.2353 7.1948s4.1911-0.90808 3.772-2.3051-1.5112-2.9135-1.397-4.4706c0.21169-2.8874 4.1911-6.9852 3.772-7.8235s-2.8074-1.7617-4.0514-1.1176z" fill="#784421"/>
  <path transform="matrix(.94737 0 0 1.1316 -23.581 -56.609)" d="m316.43 482.79c0 1.466-1.1884 2.6544-2.6544 2.6544s-2.6544-1.1884-2.6544-2.6544 1.1884-2.6544 2.6544-2.6544 2.6544 1.1884 2.6544 2.6544z" fill="#333"/>
  <path d="m273.82 473.71c-1.5572 1.9602-3.2132 7.6837-3.3529 9.919s0.0699 7.8933 3.8419 7.4742c1.2496-0.13885 1.9559-2.3051 0.55882-3.772-0.41911-2.2353-0.0663-4.2756 0.34926-6.3566 0.49318-2.4698 3.3529-6.0073 2.5147-7.1249s-2.8585-1.4654-3.9117-0.1397z" fill="#784421"/>
  <path transform="matrix(.94737 0 0 1.1316 -33.919 -59.822)" d="m316.43 482.79c0 1.466-1.1884 2.6544-2.6544 2.6544s-2.6544-1.1884-2.6544-2.6544 1.1884-2.6544 2.6544-2.6544 2.6544 1.1884 2.6544 2.6544z" fill="#333"/>
  <path d="m264.46 471.47c-3.04-0.0723-4.1911 7.8235-4.3308 10.618s0.97794 6.147 3.2132 6.147c2.6544 0 2.8639-2.5147 1.886-3.1434-0.56098-1.3464 0.20956-8.033 1.4669-9.1506s-1.0062-4.4413-2.2353-4.4705z" fill="#784421"/>
  <path transform="matrix(.60526 0 0 1.1316 63.577 -61.359)" d="m316.43 482.79c0 1.466-1.1884 2.6544-2.6544 2.6544s-2.6544-1.1884-2.6544-2.6544 1.1884-2.6544 2.6544-2.6544 2.6544 1.1884 2.6544 2.6544z" fill="#333"/>
  <path d="m255.96 473.79s-1.9757 3.8299-1.836 4.6681c0.0647 0.3884 0.35875 2.4162 0.28081 4.3309 0.74797 0.96012 0.97653 3.4227-0.21096 4.4705-1.0915 0.96308-2.8639-1.8162-3.283-3.772s-1.2573-12.294 0.1397-12.853 4.9095 3.1553 4.9095 3.1553z" fill="#784421"/>
  <path d="m413 409.03c-2.6626 1.4133-5.1248 4.6809-8.5312 6.6875-2.7568 1.6239-5.5389 0.17325-7.2812 2.25 0.085 1.5086 0.3677 3.3163 1.375 3.7812 1.3592 0.62734 10.022-7.8335 14.281-12.125 1e-3 -6e-3 0.0299-0.0252 0.0312-0.0312l0.125-0.5625z" fill="#ccc"/>
  <path d="m443.25 382.66s-3.1088 3.7489-5.1562 4.9688c-2.6728 1.5924-7.0462 1.3232-10 2.125-0.49803 0.84443-1.091 2.4421 0.8125 3.3438 2.6544 1.2573 8.9338-2.228 10.75-3.625 0.95918-0.73783 2.4185-3.8185 3.625-6.5938-7e-3 -0.0315-0.0312-0.21875-0.0312-0.21875z" fill="#ccc"/>
 </g>
</svg>
