<?xml version="1.0" encoding="UTF-8"?>
<svg version="1.0" width="448.85" height="319.53" viewBox="0 0 448.85 319.53" xmlns="http://www.w3.org/2000/svg" xmlns:xlink="http://www.w3.org/1999/xlink">
 <defs>
  <linearGradient id="a">
   <stop stop-color="#6f6f6f" offset="0"/>
   <stop stop-color="#fbf0f0" offset="1"/>
  </linearGradient>
  <linearGradient id="o">
   <stop stop-color="#c1e826" offset="0"/>
   <stop stop-color="#446b28" offset="1"/>
  </linearGradient>
  <filter id="u" x="-.50271" y="-.080145" width="2.0054" height="1.1603" color-interpolation-filters="sRGB">
   <feGaussianBlur stdDeviation="7.3378745"/>
  </filter>
  <filter id="v" x="-.31585" y="-.051445" width="1.6317" height="1.1029" color-interpolation-filters="sRGB">
   <feGaussianBlur stdDeviation="4.9804994"/>
  </filter>
  <filter id="n" color-interpolation-filters="sRGB">
   <feGaussianBlur stdDeviation="3.4115496"/>
  </filter>
  <linearGradient id="p" x1="520.1" x2="507" y1="542.8" y2="490.27" gradientUnits="userSpaceOnUse">
   <stop stop-color="#625c1f" offset="0"/>
   <stop stop-color="#d6f222" offset="1"/>
  </linearGradient>
  <radialGradient id="x" cx="407.58" cy="432.12" r="61.776" gradientTransform="matrix(1.2137 .14612 -.39692 3.2969 97.821 -1062.5)" gradientUnits="userSpaceOnUse" xlink:href="#o"/>
  <radialGradient id="y" cx="321.61" cy="404.51" r="75.228" gradientTransform="matrix(1 0 0 1.9329 0 -377.37)" gradientUnits="userSpaceOnUse" xlink:href="#o"/>
  <linearGradient id="q" x1="330.5" x2="328.19" y1="318.29" y2="293.99" gradientUnits="userSpaceOnUse" xlink:href="#a"/>
  <linearGradient id="r" x1="330.5" x2="328.19" y1="318.29" y2="293.99" gradientTransform="matrix(.73204 0 0 .76828 116.16 139.01)" gradientUnits="userSpaceOnUse" xlink:href="#a"/>
  <linearGradient id="s" x1="330.5" x2="328.19" y1="318.29" y2="293.99" gradientTransform="matrix(.4647 0 0 .50959 216.1 291.73)" gradientUnits="userSpaceOnUse" xlink:href="#a"/>
  <filter id="w" x="-.28752" y="-.060188" width="1.575" height="1.1204" color-interpolation-filters="sRGB">
   <feGaussianBlur stdDeviation="4.4819801"/>
  </filter>
 </defs>
 <g transform="translate(-171.1 -247.1)">
  <path d="m377 548.09c-11.594-39.994-4.5555-141.44 8.9661-161.13 5.031-9.9842 5.028-22.116 3.9676-32.501-0.53935-5.8118-4.3749-11.467-0.44916-16.134 5.1266-3.982 13.127-0.51911 15.247 5.2 12.944 19.007 17.652 43.821 10.799 65.965-3.1043 12.66-4.9881 26.416-0.0833 38.892 2.9132 8.8072 13.048 82.135 16.552 90.708" fill="#890f34" fill-rule="evenodd" stroke="#000" stroke-width="4"/>
  <path d="m396.45 549.43c1.0081-4.5921-1.8446-16.317-5.1079-23.993-3.2851-7.7269-12.205-22.356-18.637-30.536-1.4019 6.629-3.473 8.4018-4.8198 15.839-2.7147-15.065-31.712-43.573-44.712-52.734-2.1042 7.9457-1.6901 11.38-2.1261 16.822-9.7068-15.741-31.149-28.134-50.825-36.092 2.003 5.1812 1.8788 9.2716 5.3981 14.48-20.224-15.046-50.483-23.361-75.702-29.157-1.6191 15.202 19.489 31.842 31.412 41.819-7.8668-0.23924-12.67 1.2098-20.585 2.8889 10.228 15.206 62.169 28.381 61.508 29.699-10.375 0.78037-16.267 1.2353-24.972 7.0042 25.109 11.614 56.574 20.342 83.784 23.563 2.49 0.61413-18.541 3.6999-16.301 4.864 25.426 9.8942 53.619 16.452 81.685 15.533z" fill="#217844" fill-rule="evenodd" stroke="#000" stroke-width="2"/>
  <g transform="matrix(-.99923 .039245 .039245 .99923 716.4 -23.811)" fill-rule="evenodd">
   <path d="m421.41 519.9c12.071-32.855 46.769-53.896 81.141-53.908 20.067-2.2766 41.054-20.11 37.585-41.799-1.6834-9.0276-17.136-21.238-2.6227-26.84 14.587-0.39623 20.759 18.755 21.607 30.86 0.49734 18.122-7.8604 36.275-23.283 46.248-24.677 18.192-59.976 19.887-79.383 45.464-2.682 3.92-4.5132 8.5563-4.4965 13.357" fill="#3e6b20" stroke="#000" stroke-width="1px"/>
   <path d="m538.53 403.12c-1.2181 0.60791-1.5275 0.98632-1.5312 1-5e-3 0.0176-0.0112 1.0543 0.875 2.9688 1.7724 3.8288 6.4837 8.9363 7.8125 16.062a5.6523 5.6523 0 0 1 0.0312 0.125c2.0534 12.836-3.2244 24.627-11.5 33.062-8.2756 8.4357-19.573 13.981-31.031 15.281a5.6523 5.6523 0 0 1 -0.625 0.0312c-30.288 0.0102-61.076 17.784-73.781 45.281l18.875 8.25c0.97561-3.0558 2.3945-5.9082 4.125-8.4375a5.6523 5.6523 0 0 1 0.15625 -0.21875c10.665-14.056 25.473-21.314 40.062-27.312 14.589-5.9982 29.131-10.931 40.5-19.312a5.6523 5.6523 0 0 1 0.28125 -0.1875c13.561-8.7696 21.113-25.019 20.688-41.281-1e-3 -0.0181 1e-3 -0.0443 0-0.0625-0.40236-5.2826-2.0789-12.389-4.9375-17.531-2.7071-4.8702-5.7137-7.4851-10-7.7188z" fill="#87ef45" filter="url(#n)"/>
  </g>
  <path d="m395.52 553.18c-0.92922-4.6087 2.124-16.283 5.5184-23.902 3.417-7.6695 12.586-22.143 19.158-30.212 1.2881 6.6521 3.3284 8.4601 4.5476 15.919 2.9725-15.016 32.455-43.023 45.61-51.96 1.9677 7.9806 1.4948 11.407 1.8374 16.856 9.9752-15.572 31.626-27.596 51.436-35.215-2.0915 5.1461-2.0374 9.238-5.6455 14.386 20.478-14.697 50.876-22.492 76.19-27.855 1.3583 15.227-20.032 31.503-32.124 41.274 7.8698-0.10435 12.648 1.4268 20.533 3.2413-10.487 15.029-62.646 27.311-62.008 28.64 10.36 0.95809 16.244 1.5139 24.849 7.4312-25.304 11.182-56.915 19.369-84.175 22.124-2.5002 0.57135 18.475 4.0172 16.215 5.1427-25.592 9.4569-53.893 15.53-81.94 14.13z" fill="#217844" fill-rule="evenodd" stroke="#000" stroke-width="2"/>
  <path transform="matrix(1 0 0 1.0336 -184 85.659)" d="m584.66 248.47c0.78787 10.453 0.50294 22.678-5.3125 34.219a10.484 10.484 0 0 1 -0.71875 1.2188c-1.2442 1.8122-4.8202 11.488-7.0938 23.812-2.2736 12.325-4.0206 27.782-5 43.844-1.6639 27.287-0.78191 56.774 2.5625 75.594l34.031-5.5625c-0.34818-1.9714-0.64643-3.7192-1.0938-6.1875-1.5143-8.3557-3.2037-18.64-4.875-28.906s-3.3186-20.498-4.7188-28.656c-1.4001-8.1586-3.0018-15.382-2.9375-15.188-5.9212-15.589-3.4043-31.41-0.15625-44.656a10.484 10.484 0 0 1 0.1875 -0.59375c4.8996-15.834 2.6774-33.796-4.875-48.938z" fill="#e563a8" fill-rule="evenodd" filter="url(#w)" xlink:href="#path4046"/>
  <g transform="matrix(-1 0 0 1 786.38 23)" fill-rule="evenodd" stroke="#000">
   <path d="m308 287.09c62-4 68 13 63 19s-36 5-51 16" fill="url(#q)" stroke-width="3"/>
   <path d="m341.62 359.58c45.387-3.0731 49.779 9.9876 46.119 14.597-3.6602 4.6097-26.354 3.8414-37.334 12.292" fill="url(#r)" stroke-width="2.2498"/>
   <path d="m359.23 438.03c28.812-2.0384 31.6 6.6247 29.276 9.6822-2.3235 3.0575-16.729 2.548-23.7 8.1534" fill="url(#s)" stroke-width="1.4599"/>
  </g>
  <g transform="matrix(.94308 .33258 -.33258 .94308 198.92 -102.33)">
   <path d="m434.26 263.58c3.0956 46.456 38.691 67.601 58.441 100.95 25.217 40.861 31.082 118.23-0.86393 152.1-31.52 28.574-59.253 37.11-96.642 26.36" fill="url(#x)" fill-rule="evenodd" stroke="#000" stroke-width="5"/>
   <path id="t" d="m396.43 546.24c0.18126-63.665-10.55-125.88-5.5897-189.52 0.86249-30.068-2.3507-61.502 0.36646-91.522 0.29463-13.424 8.3195-31.027 24.443-27.921 14.026 1.2531 18.387 15.625 22.348 26.778 10.617 31.578 0.2624 64.784-6.362 96.344-12.785 60.912-22.639 114.78-33.659 174.56-1.0875 3.6467-1.809 7.4601-1.547 11.281z" fill="#cac724" fill-rule="evenodd" stroke="#000" stroke-width="2"/>
   <path d="m410.88 244.53c-3.3341 0.39767-5.9584 2.48-8.2812 6.5-2.3229 4.02-3.711 9.6864-3.8125 14.312a7.5533 7.5533 0 0 1 -0.04 0.54c-2.6264 29.018 0.53844 60.308-0.34375 91.062a7.5533 7.5533 0 0 1 -0.0312 0.375c-3.0962 39.724 0.0343 79.352 2.7188 119.5 7.206-38.611 14.5-76.878 23.125-117.97 6.7214-32.023 16.221-63.628 6.6562-92.25-0.0138-0.0412-0.0174-0.0839-0.0312-0.125-2.0163-5.6792-4.016-11.481-6.5625-15.406-2.5648-3.9535-4.7797-5.845-9.3125-6.25a7.5533 7.5533 0 0 1 -0.75 -0.125c-1.316-0.25351-2.4186-0.26659-3.3438-0.15625z" fill="#ffffc7" fill-rule="evenodd" filter="url(#u)" xlink:href="#t"/>
   <path transform="translate(25.723 26.091)" d="m473.76 418.83c0 8.3684-3.1658 15.152-7.0711 15.152-3.9052 0-7.0711-6.7839-7.0711-15.152 0-8.3684 3.1658-15.152 7.0711-15.152 3.9052 0 7.0711 6.7839 7.0711 15.152z" fill="#e5ff80" fill-rule="evenodd"/>
   <path transform="matrix(.48496 -.26875 .14359 .56228 207.55 277.78)" d="m473.76 418.83c0 8.3684-3.1658 15.152-7.0711 15.152-3.9052 0-7.0711-6.7839-7.0711-15.152 0-8.3684 3.1658-15.152 7.0711-15.152 3.9052 0 7.0711 6.7839 7.0711 15.152z" fill="#e5ff80" fill-rule="evenodd"/>
   <path transform="matrix(.52547 -.17691 .03986 .57895 212.08 248.66)" d="m473.76 418.83c0 8.3684-3.1658 15.152-7.0711 15.152-3.9052 0-7.0711-6.7839-7.0711-15.152 0-8.3684 3.1658-15.152 7.0711-15.152 3.9052 0 7.0711 6.7839 7.0711 15.152z" fill="#e5ff80" fill-rule="evenodd"/>
   <g fill="none" stroke="#988330" stroke-width="3">
    <path d="m390.93 296.6c1.0102-15.152 11.112-22.223 17.173-23.234"/>
    <path d="m390.93 327.91c1.0102-12.122 11.112-13.132 11.112-13.132"/>
    <path d="m390.93 369.33c1.0102-12.122 8.0812-10.102 8.0812-10.102"/>
   </g>
  </g>
  <g fill-rule="evenodd" stroke="#000">
   <path d="m308 287.09c62-4 68 13 63 19s-36 5-51 16" fill="url(#q)" stroke-width="3"/>
   <path d="m341.62 359.58c45.387-3.0731 49.779 9.9876 46.119 14.597-3.6602 4.6097-26.354 3.8414-37.334 12.292" fill="url(#r)" stroke-width="2.2498"/>
   <path d="m359.23 438.03c28.812-2.0384 31.6 6.6247 29.276 9.6822-2.3235 3.0575-16.729 2.548-23.7 8.1534" fill="url(#s)" stroke-width="1.4599"/>
  </g>
  <g transform="matrix(.95744 -.28862 .28862 .95744 -139.25 138.42)">
   <path d="m342 261.6c-3.7981 46.442-43.066 69.6-67.298 102.93-30.94 40.848-38.136 118.19 1.06 152.05 38.674 28.565 72.7 37.099 118.57 26.352" fill="url(#y)" fill-rule="evenodd" stroke="#000" stroke-width="5"/>
   <path d="m395.71 544.81c-13.8-59.41-30.68-118.09-42.6-177.93-8.6149-36.665-20.362-74.632-12.812-112.53 3.337-12.981 19.446-24.001 31.785-15.382 13.937 11.585 15.379 31.34 16.776 48.202 1.0499 27.23 6.3507 54.094 6.5207 81.385 0.51826 33.336 1.4421 66.661 2.2931 99.988 0.0149 20.894 0.3693 41.79 1.0805 62.657-0.21016 4.662-1.0388 9.3602-3.0363 13.609z" fill="#cac724" fill-rule="evenodd" stroke="#000" stroke-width="2"/>
   <path transform="matrix(-1 0 0 1 784.02 0)" d="m411.09 246.41c-2.6278 0.31343-4.7488 1.8828-6.875 5.5625s-3.4678 9.1219-3.5625 13.438a9.434 9.434 0 0 1 -0.0312 0.625c-2.6038 28.768 0.54335 60.043-0.34375 90.969a9.434 9.434 0 0 1 -0.0312 0.4375c-2.6982 34.618-0.61739 69.251 1.75 104.28 6.335-33.646 12.865-67.322 20.406-103.25 6.7576-32.195 16.045-63.48 6.6562-91.406-2.0234-5.6982-4.025-11.346-6.375-14.969-2.3725-3.657-3.9598-5.0565-7.875-5.4062a9.434 9.434 0 0 1 -0.9375 -0.15625c-1.1418-0.21996-2.0648-0.21045-2.7812-0.125z" fill="#ffffc8" fill-rule="evenodd" filter="url(#v)" xlink:href="#t"/>
   <path transform="matrix(-1.5085 .37989 .24421 .96972 900.91 -99.949)" d="m473.76 418.83c0 8.3684-3.1658 15.152-7.0711 15.152-3.9052 0-7.0711-6.7839-7.0711-15.152 0-8.3684 3.1658-15.152 7.0711-15.152 3.9052 0 7.0711 6.7839 7.0711 15.152z" fill="#e5ff80" fill-rule="evenodd"/>
   <path transform="matrix(-.95714 -.01778 -.10495 .99218 756.27 14.092)" d="m473.76 418.83c0 8.3684-3.1658 15.152-7.0711 15.152-3.9052 0-7.0711-6.7839-7.0711-15.152 0-8.3684 3.1658-15.152 7.0711-15.152 3.9052 0 7.0711 6.7839 7.0711 15.152z" fill="#e5ff80" fill-rule="evenodd"/>
   <path transform="matrix(.53473 .14655 -.29011 .5026 176.68 67.537)" d="m473.76 418.83c0 8.3684-3.1658 15.152-7.0711 15.152-3.9052 0-7.0711-6.7839-7.0711-15.152 0-8.3684 3.1658-15.152 7.0711-15.152 3.9052 0 7.0711 6.7839 7.0711 15.152z" fill="#e5ff80" fill-rule="evenodd"/>
   <path transform="matrix(.5543 .012638 -.15971 .55791 116.5 151.15)" d="m473.76 418.83c0 8.3684-3.1658 15.152-7.0711 15.152-3.9052 0-7.0711-6.7839-7.0711-15.152 0-8.3684 3.1658-15.152 7.0711-15.152 3.9052 0 7.0711 6.7839 7.0711 15.152z" fill="#e5ff80" fill-rule="evenodd"/>
   <path transform="matrix(-.95687 .023949 -.056666 .83113 797.35 80.998)" d="m473.76 418.83c0 8.3684-3.1658 15.152-7.0711 15.152-3.9052 0-7.0711-6.7839-7.0711-15.152 0-8.3684 3.1658-15.152 7.0711-15.152 3.9052 0 7.0711 6.7839 7.0711 15.152z" fill="#e5ff80" fill-rule="evenodd"/>
   <path d="m390.1 295.84c-1.0102-19.592-11.112-28.736-17.173-30.042" fill="none" stroke="#988330" stroke-width="2"/>
   <path d="m392.1 336.34c-1.0102-15.674-11.112-16.98-11.112-16.98" fill="none" stroke="#988330" stroke-width="2"/>
   <path d="m396.1 389.89c-1.0102-15.674-8.0812-13.062-8.0812-13.062" fill="none" stroke="#988330" stroke-width="2"/>
  </g>
  <g transform="matrix(-.99683 .079594 .079594 .99683 751.36 -26.826)">
   <path d="m395.33 548.22c0.28723-4.6927 6.24-15.189 11.479-21.679 5.2744-6.5328 17.857-18.162 26.283-24.27-0.46592 6.7596 1.0409 9.0315 0.30089 16.553 6.7342-13.747 42.427-33.23 57.438-38.483-0.15083 8.2182-1.4891 11.408-2.5592 16.762 13.644-12.483 37.66-18.535 58.762-20.803-3.3446 4.4352-4.3446 8.4034-9.1551 12.45 23.569-8.9363 54.949-8.6519 80.791-7.3249-2.6033 15.065-27.459 25.293-41.658 31.625 7.632 1.923 11.856 4.6314 19.008 8.4125-13.999 11.826-67.563 10.282-67.288 11.731 9.7654 3.5901 15.308 5.6402 22.102 13.571-27.329 4.2983-59.982 4.0817-87.034-0.26724-2.563-0.0908 16.82 8.6331 14.347 9.1396-27.163 2.5575-56.074 1.1488-82.818-7.4168z" fill="url(#p)" fill-rule="evenodd" stroke="#000" stroke-width="3"/>
   <path d="m398 545.09c100.97-42.05 201.61-49.15 220.24-63.65" fill="none" stroke="#1c6c1d" stroke-width="3"/>
   <path d="m454.57 523.88c6.06-17.17 22.22-26.26 22.22-26.26" fill="none" stroke="#287228" stroke-width="2"/>
   <path d="m509.1 508.71c6.0609-10.607 20.203-19.193 20.203-19.193" fill="none" stroke="#287228" stroke-width="2"/>
   <path d="m452.55 523.88c21.213 13.132 52.528 11.112 52.528 11.112" fill="none" stroke="#287228" stroke-width="2"/>
   <path d="m507.1 508.73c24.244 7.0711 44.447 4.0406 44.447 4.0406" fill="none" stroke="#287228" stroke-width="2"/>
   <path d="m427.29 521.36s-9.5964 6.0609-11.112 15.657c22.728 11.617 36.366 8.0812 36.366 8.0812" fill="none" stroke="#287228" stroke-width="2"/>
  </g>
  <g transform="translate(16,-4)" fill-rule="evenodd">
   <path d="m421.41 519.9c12.071-32.855 46.769-53.896 81.141-53.908 20.067-2.2766 41.054-20.11 37.585-41.799-1.6834-9.0276-17.136-21.238-2.6227-26.84 14.587-0.39623 20.759 18.755 21.607 30.86 0.49734 18.122-7.8604 36.275-23.283 46.248-24.677 18.192-59.976 19.887-79.383 45.464-2.682 3.92-4.5132 8.5563-4.4965 13.357" fill="#3e6b20" stroke="#000" stroke-width="1px"/>
   <path d="m538.53 403.12c-1.2181 0.60791-1.5275 0.98632-1.5312 1-5e-3 0.0176-0.0112 1.0543 0.875 2.9688 1.7724 3.8288 6.4837 8.9363 7.8125 16.062a5.6523 5.6523 0 0 1 0.0312 0.125c2.0534 12.836-3.2244 24.627-11.5 33.062-8.2756 8.4357-19.573 13.981-31.031 15.281a5.6523 5.6523 0 0 1 -0.625 0.0312c-30.288 0.0102-61.076 17.784-73.781 45.281l18.875 8.25c0.97561-3.0558 2.3945-5.9082 4.125-8.4375a5.6523 5.6523 0 0 1 0.15625 -0.21875c10.665-14.056 25.473-21.314 40.062-27.312 14.589-5.9982 29.131-10.931 40.5-19.312a5.6523 5.6523 0 0 1 0.28125 -0.1875c13.561-8.7696 21.113-25.019 20.688-41.281-1e-3 -0.0181 1e-3 -0.0443 0-0.0625-0.40236-5.2826-2.0789-12.389-4.9375-17.531-2.7071-4.8702-5.7137-7.4851-10-7.7188z" fill="#87ef45" filter="url(#n)"/>
  </g>
  <g transform="matrix(.99708 .076309 -.076309 .99708 37.948 -25.927)">
   <path d="m395.33 548.22c0.28723-4.6927 6.24-15.189 11.479-21.679 5.2744-6.5328 17.857-18.162 26.283-24.27-0.46592 6.7596 1.0409 9.0315 0.30089 16.553 6.7342-13.747 42.427-33.23 57.438-38.483-0.15083 8.2182-1.4891 11.408-2.5592 16.762 13.644-12.483 37.66-18.535 58.762-20.803-3.3446 4.4352-4.3446 8.4034-9.1551 12.45 23.569-8.9363 54.949-8.6519 80.791-7.3249-2.6033 15.065-27.459 25.293-41.658 31.625 7.632 1.923 11.856 4.6314 19.008 8.4125-13.999 11.826-67.563 10.282-67.288 11.731 9.7654 3.5901 15.308 5.6402 22.102 13.571-27.329 4.2983-59.982 4.0817-87.034-0.26724-2.563-0.0908 16.82 8.6331 14.347 9.1396-27.163 2.5575-56.074 1.1488-82.818-7.4168z" fill="url(#p)" fill-rule="evenodd" stroke="#000" stroke-width="3"/>
   <path d="m398 545.09c100.97-42.05 201.61-49.15 220.24-63.65" fill="none" stroke="#1c6c1d" stroke-width="3"/>
   <path d="m454.57 523.88c6.06-17.17 22.22-26.26 22.22-26.26" fill="none" stroke="#287228" stroke-width="2"/>
   <path d="m509.1 508.71c6.0609-10.607 20.203-19.193 20.203-19.193" fill="none" stroke="#287228" stroke-width="2"/>
   <path d="m452.55 523.88c21.213 13.132 52.528 11.112 52.528 11.112" fill="none" stroke="#287228" stroke-width="2"/>
   <path d="m507.1 508.73c24.244 7.0711 44.447 4.0406 44.447 4.0406" fill="none" stroke="#287228" stroke-width="2"/>
   <path d="m427.29 521.36s-9.5964 6.0609-11.112 15.657c22.728 11.617 36.366 8.0812 36.366 8.0812" fill="none" stroke="#287228" stroke-width="2"/>
  </g>
 </g>
</svg>
