<svg xmlns="http://www.w3.org/2000/svg" xmlns:xlink="http://www.w3.org/1999/xlink" width="83" height="62.8" enable-background="new 0 0 83 62.8" version="1.1" viewBox="0 0 83 62.8" xml:space="preserve">
<symbol id="x" viewBox="0 -22.35 14.95 22.35">
		<path d="m11.35 0c-0.367-1.233-0.55-2.317-0.55-3.25s0.067-1.55 0.2-1.85c0.233-0.2 0.667 0.1 1.3 0.9 0.633 0.767 1.067 1.567 1.3 2.4-0.133-0.867-0.4-1.733-0.8-2.6-0.433-0.9-1-1.434-1.7-1.6l0.15-3c0-0.5 0.033-0.983 0.1-1.45 0.767 0.133 1.483 0.7 2.15 1.7 0.633 0.967 1.117 1.95 1.45 2.95-0.567-2.2-1.15-3.75-1.75-4.65-0.6-0.867-1.217-1.25-1.85-1.15l-1.2-4.15c-0.167-0.333 0.3-0.067 1.4 0.8 0.945 0.773 1.695 1.531 2.25 2.275-1.437-2.042-2.47-3.284-3.1-3.725-0.633-0.434-1.067-0.65-1.3-0.65-0.8-1.2-2.1-2.284-3.9-3.25-1.8-0.967-3.633-1.65-5.5-2.05 2.533 0.7 4.583 1.817 6.15 3.35l2.35 2.25c-1.567 0.1-2.867 0.567-3.9 1.4-0.633 0.533-1.15 1.167-1.55 1.9l-0.45 0.95 0.75-0.9c0.633-0.633 1.233-1.067 1.8-1.3 0.934-0.433 2.184-0.75 3.75-0.95 0.333 0.467 0.667 1.217 1 2.25l0.45 1.85c-1.967 0.333-3.4 0.917-4.3 1.75-0.533 0.533-1.033 1.117-1.5 1.75l-0.5 0.85c1.133-1.433 2.383-2.35 3.75-2.75 1.4-0.4 2.284-0.566 2.65-0.5 0.033 1.4 0.033 2.467 0 3.2l-0.1 1.1c-1.267 0-2.283 0.25-3.05 0.75-0.466 0.3-0.883 0.633-1.25 1l-0.4 0.4 1-0.5c0.733-0.333 1.367-0.533 1.9-0.6 0.833-0.133 1.383-0.183 1.65-0.15-0.167 0.6-0.167 1.45 0 2.55 0.2 1.1 0.583 2 1.15 2.7z" clip-rule="evenodd" fill-rule="evenodd"/>
</symbol>
		
		<path d="m44.358 40.41c0.602 0.174 1.231 0.058 1.891-0.35 0.349-0.213 0.63-0.445 0.844-0.698-0.039 0.427-0.194 0.883-0.466 1.367-0.523 0.97-1.318 1.639-2.385 2.007-0.931 0.31-2.161 0.427-3.693 0.349-1.57-0.097-2.016-0.223-1.337-0.378 0.116-0.02 0.843-0.465 2.181-1.338 1.395-0.814 2.384-1.134 2.965-0.959z" clip-rule="evenodd" fill="#446120" fill-rule="evenodd"/>
			<radialGradient id="m" cx="25.3" cy="11.05" r="9.225" gradientTransform="matrix(.5816 0 0 -.5667 20.25 43.588)" gradientUnits="userSpaceOnUse">
			<stop stop-color="#A9E858" offset="0"/>
			<stop stop-color="#77A63A" offset="1"/>
		</radialGradient>
		
			<radialGradient id="n" cx="24.2" cy="10.55" r="10.3" gradientTransform="matrix(.5816 0 0 -.5668 20.25 43.016)" gradientUnits="userSpaceOnUse">
			<stop stop-color="#A9E858" offset=".3255"/>
			<stop stop-color="#77A63A" offset="1"/>
		</radialGradient>
			<radialGradient id="o" cx="58.45" cy="20.05" r="12.338" gradientTransform="matrix(.5816 0 0 -.5816 15.95 54.223)" gradientUnits="userSpaceOnUse">
			<stop stop-color="#A9E858" offset="0"/>
			<stop stop-color="#77A63A" offset="1"/>
		</radialGradient>
		
			<radialGradient id="p" cx="57" cy="19.35" r="13.775" gradientTransform="matrix(.5816 0 0 -.5811 15.95 53.399)" gradientUnits="userSpaceOnUse">
			<stop stop-color="#A9E858" offset=".3255"/>
			<stop stop-color="#77A63A" offset="1"/>
		</radialGradient>
			<radialGradient id="q" cx="12.55" cy="25.4" r="15.388" gradientTransform="matrix(.5816 0 0 -.5812 15.95 60.435)" gradientUnits="userSpaceOnUse">
			<stop stop-color="#A9E858" offset="0"/>
			<stop stop-color="#77A63A" offset="1"/>
		</radialGradient>
		
			<radialGradient id="r" cx="10.5" cy="27.45" r="16.25" gradientTransform="matrix(.5816 0 0 -.5812 15.95 62.82)" gradientUnits="userSpaceOnUse">
			<stop stop-color="#A9E858" offset=".3255"/>
			<stop stop-color="#77A63A" offset="1"/>
		</radialGradient>
	
	<path d="m40.524 58.673c1.008 0.116 1.881 0.427 2.617 0.931 5.604 0.757 8.26 1.318 7.969 1.687-0.35 0.446-0.901 0.785-1.658 1.019-1.318 0.388-3.363 0.523-6.136 0.407-1.26-0.02-2.559-0.301-3.897-0.844-2.269-0.931-4.188-2.414-5.758-4.45l-0.407-0.552 1.628 0.931c1.241 0.62 2.229 0.911 2.966 0.872 1.319-0.039 2.211-0.039 2.676-1e-3z" clip-rule="evenodd" fill="#6E9C33" fill-rule="evenodd"/>
		<path d="m60.591 50.966c0.407-0.407 0.766-0.727 1.075-0.959-0.038 0.039-0.087 0.106-0.145 0.203-0.116 0.194-0.185 0.427-0.204 0.698-0.019 0.232 0.029 0.824 0.146 1.774 0.039 1.008-0.087 1.88-0.378 2.617-0.388 0.988-1.027 1.899-1.919 2.733-1.009 0.911-2.065 1.454-3.171 1.629 1.048-2.599 1.939-4.634 2.676-6.107 0.466-0.91 1.105-1.773 1.92-2.588z" clip-rule="evenodd" fill="#3C571C" fill-rule="evenodd"/>
		<path d="m33.021 54.049l1.076 2.53c1.008 1.9 2.297 3.402 3.868 4.508 0.95 0.679 2.297 1.163 4.042 1.454 0.893 0.155 1.678 0.232 2.356 0.232-0.854 0.078-1.852 0.02-2.995-0.175-2.289-0.388-4.188-1.23-5.701-2.529-1.628-1.396-2.559-2.821-2.792-4.275l0.146-1.745z" clip-rule="evenodd" fill="#83B83C" fill-rule="evenodd"/>
		<path d="m52.215 41.05l0.669 0.436c0.078 0 0.291-0.067 0.64-0.203 0.35-0.116 0.602-0.077 0.757 0.116 0.271 0.311 0.455 0.649 0.552 1.018l0.175 0.379c0.175 0.213 0.378 0.242 0.611 0.087 0.349-0.271 0.707-0.582 1.075-0.931l-0.581 1.541c-0.368 1.086-0.533 1.755-0.494 2.007 0.038 0.329-0.737 0.543-2.327 0.64-1.609 0.116-2.568-0.02-2.879-0.407-0.252-0.31-0.504-0.833-0.756-1.57l-0.32-0.988c0.484-0.155 0.931-0.515 1.338-1.076 0.232-0.311 0.484-0.698 0.756-1.164 0.154-0.196 0.416-0.157 0.784 0.115z" clip-rule="evenodd" fill="#6B9630" fill-rule="evenodd"/>
		<path d="m38.256 47.68c0.388 0.485 0.805 2.841 1.25 7.067 0.213 2.094 0.388 4.149 0.524 6.165-0.388-0.058-0.854-0.291-1.396-0.697-1.047-0.814-1.919-2.104-2.617-3.868-0.892-2.288-1.406-4.44-1.542-6.456-0.136-1.939 0.116-2.89 0.756-2.851 0.562 0.039 0.824 0.146 0.785 0.32l0.61-0.494c0.505-0.194 1.048 0.077 1.63 0.814z" clip-rule="evenodd" fill="#5C822A" fill-rule="evenodd"/>
		<path d="m40.786 53.642c-2.424-3.005-3.122-5.816-2.094-8.434l1.105-1.774c1.163-1.26 2.801-2.025 4.915-2.297 2.579-0.349 4.828-0.136 6.747 0.64 1.958 0.814 3.296 2.133 4.014 3.955 0.834 2.152 0.64 4.634-0.582 7.445-1.357 3.103-3.383 4.701-6.078 4.798-2.947 0.097-5.624-1.347-8.027-4.333z" clip-rule="evenodd" fill="#89BF3F" fill-rule="evenodd"/>
		<path d="m40.35 42.939l1.28 0.873c1.065 0.601 2.19 0.959 3.373 1.075 1.861 0.194 3.044 0.417 3.548 0.67v1.832c0.038 1.318 0.174 2.229 0.407 2.733 0.349 0.775 0.911 1.338 1.687 1.687l0.029 1.513c-0.059 1.046-0.301 1.716-0.727 2.006-0.427 0.291-2.521-0.503-6.282-2.384l-5.496-2.908c0.271-1.066 0.552-2.143 0.843-3.229 0.582-2.19 0.912-3.345 0.989-3.461 0.135-0.232 0.252-0.367 0.349-0.407z" clip-rule="evenodd" fill="#689131" fill-rule="evenodd"/>
		<path d="m52.128 42.62c-0.718 0-1.153 0.106-1.309 0.319-0.155 0.214-0.252 0.417-0.291 0.611-0.02 0.097-0.028 0.174-0.028 0.232l0.813 0.291c0.601 0.368 1.057 0.998 1.367 1.89 0.311 0.873 0.281 1.843-0.088 2.908-0.174 0.523-0.388 0.96-0.64 1.31 0.252-1.28 0.252-2.473 0-3.577-0.193-0.873-0.475-1.493-0.843-1.861-0.214-0.214-0.466-0.397-0.756-0.553l-0.379-0.175c-1.047-0.077-2.035-0.048-2.966 0.088-0.582 0.077-1.222 0.339-1.92 0.784l-0.901 0.641 0.582-0.582c0.445-0.407 0.872-0.718 1.279-0.931 0.64-0.311 1.667-0.446 3.083-0.407-0.253-0.252-0.602-0.494-1.047-0.727l-0.64-0.35c-0.389 0.02-0.824 0.068-1.309 0.146-0.97 0.194-1.707 0.504-2.211 0.931l-1.803 1.629 0.349-0.582c0.33-0.465 0.717-0.872 1.163-1.222 0.718-0.562 1.861-0.988 3.432-1.279-0.523-0.232-0.96-0.368-1.309-0.407-0.427-0.038-1.037 0.107-1.832 0.437-1.009 0.407-1.687 0.94-2.036 1.6-0.251 0.504-0.484 0.979-0.697 1.425-0.059 0.136-0.088 0.165-0.088 0.087 0-0.252 0.175-0.736 0.524-1.454 0.445-0.892 0.911-1.454 1.396-1.687 0.775-0.368 1.482-0.591 2.123-0.669-0.97-0.116-1.619-0.136-1.949-0.058l-0.465 0.116 0.96-0.262c0.736-0.175 1.318-0.223 1.745-0.146l0.378 0.059 0.407-0.117c0.329-0.077 0.61-0.116 0.843-0.116l0.814 0.029-1.716 0.378 1.454 0.728v-0.146c0.116-0.116 0.437-0.252 0.96-0.407 0.853-0.232 1.734-0.214 2.646 0.058-1.163-0.077-1.881-0.048-2.152 0.088-0.174 0.077-0.407 0.213-0.698 0.407l-0.349 0.29 0.988 0.611c0.214 0.116 0.389 0.281 0.524 0.494l0.349-0.407c0.29-0.29 0.64-0.475 1.047-0.553 0.64-0.136 1.386-0.097 2.239 0.117-0.325-0.039-0.675-0.048-1.043-0.029z" clip-rule="evenodd" fill="#A5E64C" fill-rule="evenodd"/>
			<radialGradient id="s" cx="42.05" cy="33.4" r="16.725" gradientTransform="matrix(.5816 0 0 -.5812 15.95 69.739)" gradientUnits="userSpaceOnUse">
			<stop stop-color="#A9E858" offset="0"/>
			<stop stop-color="#77A63A" offset="1"/>
		</radialGradient>
		<path d="m50.703 56.899c0.601 2.112 1.773 3.082 3.519 2.908-0.213 0.213-0.572 0.455-1.076 0.727-1.008 0.563-2.249 1.018-3.723 1.367-1.337 0.271-2.83 0.368-4.479 0.29-3.276-0.136-5.661-1.057-7.154-2.763-1.919-2.21-2.763-4.798-2.53-7.765 0.116-1.454 0.63-3.354 1.541-5.7 0.563-1.201 0.882-1.938 0.96-2.21 0.116-0.329-0.029-0.649-0.437-0.959-0.582-0.446-1.057-0.408-1.425 0.115-0.02 0.039-0.136 0.224-0.349 0.553-0.078 0.155-0.068 0.098 0.029-0.174 0.232-0.505 0.397-0.814 0.494-0.931 0.252-0.311 0.659-0.514 1.222-0.611 0.523-0.097 1.085 0.116 1.687 0.64 0.912 0.757 1.677 1.28 2.297 1.571 1.861 0.853 4.101 1.435 6.718 1.744-0.155-0.02-0.136 0.854 0.059 2.618 0.174 1.841 0.514 3.063 1.018 3.664 0.388 0.465 0.718 1.211 0.989 2.239 0.136 0.583 0.349 1.475 0.64 2.677z" clip-rule="evenodd" fill="url(#s)" fill-rule="evenodd"/>
			<radialGradient id="t" cx="39.85" cy="35.6" r="17.65" gradientTransform="matrix(.5816 0 0 -.5812 15.95 72.297)" gradientUnits="userSpaceOnUse">
			<stop stop-color="#A9E858" offset=".3255"/>
			<stop stop-color="#77A63A" offset="1"/>
		</radialGradient>
		<path d="m41.077 45.906l-0.437 0.931c-0.291 0.679-0.465 1.173-0.523 1.483-0.097 0.484-0.165 0.911-0.204 1.279l0.437-0.088c0.349-0.058 0.639-0.145 0.873-0.262 0.387-0.174 1.027-0.659 1.919-1.454-0.213 0.35-0.64 0.834-1.279 1.454-0.659 0.621-1.348 0.901-2.065 0.844l-0.291 2.82 0.493-0.085c0.427-0.078 0.824-0.204 1.193-0.379 0.582-0.271 1.037-0.543 1.366-0.813 0.039-0.621 0.098-1.105 0.175-1.454 0.039-0.214 0.116-0.446 0.232-0.698l0.175-0.291-0.058 0.931c0 0.407 0.048 0.756 0.146 1.047l0.727-0.466 0.901-0.784c-0.097 0.193-0.271 0.436-0.523 0.727-0.543 0.601-1.24 1.135-2.094 1.6-1.377 0.756-2.298 1.153-2.763 1.192l0.058 1.425c0 0.659 0.204 1.59 0.611 2.792h0.756c0.64-0.039 1.318-0.155 2.036-0.349 1.124-0.311 1.86-0.641 2.21-0.989l-0.059-1.251c0-0.232 0.049-0.563 0.146-0.988l0.116-0.553 0.175 1.251c0.097 0.581 0.3 0.959 0.611 1.134l0.261-0.262c0.175-0.175 0.805-0.688 1.891-1.541-0.194 0.368-0.484 0.785-0.873 1.25-0.756 0.95-1.608 1.678-2.559 2.182-0.95 0.523-1.978 0.862-3.082 1.018l-1.368 0.087 0.233 0.437c0.232 0.407 0.563 0.844 0.989 1.309 0.445 0.466 1.153 0.863 2.122 1.192 0.485 0.175 0.922 0.291 1.309 0.349l-1.57 0.059c-0.62 0-1.25-0.194-1.891-0.581-0.406-0.233-0.842-0.757-1.308-1.571l-0.553-1.163c-0.329-0.193-0.698-0.465-1.105-0.814-0.833-0.718-1.463-1.474-1.89-2.268-0.427-0.796-0.737-1.678-0.931-2.646l-0.146-1.222 0.349 1.482c0.136 0.563 0.378 1.027 0.727 1.396l0.087-1.135c0.058-0.367 0.068-0.688 0.029-0.959l-0.058-0.32 0.204 0.378c0.155 0.33 0.242 0.688 0.262 1.076 0.019 0.621-0.058 1.135-0.232 1.542l0.523 0.669c0.349 0.445 0.989 1.065 1.92 1.86l-0.32-0.931c-0.116-0.388-0.213-1.085-0.291-2.093l-0.059-1.396c-1.124-0.756-1.851-1.552-2.181-2.385-0.193-0.504-0.31-0.97-0.349-1.396v-0.465l0.146 0.814c0.078 0.349 0.232 0.659 0.465 0.931l0.146-0.61 0.174-1.31-0.087 2.298 0.814 0.872c0.368 0.407 0.688 0.649 0.96 0.728 0.019-0.311 0.077-0.737 0.174-1.279l0.291-1.454c-0.892-0.485-1.454-1.105-1.687-1.861-0.155-0.466-0.243-0.873-0.262-1.222v-0.378l0.087 0.697c0.117 0.543 0.339 1.019 0.669 1.426 0.504 0.659 0.93 0.959 1.279 0.901l0.349-1.513c0.058-0.271 0.291-0.717 0.698-1.338 0.196-0.313 0.39-0.594 0.584-0.846z" clip-rule="evenodd" fill="url(#t)" fill-rule="evenodd"/>
		<path d="m55.764 43.289c0.174-0.485 0.387-0.854 0.639-1.105 0.117-0.116 0.214-0.193 0.291-0.232l-0.61 1.366c-0.291 0.989-0.155 1.726 0.407 2.211 0.698 0.581 1.328 1.425 1.891 2.53 0.563 1.144 0.872 2.22 0.93 3.228 0.136 1.9 0.078 3.276-0.174 4.13-0.563 1.86-1.978 3.199-4.246 4.013-2.21 0.776-4.915 1.426-8.114 1.949l-4.129 0.523c0.892-0.155 1.852-0.602 2.879-1.338 2.074-1.435 3.47-3.548 4.188-6.34 0.601-2.269 0.892-4.217 0.872-5.846 0-1.279 0.02-1.948 0.059-2.007 0.194-0.271 0.456-0.455 0.785-0.553 0.175-0.038 0.775-0.136 1.803-0.29 0.796-0.116 1.387-0.378 1.774-0.785 0.23-0.252 0.482-0.737 0.755-1.454z" clip-rule="evenodd" fill="#90CC3F" fill-rule="evenodd"/>
		<path d="m55.995 43.492l0.698-1.541-0.465 1.366c-0.175 0.989 0.02 1.726 0.581 2.211 0.698 0.581 1.328 1.425 1.891 2.53 0.563 1.144 0.882 2.22 0.96 3.228 0.116 1.939 0.049 3.315-0.204 4.13-0.563 1.86-1.977 3.199-4.245 4.013-2.211 0.776-4.915 1.426-8.114 1.949l-4.13 0.523c0.893-0.155 1.853-0.602 2.88-1.338 2.074-1.435 3.479-3.548 4.217-6.34 0.581-2.269 0.862-4.217 0.843-5.846 0-1.279 0.02-1.948 0.059-2.007 0.193-0.271 0.455-0.455 0.785-0.553 0.174-0.038 0.775-0.136 1.803-0.29 0.814-0.116 1.387-0.35 1.716-0.698 0.231-0.212 0.474-0.658 0.725-1.337z" clip-rule="evenodd" fill="#6A9431" fill-rule="evenodd"/>
		<path d="m56.693 41.951l-0.465 1.366c-0.175 0.989 0.02 1.726 0.581 2.211 0.602 0.504 1.154 1.212 1.658 2.122 0.504 0.912 0.853 1.823 1.047 2.734-0.097 0.291-0.262 0.62-0.494 0.989-0.466 0.717-1.377 0.939-2.734 0.668-1.338-0.252-1.735-0.785-1.192-1.6 0.563-0.833 0.796-1.608 0.698-2.326-0.097-0.717-0.465-1.231-1.105-1.541-0.445-0.233-0.62-0.621-0.522-1.163 0.562-0.155 0.969-0.389 1.221-0.698 0.194-0.214 0.397-0.621 0.61-1.222l0.697-1.54z" clip-rule="evenodd" fill="#658C2D" fill-rule="evenodd"/>
		<path d="m33.777 47.215c0.388-0.484 0.63-0.708 0.727-0.669 0.097 0.059 0.174 0.407 0.232 1.047 0.194 2.889 0.495 5.342 0.902 7.357 0.368 1.92 1.551 3.655 3.548 5.206 1.008 0.775 1.968 1.357 2.879 1.745-0.581-0.155-1.27-0.466-2.065-0.931-1.57-0.911-2.869-2.095-3.896-3.549-1.202-1.687-2.036-3.645-2.501-5.874-0.466-2.151-0.407-3.596 0.174-4.332z" clip-rule="evenodd" fill="#8CC63F" fill-rule="evenodd"/>
		<path d="m59.863 51.402c0.02 1.396-0.106 2.54-0.378 3.432-0.542 1.842-1.629 3.441-3.257 4.799-1.823 1.531-3.984 2.413-6.485 2.646-2.617 0.252-4.789 0.252-6.514 0l-1.833-0.465 0.814 0.058c0.679 0.02 1.396-0.049 2.152-0.203 1.783-0.35 3.276-1.125 4.479-2.327 1.337-1.357 2.181-3.121 2.53-5.293 0.523-3.354 1.018-4.963 1.483-4.827 0.096 0.039 0.358 0.154 0.784 0.349 0.427 0.155 0.728 0.204 0.901 0.146 0.04-0.02 0.253-0.252 0.641-0.698 0.329-0.388 0.727-0.61 1.192-0.669 0.601-0.077 1.008-0.146 1.221-0.203 0.233-0.059 0.466-0.165 0.698-0.32 0.35-0.252 0.901-0.368 1.658-0.349 0.853 0.02 1.318 0.301 1.396 0.844 0.097 0.678 0.078 1.065-0.058 1.163-0.098 0.058-0.271-0.01-0.524-0.204-0.213-0.154-0.407-0.242-0.581-0.262-0.194 0-0.32 0.098-0.378 0.291-0.037 0.154-0.018 0.851 0.059 2.092z" clip-rule="evenodd" fill="#86C236" fill-rule="evenodd"/>
		<path d="m60.184 51.402c0.02 1.396-0.107 2.54-0.378 3.432-0.543 1.842-1.629 3.441-3.258 4.799-1.822 1.531-3.983 2.413-6.484 2.646-2.617 0.252-4.789 0.252-6.515 0l-1.832-0.465 0.814 0.058c0.698 0.02 1.415-0.049 2.152-0.203 1.783-0.35 3.275-1.125 4.478-2.327 1.339-1.357 2.182-3.121 2.53-5.293 0.523-3.354 1.019-4.963 1.483-4.827 0.097 0.039 0.358 0.154 0.785 0.349 0.427 0.155 0.727 0.204 0.901 0.146 0.039-0.02 0.252-0.252 0.64-0.698 0.33-0.388 0.728-0.61 1.192-0.669 0.602-0.077 1.009-0.146 1.222-0.203 0.232-0.059 0.466-0.165 0.698-0.32 0.349-0.252 0.853-0.368 1.512-0.349 0.757 0.02 1.164 0.301 1.222 0.844 0.059 0.62 0.078 0.969 0.059 1.047-0.02 0.077-0.126 0.048-0.32-0.088-0.193-0.154-0.378-0.242-0.553-0.262-0.213 0-0.349 0.098-0.407 0.291-0.038 0.154-0.019 0.851 0.059 2.092z" clip-rule="evenodd" fill="#60872C" fill-rule="evenodd"/>
		<path d="m60.125 49.309c-0.038 0.155-0.019 0.853 0.059 2.094 0.02 1.396-0.107 2.54-0.378 3.432-0.543 1.842-1.629 3.441-3.258 4.799-1.822 1.531-3.983 2.413-6.484 2.646l-0.523 0.058c2.617-0.427 4.74-1.396 6.368-2.908 1.338-1.26 2.036-2.491 2.094-3.693 0.078-1.726-0.058-3.324-0.407-4.798l-0.552-1.658 0.756-0.319c0.311-0.116 0.543-0.146 0.698-0.088 0.31 0.078 0.591 0.117 0.843 0.117 0.388 0 0.679 0.048 0.872 0.145l-0.088 0.173z" clip-rule="evenodd" fill="#537526" fill-rule="evenodd"/>
		<use transform="matrix(.5816 0 0 -.5816 51 49.1)" y="-22.35" width="14.95" height="22.35" enable-background="new" opacity=".1992" xlink:href="#x"/>
		<path d="m40.873 43.579c0.33 0.175 0.854 0.407 1.57 0.698 0.834 0.368 2.686 0.844 5.555 1.425-0.175 0.039-0.378 0.185-0.61 0.437-0.427 0.504-0.747 1.261-0.96 2.269-0.136 0.679-0.358 1.037-0.669 1.076l-0.407-0.175c-0.504-0.193-0.717-0.591-0.64-1.192l0.262-0.844-0.553 0.757c-0.31 0.445-0.475 0.679-0.494 0.697-0.252 0.214-0.697 0.35-1.338 0.407-0.601 0.078-1.027-0.494-1.279-1.716-0.175-1.299-0.311-2.025-0.407-2.181-0.136-0.214-0.465-0.358-0.989-0.437-0.426-0.077-0.902-0.087-1.425-0.029-0.369 0.039-0.659-0.203-0.873-0.727l-0.204-0.814c-0.252 0-0.563 0.194-0.931 0.582-0.233 0.252-0.437 0.388-0.611 0.407l-0.174-0.029c-0.116-0.214-0.155-0.514-0.116-0.901 0.058-0.407 0.145-0.718 0.262-0.931 0.194-0.33 0.514-0.553 0.959-0.669 0.931-0.271 1.813 0.029 2.646 0.901 0.389 0.389 0.864 0.719 1.426 0.989z" clip-rule="evenodd" fill="#94D142" fill-rule="evenodd"/>
		<g clip-rule="evenodd" fill="#7DB038" fill-rule="evenodd">
			<path d="m37.471 42.766l-0.087 0.465c-0.232 0-0.533 0.194-0.901 0.582-0.233 0.252-0.437 0.388-0.611 0.407l-0.174-0.029-0.116-0.407c0.155 0.058 0.378-0.029 0.668-0.262 0.522-0.466 0.93-0.718 1.221-0.756z"/>
			<path d="m46.486 46.778c0.445-0.426 0.707-0.669 0.784-0.727 0.291-0.233 0.495-0.33 0.611-0.291-0.232 0.097-0.466 0.311-0.698 0.64-0.349 0.484-0.601 1.153-0.756 2.007-0.136 0.679-0.358 1.037-0.669 1.076l-0.407-0.175c-0.445-0.193-0.668-0.543-0.668-1.047 0.077 0.601 0.367 0.843 0.872 0.728 0.193-0.059 0.329-0.359 0.406-0.902 0.099-0.62 0.272-1.057 0.525-1.309z"/>
			<path d="m40.408 44.598c0.35 0.193 0.514 0.407 0.495 0.64-0.136-0.214-0.465-0.358-0.989-0.437-0.426-0.077-0.902-0.087-1.425-0.029-0.194 0.02-0.378-0.058-0.553-0.232 0.155 0.02 0.368-0.01 0.64-0.087 0.31-0.078 0.582-0.116 0.814-0.116 0.368-1e-3 0.708 0.086 1.018 0.261z"/>
			<path d="m43.927 47.884c0.155-0.271 0.301-0.484 0.437-0.64 0.252-0.271 0.571-0.523 0.959-0.757-0.058 0.078-0.126 0.185-0.203 0.32-0.136 0.252-0.242 0.484-0.32 0.698l-0.378 0.523c-0.174 0.31-0.329 0.533-0.465 0.669-0.232 0.213-0.64 0.358-1.222 0.436 0.271-0.097 0.504-0.252 0.698-0.465 0.155-0.213 0.319-0.474 0.494-0.784z"/>
		</g>
		<path d="m40.844 43.929c0.078 0.058 0.271 0.232 0.582 0.523 0.194 0.193 0.368 0.311 0.523 0.349 0.058 0.02 0.311 0.02 0.756 0 0.369 0 0.64 0.059 0.814 0.175 0.136 0.077 0.291 0.203 0.466 0.378 0.174 0.155 0.329 0.271 0.465 0.349 0.136 0.098 0.339 0.146 0.61 0.146 0.271 0.02 0.437 0.039 0.495 0.059 0.17 0.075 0.33 0.226 0.479 0.451-0.077-0.111-0.207-0.214-0.393-0.306-0.175-0.098-0.533-0.146-1.076-0.146-0.154 0-0.358-0.078-0.61-0.232-0.232-0.155-0.417-0.33-0.553-0.523-0.116-0.175-0.358-0.243-0.727-0.204-0.582 0.039-0.883 0.059-0.901 0.059-0.233-0.02-0.495-0.165-0.786-0.437-0.271-0.311-0.456-0.504-0.552-0.582-0.136-0.116-0.378-0.242-0.727-0.378-0.368-0.136-0.659-0.203-0.873-0.203-0.194 0-0.388-0.116-0.582-0.35-0.019-0.019-0.155-0.203-0.407-0.552-0.194-0.271-0.563-0.379-1.105-0.32-0.427 0.155-0.591 0.185-0.495 0.087 0.155-0.193 0.369-0.31 0.64-0.349 0.232-0.02 0.456 0.02 0.668 0.116 0.388 0.155 0.679 0.417 0.873 0.785 0.117 0.155 0.223 0.262 0.32 0.32 0.078 0.02 0.242 0.048 0.494 0.087 0.546 0.096 1.079 0.33 1.602 0.698z" clip-rule="evenodd" fill="#C1FA73" fill-rule="evenodd"/>
</svg>