<?xml version="1.0" encoding="UTF-8"?>
<svg viewBox="0 0 1052.362179 744.09447" xmlns="http://www.w3.org/2000/svg">
 <path d="m551.06 47.547c-130.89 1.0504-253.59 61.544-302.41 159.03l-0.35286 0.73648c-59.471 119.92 14.115 252.62 165.19 306.73l-3.2262 203.37 52.174-1.6203-11.493-190.41c25.838 6.4944 52.058 10.448 78.136 11.98l-1.4619 178.43 47.234-3.1424-12.905-174.65c43.096-0.75927 85.239-7.9027 124.06-20.72 12.733 7.4802 26.529 13.867 41.235 18.952 9.963 3.4449 20.046 6.1437 30.145 8.1997v169.79l81.463 1.5712-21.273-166.94c13.787-0.75361 27.378-2.672 40.63-5.7447l-1.4619 169.54 83.126 1.5712-21.979-193.94c41.1-22.677 74.48-57.8 92.654-102.27 25.806-63.155 15.055-130.72-22.533-182.99 15.818-7.7061 26.88-22.503 26.062-36.628-0.9903-17.092-18.939-26.689-40.126-21.408-10.594 2.6405-19.998 8.4794-26.616 15.81-18.863-14.789-40.794-26.916-65.331-35.401-22.17-7.6659-44.8-11.811-67.247-12.766-35.992-35.667-85.356-64.403-145.28-81.309-36.947-10.423-74.862-15.521-112.16-15.761-2.0815-0.01414-4.1732-0.01665-6.2509 0z" stroke="#000" stroke-width="1.592"/>
 <path transform="matrix(1.6131 0 0 1.7731 -75.308 -576.09)" d="m213.79 436.87a183.85 125.76 0 1 1 -0.20717 0.37889" fill="#fff" fill-rule="evenodd"/>
 <path transform="matrix(1.6131 0 0 1.5712 -50.865 -440.87)" d="m437.37 463.71a110.11 112.63 0 1 1 -0.12407 0.33932" fill="#fff" fill-rule="evenodd"/>
 <path transform="matrix(1.6131 0 0 1.5712 -55.754 -466.27)" d="m617.32 429.53a17.678 13.132 0 1 1 -0.0199 0.0396" fill="#fff" fill-rule="evenodd"/>
 <path transform="matrix(1.6131 0 0 1.5712 -28.052 -472.62)" d="m279.48 601.41a73.741 22.728 0 1 1 -0.0831 0.0685" fill="#fff" fill-rule="evenodd"/>
 <path transform="matrix(1.6131 0 0 1.5712 -28.052 -472.62)" d="m489.42 411.05a23.739 11.112 0 1 1 -0.0267 0.0335" fill="#fff" fill-rule="evenodd"/>
 <path transform="matrix(1.6131 0 0 1.5712 -28.052 -472.62)" d="m413.39 589.92a35.355 25.254 0 1 1 -0.0398 0.0761" fill="#fff" fill-rule="evenodd"/>
 <path d="m421.32 518.7 23.045 6.7337 10.37 164.98-35.719 1.1223 2.3044-172.83" fill="#fff" stroke="#000" stroke-width="1.592"/>
 <path d="m536.54 537.78 19.588 1.1223 10.37 150.39-32.262 2.2446 2.3045-153.75" fill="#fff" stroke="#000" stroke-width="1.592"/>
 <path d="m770.44 544.51 32.262 3.3668h8.0656l14.979 140.28-61.068 1.1223 5.7611-144.77" fill="#fff" stroke="#000" stroke-width="1.592"/>
 <path d="m867.21 540.01 44.697-16.839 15.262 161.65-59.96 2.2452" fill="#fff" stroke="#000" stroke-width="1.5488"/>
 <path d="m108.19 150.33c-33.58 0.0467-66.757 16.723-91.141 49.836l-0.25205 0.34371c-1.2015 1.6424-2.343 3.3183-3.4783 5.0082 38.262-12.05 83.508-7.5426 126.58 12.373-81.96 70.109-103.33 186.07-47.385 260.87l0.30246 0.4419c56.811 75.372 171.06 80 255.48 10.36 58.275-48.073 87.137-119.03 80.958-183.29 38.655 8.4439 77.415 29.338 109.69 61.964 10.731 10.848 20.162 22.386 28.28 34.419-1.1913-38.121-13.353-75.449-36.698-103.99-10.862-13.281-23.28-23.543-36.497-30.835-24.136-13.314-51.069-16.623-76.926-10.115-4.7381-11.16-10.782-21.802-18.198-31.718-46.92-62.735-133.48-76.834-209.91-40.213-8e-3 -8e-3 -0.042 8e-3 -0.0503 0-9.0435-8.9594-18.728-16.241-28.835-21.8-16.62-9.143-34.333-13.674-51.922-13.65z" fill-rule="evenodd"/>
 <path transform="matrix(1.6131 0 0 1.5712 -28.052 -152.01)" d="m98.977 277.37a31.315 29.294 0 1 1 -0.03529 0.0883" fill="#fff8f8" fill-rule="evenodd"/>
 <path transform="matrix(1.6131 0 0 1.5712 102.31 6.7017)" d="m63.193 189.67a40.406 37.376 0 1 1 -0.04553 0.1126" fill="#fffcfc" fill-rule="evenodd"/>
 <path transform="matrix(1.6131 0 0 1.5712 14.314 -580.54)" d="m84.124 556.34a20.203 20.203 0 1 1 -0.02277 0.0609" fill="#030000" fill-rule="evenodd"/>
 <path transform="matrix(1.6131 0 0 1.5712 73.304 -561.5)" d="m84.124 556.34a20.203 20.203 0 1 1 -0.02277 0.0609" fill="#030000" fill-rule="evenodd"/>
 <path transform="matrix(1.6131 0 0 1.5712 -357.59 -371.61)" d="m338.15 434.17a4.6429 5 0 1 1 -5e-3 0.0151" fill="#fff8f8" fill-rule="evenodd"/>
 <path transform="matrix(1.6131 0 0 1.5712 -327.06 -364.88)" d="m338.15 434.17a4.6429 5 0 1 1 -5e-3 0.0151" fill="#fff8f8" fill-rule="evenodd"/>
 <path d="m224.29 496.26-28.806 53.869 32.262-41.524v69.581l10.37-68.459 6.9134 106.62 1.1522-125.7 20.74-7.856 28.806 53.869-10.37-49.38 26.501 16.834-17.283-23.568 49.546 31.424-46.089-44.891-73.743 29.179" fill="#63bc27"/>
 <path d="m175.89 497.38c30.001 2.3908 60.513-1.8547 88.722-12.345 27.551-10.246 52.876-26.433 73.743-47.136" fill="none" stroke="#f10808" stroke-width="7.9601"/>
 <path d="m346.13 460.48c-0.5015-7.1621-2.5863-14.209-6.0622-20.491-3.3599-6.0726-8.0148-11.425-13.563-15.594" fill="none" stroke="#f10808" stroke-width="7.9601"/>
 <path d="m175.36 483.59c-0.18717 4.7606 0.49998 9.5541 2.017 14.07 1.3575 4.0416 3.3776 7.8598 5.9552 11.256" fill="none" stroke="#f10808" stroke-width="7.9601"/>
 <path d="m262.52 718.1-35.178-54.385 39.535 41.388-24.336-62.608 31.249 50.756-21.237-101.09 30.769 91.653-0.47438-85.552 7.4619 100.52 15.479-91.484-6.8163 89.76 61.15-128.32-45.877 133.92 63.048-64.56-52.321 79.334-62.453 0.66606" fill="#63bc27"/>
</svg>
