<?xml version="1.0" encoding="UTF-8"?>
<svg width="101.99mm" height="49.578mm" version="1.1" viewBox="0 0 361.36821 175.66951" xmlns="http://www.w3.org/2000/svg">
 <defs>
  <linearGradient id="h" x1="-635.74" x2="-389.66" y1="472.5" y2="474.64" gradientTransform="matrix(.99822 -.059632 .059632 .99822 -33.661 -27.725)" gradientUnits="userSpaceOnUse">
   <stop stop-color="#502d16" offset="0"/>
   <stop stop-color="#502d16" stop-opacity="0" offset="1"/>
  </linearGradient>
  <linearGradient id="i" x1="-625.05" x2="-368.53" y1="486.47" y2="485.04" gradientTransform="matrix(.99822 -.059632 .059632 .99822 -33.661 -27.725)" gradientUnits="userSpaceOnUse">
   <stop stop-color="#502d16" offset="0"/>
   <stop stop-color="#502d16" stop-opacity="0" offset="1"/>
  </linearGradient>
  <linearGradient id="j" x1="-628.14" x2="-375.09" y1="503.43" y2="502.72" gradientTransform="matrix(.99822 -.059632 .059632 .99822 -33.661 -27.725)" gradientUnits="userSpaceOnUse">
   <stop stop-color="#502d16" offset="0"/>
   <stop stop-color="#502d16" stop-opacity="0" offset="1"/>
  </linearGradient>
  <linearGradient id="k" x1="-630.79" x2="-369.21" y1="519.51" y2="512.72" gradientUnits="userSpaceOnUse">
   <stop stop-color="#502d16" offset="0"/>
   <stop stop-color="#502d16" stop-opacity="0" offset="1"/>
  </linearGradient>
  <linearGradient id="l" x1="-613.01" x2="-351.47" y1="534.06" y2="505.13" gradientUnits="userSpaceOnUse">
   <stop stop-color="#502d16" offset="0"/>
   <stop stop-color="#502d16" stop-opacity="0" offset="1"/>
  </linearGradient>
  <linearGradient id="m" x1="-567.89" x2="-378.15" y1="547.9" y2="493.62" gradientTransform="translate(1.4286 -7.5)" gradientUnits="userSpaceOnUse">
   <stop stop-color="#502d16" offset="0"/>
   <stop stop-color="#502d16" stop-opacity="0" offset="1"/>
  </linearGradient>
  <linearGradient id="n" x1="-550.79" x2="-375.27" y1="567.9" y2="501.83" gradientTransform="translate(1.4286 -7.5)" gradientUnits="userSpaceOnUse">
   <stop stop-color="#502d16" offset="0"/>
   <stop stop-color="#502d16" stop-opacity="0" offset="1"/>
  </linearGradient>
 </defs>
 <g transform="translate(756.05 -460.52)">
  <text x="-772.00287" y="433.44626" fill="#000000" font-family="Sans" font-size="40px" letter-spacing="0px" stroke-width="1px" word-spacing="0px" style="line-height:125%">
   <tspan x="-772.00287" y="433.44626"/>
  </text>
  <path d="m-493.74 500.4c-1.4809-0.18228-2.962-0.15051-4.4421-0.0121-3.4213 0.31986-38.535 2.8766-80.611 5.9426-42.076 3.0661-90.932 6.6252-121.26 8.897-8.074 0.60486-15.077 0.88516-20.267 1.0638-2.5952 0.0893-4.7381 0.15421-6.3234 0.21971-1.5854 0.0655-2.7606 0.18374-2.8205 0.19762-18.734 4.3424-29.872 26.539-24.471 49.839 5.3954 23.277 25.152 35.731 44.09 33.965 1.977-0.18434 5.4692-1.1789 9.2798-2.375 3.8106-1.196 7.993-2.5831 11.702-3.5288 29.457-7.5108 77.731-24.84 119.09-40.554 20.679-7.8575 39.639-15.313 53.683-20.941 7.0222-2.8138 12.816-5.1714 16.979-6.8921 2.0814-0.86037 3.7554-1.5621 4.9677-2.0804 1.2124-0.51835 2.0448-0.90131 2.1311-0.94751 2.6283-1.4069 4.225-2.3232 5.2726-3.1437s1.6004-1.5242 2.3346-2.8212c0.5153-0.91039 0.91391-1.4572 1.1134-2.6638 0.19955-1.2066 0.16017-3.1382-0.60971-6.4596-0.60708-2.6191-1.4388-3.866-2.2971-4.6512-0.85832-0.7852-1.8635-1.1535-3.0678-1.7403-1.5129-0.73712-2.9947-1.1319-4.475-1.3141z" fill="#784421" stroke="#502d16" stroke-width="1.5"/>
  <ellipse transform="matrix(.99937 -.035616 .11996 .99278 0 0)" cx="-783.47" cy="534.68" rx="32.387" ry="39.812" fill="#fca" stroke="#502d16" stroke-width="1.7008"/>
  <ellipse transform="matrix(.99937 -.035616 .11996 .99278 0 0)" cx="-783.52" cy="535.25" rx="28.616" ry="35.177" fill="none" stroke="#ad7045" stroke-width=".88516"/>
  <ellipse transform="matrix(.99937 -.035616 .11996 .99278 0 0)" cx="-784.9" cy="535.95" rx="19.139" ry="23.527" fill="none" stroke="#ffb380" stroke-width="1.0018"/>
  <ellipse transform="matrix(.95944 -.28191 .28191 .95944 0 0)" cx="-849.91" cy="333.91" rx="6.6094" ry="8.9308" fill="#e9c6af" opacity=".47" stroke="#deaa87" stroke-width=".63833"/>
  <path d="m-696.59 523.97c34.693 21.743 7.3092 67.201 43.643 11.049 0.62654-0.86095-20.876 6.9867-21.737 6.3602-6.796-4.9456-3.878-8.3336-10.44-13.109-3.9254-2.8566-0.6707-6.7153-11.466-4.2994z" fill-opacity=".25763" fill-rule="evenodd"/>
  <path d="m-707.66 515c10.6 3.8108 15.702 9.7876 19.872 15.613 0.0271 0.0379-2.1202-13.454-4.1562-15.745-0.92134-1.2583-15.169 0.249-15.716 0.13223z" fill-opacity=".25763" fill-rule="evenodd"/>
  <g transform="matrix(.99822 -.059632 .059632 .99822 -33.661 -27.725)">
   <path d="m-666.35 450.06c-18.76 0.46253-33.912 19.56-33.33 43.156 0.58181 23.597 16.656 41.923 35.416 41.461-0.0734 2e-3 1.3152-0.12008 3.2051-0.34766s4.5174-0.56005 7.7715-0.98047c6.5082-0.84082 15.525-2.0377 26.211-3.4746 21.371-2.8738 49.419-6.7082 77.455-10.586 28.037-3.8777 56.063-7.7983 77.391-10.842 10.664-1.5217 19.655-2.8232 26.129-3.791 3.2372-0.4839 5.8451-0.88464 7.7129-1.1855 0.9339-0.15045 1.6839-0.27599 2.2246-0.37305 0.54075-0.0971 0.97019-0.20142 0.85742-0.16797 2.8511-0.84573 4.5706-1.4196 5.6836-1.9727 1.113-0.55308 1.692-1.0397 2.6387-2.123 0.71502-0.81824 1.1087-1.1542 1.5-2.1719 0.39129-1.0177 0.74286-2.8255 0.66015-6.1797-0.0639-2.59-0.5883-3.8066-1.1777-4.6211s-1.4083-1.3295-2.5117-2.1797c-2.534-1.9524-5.2198-2.6321-8.1113-2.9512-3.1218-0.34446-34.488-4.2961-73.568-9.2812-39.08-4.9852-85.669-10.982-118.6-15.352-13.372-1.7742-22.289-3.3111-28.152-4.3945-2.9318-0.54172-5.1039-0.9706-6.6562-1.2539-1.5524-0.2833-2.5584-0.39325-2.7441-0.38867z" fill="#784421" stroke="#502d16" stroke-width="1.5"/>
   <ellipse transform="matrix(.9998 -.020073 .030037 .99955 0 0)" cx="-679.29" cy="478.78" rx="32.002" ry="39.361" fill="#fca" stroke="#502d16" stroke-width="1.6811"/>
   <ellipse transform="matrix(.99978 -.020925 .028814 .99958 0 0)" cx="-679.13" cy="478.72" rx="26.703" ry="34.237" fill="none" stroke="#ad7045" stroke-width="1.1737"/>
   <ellipse transform="matrix(.99974 -.022967 .026253 .99966 0 0)" cx="-678.81" cy="478.28" rx="16.196" ry="22.79" fill="none" stroke="#ffb380" stroke-width="1.0296"/>
   <ellipse cx="-667.05" cy="493.46" rx="7.4822" ry="8.9108" fill="#e9c6af" opacity=".47" stroke="#deaa87" stroke-width=".67841"/>
  </g>
  <path d="m-629.69 527.35c58.724-18.901 133.3-18.866 197.19-35.29" fill="none" opacity=".47" stroke="url(#j)"/>
  <path d="m-628.42 497.64c60.434-6.9494 132.4-5.1524 194.06-11.616" fill="none" opacity=".47" stroke="url(#i)"/>
  <path d="m-640.58 473.36c60.585 2.1505 138.45 4.9506 201.37 7.2984" fill="none" opacity=".47" stroke="url(#h)"/>
  <path d="m-674.36 572.7c-2.0276 11.081-6.1267 16.724-11.192 21.789-0.0329 0.0329 14.189-3.5014 16.337-5.6493 1.6486-1.6486 0.44906-7.653 0.44906-10.244 0-0.62626 0.39853-3.53 0-3.9286-0.43461-0.43461-4.1944-2.1426-5.5933-1.968z" fill-opacity=".25763" fill-rule="evenodd"/>
  <path d="m-424.11 494.73c-1.5816-0.0103-3.1156 0.20746-4.6133 0.52539-3.3291 0.70671-40.713 8.0818-84.279 16.652-43.566 8.5705-93.269 18.325-121.1 23.764-6.0593 1.1839-11.292 1.9015-15.18 2.3848-2.4194 0.32749-4.5736 1.0197-6.9342 1.4947-18.703 6.6944-27.777 29.338-19.576 52.249 8.2014 22.913 30.054 35.946 48.744 29.256 0.23002-0.0823 1.3492-0.58388 3.0801-1.3965s4.1236-1.952 7.084-3.373c5.9207-2.8422 14.11-6.8084 23.807-11.525 19.394-9.4339 44.824-21.874 70.23-34.352 25.407-12.477 50.79-24.99 70.09-34.572 9.65-4.7909 17.779-8.8498 23.629-11.803 2.925-1.4765 5.2814-2.6758 6.9707-3.5527 0.84464-0.43845 1.5216-0.79656 2.0195-1.0664 0.49789-0.26985 0.83304-0.46576 0.91601-0.52344 2.4558-1.7071 3.9709-2.8194 5-3.8379 1.0292-1.0185 1.5914-1.9384 2.1973-3.375 0.38553-0.91415 0.80403-1.6993 0.87109-3.0977 0.0671-1.3983-0.23284-3.4307-1.4062-6.709-0.95004-2.6542-2.0419-3.9968-3.1562-4.8008-1.1143-0.80401-2.2918-1.0802-3.4883-1.5-1.6931-0.59401-3.323-0.83147-4.9043-0.8418z" fill="#784421" stroke="#502d16" stroke-width="1.5"/>
  <ellipse transform="matrix(.93647 -.35075 .36501 .931 0 0)" cx="-813.61" cy="319.41" rx="28.214" ry="39.719" fill="#fca" stroke="#502d16" stroke-width="1.5856"/>
  <ellipse transform="matrix(.9306 -.36604 .34975 .93684 0 0)" cx="-809.08" cy="305.73" rx="23.963" ry="35.107" fill="none" stroke="#ad7045" stroke-width="1.0274"/>
  <ellipse transform="matrix(.92927 -.36941 .34651 .93805 0 0)" cx="-808.44" cy="303.07" rx="17.343" ry="25.521" fill="none" stroke="#ffb380" stroke-width="1.0648"/>
  <path d="m-630.71 542.01c61.309-16.413 143.48-26.936 209.29-45" fill="none" opacity=".47" stroke="url(#k)"/>
  <path d="m-612.9 563.35c56.486-23.115 131.4-36.851 196.69-58.587" fill="none" opacity=".47" stroke="url(#l)"/>
  <ellipse transform="matrix(.9238 -.38287 .38287 .9238 0 0)" cx="-820.48" cy="291.31" rx="6.6094" ry="8.9308" fill="#e9c6af" opacity=".47" stroke="#deaa87" stroke-width=".63833"/>
  <path d="m-610.67 597.42c-2.0276 11.081-2.5682 15.113-7.6339 20.179-0.0329 0.0329 12.182-5.4414 14.42-7.3214 1.7848-1.4999 1.9643-6.5166 1.9643-9.1071 0-0.62626 0.39853-3.53 0-3.9286-0.43461-0.43461-7.3511 4e-3 -8.75 0.17856z" fill-opacity=".25763" fill-rule="evenodd"/>
  <path transform="translate(1.7857 -7.5)" d="m-407.62 510.86c-2.2073 0.0581-4.4496 0.73519-6.2695 1.3984-2.7106 0.98785-32.156 11.011-66.854 22.836-34.697 11.825-74.564 25.42-97.852 33.457-5.5007 1.8983-10.346 3.3684-13.961 4.4394-1.8074 0.53551-3.3064 0.97143-4.4219 1.3106-1.1154 0.33911-1.9015 0.61879-2.0508 0.69726-14.689 7.7225-19.624 27.759-9.4199 45.447 1.6636 2.8838 5.9721 9.0886 8.4414 11.473 10.911 10.534 23.308 14.065 35.262 8.2441 0.19005-0.0925 1.1827-0.75916 2.5859-1.7734s3.3006-2.4109 5.6191-4.0977c4.637-3.3734 10.959-7.9113 18.406-12.918 22.664-15.237 55.751-37.416 83.477-56.068 13.863-9.3261 26.384-17.77 35.592-24.023 4.604-3.1268 8.3795-5.7075 11.078-7.5742 1.3493-0.93334 2.4311-1.6871 3.209-2.2422 0.77788-0.55506 1.2982-0.95655 1.3535-1.0078 1.8635-1.7282 3.1483-2.7892 4.0059-3.6894s1.2974-1.6024 1.6172-2.8106c0.23139-0.87405 0.58529-1.5927 0.58789-2.7578 3e-3 -1.1651-0.34892-2.8123-1.6973-5.377-2.1735-4.1341-4.4689-4.3795-6.5293-4.791-0.71079-0.14195-1.4439-0.19124-2.1797-0.17187z" fill="#784421" stroke="#502d16" stroke-width="1.5"/>
  <ellipse transform="matrix(.89885 -.43826 .49316 .86994 0 0)" cx="-804.31" cy="286.59" rx="24.706" ry="33.954" fill="#fca" stroke="#502d16" stroke-width="1.6278"/>
  <ellipse transform="matrix(.89885 -.43826 .49316 .86994 0 0)" cx="-804.52" cy="286.2" rx="20.515" ry="28.195" fill="none" stroke="#ad7045" stroke-width="1.0468"/>
  <ellipse transform="matrix(.89885 -.43826 .49316 .86994 0 0)" cx="-804.95" cy="286.2" rx="14.37" ry="19.749" fill="none" stroke="#ffb380" stroke-width="1.0468"/>
  <path d="m-549.22 604.87c59.067-33.327 100.51-65.243 148.79-88.957" fill="none" opacity=".47" stroke="url(#n)"/>
  <path d="m-566.37 573.09c72.35-30.031 109.83-45.665 159.51-65.386" fill="none" opacity=".47" stroke="url(#m)"/>
  <ellipse transform="matrix(.85876 -.51238 .50389 .86377 0 0)" cx="-806.77" cy="218.58" rx="5.4903" ry="7.4921" fill="#e9c6af" opacity=".47" stroke="#deaa87" stroke-width=".53286"/>
 </g>
</svg>
