<?xml version="1.0" encoding="UTF-8"?>
<svg width="144.52635" height="105.78428" viewBox="0 0 144.52635 105.78428" xmlns="http://www.w3.org/2000/svg">
 <defs>
  <filter id="k">
   <feGaussianBlur stdDeviation="8.47687"/>
  </filter>
  <filter id="j">
   <feGaussianBlur stdDeviation="7.64068"/>
  </filter>
  <filter id="i">
   <feGaussianBlur stdDeviation="1.25786"/>
  </filter>
  <filter id="h">
   <feGaussianBlur stdDeviation=".93643"/>
  </filter>
  <filter id="g">
   <feGaussianBlur stdDeviation="1.03643"/>
  </filter>
  <filter id="f">
   <feGaussianBlur stdDeviation=".57563"/>
  </filter>
  <filter id="e">
   <feGaussianBlur stdDeviation="6.62867"/>
  </filter>
  <filter id="d">
   <feGaussianBlur stdDeviation="4.67875"/>
  </filter>
  <filter id="b" x="-.03571" y="-.1875" width="1.0714" height="1.375">
   <feGaussianBlur stdDeviation="19.64286"/>
  </filter>
  <linearGradient id="a" x1="448.28" x2="441.69" y1="220.82" y2="335.41" gradientUnits="userSpaceOnUse">
   <stop stop-color="#520" offset="0"/>
   <stop stop-color="#520" stop-opacity="0" offset="1"/>
  </linearGradient>
  <linearGradient id="c" x1="141.93" x2="650.77" y1="797.01" y2="845.02" gradientUnits="userSpaceOnUse">
   <stop stop-color="#fff" offset="0"/>
   <stop stop-color="#fff" stop-opacity="0" offset="1"/>
  </linearGradient>
 </defs>
 <g transform="matrix(.11246 0 0 .11246 22.565 -7.9833)">
  <path d="m367.15 942.28c-1.697-117.48-17.929-380-16.407-452.23 0.70562-33.494 35.162-78.933 96.989-86.069 62.005 5.7596 91.438 31.282 103.43 90.488 3.7594 18.565-5.6103 256.23-9.7448 449.31l-174.26-1.5z" fill-rule="evenodd" stroke="#000" stroke-width="1.0246"/>
  <path transform="matrix(.29894 0 0 .33871 301.99 572.65)" d="m1188.6 978.08c0 69.43-295.49 125.71-660 125.71s-660-56.284-660-125.71 295.49-125.71 660-125.71 660 56.284 660 125.71z" fill="#520" filter="url(#b)"/>
  <path transform="matrix(.74892 0 0 .79713 35.572 94.198)" d="m1188.6 978.08c0 69.43-295.49 125.71-660 125.71s-660-56.284-660-125.71 295.49-125.71 660-125.71 660 56.284 660 125.71z" filter="url(#b)"/>
  <path d="m462.67 316.81-430.34 96.969-2.0312 434.38c92.77 84.393 207.56 83.563 321.25 86.875h15.5c-2.2154-120.66-17.773-374.17-16.281-444.97 0.70564-33.494 35.142-78.926 96.969-86.062 62.005 5.7596 91.448 31.263 103.44 90.469 3.7033 18.288-5.3398 249.1-9.5625 440.56h16c111.19-14.016 230.91-14.206 301.03-94.969l-8.0938-428.28-387.87-94.969z" fill="#a78851" fill-rule="evenodd"/>
  <path d="m367.15 942.28c-1.697-117.48-17.929-380-16.407-452.23 0.70562-33.494 35.162-78.933 96.989-86.069 62.005 5.7596 91.438 31.282 103.43 90.488 3.7594 18.565-5.6103 256.23-9.7448 449.31l-174.26-1.5z" fill-rule="evenodd" stroke="#000" stroke-width="1.0246"/>
  <path d="m30.305 848.15 2.0203-434.37 430.32-96.975 387.9 94.954 8.0812 428.3c-70.12 80.762-189.83 80.938-301.03 94.954h-206.07c-113.69-3.3116-228.46-2.48-321.23-86.873z" fill="none" stroke="#000" stroke-linecap="round" stroke-linejoin="round" stroke-width="10"/>
  <path transform="matrix(.58908 -.59357 .55759 .64767 -317.37 579.26)" d="m658.44 866.54c-26.97 26.096-153.03 157.02-153.36 154.3-13.385-112.91-163.77-151.93-164.22-153.84-7.1937-30.599 75.992-92.004 131.98-92.004s299.95-19.105 185.6 91.543z" fill="url(#c)"/>
  <path d="m97.143 632.36-5.7143 71.429-34.286 20v37.143l-17.143-2.8571 2.8571 45.714 74.286-5.7143-11.429 54.286h74.286l-2.8571 48.571" fill="none" filter="url(#g)" stroke="#000" stroke-linecap="round" stroke-linejoin="round" stroke-width="3"/>
  <path d="m525.25 214.41-17.75 167.53c50.812 28.561 100.94 62.929 154.25 70.281 55.683 69.245 65.773 146.62 85.875 222.22 66.297 4.9578 131.86 6.4555 182.31-65.156 3.2406 24.881 5.1636 50.155 35.875 67.188 52.635 7.6217 81.106-33.078 97.469-98-78.887-194.43-219.84-235.11-538.03-364.06z" fill-rule="evenodd" filter="url(#j)"/>
  <path d="m408.57 200.18c-12.259 8.8275-24.756 17.555-37.344 26.219-228.39 59.825-486.97 202.45-551.53 318.19 16.374 32.798 9.8723 74.02 67.156 67.188-12.348 53.565 23.702 82.493 39.406 115.66 56.022 11.508 58.778-54.739 81.812-88.906 24.299 25.387 28.898 57.444 34.344 103.03 50.195-15.369 64.455-87.236 83.844-127.25 40.425 7.5566 41.451 56.295 54.562 92.406 47.444-46.163 90.674-96.531 120.72-160.09 26.859-82.213 65.024-105.68 107.03-117.53v-228.91z" fill-rule="evenodd" filter="url(#k)"/>
  <path d="m95.143 632.36-5.7143 71.429-34.286 20v37.143l-17.143-2.8571 2.8571 45.714 74.286-5.7143-11.429 54.286h74.286l-2.8571 48.571" fill="none" stroke="#520" stroke-linecap="round" stroke-linejoin="round" stroke-width="3"/>
  <path d="m447.44 381.78c-67.17 7.3834-104.61 54.41-105.38 89.062-1.6532 74.728 15.969 346.33 17.812 467.88l7.2188 0.0625c-1.844-112.42-16.114-348.65-16.438-434.94-0.0655-6.8153-0.0484-12.893 0.0625-17.906 0.70572-31.9 35.197-75.172 97.031-81.969 62.012 5.4855 91.447 29.799 103.44 86.188 0.67093 3.1552 0.9049 13.046 0.84375 28.062-3e-3 0.76206 5e-3 1.43 0 2.2188-3.7e-4 0.4356 9.1e-4 0.89866 0 1.3438-0.14413 70.402-7.0729 258.9-10.531 418.41l7.6875 0.0625c4.4918-199.76 14.678-445.64 10.594-464.84-13.025-61.254-44.98-87.666-112.34-93.625z" fill="none" stroke="#000" stroke-linecap="round" stroke-linejoin="round" stroke-width="5"/>
  <path d="m447.44 381.78c-67.17 7.3834-104.61 54.41-105.38 89.062-1.6532 74.728 15.969 346.33 17.812 467.88l7.2188 0.0625c-1.844-112.42-16.114-348.65-16.438-434.94-0.0655-6.8153-0.0484-12.893 0.0625-17.906 0.70572-31.9 35.197-75.172 97.031-81.969 62.012 5.4855 91.447 29.799 103.44 86.188 0.67093 3.1552 0.9049 13.046 0.84375 28.062-3e-3 0.76206 5e-3 1.43 0 2.2188-3.7e-4 0.4356 9.1e-4 0.89866 0 1.3438-0.14413 70.402-7.0729 258.9-10.531 418.41l7.6875 0.0625c4.4918-199.76 14.678-445.64 10.594-464.84-13.025-61.254-44.98-87.666-112.34-93.625z" fill="#9a8663" fill-rule="evenodd"/>
  <path d="m301.53 515.47c48.396-148.14 133.53-105.46 211.63-147.99 52.304 29.006 103.77 65.169 158.59 72.731 55.683 69.245 65.761 146.63 85.863 222.23 66.297 4.9578 131.88 6.4569 182.33-65.155 3.2407 24.881 5.149 50.143 35.86 67.175 52.635 7.6217 81.117-33.063 97.48-97.985-79.633-196.27-222.4-235.81-547-367.7-25.525-24.651-31.78-40.371-29.8-52.275l36.871-27.527c-17.823-9.997-23.776-23.951-34.345-36.365-11.937 8.1144-19.158 18.251-38.638 20.708-7.2272 6.4818 3.3194 16.499 3.283 22.981-28.318 24.227-60.124 46.71-92.429 68.943-228.39 59.825-486.98 202.46-551.54 318.2 16.374 32.798 9.8913 74.008 67.175 67.175-12.348 53.565 23.691 82.5 39.396 115.66 56.022 11.508 58.788-54.726 81.822-88.893 24.298 25.387 28.899 57.449 34.345 103.04 50.195-15.369 64.454-87.265 83.843-127.28 40.425 7.5566 41.437 56.318 54.548 92.429 47.444-46.163 90.668-96.546 120.71-160.11z" fill="none" stroke="#000" stroke-linecap="round" stroke-linejoin="round" stroke-width="10"/>
  <path d="m301.53 515.47c48.396-148.14 133.53-105.46 211.63-147.99 52.304 29.006 103.77 65.169 158.59 72.731 55.683 69.245 65.761 146.63 85.863 222.23 66.297 4.9578 131.88 6.4569 182.33-65.155 3.2407 24.881 5.149 50.143 35.86 67.175 52.635 7.6217 81.117-33.063 97.48-97.985-79.633-196.27-222.4-235.81-547-367.7-25.525-24.651-31.78-40.371-29.8-52.275l36.871-27.527c-17.823-9.997-23.776-23.951-34.345-36.365-11.937 8.1144-19.158 18.251-38.638 20.708-7.2272 6.4818 3.3194 16.499 3.283 22.981-28.318 24.227-60.124 46.71-92.429 68.943-228.39 59.825-486.98 202.46-551.54 318.2 16.374 32.798 9.8913 74.008 67.175 67.175-12.348 53.565 23.691 82.5 39.396 115.66 56.022 11.508 58.788-54.726 81.822-88.893 24.298 25.387 28.899 57.449 34.345 103.04 50.195-15.369 64.454-87.265 83.843-127.28 40.425 7.5566 41.437 56.318 54.548 92.429 47.444-46.163 90.668-96.546 120.71-160.11z" fill="#866c51" fill-rule="evenodd"/>
  <path transform="matrix(.53461 -.61249 .90543 .82764 -366.97 474.36)" d="m820 309.51c0 25.247-141.35 45.714-315.71 45.714s-315.71-20.467-315.71-45.714 141.35-45.714 315.71-45.714 315.71 20.467 315.71 45.714z" fill="url(#a)"/>
  <path d="m580.86 540.93v77.143l94.286-2.8571-8.5714 51.429 45.714-5.7143-5.7143 80-80 11.429 5.7143 65.714 57.143 2.8571 5.7143 51.429-62.857 34.286-51.429-5.7143" fill="none" filter="url(#i)" stroke="#000" stroke-linecap="round" stroke-linejoin="round" stroke-width="3"/>
  <path d="m582.86 540.93v77.143l94.286-2.8571-8.5714 51.429 45.714-5.7143-5.7143 80-80 11.429 5.7143 65.714 57.143 2.8571 5.7143 51.429-62.857 34.286-51.429-5.7143" fill="none" stroke="#520" stroke-linecap="round" stroke-linejoin="round" stroke-width="3"/>
  <path d="m339.14 560.93-45.714 11.429 5.7143 48.571-45.714 8.5714-8.5714 34.286 74.286-2.8571-5.7143 34.286 20 5.7143v45.714l-154.29-11.429 8.5714 34.286" fill="none" filter="url(#h)" stroke="#000" stroke-linecap="round" stroke-linejoin="round" stroke-width="3"/>
  <path d="m337.14 560.93-45.714 11.429 5.7143 48.571-45.714 8.5714-8.5714 34.286 74.286-2.8571-5.7143 34.286 20 5.7143v45.714l-154.29-11.429 8.5714 34.286" fill="none" stroke="#520" stroke-linecap="round" stroke-linejoin="round" stroke-width="3"/>
  <path d="m852.59 727.09-66.67 6.0609 6.0609 28.284h40.406l-8.0812 30.305-70.711 8.0812 12.122 16.162 4.0406 32.325 52.528-16.162 2.0203 20.203 22.223-16.162" fill="none" filter="url(#f)" stroke="#000" stroke-linecap="round" stroke-linejoin="round" stroke-width="3"/>
  <path d="m854.59 727.09-66.67 6.0609 6.0609 28.284h40.406l-8.0812 30.305-70.711 8.0812 12.122 16.162 4.0406 32.325 52.528-16.162 2.0203 20.203 22.223-16.162" fill="none" stroke="#520" stroke-linecap="round" stroke-linejoin="round" stroke-width="3"/>
  <path d="m506.59 83.946-7.25 5.4062c-1.4963 8.9922 1.7159 20.198 14.375 35.75l19.656-14.688c-13.199-7.4032-19.906-16.958-26.781-26.469zm9.4375 226.38c-78.095 42.529-163.23-0.1376-211.62 148-30.045 63.563-73.275 113.96-120.72 160.12-13.112-36.111-14.138-84.881-54.563-92.438-19.389 40.014-33.648 111.91-83.844 127.28-5.4457-45.587-10.045-77.644-34.344-103.03-23.035 34.167-25.79 100.38-81.813 88.875-15.705-33.163-51.754-62.092-39.406-115.66-41.26 4.9216-49.41-15.106-56.875-38.937-4.9903 6.8545-9.4214 13.648-13.156 20.344 16.374 32.798 9.9036 73.989 67.187 67.156-12.348 53.565 23.67 82.493 39.375 115.66 56.022 11.508 58.809-54.708 81.844-88.875 24.298 25.388 28.898 57.444 34.344 103.03 50.195-15.368 64.455-87.268 83.844-127.28 40.425 7.5565 41.42 56.326 54.531 92.438 47.444-46.163 90.674-96.562 120.72-160.12 48.396-148.14 133.53-105.44 211.62-147.97 52.304 29.006 103.77 65.157 158.59 72.719 55.683 69.245 65.773 146.65 85.875 222.25 66.297 4.9578 131.86 6.4554 182.31-65.156 3.2406 24.881 5.1636 50.124 35.875 67.156 52.635 7.6217 81.106-33.047 97.469-97.969-2.2871-5.637-4.6372-11.147-7.0313-16.531-17.308 45.748-44.276 72.21-87.594 65.938-30.711-17.032-32.603-42.306-35.844-67.188-50.455 71.612-116.05 70.114-182.34 65.156-20.102-75.599-30.161-152.97-85.844-222.22-54.827-7.5618-106.29-43.744-158.59-72.75z" fill="#520" fill-rule="evenodd" filter="url(#d)"/>
  <path d="m496.73 86.897c-11.42 7.763-18.316 17.471-36.953 19.822-6.9143 6.2012 3.174 15.773 3.1392 21.974-27.093 23.178-57.53 44.682-88.436 65.953-218.5 57.235-465.89 193.71-527.66 304.44 1.3816 2.7674 2.5791 5.5754 3.6774 8.431 86.308-103.67 307.36-220.13 504.85-271.86 39.533-8.0943 120.43-7.7508 148.35 3.3784 310.54 126.17 447.14 164 523.32 351.77-1.8633 7.3929-3.8878 14.44-6.099 21.137 10.78-15.975 18.943-37.17 25.233-62.126-76.186-187.77-212.78-225.63-523.32-351.8-24.421-23.584-30.387-38.6-28.492-49.988l35.249-26.339c-17.052-9.5642-22.745-22.923-32.857-34.8zm-185.06 402.93c-6.584 10.962-12.793 23.888-18.506 39.255 5.1701-9.0609 10.082-18.41 14.65-28.073 1.2665-3.8768 2.5385-7.5726 3.8567-11.182zm-190.68 116.96c-5.7317 11.829-10.968 26.578-16.922 41.737 7.6101-12.797 13.713-27.213 19.224-41.258-0.75081-0.17776-1.5209-0.33237-2.3021-0.47836zm-113.07 23.17c-4.9059 7.2768-8.8268 16.105-12.587 25.263 4.9772-7.3482 8.9386-16.109 12.676-25.144-0.03416-0.0359-0.05543-0.0838-0.08969-0.11959z" fill="#520" fill-rule="evenodd" filter="url(#e)"/>
  <path transform="matrix(.64945 -.4725 .65795 1.0491 -422.58 298.08)" d="m820 309.51c0 25.247-141.35 45.714-315.71 45.714s-315.71-20.467-315.71-45.714 141.35-45.714 315.71-45.714 315.71 20.467 315.71 45.714z" fill="url(#a)"/>
  <path transform="matrix(-.54586 -.51462 -.76314 .83709 1295.8 412.08)" d="m820 309.51c0 25.247-141.35 45.714-315.71 45.714s-315.71-20.467-315.71-45.714 141.35-45.714 315.71-45.714 315.71 20.467 315.71 45.714z" fill="url(#a)"/>
  <path transform="matrix(-.46457 -.58904 -.87756 .71624 1201.6 484.16)" d="m820 309.51c0 25.247-141.35 45.714-315.71 45.714s-315.71-20.467-315.71-45.714 141.35-45.714 315.71-45.714 315.71 20.467 315.71 45.714z" fill="url(#a)"/>
  <path d="m367.03 935.03c0.0448 2.4383 0.0914 4.923 0.125 7.25l174.25 1.5c0.0617-2.8805 0.12355-5.8505 0.1875-8.75h-174.56z" fill-rule="evenodd" stroke="#000" stroke-width="1.0246"/>
 </g>
</svg>
